<svg width="288" height="54" viewBox="0 0 288 54" fill="none" xmlns="http://www.w3.org/2000/svg">
<g clip-path="url(#clip0_0_477)">
<path fill-rule="evenodd" clip-rule="evenodd" d="M68.2777 15.761H83.5502V20.6802H74.5592V24.0631H82.9813V28.984H74.5592V35.3595H68.2777V15.761ZM93.5952 25.3486H96.4925C97.1793 25.3486 97.7055 25.1396 98.0779 24.7215C98.4469 24.3017 98.6314 23.7182 98.6314 22.9743C98.6314 22.2462 98.4469 21.6836 98.0779 21.2812C97.7072 20.8805 97.1793 20.6802 96.4925 20.6802H93.5952V25.3486ZM98.2248 35.3578L95.9527 30.2713H93.5952V35.3578H87.3137V15.761H96.4925C99.0738 15.761 101.071 16.3707 102.477 17.59C103.884 18.8129 104.59 20.5409 104.59 22.7775C104.59 24.1937 104.332 25.4287 103.818 26.4809C103.321 27.5146 102.546 28.3828 101.583 28.984L105.321 35.3595H98.2265L98.2248 35.3578ZM108.656 15.761H124.714V20.6802H114.939V23.0841H123.821V28.0051H114.937V30.4368H124.957V35.3578H108.656V15.761ZM129.19 15.761H145.247V20.6802H135.472V23.0841H144.353V28.0051H135.472V30.4368H145.491V35.3578H129.19V15.761ZM148.006 15.761H165.092V20.8771H159.677V35.3578H153.394V20.8771H148.006V15.761ZM175.534 21.3648C174.91 21.7846 174.413 22.3577 174.044 23.0858C173.666 23.8476 173.475 24.6918 173.489 25.5454C173.489 26.4582 173.673 27.2839 174.044 28.019C174.413 28.7558 174.91 29.3376 175.534 29.7662C176.156 30.1947 176.829 30.4107 177.55 30.4107C178.272 30.4107 178.932 30.2016 179.526 29.7801C180.141 29.3376 180.628 28.734 180.935 28.0329C181.277 27.2891 181.448 26.4582 181.448 25.5454C181.448 24.6327 181.277 23.807 180.935 23.0719C180.628 22.3789 180.14 21.7845 179.526 21.3526C178.944 20.947 178.254 20.7324 177.55 20.7377C176.829 20.7377 176.156 20.9467 175.534 21.3648ZM182.83 16.6546C184.378 17.4909 185.667 18.7496 186.554 20.29C187.448 21.8369 187.894 23.5788 187.894 25.5158C187.894 27.4738 187.448 29.2349 186.554 30.8009C185.672 32.3549 184.382 33.6277 182.83 34.4763C181.241 35.363 179.454 35.8054 177.469 35.8054C175.482 35.8054 173.696 35.363 172.107 34.4781C170.555 33.6293 169.266 32.3566 168.384 30.8026C167.491 29.2349 167.043 27.4755 167.043 25.5176C167.043 23.5596 167.491 21.809 168.384 20.2622C169.269 18.7235 170.559 17.4688 172.109 16.6407C173.697 15.7749 175.482 15.3412 177.469 15.3412C179.454 15.3412 181.241 15.7784 182.83 16.6546ZM198.248 29.5153C198.789 30.1111 199.44 30.4107 200.199 30.4107C200.938 30.4107 201.552 30.1145 202.04 29.5293C202.527 28.9422 202.77 28.174 202.77 27.2229V15.761H209.053V27.2229C209.053 28.937 208.687 30.442 207.956 31.738C207.232 33.0266 206.154 34.0711 204.856 34.7429C203.52 35.4501 201.958 35.8054 200.171 35.8054C198.384 35.8054 196.809 35.4501 195.446 34.7429C194.126 34.0763 193.025 33.0322 192.277 31.738C191.529 30.442 191.155 28.937 191.155 27.2229V15.761H197.436V27.2229C197.436 28.1549 197.706 28.9196 198.248 29.5153ZM219.727 25.3486H222.624C223.311 25.3486 223.837 25.1396 224.208 24.7215C224.578 24.3017 224.763 23.7182 224.763 22.9743C224.763 22.2462 224.578 21.6836 224.208 21.2812C223.839 20.8805 223.311 20.6802 222.624 20.6802H219.727V25.3486ZM224.356 35.3578L222.084 30.2713H219.727V35.3578H213.445V15.761H222.624C225.205 15.761 227.201 16.3707 228.608 17.59C230.016 18.8129 230.72 20.5409 230.72 22.7775C230.72 24.1937 230.463 25.4287 229.949 26.4809C229.452 27.5146 228.677 28.3828 227.715 28.984L231.453 35.3595H224.358L224.356 35.3578ZM237.924 31.7938C238.313 32.1944 238.508 32.7135 238.508 33.3493C238.508 33.9973 238.313 34.5216 237.924 34.924C237.534 35.3247 237.025 35.5267 236.398 35.5267C235.783 35.5267 235.281 35.3264 234.891 34.924C234.504 34.5234 234.309 33.9973 234.309 33.3493C234.309 32.7135 234.504 32.1962 234.891 31.7938C235.281 31.3931 235.783 31.1911 236.398 31.1911C237.025 31.1911 237.534 31.3931 237.924 31.7938ZM246.605 27.4703C246.392 27.4653 246.182 27.516 245.993 27.6175C245.805 27.7191 245.645 27.8681 245.529 28.0503C245.264 28.4388 245.131 28.9562 245.131 29.6042C245.131 30.2678 245.264 30.7922 245.531 31.1806C245.647 31.3633 245.806 31.5128 245.995 31.6146C246.183 31.7165 246.394 31.7674 246.607 31.7624C247.291 31.7624 247.747 31.3461 247.979 30.5134L251.707 32.2902C251.318 33.296 250.607 34.1387 249.691 34.6819C248.755 35.2445 247.644 35.5267 246.359 35.5267C245.186 35.5267 244.156 35.2829 243.267 34.7969C242.398 34.33 241.682 33.6136 241.207 32.7362C240.724 31.8478 240.481 30.8113 240.481 29.6268C240.481 28.4266 240.724 27.3727 241.207 26.4634C241.678 25.5685 242.398 24.8361 243.278 24.3592C244.171 23.8662 245.213 23.6189 246.4 23.6189C247.617 23.6189 248.69 23.9115 249.617 24.4968C250.547 25.0821 251.242 25.9025 251.707 26.9616L248.041 28.5677C247.74 27.8361 247.261 27.4703 246.605 27.4703ZM258.355 27.9981C258.048 28.4074 257.894 28.9492 257.894 29.6268C257.894 30.3027 258.048 30.8462 258.355 31.2538C258.663 31.6631 259.068 31.8687 259.573 31.8687C259.81 31.8748 260.045 31.822 260.258 31.7149C260.47 31.6078 260.654 31.4495 260.793 31.2538C261.101 30.8462 261.254 30.3027 261.254 29.6268C261.254 28.9492 261.101 28.4074 260.793 27.9981C260.654 27.8027 260.47 27.6448 260.258 27.5379C260.045 27.4311 259.81 27.3786 259.573 27.3849C259.337 27.3789 259.102 27.4315 258.89 27.5383C258.678 27.6452 258.495 27.8029 258.355 27.9981ZM262.913 24.3487C263.87 24.8365 264.606 25.5263 265.126 26.4216C265.645 27.317 265.905 28.3639 265.905 29.5623C265.905 30.7608 265.645 31.8094 265.126 32.7031C264.603 33.6023 263.834 34.3263 262.913 34.7864C261.957 35.2811 260.844 35.5267 259.573 35.5267C258.304 35.5267 257.19 35.2811 256.235 34.7864C255.314 34.3268 254.544 33.6027 254.021 32.7031C253.504 31.8077 253.244 30.7608 253.244 29.5623C253.244 28.3639 253.504 27.317 254.021 26.4216C254.541 25.5263 255.279 24.8365 256.235 24.3487C257.192 23.8627 258.302 23.6189 259.573 23.6189C260.844 23.6189 261.957 23.8627 262.913 24.3505" fill="#52433F"/>
<mask id="mask0_0_477" style="mask-type:luminance" maskUnits="userSpaceOnUse" x="268" y="23" width="20" height="13">
<path d="M268.534 23.5771H287.73V35.3579H268.534V23.5771Z" fill="white"/>
</mask>
<g mask="url(#mask0_0_477)">
<path fill-rule="evenodd" clip-rule="evenodd" d="M285.824 24.1257C286.425 24.4933 286.893 25.0089 287.228 25.6708C287.563 26.3328 287.73 27.1027 287.73 27.9772V35.3577H283.119V29.3516C283.119 28.8725 283.003 28.4876 282.773 28.1984C282.662 28.058 282.522 27.9456 282.362 27.8703C282.202 27.795 282.026 27.7589 281.85 27.7646C281.652 27.7594 281.455 27.8029 281.277 27.8914C281.098 27.9799 280.943 28.1109 280.825 28.2733C280.565 28.6112 280.436 29.0624 280.436 29.6268V35.3577H275.827V29.3516C275.827 28.8725 275.71 28.4876 275.478 28.1984C275.368 28.058 275.227 27.9456 275.067 27.8703C274.907 27.795 274.732 27.7589 274.556 27.7646C274.357 27.7597 274.161 27.8033 273.983 27.8918C273.805 27.9803 273.65 28.1111 273.532 28.2733C273.273 28.6112 273.143 29.0624 273.143 29.6268V35.3577H268.534V23.7896H273.143V25.4165C273.5 24.8487 273.989 24.38 274.567 24.0526C275.156 23.73 275.815 23.5663 276.483 23.577C277.328 23.577 278.071 23.7965 278.705 24.232C279.341 24.6692 279.809 25.2772 280.108 26.0523C280.477 25.2615 280.972 24.6518 281.594 24.2233C282.216 23.793 282.943 23.577 283.775 23.577C284.541 23.577 285.222 23.7599 285.825 24.1275" fill="#52433F"/>
</g>
<mask id="mask1_0_477" style="mask-type:luminance" maskUnits="userSpaceOnUse" x="0" y="0" width="53" height="54">
<path d="M0.779755 0.327515H52.6277V53.8589H0.779755V0.327515Z" fill="white"/>
</mask>
<g mask="url(#mask1_0_477)">
<path fill-rule="evenodd" clip-rule="evenodd" d="M0.779755 27.0941C0.779755 12.312 12.3862 0.327515 26.7037 0.327515C41.023 0.327515 52.6294 12.312 52.6294 27.0941C52.6294 41.8762 41.023 53.8589 26.7037 53.8589C12.3879 53.8589 0.779755 41.8744 0.779755 27.0941Z" fill="#FFF5EA"/>
</g>
<mask id="mask2_0_477" style="mask-type:luminance" maskUnits="userSpaceOnUse" x="1" y="0" width="52" height="52">
<path d="M1.14533 0.15332H52.8053V51.5317H1.14533V0.15332Z" fill="white"/>
</mask>
<g mask="url(#mask2_0_477)">
<path fill-rule="evenodd" clip-rule="evenodd" d="M26.8337 0.153231C13.7957 0.153231 3.00242 10.0736 1.14717 23.0022L7.17246 18.9731C7.27696 18.902 7.37174 18.817 7.45434 18.7205L28.5813 4.57775C28.7357 4.47408 28.9087 4.40276 29.0903 4.36792C29.272 4.33308 29.4586 4.33542 29.6394 4.37481C29.8201 4.41421 29.9914 4.48986 30.1432 4.59736C30.295 4.70487 30.4243 4.84209 30.5237 5.00104L35.7597 13.2961C35.9633 13.6189 36.0344 14.0102 35.9577 14.3859C35.881 14.7616 35.6627 15.0915 35.3497 15.3046L20.6085 25.1639L19.5886 23.5823C19.5748 23.5591 19.5543 23.5408 19.5299 23.5299C19.5055 23.519 19.4784 23.5161 19.4523 23.5214C19.4262 23.5267 19.4024 23.5401 19.384 23.5597C19.3656 23.5793 19.3535 23.6042 19.3495 23.631L18.2476 29.3307C18.2284 29.4256 18.247 29.5244 18.2992 29.6054C18.3514 29.6864 18.433 29.743 18.526 29.7627L24.0474 30.9019C24.1618 30.9245 24.2473 30.7939 24.184 30.6928L23.3931 29.47L31.1455 24.455C31.2297 24.3988 31.3197 24.3521 31.4137 24.3156L30.4126 22.7113L40.2304 24.9044L38.1053 35.039L37.1537 33.5148C37.0945 33.5726 37.0305 33.6251 36.9624 33.6716L29.1604 38.7179L37.2579 51.5316C46.4112 47.3858 52.8072 37.948 52.8072 26.9668C52.8055 12.1587 41.1768 0.151489 26.8337 0.151489" fill="#52433F"/>
</g>
</g>
<defs>
<clipPath id="clip0_0_477">
<rect width="287" height="54" fill="white" transform="translate(0.779785)"/>
</clipPath>
</defs>
</svg>
