<svg width="48" height="72" viewBox="0 0 48 72" fill="none" xmlns="http://www.w3.org/2000/svg">
<g clip-path="url(#clip0_0_422)">
<path d="M4.66388 57.3258V58.2419H3.3361V61.6761H2.32495V54.1125H4.83221V55.0292H3.3361V57.3258H4.66388Z" fill="#52433F"/>
<path d="M7.4236 61.6766C6.60884 61.6766 6.20117 61.2483 6.20117 60.3918V55.4088C6.20117 54.5448 6.6054 54.113 7.41272 54.113H8.38207C9.18996 54.113 9.59362 54.5453 9.59362 55.4088V60.3918C9.59362 61.2489 9.18652 61.6766 8.37119 61.6766H7.4236ZM7.66579 60.7605H8.18225C8.44906 60.7605 8.58247 60.6128 8.58247 60.3179V55.4717C8.58247 55.1769 8.43131 55.0291 8.12957 55.0291H7.65549C7.36062 55.0291 7.21289 55.1763 7.21289 55.4717V60.3179C7.21289 60.6128 7.36405 60.7605 7.66579 60.7605Z" fill="#52433F"/>
<path d="M14.5137 54.1125V60.2441C14.5137 61.1992 14.1066 61.6767 13.2912 61.6767H12.4381C11.6302 61.6767 11.2266 61.1957 11.2266 60.2333V54.1125H12.2383V60.2653C12.2383 60.5957 12.3854 60.7606 12.6809 60.7606H13.092C13.3657 60.7606 13.5031 60.5951 13.5031 60.2653V54.1125H14.5137Z" fill="#52433F"/>
<path d="M18.2955 57.7684V54.1125H19.3066V61.6767H18.2955V60.1703L17.2105 56.7252V61.6761H16.1987V54.1125H17.2105L18.2955 57.7684Z" fill="#52433F"/>
<path d="M20.9923 61.6767V54.1125H22.7518C23.7 54.1125 24.1741 54.5975 24.1741 55.5663V60.5808C24.1741 61.3114 23.7698 61.6761 22.9625 61.6761L20.9923 61.6767ZM22.004 60.7606H22.7627C23.0295 60.7606 23.1629 60.6478 23.1629 60.4234V55.5772C23.1629 55.2124 23.0117 55.0292 22.7094 55.0292H22.004V60.7606Z" fill="#52433F"/>
<path d="M26.7654 61.6767H25.7543V55.4083C25.7543 54.5443 26.1579 54.1125 26.9658 54.1125H27.7239C28.5318 54.1125 28.9354 54.5448 28.9354 55.4083V61.6761H27.9243V58.9055H26.7654V61.6767ZM27.9243 57.9894V55.4718C27.9243 55.1769 27.7771 55.0292 27.4817 55.0292H27.2074C26.9126 55.0292 26.7648 55.1764 26.7648 55.4718V57.9894H27.9243Z" fill="#52433F"/>
<path d="M32.1802 55.0292V61.6767H31.1691V55.0292H30.1997V54.1125H33.1496V55.0292H32.1802Z" fill="#52433F"/>
<path d="M34.4664 61.6767V54.1125H35.4776V61.6767H34.4664Z" fill="#52433F"/>
<path d="M38.3324 61.6766C37.5177 61.6766 37.11 61.2483 37.11 60.3918V55.4088C37.11 54.5448 37.5142 54.113 38.3215 54.113H39.2909C40.0988 54.113 40.5024 54.5453 40.5024 55.4088V60.3918C40.5024 61.2489 40.0953 61.6766 39.28 61.6766H38.3324ZM38.5746 60.7605H39.0911C39.3579 60.7605 39.4913 60.6128 39.4913 60.3179V55.4717C39.4913 55.1769 39.3401 55.0291 39.0384 55.0291H38.5643C38.2694 55.0291 38.1217 55.1763 38.1217 55.4717V60.3179C38.1217 60.6128 38.2729 60.7605 38.5746 60.7605Z" fill="#52433F"/>
<path d="M44.2321 57.7684V54.1125H45.2433V61.6767H44.2321V60.1703L43.1471 56.7252V61.6761H42.1354V54.1125H43.1471L44.2321 57.7684Z" fill="#52433F"/>
<path d="M3.56459 72.0001C2.74983 72.0001 2.34216 71.5718 2.34216 70.7147V65.7316C2.34216 64.8676 2.74639 64.4359 3.55371 64.4359H4.52306C5.33095 64.4359 5.73461 64.8676 5.73461 65.7316V70.7147C5.73461 71.5718 5.32751 72.0001 4.51218 72.0001H3.56459ZM3.80678 71.0834H4.32324C4.59005 71.0834 4.72346 70.9362 4.72346 70.6408V65.7946C4.72346 65.4997 4.5723 65.352 4.27056 65.352H3.79648C3.50161 65.352 3.35388 65.4997 3.35388 65.7946V70.6408C3.35388 70.9362 3.50504 71.0834 3.80678 71.0834Z" fill="#52433F"/>
<path d="M9.70648 67.6491V68.5657H8.37928V72H7.36755V64.4364H9.87481V65.3525H8.37928V67.6491H9.70648Z" fill="#52433F"/>
<path d="M16.3888 72.0001H15.3777V65.7316C15.3777 64.8676 15.7813 64.4359 16.5892 64.4359H17.3473C18.1552 64.4359 18.5589 64.8676 18.5589 65.7316V72.0001H17.5477V69.2294H16.3888V72.0001ZM17.5477 68.3127V65.7952C17.5477 65.5003 17.4006 65.3526 17.1051 65.3526H16.8309C16.536 65.3526 16.3883 65.5003 16.3883 65.7952V68.3127H17.5477Z" fill="#52433F"/>
<path d="M20.1918 64.4364H22.1723C22.9447 64.4364 23.3311 64.8681 23.3311 65.7321V67.5964C23.3311 68.2566 23.1307 68.6745 22.7305 68.8503L23.4365 72H22.478L21.8144 68.9448H21.2035V72H20.1918V64.4364ZM21.2035 68.0813H21.8671C22.1688 68.0813 22.32 67.8987 22.32 67.5334V65.9004C22.32 65.5352 22.1688 65.3525 21.8671 65.3525H21.2035V68.0813Z" fill="#52433F"/>
<path d="M26.9658 68.8818L27.9031 64.4364H29.0202V72.0006H28.0085L28.1138 67.049L27.3552 70.631H26.5753L25.8173 67.049L25.9226 72.0006H24.9109V64.4364H26.028L26.9658 68.8818Z" fill="#52433F"/>
<path d="M30.7053 72V64.4364H33.2126V65.3525H31.717V67.6491H33.0442V68.5657H31.717V71.0833H33.2132V72H30.7053Z" fill="#52433F"/>
<path d="M36.7733 68.0917V64.4359H37.7844V72.0001H36.7733V70.4936L35.6883 67.0485V72.0001H34.6771V64.4365H35.6888L36.7733 68.0917Z" fill="#52433F"/>
<path d="M39.4707 72V64.4364H40.4819V72.0006L39.4707 72Z" fill="#52433F"/>
<path d="M43.1259 72.0001H42.1147V65.7316C42.1147 64.8676 42.519 64.4359 43.3263 64.4359H44.0849C44.8928 64.4359 45.2965 64.8676 45.2965 65.7316V72.0001H44.2848V69.2294H43.1259V72.0001ZM44.2848 68.3127V65.7952C44.2848 65.5003 44.1376 65.3526 43.8422 65.3526H43.5685C43.2736 65.3526 43.1259 65.5003 43.1259 65.7952V68.3127H44.2848Z" fill="#52433F"/>
<path d="M3.55649 46.8506C3.50496 46.8672 3.45457 46.8987 3.4059 46.897C3.28738 46.8919 3.18318 46.8776 3.19635 46.7006C3.20493 46.5844 3.14424 46.4642 3.12191 46.3439C3.11218 46.2895 3.09901 46.2117 3.12707 46.1813C3.15684 46.1498 3.23986 46.1447 3.2891 46.1607C3.40361 46.1979 3.51068 46.2552 3.62176 46.3033C3.65268 46.3164 3.68532 46.3296 3.71795 46.3342C3.8485 46.3531 4.25044 45.8779 4.18917 45.7633C4.15768 45.7049 4.06779 45.6734 3.99851 45.6414C3.90346 45.5979 3.80384 45.5629 3.70478 45.5286C3.64237 45.5068 3.57309 45.4662 3.51526 45.4771C3.29483 45.5206 3.13336 45.4152 2.98736 45.2818C2.93411 45.2331 2.88831 45.1473 2.88659 45.0774C2.88029 44.8009 2.90663 44.5232 2.89231 44.2472C2.8843 44.0914 2.81158 43.9397 2.7841 43.7834C2.76463 43.6729 2.77494 43.5578 2.76463 43.445C2.75833 43.3757 2.74688 43.3047 2.72169 43.2406C2.70337 43.1937 2.63638 43.1587 2.63065 43.1135C2.57168 42.6223 2.52816 42.1287 2.46404 41.6386C2.42796 41.3597 2.35983 41.0855 2.31231 40.8084C2.28826 40.6692 2.28196 40.5278 2.26078 40.3881C2.24703 40.2965 2.21612 40.2077 2.20237 40.1161C2.18978 40.032 2.19035 39.9461 2.18462 39.8613C2.17947 39.784 2.18004 39.7062 2.16745 39.63C2.13882 39.4583 2.08958 39.2888 2.07584 39.1164C2.06496 38.979 2.06439 38.8456 2.28482 38.8256C2.4377 38.8118 2.42911 38.6504 2.38445 38.4637C2.28998 38.5714 2.22814 38.6418 2.16115 38.7174C1.88059 38.5616 1.92411 38.2771 1.90579 38.0492C1.87487 37.6661 1.90693 37.2802 1.6739 36.939C1.63611 36.884 1.64355 36.7958 1.63783 36.7225C1.6155 36.4202 1.65615 36.0973 1.56225 35.819C1.42082 35.3971 1.49068 34.9579 1.37903 34.5462C1.27367 34.1569 1.22386 33.7681 1.1981 33.3696C1.18607 33.1835 1.10477 33.002 1.06412 32.8165C1.01316 32.5818 0.970787 32.3453 0.927845 32.1088C0.922119 32.0779 0.925555 32.0367 0.941587 32.0115C1.07786 31.7991 0.985102 31.6204 0.912959 31.4051C0.809324 31.0971 0.800736 30.7576 0.74577 30.4324C0.72802 30.3281 0.68107 30.2291 0.667328 30.1249C0.631829 29.8598 0.613507 29.5918 0.577436 29.3267C0.534493 29.0153 0.479527 28.7049 0.430859 28.394C0.411964 28.2744 0.401658 28.153 0.379328 28.0339C0.330088 27.7699 0.273976 27.5071 0.225308 27.2426C0.215575 27.1888 0.215575 27.1252 0.236187 27.0771C0.244776 27.0577 0.338104 27.0445 0.361006 27.0651C0.671909 27.3394 1.03892 27.1693 1.37788 27.1916C1.79471 27.2185 2.21325 27.2122 2.63122 27.2151C2.73829 27.2157 2.84536 27.2002 2.95186 27.1859C3.25589 27.1447 3.35609 27.2644 3.42308 27.5529C3.50782 27.9182 3.4706 28.2967 3.61833 28.6597C3.71795 28.9042 3.67444 29.2053 3.70192 29.4802C3.72769 29.7407 3.76204 30.0001 3.79296 30.26C3.82617 30.5411 3.86453 30.8223 3.89087 31.104C3.91606 31.3731 3.90804 31.6468 3.95213 31.9119C4.0363 32.4197 4.14738 32.9224 4.24757 33.4274C4.25044 33.4406 4.25788 33.4532 4.25903 33.4664C4.27792 33.7509 4.29338 34.0355 4.31685 34.3195C4.32888 34.4666 4.33346 34.6195 4.38098 34.7564C4.43022 34.8984 4.51439 35.0243 4.41591 35.1749C4.40961 35.1846 4.40961 35.2018 4.4119 35.2144C4.46286 35.4818 4.51611 35.7492 4.56478 36.0171C4.58138 36.1093 4.58653 36.2038 4.59455 36.2977C4.59913 36.3515 4.58081 36.4128 4.60085 36.458C4.78178 36.8588 4.75544 37.2854 4.77204 37.7079C4.77605 37.8121 4.82586 37.9135 4.8419 38.0183C4.86423 38.1625 4.86995 38.3091 4.88999 38.4534C4.97072 39.0271 5.06749 39.5991 5.13104 40.1751C5.17055 40.5358 5.16139 40.9023 5.17456 41.2658C5.17627 41.3197 5.16081 41.3884 5.18773 41.425C5.35835 41.6575 5.253 41.9409 5.3343 42.1825C5.43107 42.4699 5.35148 42.7551 5.38354 43.0374C5.40415 43.2183 5.45912 43.3969 5.5118 43.5721C5.52153 43.6048 5.62287 43.6471 5.63433 43.6363C5.68185 43.5905 5.7351 43.528 5.74254 43.4668C5.76201 43.3025 5.75571 43.1353 5.76659 42.9692C5.78377 42.7007 5.80667 42.4327 5.82671 42.1648C5.829 42.1379 5.82041 42.1075 5.82957 42.084C6.00878 41.6237 5.95267 41.1296 6.04027 40.6589C6.08035 40.4448 6.15078 40.2507 6.0689 40.0371C6.05974 40.0136 6.05974 39.9781 6.07177 39.9575C6.30079 39.5533 6.1273 39.0809 6.2819 38.6716C6.4445 38.241 6.34889 37.7921 6.43076 37.3569C6.49604 37.01 6.49775 36.6515 6.53726 36.2994C6.58249 35.8992 6.62887 35.4984 6.693 35.1005C6.7388 34.8159 6.83213 34.5394 6.87507 34.2548C6.94664 33.7813 6.99474 33.3043 7.05142 32.8285C7.06173 32.7415 7.06574 32.6539 7.07662 32.5674C7.13559 32.0928 7.17911 31.6153 7.2627 31.1446C7.30736 30.8938 7.21918 30.6144 7.4087 30.3894C7.43161 30.3625 7.43103 30.3121 7.43275 30.272C7.4505 29.901 7.46596 29.53 7.48256 29.159C7.48485 29.1051 7.47283 29.0416 7.49631 28.9986C7.63086 28.753 7.62055 28.5017 7.58906 28.2308C7.56845 28.0533 7.66865 27.8655 7.6738 27.6812C7.6864 27.2203 7.67724 27.2248 8.13815 27.2231C8.75309 27.2214 9.36802 27.2117 9.98353 27.2059C10.1708 27.2042 10.2148 27.2838 10.2263 27.4642C10.2515 27.8655 10.3065 28.2652 10.35 28.6654C10.3586 28.745 10.374 28.824 10.3815 28.9042C10.3883 28.978 10.3671 29.0633 10.3969 29.1246C10.5945 29.5306 10.5189 29.972 10.5796 30.3951C10.6002 30.5377 10.6786 30.6723 10.6941 30.8143C10.7542 31.3576 10.7347 31.9199 10.8699 32.4421C10.9758 32.8509 10.8836 33.2728 11.0233 33.6525C11.1819 34.0836 11.1098 34.5359 11.218 34.9568C11.3439 35.4457 11.3726 35.933 11.4006 36.4277C11.4086 36.572 11.4785 36.7117 11.5025 36.856C11.5604 37.1995 11.6096 37.5442 11.6577 37.8889C11.6657 37.9467 11.6491 38.008 11.6474 38.0681C11.6451 38.1545 11.6108 38.2656 11.6508 38.3246C11.8793 38.6607 11.7442 39.05 11.83 39.405C11.8581 39.5207 11.8833 39.6375 11.9119 39.7531C11.9199 39.7858 11.9423 39.8155 11.9457 39.8476C11.9732 40.1425 11.9858 40.4391 12.0264 40.7322C12.0763 41.0941 12.031 41.4685 12.1816 41.8189C12.2194 41.9065 12.1787 42.0256 12.2091 42.1184C12.2881 42.3589 12.3975 42.5913 12.2549 42.8461C12.2406 42.8719 12.2589 42.9354 12.2835 42.9589C12.4181 43.0877 12.4049 43.2458 12.4003 43.4107C12.3986 43.4651 12.4616 43.5217 12.4954 43.5779C12.5223 43.5223 12.5681 43.4679 12.5721 43.4107C12.6122 42.8622 12.6047 42.3056 12.6981 41.7663C12.7462 41.4863 12.8137 41.2074 12.8469 40.9217C12.8847 40.5954 12.9557 40.2724 12.9935 39.9461C13.029 39.6426 13.0404 39.3369 13.0634 39.0317C13.0668 38.9847 13.0691 38.9367 13.0794 38.8908C13.2271 38.2267 13.3181 37.5562 13.2975 36.8743C13.2958 36.8205 13.2867 36.7563 13.3113 36.714C13.5403 36.3189 13.4785 35.8849 13.4933 35.4606C13.4968 35.3679 13.5283 35.2762 13.5437 35.1835C13.5638 35.065 13.5798 34.9459 13.6004 34.8274C13.6182 34.7226 13.6382 34.6184 13.6594 34.5142C13.6645 34.4878 13.6892 34.4626 13.6863 34.4386C13.6416 34.0532 13.8088 33.7028 13.8609 33.3341C13.9067 33.0077 13.9056 32.6745 13.9377 32.3459C13.98 31.9101 14.0407 31.4761 14.0825 31.0404C14.1215 30.631 14.1415 30.2194 14.1787 29.81C14.1884 29.7018 14.232 29.5964 14.2612 29.4905C14.272 29.4521 14.2961 29.4155 14.2989 29.3771C14.3201 29.0553 14.3322 28.7336 14.3596 28.4123C14.3665 28.3293 14.4077 28.2434 14.453 28.1713C14.5629 27.9955 14.6047 27.822 14.5406 27.613C14.4524 27.3262 14.5423 27.2271 14.8372 27.2294C15.6954 27.2363 16.5543 27.242 17.4126 27.242C17.5757 27.242 17.6513 27.2958 17.6433 27.4659C17.6244 27.8684 17.5958 28.2635 17.4755 28.6585C17.3753 28.9878 17.3736 29.3468 17.3295 29.6932C17.3261 29.7195 17.3421 29.7516 17.3324 29.7728C17.1417 30.1718 17.2763 30.6264 17.1469 31.0181C17.0226 31.3943 17.0919 31.7945 16.9585 32.1386C16.7713 32.623 16.8469 33.124 16.7449 33.6089C16.6636 33.9954 16.6081 34.3876 16.5468 34.7781C16.5354 34.8497 16.5629 34.927 16.5543 34.9991C16.5388 35.136 16.5142 35.2717 16.4856 35.4068C16.4718 35.4721 16.4249 35.5322 16.4197 35.5963C16.3957 35.9181 16.3865 36.2416 16.359 36.5634C16.3441 36.7346 16.3006 36.9035 16.2726 37.0741C16.2279 37.3455 16.1855 37.6175 16.1415 37.8889C16.1392 37.902 16.1306 37.9158 16.1329 37.9284C16.2159 38.4133 15.8901 38.8382 15.9365 39.3254C15.9577 39.5447 15.8643 39.7726 15.838 39.9982C15.7905 40.3996 15.8174 40.8221 15.6983 41.1994C15.526 41.7451 15.5437 42.3136 15.404 42.8604C15.3147 43.208 15.3181 43.579 15.2809 43.9397C15.2775 43.9735 15.2889 44.0142 15.274 44.0399C15.1131 44.3113 15.171 44.6159 15.1315 44.9062C15.0645 45.3975 14.9717 45.8847 14.8978 46.3748C14.8801 46.4934 14.8984 46.617 14.8875 46.7373C14.8818 46.806 14.8549 46.873 14.8314 46.9388C14.7931 47.047 14.7255 47.1507 14.7129 47.2612C14.6837 47.5223 14.6957 47.7879 14.6614 48.0479C14.6362 48.2368 14.5686 48.4218 14.5034 48.6027C14.493 48.6319 14.3619 48.6577 14.343 48.6365C14.2697 48.5517 14.2279 48.4406 14.1575 48.353C14.1026 48.2843 14.0058 48.1756 13.9583 48.1899C13.826 48.2282 13.8249 48.3719 13.8976 48.4567C14.051 48.6353 14.047 48.8283 14.0396 49.0441C14.0361 49.1506 14.1232 49.2777 14.2022 49.3659C14.3064 49.4821 14.3224 49.5583 14.1982 49.6688C14.1449 49.7163 14.1094 49.8125 14.1094 49.8869C14.1089 50.1028 14.0682 50.1372 13.846 50.1228C13.5981 50.1068 13.3491 50.1143 13.1006 50.1097C12.6494 50.1011 12.1982 50.0856 11.747 50.0833C11.5518 50.0822 11.356 50.108 11.1601 50.1177C10.859 50.1326 10.8361 50.0925 10.8034 49.793C10.7496 49.3081 10.6466 48.8271 10.6116 48.341C10.5864 47.9935 10.4353 47.6803 10.4381 47.3179C10.441 46.9033 10.2876 46.4894 10.2171 46.0725C10.1799 45.8532 10.1742 45.6288 10.1553 45.4066C10.1519 45.3666 10.1708 45.3144 10.1519 45.2864C9.92169 44.9486 10.0992 44.5415 9.96177 44.1882C9.94116 44.1355 9.9612 44.068 9.9549 44.0084C9.91825 43.6431 9.8839 43.2778 9.83924 42.9143C9.82493 42.7963 9.71843 42.6371 9.76309 42.5736C9.94058 42.3222 9.82321 42.1321 9.7316 41.8951C9.62682 41.6248 9.60506 41.322 9.55639 41.0317C9.48482 40.6017 9.41153 40.1717 9.35714 39.7394C9.26381 38.9985 9.18308 38.2564 9.09949 37.5144C9.09262 37.4549 9.11895 37.3902 9.10464 37.334C9.09147 37.2837 9.04452 37.2419 9.01188 37.1961C8.97753 37.2447 8.91684 37.2911 8.91283 37.3426C8.88936 37.6375 8.87962 37.9335 8.86474 38.229C8.86302 38.2627 8.86588 38.3023 8.84985 38.328C8.58761 38.7477 8.73419 39.2258 8.65346 39.6713C8.62998 39.8018 8.60021 39.9318 8.57044 40.0612C8.55841 40.1133 8.5275 40.1631 8.52406 40.2152C8.5023 40.537 8.49658 40.8599 8.46394 41.18C8.44104 41.405 8.38092 41.626 8.34313 41.8504C8.23835 42.4751 8.12956 43.0992 8.03795 43.7256C8.0139 43.8899 8.05112 44.0628 8.05112 44.2312C8.05112 44.3022 8.05284 44.3995 8.01047 44.4407C7.76598 44.6812 7.85187 44.9824 7.84042 45.2646C7.82839 45.5635 7.86447 45.8664 7.69785 46.1435C7.65262 46.2185 7.63487 46.3267 7.64517 46.4149C7.67953 46.719 7.64804 46.9995 7.47054 47.2612C7.42245 47.3322 7.41557 47.4421 7.41557 47.5337C7.41443 47.97 7.43733 48.4074 7.42015 48.8432C7.41271 49.0241 7.31709 49.1999 7.27873 49.3819C7.24953 49.5194 7.24552 49.6631 7.23293 49.8039C7.21289 50.0272 7.11727 50.1131 6.89111 50.1125C6.58078 50.112 6.27044 50.1137 5.96011 50.1165C5.80209 50.1183 5.72536 50.0312 5.74998 49.8721C5.76144 49.7988 5.78147 49.7261 5.7872 49.6522C5.79522 49.5463 5.7872 49.4266 5.64921 49.4278C5.51867 49.4289 5.38812 49.4747 5.37896 49.6425C5.37553 49.7089 5.38984 49.7764 5.399 49.8434C5.42591 50.0375 5.34747 50.1125 5.14879 50.1074C4.73139 50.0971 4.31342 50.0914 3.89545 50.0931C3.73742 50.0936 3.65783 50.0284 3.68016 49.8766C3.70593 49.7003 3.66986 49.5531 3.58454 49.394C3.52214 49.2772 3.53931 49.1186 3.51698 48.9789C3.46717 48.6628 3.41049 48.3479 3.36697 48.0313C3.35666 47.9586 3.36124 47.8601 3.40247 47.8074C3.63092 47.5165 3.65211 47.1999 3.55649 46.8506ZM5.30338 46.4659C5.32514 46.4149 5.33774 46.3846 5.35091 46.3542C5.43336 46.1618 5.2822 46.1246 5.16081 46.0697C5.01996 46.0061 4.96557 46.0926 4.92721 46.2071C4.80411 46.5752 4.99477 46.8037 5.36923 46.7315C5.40816 46.7241 5.45454 46.6897 5.47172 46.6554C5.48317 46.6331 5.45569 46.5804 5.43164 46.5541C5.40129 46.5208 5.35663 46.5014 5.30338 46.4659ZM14.0848 44.372C13.9577 44.2357 13.8804 44.1069 13.7665 44.0474C13.6794 44.0016 13.4229 44.2604 13.4693 44.3405C13.5477 44.4762 13.6771 44.5821 13.7848 44.7007C13.873 44.6039 13.9611 44.5077 14.0848 44.372ZM6.09066 45.2944C6.06948 45.3127 6.01852 45.3356 6.00878 45.3706C5.99905 45.4061 6.01852 45.469 6.04714 45.4908C6.21605 45.6208 6.38782 45.7467 6.56646 45.863C6.60482 45.8882 6.67353 45.8675 6.72792 45.8681C6.72277 45.8195 6.72621 45.7679 6.71132 45.7221C6.62028 45.4444 6.25212 45.5429 6.1336 45.3001C6.13188 45.2978 6.12101 45.299 6.09066 45.2944ZM10.9386 43.8309C10.9162 43.8286 10.8939 43.8264 10.8716 43.8235C10.7943 43.9266 10.7009 44.0216 10.6466 44.1355C10.6145 44.2025 10.6219 44.3096 10.6529 44.38C10.6992 44.4842 10.8401 44.4671 10.8882 44.3531C10.9351 44.242 10.9746 44.1258 10.9952 44.0079C11.0044 43.9535 10.9592 43.8899 10.9386 43.8309ZM16.4861 28.5807C16.363 28.6677 16.2754 28.7301 16.1873 28.792C16.2703 28.8652 16.3527 28.9969 16.4358 28.9969C16.5234 28.9969 16.6115 28.8727 16.6997 28.8028C16.6396 28.7398 16.5795 28.6774 16.4861 28.5807ZM14.8761 42.979C14.7822 42.8959 14.7186 42.8003 14.6728 42.8083C14.6036 42.8209 14.4971 42.9045 14.4965 42.9589C14.4959 43.0471 14.5681 43.1353 14.6098 43.224C14.686 43.1536 14.7622 43.0837 14.8761 42.979ZM8.17365 31.3851C8.12269 31.4962 8.07059 31.5552 8.08089 31.6004C8.09349 31.6582 8.1559 31.7052 8.19655 31.7567C8.23205 31.7086 8.29732 31.6599 8.29618 31.613C8.29503 31.5551 8.23835 31.4979 8.17365 31.3851Z" fill="#52433F"/>
<path d="M28.5547 8.57191C28.5547 8.85705 28.5536 9.14162 28.5553 9.42675C28.5565 9.63517 28.5588 9.84415 28.5639 10.0526C28.5696 10.2656 28.5868 10.4786 28.5839 10.6915C28.5828 10.8026 28.5656 10.92 28.5267 11.0236C28.4614 11.1977 28.4729 11.3489 28.5284 11.5309C28.5931 11.7439 28.5811 11.9821 28.5874 12.21C28.5943 12.4573 28.5822 12.7053 28.5822 12.9532C28.5805 13.8756 28.5811 14.7986 28.5788 15.721C28.5771 16.4911 28.5748 17.2606 28.5679 18.0307C28.5651 18.3387 28.5467 18.6462 28.5404 18.9542C28.5393 19.0132 28.561 19.0728 28.5714 19.1323C28.5839 19.2056 28.6257 19.2903 28.6023 19.3499C28.4626 19.7043 28.592 20.0673 28.5622 20.4269C28.5135 21.0086 28.5845 21.6 28.5994 22.1875C28.6063 22.4566 28.6023 22.7263 28.5954 22.9954C28.5925 23.1196 28.5244 23.1723 28.3927 23.1528C27.7972 23.0647 27.2018 23.0721 26.6012 23.1242C26.2548 23.154 25.9009 23.1105 25.5511 23.0899C25.4251 23.0824 25.3392 23.02 25.3398 22.87C25.3438 21.9974 25.3409 21.1254 25.3455 20.2528C25.3484 19.6505 25.3673 19.0487 25.3656 18.4464C25.3638 17.7513 25.3387 17.0556 25.3392 16.3605C25.3398 15.5171 25.3616 14.6743 25.3644 13.8309C25.3661 13.4261 25.3461 13.0207 25.3358 12.6154C25.3341 12.5547 25.3203 12.4917 25.3318 12.4333C25.4177 11.985 25.3221 11.5349 25.3518 11.0878C25.3616 10.9446 25.3999 10.794 25.4635 10.6658C25.5282 10.5352 25.5299 10.4368 25.4652 10.3062C25.4016 10.178 25.3472 10.0274 25.3472 9.88709C25.349 8.56104 25.3707 7.23555 25.3713 5.90949C25.3719 4.6716 25.3535 3.43372 25.3461 2.19583C25.3444 1.90554 25.3621 1.61468 25.3564 1.32439C25.3524 1.11483 25.4463 1.02551 25.6473 1.02895C25.6673 1.02952 25.6914 1.03353 25.7074 1.02494C25.7549 0.999747 25.799 0.968828 25.8442 0.9402C25.8001 0.907564 25.7606 0.857178 25.7114 0.844582C25.3919 0.763278 25.2785 0.592653 25.3598 0.267437C25.3759 0.203309 25.4526 0.113417 25.5099 0.107119C25.7291 0.0824983 25.9519 0.0779178 26.1729 0.0813532C26.5204 0.0865063 26.868 0.115707 27.2155 0.113417C27.5636 0.110554 27.9129 0.0561604 28.2582 0.0762001C28.3927 0.0836435 28.5937 0.205027 28.6361 0.321258C28.8078 0.793051 28.9246 1.28431 29.0723 1.76527C29.1554 2.03494 29.2653 2.29661 29.3523 2.56514C29.4021 2.71859 29.4291 2.87948 29.468 3.03636C29.5499 3.36558 29.6203 3.69882 29.7199 4.02289C29.8178 4.34238 29.9507 4.65099 30.0577 4.96762C30.1287 5.17775 30.1831 5.39361 30.2444 5.6066C30.415 6.20321 30.5862 6.79983 30.754 7.39758C30.8295 7.66841 30.8851 7.94553 30.9715 8.21292C31.0219 8.36865 31.1347 8.50435 31.1857 8.66009C31.2968 9.00305 31.3889 9.35232 31.4834 9.70044C31.5115 9.80407 31.5098 9.91572 31.5424 10.0176C31.5664 10.0932 31.6237 10.1579 31.6661 10.2278C31.7113 10.1545 31.7645 10.0852 31.7978 10.0073C31.8172 9.96096 31.8058 9.90026 31.8058 9.84644C31.7995 9.05573 31.7892 8.26559 31.7863 7.47488C31.7834 6.54103 31.7857 5.60717 31.788 4.67332C31.7903 3.57171 31.7966 2.47009 31.7955 1.36848C31.7955 1.03124 31.78 0.693997 31.7668 0.356757C31.7594 0.169528 31.8407 0.121433 32.0228 0.129449C32.4196 0.147198 32.8175 0.132311 33.2154 0.135747C33.5441 0.13861 33.8744 0.097385 34.1979 0.221632C34.2884 0.256558 34.4201 0.204455 34.5266 0.171818C34.8192 0.0819258 34.9039 0.132884 34.9658 0.426037C34.9995 0.586928 35.0459 0.740375 34.9429 0.892677C34.9291 0.912717 34.9303 0.945353 34.9303 0.971691C34.9291 1.51735 34.9096 2.06414 34.9348 2.60865C34.9492 2.91211 34.9583 3.20641 34.9251 3.51216C34.8856 3.8723 34.9474 4.24218 34.9514 4.60862C34.9555 4.99281 34.9434 5.37758 34.9388 5.76177C34.9383 5.82131 34.9119 5.90491 34.9417 5.93754C35.1003 6.11332 35.0236 6.27307 34.9606 6.46087C34.9096 6.61317 34.9337 6.79238 34.9343 6.95957C34.9348 7.1176 34.9429 7.27563 34.9566 7.43308C34.9703 7.58653 34.9955 7.73883 35.0144 7.89171C35.0236 7.96442 35.0545 8.04744 35.031 8.10985C34.8942 8.47458 34.9743 8.8393 34.9944 9.20861C35.0133 9.55558 34.964 9.90656 34.9526 10.2558C34.9463 10.4568 34.9566 10.6583 34.9566 10.8593C34.9566 10.9532 34.9514 11.0471 34.9457 11.141C34.9383 11.2687 34.9131 11.3969 34.9211 11.5235C34.944 11.8647 34.9978 12.2048 35.0076 12.5467C35.0179 12.9091 34.9909 13.2721 34.9806 13.6351C34.9743 13.8613 34.9606 14.0869 34.964 14.313C34.9703 14.7167 34.9869 15.1203 34.9984 15.524C34.999 15.5509 35.0047 15.5801 34.9967 15.6047C34.877 15.9717 35.0121 16.3405 34.9892 16.7081C34.9726 16.9806 34.9474 17.2526 34.9291 17.5245C34.9245 17.5915 34.9205 17.6614 34.936 17.7255C35.0333 18.1292 34.9709 18.5277 34.9217 18.9308C34.8953 19.1466 34.9451 19.3711 34.9492 19.5915C34.9566 19.9745 34.9526 20.3576 34.9595 20.7406C34.9652 21.0613 34.9904 21.3825 34.9858 21.7025C34.9818 22.0215 34.9509 22.3398 34.9343 22.6587C34.9314 22.7103 34.9291 22.7681 34.948 22.8139C35.0327 23.016 34.948 23.1654 34.7236 23.166C34.3188 23.1672 33.9145 23.1511 33.5097 23.1465C33.1788 23.1425 32.8473 23.146 32.5163 23.142C32.3279 23.1397 32.1356 23.1506 31.9535 23.1128C31.8825 23.0979 31.7869 22.9668 31.7863 22.8872C31.7771 22.0965 31.788 21.3058 31.7886 20.515C31.7886 20.0358 31.7875 19.556 31.7737 19.0768C31.7645 18.7487 31.7806 18.4091 31.7016 18.0954C31.5516 17.5011 31.3689 16.9113 31.1479 16.3393C30.9859 15.9196 30.8954 15.4839 30.7574 15.0608C30.6864 14.8426 30.5891 14.6325 30.5198 14.4138C30.4007 14.0376 30.2931 13.658 30.182 13.2795C30.0314 12.7682 29.8946 12.2524 29.7274 11.7468C29.4783 10.9944 29.2063 10.2495 28.9475 9.50061C28.9218 9.42504 28.9263 9.33915 28.9012 9.26357C28.8216 9.02367 28.734 8.78605 28.6498 8.54729C28.6177 8.55588 28.5862 8.5639 28.5547 8.57191ZM26.2336 1.26713C26.1385 1.37821 26.0796 1.44692 26.0206 1.51563C26.103 1.55628 26.1832 1.60094 26.2679 1.63529C26.3103 1.65247 26.3601 1.65533 26.4065 1.65533C26.5399 1.65591 26.6035 1.58491 26.596 1.45265C26.584 1.23278 26.3979 1.18469 26.233 1.04956C26.2336 1.17209 26.2336 1.24251 26.2336 1.26713ZM26.4053 15.7421C26.4334 15.7089 26.5571 15.6053 26.5416 15.575C26.4746 15.4467 26.3664 15.3408 26.2731 15.2263C26.1832 15.3179 26.0647 15.3957 26.0126 15.5051C25.9645 15.6047 26.158 15.7387 26.4053 15.7421ZM25.6839 12.1854C25.6616 12.1894 25.6387 12.1934 25.6163 12.1974C25.6003 12.2598 25.5597 12.3285 25.574 12.3823C25.5929 12.4545 25.6547 12.5157 25.6982 12.5816C25.74 12.514 25.8167 12.4453 25.8139 12.38C25.811 12.3136 25.7309 12.2501 25.6839 12.1854ZM26.4706 0.576622C26.3893 0.509059 26.3435 0.448367 26.2857 0.43348C26.2605 0.42661 26.1723 0.521655 26.1803 0.553719C26.1952 0.612693 26.2525 0.67224 26.308 0.703731C26.3263 0.714037 26.3933 0.639031 26.4706 0.576622Z" fill="#52433F"/>
<path d="M28.5817 35.8128C28.6023 36.5783 28.6269 37.3438 28.6406 38.1099C28.6458 38.387 28.6206 38.6642 28.6154 38.9413C28.6091 39.2917 28.6097 39.6427 28.608 39.9931C28.6046 40.5462 28.5994 41.0993 28.5994 41.6524C28.5994 41.8551 28.6212 42.0583 28.6189 42.261C28.6149 42.6624 28.6017 43.0637 28.592 43.4657C28.5914 43.4926 28.5851 43.5195 28.5862 43.5464C28.5988 44.0091 28.6229 44.4723 28.6217 44.9349C28.6212 45.3569 28.5851 45.7788 28.5811 46.2008C28.5788 46.4665 28.6109 46.7327 28.6189 46.999C28.6235 47.1513 28.6051 47.3036 28.6057 47.4559C28.6069 48.0273 28.6177 48.5987 28.6126 49.1701C28.6103 49.4375 28.5983 49.7072 28.5536 49.97C28.5399 50.0508 28.411 50.1613 28.324 50.1716C27.9982 50.2111 27.6673 50.2357 27.3398 50.2254C27.0375 50.2157 26.7351 50.1613 26.4351 50.112C26.2691 50.0845 26.3384 49.9746 26.3773 49.879C26.4907 49.6019 26.3006 49.2887 26.0074 49.2452C25.87 49.2245 25.8053 49.2766 25.7715 49.4009C25.7354 49.5349 25.7578 49.6293 25.894 49.7038C26.0063 49.7645 26.1185 49.8481 26.1929 49.9488C26.292 50.0822 26.2107 50.199 26.0441 50.195C25.8912 50.191 25.7377 50.1819 25.5849 50.1887C25.4251 50.1956 25.3581 50.1155 25.3581 49.9712C25.3575 49.4776 25.3633 48.9841 25.3621 48.4905C25.3616 48.0038 25.3518 47.5166 25.3535 47.0299C25.3547 46.672 25.3638 46.3142 25.3805 45.9563C25.3833 45.8899 25.4303 45.8195 25.4721 45.7617C25.6083 45.5733 25.5986 45.496 25.4411 45.3311C25.3873 45.2744 25.3472 45.1794 25.3461 45.1015C25.3415 44.7843 25.3581 44.4671 25.3604 44.1493C25.3621 43.8991 25.3535 43.6495 25.3507 43.3993C25.3472 43.1313 25.3427 42.8639 25.3438 42.596C25.345 42.4047 25.4658 42.2936 25.6782 42.3034C25.8116 42.3091 25.9124 42.2856 25.9318 42.1396C25.953 41.9822 25.8265 41.9856 25.724 41.9301C25.5952 41.8602 25.4371 41.7217 25.4182 41.594C25.3656 41.2367 25.3719 40.8697 25.3661 40.5061C25.3593 40.0876 25.3604 39.6684 25.3667 39.2499C25.369 39.1102 25.4131 38.9711 25.4097 38.8319C25.4056 38.6533 25.3558 38.4752 25.3553 38.2971C25.353 37.7715 25.369 37.2453 25.3696 36.7197C25.3696 36.3493 25.3501 35.9788 25.349 35.6084C25.3478 35.1354 25.3358 34.6614 25.3667 34.1901C25.4171 33.4155 25.3993 32.6448 25.3633 31.8701C25.3249 31.0405 25.3633 30.2074 25.3661 29.376C25.3667 29.2684 25.353 29.1602 25.345 29.0525C25.3295 28.8418 25.3158 28.6323 25.4681 28.4548C25.4915 28.4273 25.5144 28.37 25.5018 28.3448C25.3581 28.0614 25.4681 27.7671 25.4537 27.4785C25.4446 27.2953 25.5459 27.2489 25.6862 27.2466C26.2811 27.2375 26.876 27.2381 27.4709 27.2306C27.7205 27.2278 27.9707 27.2203 28.2198 27.2043C28.4809 27.1877 28.5925 27.2724 28.6521 27.5221C28.6807 27.6417 28.7448 27.7534 28.7941 27.8679C28.8101 27.9051 28.8353 27.9389 28.8445 27.9772C28.9206 28.291 28.9349 28.638 29.0849 28.9099C29.2407 29.1928 29.275 29.4905 29.3626 29.7814C29.4239 29.9852 29.4691 30.1959 29.4955 30.4066C29.5138 30.5521 29.3947 30.5927 29.2722 30.6471C29.1267 30.7112 28.9996 30.8257 28.8805 30.9363C28.8456 30.9689 28.8353 31.0886 28.8651 31.1206C29.0231 31.2884 28.9893 31.3977 28.7861 31.5111C28.8387 31.5111 28.8914 31.5163 28.9435 31.51C29.0231 31.5002 29.1038 31.4647 29.1806 31.4727C29.338 31.4888 29.4354 31.4487 29.488 31.2855C29.5069 31.2265 29.6277 31.1395 29.6489 31.1521C29.7268 31.1996 29.7898 31.2781 29.8419 31.3565C29.8631 31.388 29.8407 31.4487 29.839 31.4956C29.8298 31.7235 29.8556 31.9113 30.0199 32.1192C30.186 32.3287 30.2146 32.6476 30.2999 32.9196C30.3257 33.0026 30.3354 33.0902 30.3589 33.1738C30.4253 33.4132 30.4952 33.6508 30.5622 33.8901C30.5856 33.9743 30.5999 34.0619 30.6274 34.1443C30.7145 34.4054 30.8112 34.6636 30.8937 34.9265C30.9904 35.2334 31.0254 35.5729 31.1811 35.8443C31.3139 36.0762 31.2916 36.3195 31.3763 36.5474C31.4525 36.7518 31.4966 36.9682 31.5682 37.1743C31.5859 37.2247 31.6575 37.2568 31.7039 37.2974C31.7457 37.2259 31.8189 37.156 31.8224 37.0827C31.831 36.9155 31.8 36.7466 31.7943 36.5777C31.7771 36.071 31.756 35.5643 31.7525 35.057C31.7479 34.359 31.7542 33.6605 31.764 32.9626C31.7697 32.5383 31.7943 32.1146 31.8029 31.6909C31.8063 31.5088 31.7915 31.3262 31.7817 31.1441C31.7657 30.8498 31.7451 30.5555 31.7319 30.2612C31.7296 30.2091 31.7519 30.1564 31.7605 30.1032C31.7874 29.9371 31.8029 29.7682 31.843 29.605C31.8733 29.4814 31.9775 29.3611 31.9684 29.246C31.9598 29.135 31.8155 29.0399 31.788 28.9237C31.7537 28.776 31.7777 28.6145 31.7754 28.4588C31.7714 28.1816 31.7703 27.9045 31.76 27.6274C31.7508 27.3841 31.9043 27.2587 32.1625 27.2673C32.6795 27.2839 33.1977 27.281 33.7153 27.2884C33.9575 27.2919 34.1991 27.3022 34.4413 27.3079C34.5214 27.3096 34.6027 27.3142 34.6818 27.3045C34.8478 27.2833 34.9858 27.3795 34.9898 27.5387C34.9955 27.7654 35.003 27.9933 34.9904 28.22C34.9658 28.654 34.9257 29.0869 34.8959 29.5209C34.8925 29.5724 34.8936 29.6445 34.9245 29.6743C35.0608 29.806 35.023 29.9457 34.9898 30.1049C34.96 30.2463 34.9795 30.398 34.9795 30.5452C34.9795 30.5784 34.9944 30.6116 34.995 30.6448C35.0064 31.0204 35.0242 31.396 35.0236 31.7716C35.0236 31.9182 34.9623 32.0648 34.9646 32.2108C34.9738 32.8103 34.9995 33.4097 35.0139 34.0092C35.0236 34.4003 35.035 34.7925 35.0253 35.1835C35.0201 35.3868 34.9686 35.5883 34.9451 35.7916C34.9377 35.8569 34.9366 35.9302 34.9583 35.9909C35.0104 36.134 35.0682 36.2668 34.9303 36.4008C34.9085 36.4214 34.9297 36.5273 34.9635 36.5565C35.0688 36.6476 35.0654 36.7432 35.0368 36.8669C35.0081 36.99 35.0064 37.1211 35.0058 37.2488C35.0041 37.5923 35.0047 37.9364 35.0144 38.28C35.0207 38.4993 35.0442 38.718 35.0602 38.9367C35.0619 38.9636 35.0677 38.9905 35.0665 39.0174C35.0471 39.472 35.0173 39.9267 35.0104 40.3819C35.0047 40.7575 35.0413 41.1342 35.0293 41.5092C35.0213 41.7663 35.086 42.0371 34.9056 42.2788C34.8535 42.3486 34.8587 42.4981 34.893 42.5902C35.102 43.1479 35.0053 43.7273 35.035 44.297C35.0448 44.4791 35.0476 44.6612 35.0545 44.8433C35.0551 44.8633 35.0648 44.8845 35.0614 44.9034C34.9698 45.3912 35.0579 45.8813 35.035 46.3703C35.0327 46.4224 34.9978 46.4722 34.9927 46.5249C34.9846 46.6148 34.9623 46.715 34.9921 46.7934C35.0459 46.9354 35.0522 47.0562 34.9921 47.2017C34.9486 47.3065 34.9658 47.4381 34.9646 47.5578C34.9606 47.9414 34.9045 48.3348 34.9732 48.7052C35.0534 49.1341 34.9348 49.5412 34.9514 49.9586C34.9595 50.1618 34.8501 50.2489 34.6205 50.2512C34.2838 50.254 33.9472 50.2552 33.6111 50.246C33.1324 50.2334 32.6543 50.2105 32.1762 50.1927C32.143 50.1916 32.1081 50.1939 32.076 50.2019C31.8104 50.27 31.7743 50.2454 31.7863 49.9643C31.8006 49.6345 31.8361 49.3053 31.8413 48.9755C31.8453 48.7075 31.8086 48.439 31.8063 48.171C31.8018 47.5441 31.8018 46.9171 31.8115 46.2901C31.8207 45.6878 31.6758 45.1187 31.4748 44.5581C31.3798 44.2936 31.3019 44.0228 31.212 43.756C31.1582 43.5968 31.0883 43.4422 31.0391 43.2819C30.9538 43.0065 30.8822 42.7265 30.7986 42.4505C30.7042 42.1385 30.608 41.827 30.5038 41.5184C30.3921 41.1869 30.2598 40.8622 30.1574 40.5279C30.064 40.2255 30.0085 39.9118 29.918 39.6083C29.8121 39.2516 29.6816 38.9023 29.5716 38.5468C29.4846 38.2657 29.4187 37.9777 29.3317 37.6965C29.2945 37.5769 29.2212 37.4692 29.1771 37.3513C29.1193 37.1955 29.0643 37.0375 29.0254 36.8766C28.9653 36.6316 28.9378 36.3768 28.8605 36.138C28.817 36.0035 28.7013 35.8924 28.6183 35.771C28.6069 35.7847 28.5943 35.7985 28.5817 35.8128ZM29.2447 32.7667C29.2831 32.7862 29.3775 32.8595 29.4004 32.8412C29.5138 32.7513 29.6088 32.6373 29.7102 32.532C29.6535 32.4782 29.6031 32.3911 29.5384 32.378C29.4159 32.3545 29.2401 32.5709 29.2447 32.7667ZM27.294 48.0118C27.2144 47.9168 27.1571 47.8481 27.0999 47.78C27.0512 47.8733 26.9728 47.9643 26.9642 48.0611C26.9584 48.1229 27.0569 48.1934 27.1084 48.2603C27.1628 48.1876 27.2167 48.1155 27.294 48.0118ZM25.8626 38.1918C25.8007 38.2616 25.7377 38.3012 25.7383 38.3401C25.7389 38.3819 25.7984 38.4225 25.8328 38.4638C25.874 38.4288 25.9387 38.4008 25.9502 38.3578C25.9599 38.3223 25.9066 38.2702 25.8626 38.1918ZM26.1935 48.8953C26.1672 48.9125 26.1414 48.9297 26.1151 48.9468C26.162 49.0299 26.2084 49.1129 26.2553 49.1959C26.2828 49.1638 26.3406 49.1169 26.3332 49.1026C26.2954 49.0293 26.2416 48.964 26.1935 48.8953Z" fill="#52433F"/>
<path d="M13.2661 23.0503C12.3752 23.0503 11.4849 23.0503 10.594 23.0503C10.5195 23.0503 10.4337 23.0703 10.3735 23.0405C10.2962 23.0022 10.1955 22.9323 10.18 22.8596C10.0907 22.4382 10.0168 22.0134 9.95099 21.5874C9.85651 20.9764 9.7775 20.3627 9.68474 19.7512C9.64066 19.4603 9.57939 19.1723 9.529 18.882C9.5187 18.8236 9.52729 18.7618 9.5187 18.7028C9.50438 18.6003 9.4998 18.4921 9.46202 18.3976C9.38815 18.2138 9.33433 18.0449 9.48148 17.8668C9.51355 17.8279 9.51126 17.7122 9.4769 17.6745C9.30284 17.4821 9.19463 17.2788 9.27078 17.012C9.27765 16.988 9.27879 16.949 9.26448 16.9336C9.07324 16.7229 9.17001 16.4543 9.11447 16.2167C9.07038 16.0289 9.00282 15.8463 8.9719 15.6567C8.93411 15.426 8.93297 15.1895 8.89747 14.9582C8.85338 14.6679 8.78639 14.3816 8.73715 14.0925C8.71711 13.9734 8.72856 13.8486 8.70509 13.7306C8.66157 13.5096 8.60088 13.2921 8.55164 13.0716C8.53389 12.9937 8.52301 12.9142 8.51728 12.8346C8.49667 12.5517 8.5379 12.2477 8.44514 11.9918C8.35181 11.7341 8.35868 11.4782 8.31059 11.2234C8.21497 10.7155 8.12679 10.2059 8.03805 9.69634C8.03003 9.65168 8.03919 9.60416 8.04377 9.55836C8.04835 9.51198 8.07984 9.45129 8.06095 9.42209C7.83593 9.08026 7.92468 8.66573 7.79127 8.29471C7.66416 7.94086 7.67161 7.53835 7.61836 7.15759C7.56282 6.75966 7.51358 6.36001 7.44602 5.96437C7.39792 5.68038 7.31433 5.40268 7.26394 5.11869C7.21126 4.82096 7.17806 4.51979 7.14027 4.21919C7.10248 3.92031 7.06583 3.62143 7.03549 3.32198C7.02174 3.188 7.02862 3.0523 7.02003 2.91775C7.01602 2.85248 7.00457 2.78606 6.98453 2.72365C6.94502 2.59826 6.88032 2.47802 6.85685 2.35034C6.78127 1.94382 6.71943 1.53444 6.65301 1.12562C6.64843 1.09929 6.64042 1.07009 6.64671 1.04489C6.71714 0.75861 6.65015 0.503819 6.50071 0.253036C6.41826 0.114475 6.48353 0.0148488 6.64901 0.00969576C7.03434 -0.0023281 7.42025 -0.00633605 7.80559 0.00282498C7.89147 0.00454268 7.98022 0.0663797 8.06038 0.112185C8.19722 0.190626 8.32032 0.187763 8.46174 0.111612C8.56824 0.0543558 8.69363 0.0165665 8.81387 0.0056878C8.97419 -0.00862631 9.13794 0.0165665 9.29998 0.015994C9.53187 0.0154214 9.71223 0.165433 9.71223 0.393314C9.7128 0.93496 9.80956 1.46401 9.89774 1.99535C9.94927 2.30568 9.96072 2.62231 9.99565 2.93607C10.0019 2.9939 10.0317 3.04944 10.0518 3.10555C10.0741 3.16853 10.113 3.23037 10.1176 3.2945C10.1382 3.58937 10.1365 3.88653 10.168 4.17968C10.1955 4.43333 10.2648 4.68182 10.302 4.93432C10.3375 5.17423 10.3489 5.41757 10.3833 5.65805C10.4606 6.19626 10.5934 6.72588 10.5871 7.27611C10.5854 7.42498 10.6747 7.57213 10.6976 7.72386C10.7434 8.03018 10.7657 8.33994 10.8104 8.64626C10.8642 9.019 10.9335 9.39002 10.9913 9.76219C11.0068 9.86124 10.9959 9.9643 11.0108 10.0639C11.028 10.179 11.0663 10.2907 11.0841 10.4058C11.1225 10.656 11.1539 10.9067 11.1872 11.1575C11.1889 11.1707 11.1797 11.1879 11.1854 11.1976C11.3417 11.4701 11.3091 11.7793 11.3538 12.0731C11.3646 12.1452 11.3727 12.2185 11.3835 12.2906C11.4082 12.4498 11.4282 12.6101 11.462 12.767C11.486 12.8769 11.5685 12.9983 11.411 13.0619C11.2713 13.118 11.1299 13.118 11.0434 12.9548C11.0251 12.9199 10.9999 12.8643 10.973 12.8615C10.9037 12.8546 10.8316 12.8712 10.7606 12.8787C10.7875 12.9399 10.8018 13.043 10.843 13.055C11.1534 13.1472 11.3503 13.3613 11.4889 13.6344C11.5376 13.7312 11.5507 13.8474 11.5708 13.9562C11.6234 14.2459 11.675 14.5368 11.7202 14.8277C11.7591 15.0802 11.7895 15.3344 11.8227 15.588C11.833 15.6682 11.8193 15.7604 11.8548 15.8268C12.0271 16.1497 11.971 16.5013 11.9928 16.842C11.9962 16.8969 11.92 16.9547 11.8857 17.0143C11.8582 17.0624 11.8238 17.1151 11.8216 17.1666C11.8204 17.1906 11.8931 17.2416 11.9263 17.237C11.9784 17.2296 12.0563 17.1947 12.0683 17.1551C12.1256 16.9662 12.1737 16.7738 12.2069 16.5791C12.239 16.3873 12.2435 16.1915 12.2693 15.9986C12.3288 15.5497 12.3895 15.1014 12.4565 14.6536C12.527 14.1881 12.6123 13.7249 12.6787 13.2583C12.7537 12.7286 12.8104 12.1962 12.8848 11.6665C12.9083 11.5005 12.9821 11.3413 12.9993 11.1753C13.0428 10.7424 13.068 10.3078 13.1007 9.87384C13.1035 9.83376 13.1018 9.78795 13.1201 9.75532C13.324 9.38945 13.2908 8.98751 13.3056 8.59244C13.3074 8.54549 13.2999 8.49167 13.3194 8.45216C13.51 8.0674 13.4591 7.64771 13.5043 7.24119C13.5238 7.06598 13.5914 6.89708 13.62 6.72244C13.7064 6.19053 13.79 5.65747 13.8633 5.12327C13.904 4.82897 13.9189 4.53181 13.9509 4.23637C13.9681 4.07777 13.9933 3.91974 14.0179 3.76171C14.1444 2.97444 14.2309 2.17571 14.4141 1.39988C14.5057 1.01283 14.496 0.625775 14.5659 0.24273C14.5968 0.0726779 14.6792 0.011986 14.8384 0.0131311C15.6824 0.0182842 16.5263 0.0222922 17.3703 0.0263001C17.585 0.0274453 17.6537 0.0847017 17.6588 0.295978C17.6686 0.687612 17.6634 1.07467 17.5014 1.44798C17.4459 1.57566 17.4705 1.73712 17.4522 1.88255C17.4224 2.12303 17.3949 2.36408 17.3525 2.60227C17.3107 2.83759 17.2426 3.06891 17.2008 3.30423C17.1281 3.71762 17.0731 4.13445 16.9998 4.54842C16.8888 5.17308 16.7656 5.79546 16.654 6.42013C16.6128 6.65202 16.5927 6.88734 16.5567 7.1198C16.5217 7.34539 16.4731 7.56927 16.4422 7.79543C16.4158 7.98838 16.4055 8.1842 16.3878 8.3783C16.3826 8.43212 16.3849 8.48938 16.3666 8.53862C16.1942 8.99782 16.1696 9.48278 16.0986 9.96144C16.0362 10.3834 15.9148 10.7962 15.8347 11.2165C15.7883 11.461 15.7499 11.7112 15.7471 11.9591C15.743 12.2929 15.695 12.6078 15.5913 12.9285C15.4837 13.2617 15.4488 13.6196 15.3921 13.9688C15.3348 14.325 15.289 14.6828 15.2398 15.0395C15.1905 15.3939 15.1487 15.7495 15.0926 16.1033C15.0663 16.2677 14.9999 16.4263 14.9775 16.5912C14.9397 16.87 14.9277 17.1523 14.8934 17.4311C14.8773 17.5611 14.8373 17.6876 14.8046 17.8153C14.7897 17.8731 14.7525 17.9275 14.7485 17.9854C14.733 18.227 14.7376 18.4703 14.7119 18.7108C14.693 18.8883 14.6277 19.0606 14.6014 19.2376C14.5544 19.5508 14.5212 19.8662 14.4823 20.1806C14.4771 20.2207 14.48 20.2676 14.4605 20.2991C14.2635 20.6089 14.3368 20.9679 14.2716 21.3011C14.2395 21.4648 14.1742 21.6229 14.1548 21.7878C14.1135 22.1359 14.0855 22.4863 14.0654 22.8361C14.0563 22.9947 13.9773 23.0537 13.8353 23.0554C13.6457 23.0577 13.4562 23.056 13.2667 23.056L13.2661 23.0503ZM10.3999 18.9066C10.4222 18.8877 10.444 18.8683 10.4663 18.8494C10.4188 18.7474 10.3879 18.6324 10.3191 18.5476C10.2063 18.4091 10.0718 18.2871 9.93953 18.1657C9.90346 18.1325 9.8422 18.1274 9.79239 18.1096C9.79983 18.1692 9.78838 18.2419 9.81815 18.2865C9.93037 18.4549 10.0489 18.6209 10.18 18.7744C10.2333 18.8362 10.3254 18.8637 10.3999 18.9066ZM12.3403 20.598C12.3191 20.6243 12.2985 20.6507 12.2773 20.677C12.3351 20.7709 12.3821 20.8751 12.4554 20.9547C12.4886 20.9902 12.5745 20.977 12.6369 20.9856C12.6403 20.9243 12.6707 20.8339 12.642 20.807C12.5539 20.7239 12.4428 20.6655 12.3403 20.598ZM13.553 21.5272C13.4682 21.4625 13.4133 21.4208 13.3589 21.3795C13.3228 21.4322 13.2518 21.49 13.2581 21.537C13.2673 21.6074 13.3308 21.671 13.3715 21.7374C13.4219 21.6784 13.4728 21.62 13.553 21.5272ZM12.9415 14.2053C12.93 14.2162 12.9186 14.227 12.9071 14.2385C12.9713 14.3192 13.0274 14.4086 13.1035 14.4755C13.1322 14.5007 13.2066 14.4733 13.2598 14.4704C13.2375 14.4303 13.2243 14.3776 13.1906 14.353C13.1127 14.2963 13.0251 14.2534 12.9415 14.2053Z" fill="#52433F"/>
<path d="M47.1773 25.0572C47.4562 25.1213 47.4396 25.3549 47.4201 25.5828C47.4069 25.7402 47.3233 25.8256 47.1493 25.8107C46.9071 25.7895 46.6643 25.7769 46.421 25.7666C46.2298 25.7586 46.1296 25.8588 46.129 26.0494C46.1284 26.2796 46.1456 26.5103 46.1313 26.7388C46.125 26.8367 46.0809 26.9529 46.0139 27.0216C45.9022 27.1362 45.9011 27.2438 45.9979 27.3406C46.1759 27.5186 46.1822 27.7185 46.125 27.9418C46.1067 28.0128 46.0998 28.0889 46.1015 28.1628C46.1192 28.7777 46.1467 29.3921 46.1582 30.0076C46.1645 30.3425 46.1381 30.678 46.1376 31.013C46.1358 31.7184 46.1433 32.4232 46.1433 33.1286C46.1433 33.3307 46.1525 33.5397 45.9435 33.6708C45.9114 33.6909 45.8954 33.751 45.8891 33.7945C45.7946 34.4747 45.51 35.0158 44.843 35.3049C44.6626 35.3834 44.5086 35.5214 44.338 35.6244C44.1107 35.7613 43.8662 35.7962 43.5994 35.7722C43.3406 35.7487 43.0772 35.7693 42.8161 35.7716C42.7961 35.7716 42.772 35.7739 42.7571 35.7848C42.4445 36.0166 42.0815 35.9061 41.7397 35.9313C41.525 35.9468 41.3063 35.9411 41.0916 35.921C40.9639 35.909 40.8419 35.8403 40.7137 35.8168C40.5173 35.7807 40.3174 35.7378 40.1199 35.7407C39.8915 35.7441 39.6767 35.7533 39.4907 35.5878C39.4443 35.5466 39.367 35.5397 39.3029 35.5191C39.2519 35.5025 39.1872 35.5042 39.1511 35.4721C38.862 35.2116 38.5763 34.9471 38.2963 34.6774C38.2516 34.6345 38.2396 34.5577 38.2121 34.4965C38.1904 34.4478 38.1806 34.3722 38.144 34.3551C37.8869 34.2348 37.8984 34.0012 37.8652 33.7739C37.8451 33.6382 37.7707 33.5105 37.7226 33.3783C37.702 33.3216 37.6756 33.2649 37.6688 33.2065C37.6413 32.9792 37.5857 32.7473 37.6064 32.5234C37.6373 32.1845 37.521 31.8741 37.4867 31.5501C37.4781 31.4705 37.489 31.3886 37.4958 31.3079C37.5004 31.254 37.5336 31.1939 37.5182 31.1487C37.446 30.9328 37.4884 30.7193 37.497 30.5011C37.5119 30.1187 37.4821 29.7345 37.4752 29.3514C37.4747 29.3005 37.4873 29.2358 37.5188 29.1991C37.6802 29.0119 37.6413 28.8052 37.6201 28.5842C37.5903 28.2693 37.5938 27.9503 37.6023 27.6331C37.6104 27.3577 37.6579 27.0829 37.6659 26.8075C37.6859 26.0929 38.0913 25.616 38.6238 25.2123C38.6347 25.2043 38.645 25.1917 38.657 25.19C38.9399 25.1454 39.1752 25.0314 39.3372 24.7778C39.3693 24.728 39.4884 24.7388 39.5622 24.7091C39.5995 24.6936 39.6246 24.6489 39.6556 24.6174C39.6224 24.5882 39.5926 24.5373 39.5559 24.5321C39.0469 24.46 38.669 24.1319 38.373 23.7764C38.1812 23.5462 38.0278 23.2072 38.0312 22.8574C38.0318 22.8236 38.0507 22.783 38.0375 22.7578C37.9218 22.535 38.002 22.3587 38.1549 22.1909C38.1772 22.1669 38.1806 22.0861 38.16 22.0678C37.9029 21.8376 37.9774 21.533 37.9699 21.2491C37.9568 20.7584 37.9453 20.2682 37.9442 19.7776C37.943 19.2915 37.9505 18.8048 37.9648 18.3187C37.9791 17.8343 37.9923 17.3493 38.0352 16.8678C38.0541 16.6519 38.1337 16.4389 38.203 16.2305C38.2671 16.0359 38.3507 15.8469 38.4314 15.658C38.5425 15.3986 38.6519 15.1358 38.9307 15.0018C38.9542 14.9909 38.9776 14.9692 38.9891 14.9468C39.1299 14.6709 39.4225 14.6348 39.6642 14.5174C39.8199 14.4418 39.9951 14.392 40.1308 14.2901C40.4388 14.0588 40.7944 14.1573 41.1259 14.1263C41.5067 14.0908 41.8943 14.1298 42.2785 14.1309C42.4795 14.1315 42.681 14.1103 42.8814 14.116C43.1545 14.1235 43.4391 14.0731 43.6836 14.2609C43.7317 14.2981 43.8112 14.3016 43.8777 14.3073C44.2281 14.3382 44.5361 14.4607 44.8058 14.6915C44.9982 14.8558 45.2341 14.9772 45.4007 15.1627C45.64 15.4289 45.8106 15.7387 45.9343 16.0908C46.2819 17.0831 46.0935 18.0931 46.1026 19.0974C46.1038 19.1913 46.1152 19.2852 46.1261 19.3785C46.1507 19.5972 46.0906 19.702 45.8753 19.7071C45.6028 19.7134 45.3291 19.6762 45.0554 19.6579C45.0228 19.6556 44.9861 19.6436 44.9575 19.6533C44.5052 19.8039 44.0363 19.6711 43.5771 19.7318C43.4162 19.7529 43.2725 19.544 43.2776 19.3808C43.2868 19.087 43.2919 18.7933 43.2965 18.4996C43.3017 18.1492 43.3085 17.7988 43.3062 17.4484C43.3045 17.1964 43.186 16.9932 43.0045 16.8289C42.8648 16.7017 42.7153 16.5855 42.5653 16.4699C42.5316 16.4441 42.4766 16.4258 42.4359 16.4326C42.0523 16.495 41.6681 16.5552 41.2885 16.637C41.2106 16.6536 41.1563 16.763 41.083 16.818C40.6621 17.1335 40.7245 17.6047 40.7022 18.0387C40.6816 18.4429 40.7137 18.85 40.7102 19.2554C40.7097 19.335 40.673 19.4317 40.6192 19.4896C40.5213 19.5949 40.539 19.6619 40.6032 19.7867C40.6816 19.939 40.7182 20.1285 40.7188 20.3026C40.7217 20.8568 40.6971 21.4105 40.6896 21.9648C40.6885 22.0421 40.7257 22.1194 40.7394 22.1978C40.756 22.2917 40.7583 22.3879 40.7807 22.4801C40.8276 22.6736 40.8488 22.8849 40.9444 23.0521C41.0664 23.2656 41.2416 23.4529 41.4156 23.6303C41.4746 23.6905 41.6 23.7122 41.6933 23.7082C41.9441 23.6979 42.1915 23.6647 42.4113 23.8365C42.4405 23.8594 42.5195 23.8262 42.5722 23.8096C42.6896 23.7723 42.8041 23.6956 42.9203 23.6939C43.3595 23.6865 43.7992 23.7065 44.2384 23.7076C44.6254 23.7082 45.013 23.6973 45.4001 23.6916C45.427 23.691 45.4562 23.6847 45.4808 23.6916C45.991 23.833 46.5017 23.6418 47.0153 23.6962C47.3497 23.7311 47.4333 23.7752 47.427 24.1193C47.4241 24.2802 47.4333 24.4474 47.3943 24.6008C47.3577 24.748 47.2638 24.882 47.1773 25.0572ZM40.3295 31.9606C40.3323 32.335 40.4096 32.7021 40.5934 33.0147C40.8522 33.4556 41.3664 33.4435 41.7929 33.5764C41.8136 33.5827 41.8428 33.5575 41.8691 33.5535C42.0191 33.5311 42.1708 33.4882 42.3203 33.4939C42.7629 33.5105 43.1574 33.2431 43.2433 32.8177C43.2793 32.6374 43.2581 32.4456 43.2627 32.2595C43.2713 31.9033 43.2988 31.5466 43.2822 31.1916C43.2656 30.8269 43.261 30.8126 43.6315 30.7594C43.6755 30.7531 43.7139 30.709 43.7551 30.6821C43.7179 30.6431 43.687 30.5853 43.6418 30.5693C43.5599 30.5412 43.462 30.5538 43.3852 30.5189C43.3394 30.4977 43.2851 30.3797 43.2948 30.3706C43.4711 30.208 43.3732 30.0574 43.2976 29.8936C43.2599 29.8123 43.2593 29.7104 43.2559 29.6171C43.2513 29.4831 43.2444 29.3463 43.265 29.2146C43.2971 29.0125 43.2186 28.7892 43.4133 28.6111C43.47 28.559 43.4683 28.3494 43.411 28.2847C43.2135 28.0614 43.2719 27.8519 43.348 27.6074C43.3996 27.4425 43.3881 27.2518 43.3755 27.0749C43.3629 26.9037 43.3028 26.7365 43.2822 26.5647C43.2599 26.3769 43.2702 26.1851 43.2427 25.9985C43.2324 25.9275 43.1602 25.8112 43.1104 25.8084C42.811 25.7895 42.5075 25.7763 42.2092 25.8032C41.9722 25.825 41.7426 25.9332 41.5055 25.9538C41.3046 25.9716 41.1419 26.0151 40.9656 26.1267C40.7835 26.2418 40.7303 26.4153 40.6306 26.5693C40.3707 26.9718 40.3988 27.4436 40.3318 27.8919C40.3243 27.9418 40.3547 27.9967 40.3627 28.0505C40.3724 28.117 40.3856 28.1845 40.3833 28.2509C40.3678 28.7084 40.3375 29.1659 40.3323 29.6234C40.3232 30.4021 40.3295 31.1813 40.3295 31.9606ZM43.0749 25.411C43.3727 25.3835 43.399 25.3589 43.4196 25.0881C43.4248 25.0211 43.4551 24.953 43.4465 24.8888C43.4368 24.8144 43.4167 24.7205 43.3652 24.6787C43.3274 24.6484 43.2249 24.6724 43.1648 24.701C43.0806 24.7411 43.0096 24.8075 42.9329 24.8625C42.8081 24.9518 42.7068 25.0772 42.7846 25.2198C42.8339 25.3097 42.9753 25.3492 43.0749 25.411ZM44.7039 29.021C44.9581 29.017 45.3148 28.7182 45.3314 28.4811C45.3463 28.2704 45.4637 28.1736 45.6137 28.074C45.6663 28.0391 45.7316 27.9801 45.7368 27.9263C45.7454 27.8381 45.7099 27.7459 45.6927 27.6555C45.6263 27.7185 45.5186 27.7729 45.502 27.8467C45.4608 28.0322 45.3486 28.1324 45.1974 28.2235C45.127 28.2658 45.0823 28.3546 45.0337 28.4279C44.9936 28.4874 44.9667 28.555 44.9317 28.618C44.8619 28.7439 44.7898 28.8693 44.7039 29.021ZM38.7584 26.8476C38.799 26.9077 38.8253 26.9913 38.8694 27.0016C38.9255 27.0148 39.0194 26.9879 39.0549 26.9444C39.1425 26.8373 39.2198 26.7159 39.2731 26.5888C39.296 26.5333 39.2485 26.4491 39.233 26.3775C39.174 26.405 39.1076 26.4227 39.0578 26.4617C38.996 26.5098 38.9427 26.5716 38.8946 26.634C38.8471 26.6959 38.8105 26.7651 38.7584 26.8476ZM45.2094 24.7051C45.3331 24.6942 45.5398 24.4056 45.4969 24.3134C45.4854 24.2888 45.3846 24.271 45.3646 24.2905C45.2839 24.3695 45.214 24.4617 45.1493 24.555C45.1304 24.582 45.1316 24.6335 45.1436 24.6661C45.1516 24.6884 45.1957 24.6976 45.2094 24.7051ZM40.9851 34.1736C41.0515 34.0505 41.1082 33.9852 41.1162 33.9148C41.1208 33.8747 41.0463 33.8249 41.0074 33.7796C40.9559 33.8432 40.8883 33.901 40.8597 33.9737C40.8471 34.0046 40.9152 34.0671 40.9851 34.1736Z" fill="#52433F"/>
<path d="M45.5083 39.1033C45.5083 39.7114 45.5072 40.3189 45.5089 40.9269C45.5095 41.1176 45.4505 41.1697 45.2547 41.18C44.9862 41.1943 44.7188 41.2247 44.4508 41.2487C44.4308 41.2504 44.4096 41.259 44.3907 41.2556C43.6389 41.1033 42.8763 41.2064 42.1199 41.1588C41.837 41.1411 41.5525 41.1554 41.2691 41.1565C41.1265 41.1571 40.9988 41.2144 40.9799 41.3598C40.9559 41.5442 40.9633 41.7348 40.9765 41.9209C40.9862 42.0583 41.036 42.1923 41.0532 42.3297C41.0807 42.5462 41.1488 42.6137 41.3693 42.6069C41.8743 42.592 42.3793 42.5639 42.8843 42.5616C43.4843 42.5593 44.0844 42.5782 44.6844 42.5902C44.7514 42.5914 44.819 42.6069 44.8848 42.6206C45.0022 42.6446 45.0228 42.7128 45.0073 42.8302C44.9879 42.9779 45.0045 43.1302 45.0062 43.2802C45.0079 43.4817 45.0113 43.6833 45.0125 43.8848C45.0148 44.3005 45.0119 44.7162 45.0205 45.1319C45.0234 45.2779 44.9684 45.3529 44.8258 45.354C44.6191 45.3563 44.4119 45.3477 44.2052 45.3506C43.6189 45.3586 43.0331 45.3786 42.4468 45.3781C42.0506 45.3781 41.6544 45.3557 41.2582 45.3351C41.0189 45.3225 40.9977 45.3489 40.9942 45.5813C40.9862 46.1379 41.0738 46.6955 40.9479 47.2503C40.8963 47.4765 40.9879 47.5235 41.2227 47.4948C41.5365 47.457 41.8548 47.4456 42.1714 47.4485C42.4491 47.4507 42.7268 47.4988 43.0045 47.5074C43.1917 47.5132 43.3813 47.4696 43.5685 47.4765C43.9338 47.4903 44.2985 47.5338 44.6638 47.5441C44.8625 47.5498 45.0617 47.504 45.261 47.4966C45.4242 47.4908 45.4837 47.5979 45.4837 47.7485C45.4831 48.4985 45.482 49.2492 45.4831 49.9992C45.4831 50.2483 45.4591 50.2781 45.2037 50.2775C43.9601 50.2746 42.7165 50.2683 41.4729 50.2666C40.5505 50.2655 39.6281 50.2689 38.7057 50.2718C38.4898 50.2723 38.2734 50.2809 38.0575 50.2815C37.848 50.2821 37.7724 50.2128 37.7736 50.0021C37.7781 49.3144 37.7953 48.6268 37.7947 47.9391C37.7947 47.6769 37.7444 47.4141 37.7461 47.1519C37.7478 46.8713 37.7839 46.5913 37.8068 46.3113C37.8108 46.265 37.8354 46.2169 37.8285 46.1734C37.7444 45.6764 37.8085 45.1805 37.8342 44.6841C37.8377 44.6171 37.844 44.545 37.8245 44.4826C37.69 44.052 37.7432 43.6203 37.7993 43.1869C37.8096 43.1084 37.7844 43.0265 37.7799 42.9458C37.7684 42.7471 37.7066 42.5433 37.8635 42.3635C37.8921 42.3309 37.8927 42.233 37.8652 42.2003C37.7518 42.0686 37.7844 41.9295 37.7947 41.7783C37.8045 41.6295 37.7667 41.4778 37.7501 41.3277C37.7449 41.2825 37.7209 41.2201 37.7415 41.1955C37.8234 41.0981 37.8537 41.0082 37.789 40.8851C37.7741 40.8565 37.832 40.7827 37.8652 40.7363C37.9196 40.6607 37.9997 40.5983 38.0358 40.5158C38.1079 40.3515 38.1011 40.1958 37.9052 40.1093C37.7884 40.0578 37.7799 39.9793 37.7839 39.8505C37.793 39.5688 37.7375 39.286 37.7386 39.0031C37.7392 38.7919 37.7713 38.5766 37.8228 38.3722C37.8365 38.3183 37.9751 38.2702 38.0587 38.2657C38.2442 38.2559 38.4314 38.2823 38.6175 38.2811C39.1924 38.2771 39.7678 38.2588 40.3427 38.2617C40.6335 38.2634 40.9244 38.3063 41.2158 38.3166C41.4758 38.3258 41.7368 38.3172 41.9974 38.3115C42.1457 38.308 42.2934 38.288 42.4411 38.288C43.0892 38.2897 43.7368 38.2977 44.385 38.3006C44.6678 38.3017 44.9507 38.2926 45.2329 38.2966C45.435 38.2994 45.4923 38.4426 45.4986 38.6138C45.5043 38.7758 45.4997 38.9384 45.4997 39.101C45.5026 39.1033 45.5055 39.1033 45.5083 39.1033ZM44.3117 39.5711C44.2109 39.515 44.1559 39.4595 44.1199 39.4698C44.0609 39.4869 44.0139 39.5465 43.9618 39.5883C44.0031 39.6221 44.0471 39.6856 44.0861 39.6833C44.1462 39.6788 44.2023 39.6289 44.3117 39.5711ZM41.5456 48.2896C41.442 48.2449 41.3893 48.2014 41.3446 48.2088C41.2988 48.2163 41.2616 48.2741 41.221 48.3102C41.2662 48.3394 41.3103 48.3898 41.3561 48.3915C41.4019 48.3932 41.4489 48.3451 41.5456 48.2896Z" fill="#52433F"/>
<path d="M20.2542 27.2559C20.9774 27.2559 21.6999 27.2553 22.4231 27.2565C22.5903 27.257 22.6527 27.3693 22.5949 27.5004C22.5147 27.6825 22.5525 27.8416 22.5846 28.0243C22.6223 28.2401 22.58 28.4686 22.58 28.6919C22.5794 29.1786 22.5863 29.6652 22.5851 30.1525C22.5834 30.8545 22.5731 31.5564 22.5748 32.2584C22.5765 32.8802 22.5943 33.502 22.5983 34.1238C22.6029 34.8807 22.6 35.6382 22.6017 36.3952C22.6034 37.4762 22.6063 38.5577 22.6086 39.6387C22.6097 40.2674 22.612 40.8955 22.6132 41.5242C22.6155 42.442 22.6229 43.3593 22.6172 44.2771C22.6132 44.8983 22.58 45.5196 22.5771 46.1408C22.5742 46.7958 22.5949 47.4508 22.5949 48.1064C22.5949 48.2043 22.5542 48.3142 22.501 48.3984C22.3882 48.5776 22.3905 48.6916 22.5296 48.8691C22.5679 48.9177 22.5949 48.9887 22.5966 49.0506C22.6052 49.3145 22.6046 49.5785 22.6029 49.8424C22.6017 50.0623 22.5416 50.1379 22.3154 50.147C22.0252 50.1591 21.7337 50.151 21.4429 50.143C21.2757 50.1384 21.1091 50.1161 20.9419 50.1029C20.7689 50.0892 20.6063 50.0875 20.4993 49.8951C20.4466 49.8006 20.3378 49.8607 20.3178 49.9735C20.2874 50.1419 20.1821 50.1676 20.0343 50.1533C19.9147 50.1413 19.7927 50.1459 19.6713 50.1499C19.4234 50.1573 19.3026 50.0508 19.3438 49.8115C19.3908 49.5372 19.3215 49.2429 19.4812 48.987C19.4967 48.9624 19.5001 48.9143 19.487 48.8891C19.2866 48.5061 19.3753 48.0898 19.3622 47.6902C19.3398 47.0174 19.3364 46.3423 19.3702 45.6701C19.3879 45.3163 19.3204 44.9722 19.3312 44.6223C19.3438 44.2118 19.3541 43.8007 19.3553 43.3902C19.3576 42.4993 19.349 41.6078 19.3524 40.7169C19.3541 40.3121 19.377 39.9073 19.3816 39.5019C19.3833 39.341 19.357 39.1801 19.3536 39.0187C19.3438 38.5211 19.3347 38.023 19.3341 37.5254C19.3335 37.2116 19.353 36.8985 19.3564 36.5847C19.361 36.1123 19.3644 35.64 19.3593 35.1682C19.3496 34.2292 19.3261 33.2902 19.3238 32.3506C19.3221 31.7225 19.3553 31.0944 19.3576 30.4657C19.361 29.6681 19.349 28.8705 19.3427 28.0729C19.341 27.8703 19.341 27.667 19.3312 27.4643C19.3238 27.3097 19.3868 27.2376 19.5431 27.2393C19.7796 27.2422 20.0166 27.2399 20.2531 27.2399C20.2542 27.245 20.2542 27.2507 20.2542 27.2559Z" fill="#52433F"/>
<path d="M45.0961 12.0891C44.63 12.0891 44.164 12.0863 43.6979 12.0903C43.3017 12.0937 42.9055 12.108 42.5087 12.1103C42.381 12.1109 42.2528 12.0748 42.1257 12.0783C41.9842 12.0823 41.8388 12.0966 41.7031 12.1344C41.5193 12.1853 40.9811 12.0113 40.8757 11.8469C40.8173 11.7559 40.7755 11.6494 40.7 11.5761C40.6473 11.5246 40.5511 11.5177 40.4744 11.4908C40.4543 11.5641 40.432 11.6374 40.4154 11.7118C40.4114 11.7284 40.4274 11.7496 40.4343 11.7691C40.5425 12.0754 40.5019 12.1132 40.1789 12.076C39.9385 12.0485 39.6934 12.0508 39.4506 12.0519C39.0046 12.0536 38.5586 12.0611 38.1125 12.072C37.7942 12.0794 37.757 12.0113 37.773 11.6941C37.7925 11.307 37.7587 10.9171 37.7513 10.5283C37.7484 10.3737 37.7581 10.2191 37.7587 10.0645C37.7604 9.50629 37.7616 8.94747 37.7621 8.38922C37.7633 7.50518 37.7621 6.62114 37.765 5.7371C37.7667 5.25214 37.7742 4.7666 37.7793 4.28164C37.7862 3.65755 37.8125 3.03288 37.7908 2.40935C37.7833 2.19292 37.82 2.01829 37.9179 1.83564C37.9442 1.78698 37.9081 1.70166 37.8944 1.63467C37.8663 1.49898 37.8142 1.36557 37.8062 1.2293C37.7925 0.980233 37.8154 0.729449 37.8028 0.479811C37.7868 0.167764 37.8028 0.150014 38.1103 0.161465C38.4664 0.174634 38.8231 0.174062 39.1792 0.174634C40.1595 0.176925 41.1391 0.175779 42.1194 0.179215C42.5854 0.180932 43.0515 0.190666 43.5176 0.192384C43.6321 0.192956 43.7472 0.164328 43.8611 0.167764C43.9739 0.171771 44.0878 0.192956 44.1983 0.219294C44.3369 0.251931 44.3461 0.35442 44.3237 0.474086C44.3209 0.488972 44.3667 0.51302 44.3901 0.532487C44.4125 0.503859 44.4577 0.471223 44.4531 0.447175C44.4171 0.233608 44.5476 0.26739 44.6759 0.287429C44.7491 0.298881 44.8236 0.309187 44.8974 0.308614C45.3332 0.307469 45.529 0.53993 45.5078 0.97508C45.4832 1.49268 45.482 2.01199 45.4929 2.52959C45.5003 2.88344 45.4568 2.94814 45.1041 2.94127C44.693 2.93268 44.2819 2.91836 43.8708 2.91607C43.5027 2.91378 43.1351 2.92294 42.7669 2.93153C42.7079 2.93268 42.6432 2.94642 42.5917 2.9739C42.326 3.11704 42.0409 3.08326 41.7592 3.06895C41.5388 3.0575 41.3189 3.01971 41.0996 3.0283C41.0401 3.03059 40.9382 3.1577 40.9364 3.22869C40.9301 3.53902 40.9404 3.85164 40.9748 4.16026C40.9834 4.23984 41.0933 4.32 41.1735 4.37497C41.2227 4.40875 41.3046 4.40131 41.3716 4.40131C41.8829 4.40131 42.3942 4.39157 42.9055 4.40188C43.0314 4.40474 43.1545 4.48089 43.2828 4.50322C43.3801 4.51983 43.4849 4.51467 43.5834 4.49922C43.7036 4.48032 43.8193 4.42192 43.9395 4.41333C44.1823 4.39615 44.4262 4.39558 44.6701 4.39959C44.9135 4.4036 44.9472 4.45227 44.9266 4.6956C44.9072 4.93036 44.8946 5.16568 44.8797 5.40043C44.878 5.42734 44.8688 5.46685 44.8831 5.47945C45.0852 5.6661 44.9392 5.86593 44.9243 6.06804C44.9055 6.32455 44.9409 6.58507 44.9598 6.84329C44.9833 7.1645 44.886 7.25325 44.5694 7.24753C43.868 7.23436 43.166 7.23779 42.464 7.23493C42.1056 7.23321 41.7466 7.22978 41.3882 7.23092C41.2874 7.23092 41.1815 7.22634 41.0876 7.25554C41.0315 7.27329 40.9559 7.3523 40.9559 7.40384C40.957 7.83956 40.9742 8.27528 40.9834 8.711C40.9845 8.77742 40.9719 8.84498 40.957 8.91025C40.9049 9.14271 40.9651 9.23547 41.2033 9.27612C41.4941 9.32651 41.7855 9.37575 42.0776 9.42098C42.1148 9.42671 42.1606 9.41697 42.1938 9.39865C42.4589 9.25379 42.7412 9.29731 43.024 9.30704C43.3206 9.31677 43.6183 9.28757 43.9155 9.29559C44.4102 9.30933 44.9158 9.2389 45.3876 9.45075C45.4442 9.47652 45.5044 9.57042 45.5049 9.6334C45.5055 10.0227 45.486 10.4121 45.4809 10.802C45.4792 10.9291 45.4912 11.0585 45.5141 11.1839C45.5599 11.4335 45.407 11.6889 45.5399 11.9397C45.5513 11.9609 45.4574 12.0708 45.3967 12.0897C45.3034 12.1189 45.1963 12.1057 45.095 12.1103C45.0961 12.1029 45.0961 12.096 45.0961 12.0891ZM43.2399 6.50949C43.1763 6.48888 43.1402 6.46368 43.1173 6.47227C42.9524 6.53583 42.8677 6.42189 42.7503 6.34116C42.6312 6.25928 42.4738 6.22607 42.3283 6.19458C42.2831 6.18485 42.1909 6.24038 42.1766 6.28447C42.1611 6.33199 42.1938 6.41902 42.235 6.45853C42.4709 6.6887 42.9055 6.71561 43.2399 6.50949ZM39.0951 0.95275C39.0962 0.815334 38.7945 0.550237 38.6805 0.57543C38.5534 0.602913 38.4406 0.663032 38.4641 0.817624C38.471 0.860567 38.5677 0.933855 38.5866 0.924121C38.7097 0.858849 38.7842 0.903509 38.8678 0.994547C38.8992 1.0289 38.9794 1.0289 39.0355 1.02432C39.0613 1.02146 39.0825 0.969354 39.0951 0.95275ZM39.3098 10.1161C39.2789 10.0897 39.1861 9.97866 39.1598 9.99297C39.0327 10.0605 38.8849 10.1407 38.8202 10.2581C38.7664 10.356 38.8912 10.4241 39.0086 10.4241C39.2084 10.4241 39.3109 10.3417 39.3098 10.1161ZM39.4254 8.26039C39.5331 8.35086 39.6184 8.45106 39.6424 8.43789C39.7277 8.39151 39.7919 8.30677 39.8634 8.23635C39.801 8.17852 39.7386 8.07431 39.6774 8.07488C39.6075 8.0766 39.5394 8.17165 39.4254 8.26039ZM41.6665 5.73825C41.5966 5.81955 41.5187 5.88826 41.5273 5.90257C41.5645 5.96212 41.6218 6.02224 41.6853 6.04686C41.7111 6.05716 41.8147 5.9667 41.8085 5.94093C41.793 5.8791 41.7334 5.82757 41.6665 5.73825Z" fill="#52433F"/>
<path d="M19.6158 14.2134C19.4732 14.1092 19.4085 14.0313 19.4629 13.8366C19.5259 13.611 19.4801 13.3557 19.4818 13.1129C19.483 12.9125 19.487 12.7121 19.4858 12.5117C19.4818 11.8435 19.4727 11.1753 19.4721 10.5066C19.4721 9.8596 19.4841 9.21202 19.483 8.56503C19.4824 8.37093 19.4532 8.17683 19.4423 7.98273C19.4377 7.90314 19.4463 7.82241 19.4532 7.74282C19.4635 7.61571 19.4767 7.48918 19.491 7.36264C19.5042 7.24412 19.5202 7.1256 19.5351 7.00708C19.542 6.95383 19.5568 6.90058 19.5546 6.84791C19.5305 6.24786 19.4853 5.64781 19.4824 5.04776C19.4773 3.97306 19.5007 2.89778 19.5047 1.82308C19.5065 1.36503 19.4881 0.906975 19.4807 0.448923C19.4795 0.368192 19.4818 0.286315 19.4933 0.206156C19.5156 0.0475555 19.6135 0.00575826 19.7681 0.0109113C20.1603 0.0235078 20.5537 0.0189272 20.9465 0.0240803C21.0186 0.0252255 21.0907 0.0406847 21.1623 0.0532811C21.2012 0.0601519 21.2396 0.0864899 21.2774 0.0859173C21.5894 0.0807642 21.9015 0.0698855 22.2135 0.0641599C22.4975 0.0595793 22.6103 0.171802 22.6075 0.455221C22.5994 1.21272 22.5846 1.97023 22.5817 2.7283C22.5788 3.39019 22.5891 4.05265 22.5932 4.71453C22.5949 5.01856 22.6029 5.32202 22.5954 5.62605C22.5932 5.72453 22.5462 5.8213 22.5302 5.92035C22.5181 5.99307 22.5033 6.07323 22.5222 6.14136C22.6842 6.72309 22.584 7.31226 22.5823 7.89856C22.5811 8.25641 22.5926 8.61427 22.5983 8.97155C22.5989 8.99846 22.6012 9.02594 22.6006 9.05285C22.5886 9.69012 22.5651 10.3274 22.5662 10.9646C22.5685 11.7891 22.592 12.6136 22.6035 13.4381C22.6069 13.6803 22.6619 13.9443 22.5828 14.1584C22.5021 14.3777 22.5674 14.542 22.5863 14.7407C22.6246 15.1558 22.5903 15.5778 22.5886 15.9963C22.5863 16.5626 22.5857 17.1283 22.5846 17.6946C22.584 18.1057 22.5817 18.5168 22.5857 18.9284C22.5903 19.3865 22.6057 19.844 22.6069 20.302C22.608 20.7143 22.6029 21.1265 22.588 21.5382C22.5846 21.6401 22.5491 21.7495 22.4998 21.8399C22.4237 21.9791 22.4363 22.081 22.509 22.2304C22.6309 22.4806 22.667 22.7652 22.5702 23.0412C22.5559 23.0818 22.466 23.1185 22.4111 23.1185C22.0068 23.1179 21.6026 23.1064 21.1984 23.1002C20.6991 23.0921 20.1998 23.0881 19.7006 23.0772C19.5288 23.0732 19.424 22.8894 19.4337 22.6696C19.4549 22.1772 19.4641 21.6848 19.4801 21.1924C19.491 20.858 19.5053 20.5236 19.5173 20.1892C19.5191 20.1423 19.5328 20.085 19.5122 20.0495C19.2625 19.6241 19.3622 19.1535 19.345 18.7023C19.3198 18.0616 19.329 17.4197 19.3272 16.7779C19.3255 16.0765 19.3267 15.3751 19.329 14.6743C19.3295 14.5025 19.3862 14.4836 19.5574 14.5249C19.6662 14.5512 19.7979 14.5443 19.9032 14.5077C20.0515 14.4561 20.0813 14.3187 20.0034 14.1905C19.9313 14.072 19.8162 14.0731 19.7046 14.1533C19.6794 14.1727 19.6507 14.1899 19.6158 14.2134ZM20.6109 18.6988C20.6396 18.6788 20.734 18.6456 20.7403 18.6004C20.7501 18.5322 20.718 18.4309 20.6665 18.3885C20.6207 18.3507 20.5073 18.3444 20.4535 18.3759C20.197 18.5265 20.1449 18.5259 19.9462 18.3112C19.9324 18.2963 19.9198 18.2797 19.905 18.2666C19.799 18.1744 19.6885 18.1887 19.5935 18.274C19.4841 18.3725 19.5591 18.4504 19.6376 18.5271C19.7435 18.6307 19.8374 18.7469 19.9485 18.8431C19.9811 18.8712 20.0951 18.87 20.1065 18.8477C20.2141 18.6467 20.3842 18.657 20.6109 18.6988ZM20.2851 7.02025C20.2565 6.99448 20.2073 6.91375 20.1426 6.89886C20.0281 6.87253 19.9055 7.03342 19.9198 7.19774C19.925 7.25672 19.988 7.34546 20.0407 7.35921C20.1603 7.39012 20.2823 7.23553 20.2851 7.02025ZM22.2267 8.39326C22.1569 8.33257 22.0922 8.26443 22.0824 8.2713C22.0229 8.31482 21.9759 8.37494 21.925 8.42933C21.9645 8.46426 22.0131 8.53411 22.0412 8.52666C22.0996 8.51063 22.1466 8.45452 22.2267 8.39326Z" fill="#52433F"/>
</g>
<defs>
<clipPath id="clip0_0_422">
<rect width="47.2091" height="72" fill="white" transform="translate(0.220215)"/>
</clipPath>
</defs>
</svg>
