<svg width="324" height="419" viewBox="0 0 324 419" fill="none" xmlns="http://www.w3.org/2000/svg">
<g opacity="0.3" clip-path="url(#clip0_21_4)">
<path d="M-14.6324 397.659C-9.2619 396.291 -4.57896 394.946 0.178751 393.997C1.1623 393.802 3.19504 394.93 3.37305 395.77C3.65872 396.987 2.8249 398.542 2.23008 399.828C1.99684 400.336 1.11517 400.669 0.45422 400.854C-3.56082 401.988 -7.58282 403.148 -11.6314 404.148C-13.7016 404.664 -15.8302 404.204 -16.1232 401.874C-16.3084 400.49 -15.1191 398.905 -14.6419 397.643L-14.6324 397.659Z" fill="#F0CBA2"/>
<path d="M87.2733 356.385C89.3616 355.18 91.3809 353.816 93.5667 352.818C95.2471 352.045 97.1087 352.307 98.0284 354.166C98.8912 355.926 98.3667 357.676 96.6731 358.654C92.9405 360.809 89.1794 362.914 85.3113 364.797C83.5512 365.66 81.4297 365.744 80.3486 363.606C79.315 361.55 80.3158 359.942 82.129 358.829C83.7448 357.83 85.4176 356.93 87.0619 355.981L87.2993 356.392L87.2733 356.385Z" fill="#F0CBA2"/>
<path d="M43.8979 384.432C41.2288 385.315 37.6028 386.553 33.9528 387.674C32.1325 388.243 30.3271 387.926 29.4922 386.062C28.5477 383.932 29.7079 382.144 31.6002 381.359C35.1192 379.897 38.7952 378.783 42.4263 377.63C44.3383 377.03 46.2973 376.929 47.4372 379.056C48.3657 380.778 47.3326 382.558 43.9143 384.422L43.8979 384.432Z" fill="#F0CBA2"/>
<path d="M184.325 283.843C185.381 284.001 187.254 283.752 188.016 284.54C188.807 285.378 189.192 287.83 188.58 288.556C185.593 292.078 182.339 295.404 178.872 298.436C178.128 299.085 175.586 298.82 174.834 298.049C174.072 297.261 173.954 295.005 174.554 293.957C175.531 292.231 177.317 290.958 178.769 289.485C180.452 287.768 182.145 286.067 184.342 283.834L184.325 283.843Z" fill="#F0CBA2"/>
<path d="M143.463 320.041C144.045 320.1 145.813 319.781 146.485 320.489C147.348 321.416 148.055 323.551 147.567 324.491C145.397 328.593 141.596 331.161 137.521 333.141C136.736 333.528 134.826 333.03 134.359 332.335C133.724 331.387 133.696 329.781 133.98 328.564C134.174 327.685 135.228 326.966 135.995 326.282C138.219 324.363 140.514 322.49 143.454 320.025L143.463 320.041Z" fill="#F0CBA2"/>
<path d="M196.568 272.543C196.765 271.706 196.753 270.091 197.475 268.95C199.073 266.515 201.032 264.288 202.887 262.033C204.187 260.449 205.835 260.265 207.493 261.391C209.045 262.446 209.237 264.221 208.329 265.534C206.277 268.473 204.069 271.37 201.558 273.894C200.113 275.342 198.062 274.75 196.568 272.543Z" fill="#F0CBA2"/>
<path d="M113.16 340.387C115.35 339.32 116.859 338.251 118.473 337.933C119.584 337.73 121.428 338.266 121.971 339.093C122.533 339.952 122.416 342.256 121.74 342.756C118.423 345.175 114.889 347.369 111.242 349.256C110.516 349.631 108.383 348.67 107.912 347.78C107.414 346.84 107.669 344.851 108.412 344.049C109.888 342.43 111.913 341.304 113.176 340.378L113.16 340.387Z" fill="#F0CBA2"/>
<path d="M160.632 311.159C158.965 307.474 161.082 305.748 162.855 304.263C164.937 302.513 166.383 298.981 170.095 300.588C171.711 301.299 172.558 303.221 171.502 304.467C169.206 307.174 166.518 309.581 163.722 311.765C163.105 312.253 161.382 311.318 160.623 311.143L160.632 311.159Z" fill="#F0CBA2"/>
<path d="M64.9591 374.355C62.9883 374.966 60.8847 375.918 58.712 376.142C57.6386 376.257 55.6394 375.263 55.445 374.432C55.1593 373.216 55.6843 371.049 56.619 370.466C58.8969 369.019 61.5609 368.051 64.1857 367.281C65.858 366.798 67.1981 367.866 67.7098 369.588C68.3962 371.954 66.533 372.942 64.9755 374.345L64.9591 374.355Z" fill="#F0CBA2"/>
<path d="M21.4832 393.075C19.4909 393.612 17.5252 394.308 15.4777 394.635C13.7503 394.909 12.1826 394.017 12.0688 392.263C11.9932 391.144 12.7017 389.485 13.5915 388.862C15.1105 387.81 17.0681 387.403 18.8479 386.726C20.8604 385.959 22.7992 386.089 23.6943 388.247C24.5799 390.389 23.3077 391.869 21.4668 393.085L21.4832 393.075Z" fill="#F0CBA2"/>
</g>
<g opacity="0.3" clip-path="url(#clip1_21_4)">
<path d="M212.67 247.781C215.926 243.296 218.669 239.269 221.722 235.499C222.354 234.72 224.638 234.289 225.312 234.822C226.309 235.574 226.662 237.304 227.026 238.673C227.171 239.213 226.706 240.033 226.315 240.597C223.952 244.035 221.6 247.498 219.125 250.854C217.862 252.574 215.931 253.581 214.217 251.976C213.19 251.029 213.092 249.05 212.652 247.774L212.67 247.781Z" fill="#F0CBA2"/>
<path d="M264.676 150.911C265.512 148.649 266.194 146.31 267.237 144.145C268.035 142.477 269.635 141.489 271.53 142.331C273.318 143.134 274.033 144.815 273.355 146.649C271.862 150.692 270.314 154.715 268.542 158.635C267.74 160.423 266.162 161.844 263.964 160.89C261.855 159.97 261.597 158.093 262.281 156.079C262.885 154.278 263.597 152.516 264.255 150.735L264.7 150.9L264.676 150.911Z" fill="#F0CBA2"/>
<path d="M249.236 200.202C247.748 202.588 245.75 205.857 243.659 209.052C242.622 210.653 241.031 211.562 239.198 210.662C237.11 209.628 236.86 207.511 237.814 205.698C239.586 202.325 241.702 199.119 243.757 195.911C244.845 194.228 246.287 192.899 248.523 193.806C250.338 194.537 250.681 196.567 249.243 200.185L249.236 200.202Z" fill="#F0CBA2"/>
<path d="M292.966 33.0936C293.879 32.5402 295.162 31.1518 296.251 31.271C297.394 31.4099 299.258 33.0498 299.251 33.9987C299.204 38.6168 298.827 43.2543 298.098 47.8024C297.94 48.7765 295.816 50.198 294.744 50.0854C293.655 49.9662 292.122 48.3069 291.914 47.1168C291.563 45.1651 292.124 43.0446 292.298 40.9837C292.495 38.5871 292.71 36.1971 292.973 33.0757L292.966 33.0936Z" fill="#F0CBA2"/>
<path d="M284.67 87.0484C285.155 86.7216 286.31 85.3471 287.28 85.4624C288.536 85.623 290.444 86.8138 290.669 87.8483C291.622 92.3905 290.339 96.7946 288.47 100.921C288.114 101.721 286.327 102.559 285.523 102.322C284.429 101.999 283.38 100.782 282.822 99.6644C282.409 98.8641 282.761 97.6379 282.914 96.6216C283.397 93.7236 283.966 90.8164 284.652 87.0418L284.67 87.0484Z" fill="#F0CBA2"/>
<path d="M295.162 16.578C294.778 15.8088 293.737 14.5738 293.564 13.2346C293.236 10.3405 293.32 7.37562 293.306 4.45561C293.294 2.40673 294.443 1.21225 296.438 1.01815C298.306 0.837993 299.588 2.08071 299.729 3.67118C300.028 7.24315 300.181 10.8825 299.863 14.4286C299.677 16.4651 297.721 17.3212 295.162 16.578Z" fill="#F0CBA2"/>
<path d="M274.363 122.063C275.366 119.843 275.844 118.056 276.882 116.78C277.607 115.914 279.368 115.148 280.313 115.437C281.295 115.739 282.677 117.585 282.477 118.402C281.471 122.382 280.155 126.329 278.555 130.11C278.237 130.863 275.982 131.487 275.051 131.103C274.067 130.698 272.992 129.006 273.051 127.914C273.152 125.725 273.99 123.565 274.37 122.046L274.363 122.063Z" fill="#F0CBA2"/>
<path d="M292.199 69.2448C288.562 67.4757 289.086 64.7953 289.502 62.5199C289.985 59.8442 288.84 56.203 292.722 55.0664C294.419 54.5804 296.299 55.518 296.283 57.1514C296.247 60.7006 295.717 64.2699 294.963 67.7359C294.8 68.5056 292.877 68.8882 292.181 69.2383L292.199 69.2448Z" fill="#F0CBA2"/>
<path d="M258.996 178.993C257.871 180.722 256.861 182.798 255.333 184.359C254.581 185.134 252.408 185.647 251.728 185.132C250.731 184.379 249.75 182.377 250.096 181.331C250.924 178.763 252.354 176.316 253.881 174.046C254.858 172.606 256.572 172.571 258.065 173.568C260.105 174.949 259.304 176.9 259.003 178.975L258.996 178.993Z" fill="#F0CBA2"/>
<path d="M237.52 221.175C236.33 222.861 235.263 224.653 233.897 226.213C232.744 227.527 230.967 227.843 229.759 226.566C228.986 225.754 228.471 224.026 228.757 222.978C229.253 221.198 230.499 219.634 231.435 217.976C232.493 216.1 234.067 214.961 236.135 216.049C238.184 217.13 238.152 219.081 237.513 221.193L237.52 221.175Z" fill="#F0CBA2"/>
</g>
<defs>
<clipPath id="clip0_21_4">
<rect width="264.488" height="30.8348" fill="white" transform="translate(222.2 286.18) rotate(150)"/>
</clipPath>
<clipPath id="clip1_21_4">
<rect width="264.488" height="30.8348" fill="white" transform="translate(323.592 10.687) rotate(110.279)"/>
</clipPath>
</defs>
</svg>
