<svg width="40" height="40" viewBox="0 0 40 40" fill="none" xmlns="http://www.w3.org/2000/svg">
<path d="M6.66671 3.33325C4.82576 3.33325 3.33337 4.82564 3.33337 6.66659V14.9999C3.33337 16.8409 4.82576 18.3333 6.66671 18.3333H15C16.841 18.3333 18.3334 16.8409 18.3334 14.9999V6.66659C18.3334 4.82564 16.841 3.33325 15 3.33325H6.66671Z" fill="#F1AC1D"/>
<path d="M25.0001 3.33325C23.1591 3.33325 21.6667 4.82564 21.6667 6.66659V14.9999C21.6667 16.8409 23.1591 18.3333 25.0001 18.3333H33.3334C35.1744 18.3333 36.6667 16.8409 36.6667 14.9999V6.66659C36.6667 4.82564 35.1744 3.33325 33.3334 3.33325H25.0001Z" fill="#F1AC1D"/>
<path d="M3.33337 24.9998C3.33337 23.1588 4.82576 21.6665 6.66671 21.6665H15C16.841 21.6665 18.3334 23.1588 18.3334 24.9998V33.3332C18.3334 35.1742 16.841 36.6665 15 36.6665H6.66671C4.82576 36.6665 3.33337 35.1742 3.33337 33.3332V24.9998Z" fill="#F1AC1D"/>
<path d="M25.0001 21.6665C23.1591 21.6665 21.6667 23.1588 21.6667 24.9998V33.3332C21.6667 35.1742 23.1591 36.6665 25.0001 36.6665H33.3334C35.1744 36.6665 36.6667 35.1742 36.6667 33.3332V24.9998C36.6667 23.1588 35.1744 21.6665 33.3334 21.6665H25.0001Z" fill="#F1AC1D"/>
</svg>
