<svg width="406" height="492" viewBox="0 0 406 492" fill="none" xmlns="http://www.w3.org/2000/svg">
<g clip-path="url(#clip0_0_52)">
<g opacity="0.5">
<path d="M98.7781 144.134C95.5734 146.428 92.7389 147.827 89.2907 148.056C84.1983 148.406 81.6169 150.483 81.0139 155.517C80.6362 158.794 80.5405 162.384 81.4698 165.493C83.6843 172.897 85.8086 180.514 92.186 185.801C92.7778 186.295 92.877 187.38 93.2446 188.174C93.8485 189.503 94.4791 190.815 95.0829 192.144C95.5729 193.241 96.0361 194.356 96.5436 195.48C95.0049 195.761 93.0791 196.794 92.0438 196.208C89.2651 194.657 86.5599 192.75 84.426 190.431C75.8463 181.144 65.4567 174.117 55.6048 166.393C44.8339 157.968 33.1917 150.959 20.8303 145.187C17.4567 143.604 13.6232 143.013 9.97871 142.068C7.60205 141.48 5.11595 141.308 2.82039 140.552C1.88978 140.242 0.921145 138.999 0.688124 138.001C0.585789 137.378 1.63375 136.116 2.43605 135.705C4.33431 134.805 6.4168 134.244 8.41137 133.549C13.2999 131.838 18.3108 130.43 23.0418 128.362C30.2677 125.195 37.3537 121.697 44.4222 118.173C52.9881 113.897 61.6687 109.737 69.9541 104.916C73.6643 102.751 76.4702 99.0319 79.8387 96.1707C81.295 94.9472 82.9296 93.6451 84.7 93.2507C86.2127 92.8719 89.2295 93.3854 89.4289 94.098C89.8973 95.7462 89.6406 98.215 88.6186 99.5754C87.0405 101.722 84.6137 103.276 82.5492 105.09C73.2903 113.271 71.1746 122.595 77.566 133.624C77.9437 134.259 78.5614 134.85 79.2075 135.193C84.9707 138.084 89.7958 143.048 96.8849 142.999C97.2581 142.984 97.6281 143.432 98.7781 144.134Z" fill="#F0CBA2"/>
<path d="M338.859 284.8C339.939 284.053 340.548 283.347 341.305 283.158C345.372 282.062 349.164 280.84 350.397 276.006C350.534 275.456 352.172 274.918 353.033 275.005C353.645 275.064 354.402 276.101 354.619 276.84C354.871 277.634 354.749 278.672 354.486 279.497C353.441 282.866 344.561 287.54 341.122 286.498C340.404 286.279 339.814 285.554 338.842 284.773L338.859 284.8Z" fill="#F0CBA2"/>
<path d="M207.887 221.177C213.381 219.222 214.095 214.766 215.314 210.554C215.569 209.659 216.791 209.011 217.551 208.244C218.148 209.271 219.401 210.481 219.227 211.324C218.522 214.394 217.665 217.524 216.172 220.267C214.444 223.471 211.573 223.82 207.887 221.177Z" fill="#F0CBA2"/>
<path d="M316.653 284.566C317.01 284.409 317.51 284.004 317.767 284.104C321.949 285.693 326.147 284.856 330.379 284.304C331.402 284.17 332.584 284.047 333.515 284.357C335.252 284.904 335.546 286.168 334.213 287.464C331.137 290.479 318.967 289.144 316.495 285.551C316.372 285.363 316.571 284.965 316.626 284.583L316.653 284.566Z" fill="#F0CBA2"/>
<path d="M203.468 223.079C200.21 226.634 195.658 227.166 191.249 224.997C188.54 223.668 186.759 221.654 187.318 217.837C191.962 222.114 197.806 222.153 203.441 223.096L203.468 223.079Z" fill="#F0CBA2"/>
<path d="M369.268 253.469C369.302 254.98 369.664 256.583 369.299 258.011C369.08 258.845 367.734 259.42 366.921 260.107C366.367 259.32 365.448 258.619 365.294 257.8C364.636 253.938 364.13 250.014 363.757 246.118C363.674 245.291 364.373 244.372 364.717 243.495C365.611 243.867 367.102 244.039 367.32 244.663C368.331 247.488 368.986 250.471 369.775 253.366C369.606 253.4 369.437 253.435 369.285 253.496L369.268 253.469Z" fill="#F0CBA2"/>
<path d="M296.731 269.836C298.561 272.508 299.803 275.336 301.922 277.166C304.077 279.05 307.1 279.982 309.738 281.318C308.05 283.882 305.988 284.008 301.846 281.778C297.023 279.153 294.842 274.602 296.749 269.862L296.731 269.836Z" fill="#F0CBA2"/>
<path d="M350.2 220.312C352.413 218.899 353.774 219.923 354.58 221.503C356.307 224.894 357.882 228.347 359.28 231.878C359.55 232.582 358.787 233.696 358.506 234.609C357.594 234.211 356.556 233.971 355.849 233.361C355.205 232.787 354.865 231.86 354.506 231.021C353.073 227.552 351.694 224.048 350.183 220.285L350.2 220.312Z" fill="#F0CBA2"/>
<path d="M326.168 197.504C327.002 197.609 328.087 197.396 328.644 197.836C332.283 200.816 335.815 203.867 339.276 207.042C339.744 207.463 339.831 208.939 339.455 209.416C339.079 209.893 337.844 209.936 337.063 209.797C336.398 209.658 335.736 209.057 335.215 208.555C331.995 205.222 328.839 201.81 325.628 198.433C325.808 198.124 325.988 197.814 326.15 197.478L326.168 197.504Z" fill="#F0CBA2"/>
<path d="M300.44 187.349C304.975 185.448 313.645 189.27 316.253 193.77C309.88 194.269 305.766 190.565 300.44 187.349Z" fill="#F0CBA2"/>
<path d="M181.838 203.411C182.506 208.34 181.336 213.21 186.552 215.617C183.171 217.643 181.665 217.097 179.484 213.889C177.197 210.519 177.756 206.817 181.821 203.384L181.838 203.411Z" fill="#F0CBA2"/>
<path d="M354.413 261.525C355.61 261.89 356.95 262.007 357.932 262.629C360.754 264.42 363.503 266.336 366.127 268.411C366.808 268.923 366.941 270.177 367.308 271.087C366.232 271.256 364.949 271.867 364.17 271.497C359.956 269.391 357.04 265.821 353.587 262.833C353.839 262.4 354.108 261.993 354.386 261.542L354.413 261.525Z" fill="#F0CBA2"/>
<path d="M261.235 180.167C255.087 181.593 250.248 177.367 244.713 177.508C248.868 173.863 258.159 175.36 261.235 180.167Z" fill="#F0CBA2"/>
<path d="M405.367 309.5C402.646 311.247 401.268 310.08 400.206 308.169C399.048 306.053 397.846 303.928 396.893 301.716C396.569 300.931 396.932 299.85 396.965 298.908C398.03 299.13 399.674 299.01 400.051 299.644C401.993 302.78 403.587 306.144 405.367 309.5Z" fill="#F0CBA2"/>
<path d="M344.011 257.689C339.515 255.155 335.038 252.647 330.516 250.131C330.669 249.723 330.823 249.315 330.977 248.908C334.835 247.144 337.629 250.411 340.665 251.947C342.613 252.931 345.521 253.746 345.252 256.721C344.859 257.056 344.421 257.381 344.028 257.716L344.011 257.689Z" fill="#F0CBA2"/>
<path d="M299.626 247.923C298.133 251.893 296.875 255.403 295.465 258.857C295.239 259.389 294.357 259.853 293.708 259.972C293.325 260.031 292.434 259.197 292.471 258.904C292.88 256.259 293.041 253.469 294.071 251.069C294.883 249.156 296.47 247.08 299.626 247.923Z" fill="#F0CBA2"/>
<path d="M321.669 243.473C317.856 243.788 314.594 244.126 311.324 244.277C310.719 244.29 309.764 243.767 309.572 243.241C309.371 242.759 309.76 241.776 310.225 241.317C312.72 238.76 318.755 239.671 321.696 243.455L321.669 243.473Z" fill="#F0CBA2"/>
<path d="M274.135 179.873C277.013 177.372 281.555 178.227 286.352 182.096C283.556 184.429 278.942 183.583 274.135 179.873Z" fill="#F0CBA2"/>
<path d="M377.262 280.776C378.833 281.011 379.74 280.876 380.163 281.288C382.433 283.289 384.639 285.369 386.703 287.581C387.179 288.074 386.949 289.183 387.033 290.01C386.206 290.092 385.021 290.563 384.588 290.195C381.78 287.781 378.883 285.349 377.262 280.776Z" fill="#F0CBA2"/>
<path d="M211.851 174.103C207.364 172.866 205.079 170.608 203.379 165.972C206.955 165.237 211.386 169.308 211.851 174.103Z" fill="#F0CBA2"/>
<path d="M220.041 203.927C216.158 201.451 216.261 198.163 216.122 195.033C216.108 194.545 216.985 193.663 217.536 193.57C218.087 193.476 219.123 194.062 219.297 194.562C220.362 197.352 221.346 200.196 220.024 203.9L220.041 203.927Z" fill="#F0CBA2"/>
<path d="M146.519 143.724C142.179 147.03 139.402 146.474 135.359 141.535C139.68 140.886 143.016 142.878 146.519 143.724Z" fill="#F0CBA2"/>
<path d="M114.671 141.34C118.012 139.954 121.102 141.454 124.215 142.173C124.437 142.219 124.672 144.212 124.279 144.547C122.34 146.202 116.366 144.215 114.698 141.322L114.671 141.34Z" fill="#F0CBA2"/>
<path d="M210.543 179.638C208.209 183.201 204.468 182.051 201.36 183.092C201.542 178.64 204.988 177.415 210.543 179.638Z" fill="#F0CBA2"/>
<path d="M161.573 146.771C165.937 146.362 168.882 148.226 172.069 149.932C168.983 152.991 164.745 151.783 161.573 146.771Z" fill="#F0CBA2"/>
<path d="M233.169 178.179C231.065 180.632 228.156 179.933 225.421 179.733C224.924 179.676 224.14 178.772 224.108 178.256C224.102 177.722 224.873 176.796 225.344 176.755C227.903 176.571 230.461 176.619 233.029 176.622C233.061 177.138 233.11 177.68 233.142 178.196L233.169 178.179Z" fill="#F0CBA2"/>
<path d="M182.83 154.606C187.958 152.852 190.623 154.172 192.774 159.202C188.877 158.806 186.27 156.874 182.83 154.606Z" fill="#F0CBA2"/>
<path d="M190.818 193.227C189.623 188.72 191.183 186.662 195.802 186.7C195.574 190.031 193.723 191.936 190.818 193.227Z" fill="#F0CBA2"/>
<path d="M111.804 141.112C110.41 144.825 108.397 145.608 106.105 145.732C105.429 145.753 104.68 144.902 103.99 144.434C104.43 143.763 104.749 142.672 105.372 142.455C107.162 141.856 109.055 141.649 111.804 141.112Z" fill="#F0CBA2"/>
</g>
</g>
<defs>
<clipPath id="clip0_0_52">
<rect width="250.348" height="423.666" fill="white" transform="translate(0 137.302) rotate(-33.2604)"/>
</clipPath>
</defs>
</svg>
