<svg width="20" height="20" viewBox="0 0 20 20" fill="none" xmlns="http://www.w3.org/2000/svg">
<g clip-path="url(#clip0_28_3292)">
<path d="M10.4 5.13277C10.348 5.13334 10.2965 5.12366 10.2482 5.10429C10.2 5.08492 10.1561 5.05624 10.1189 5.01989C10.0818 4.98354 10.0522 4.94023 10.0317 4.89243C10.0113 4.84463 10.0006 4.79328 10 4.74131C10 3.22664 11.2544 1.99998 12.7989 1.99998C12.8509 1.99927 12.9026 2.00885 12.9509 2.02817C12.9992 2.04749 13.0432 2.07616 13.0803 2.11254C13.1175 2.14892 13.1471 2.19229 13.1675 2.24015C13.1878 2.28802 13.1985 2.33943 13.1989 2.39144C13.1989 3.90611 11.9456 5.13277 10.4 5.13277Z" fill="#1E110D"/>
<path d="M10.4001 5.13277C10.3481 5.13334 10.2966 5.12366 10.2483 5.10429C10.2001 5.08492 10.1562 5.05624 10.119 5.01989C10.0819 4.98354 10.0523 4.94023 10.0318 4.89243C10.0114 4.84463 10.0007 4.79328 10.0001 4.74131C10.0001 3.22664 11.2545 1.99998 12.799 1.99998C12.851 1.99927 12.9027 2.00885 12.951 2.02817C12.9993 2.04749 13.0433 2.07616 13.0804 2.11254C13.1176 2.14892 13.1472 2.19229 13.1676 2.24015C13.1879 2.28802 13.1986 2.33943 13.199 2.39144C13.199 3.90611 11.9457 5.13277 10.4001 5.13277ZM16.2401 13.3792C16.3948 13.4922 16.4449 13.6992 16.3574 13.8677C14.9494 16.6261 13.8262 18 12.8001 18C12.3222 18 11.8529 17.8485 11.3953 17.5541C11.0669 17.3432 10.6865 17.2273 10.2963 17.219C9.9061 17.2107 9.52119 17.3104 9.1841 17.5072C8.62943 17.8325 8.10143 18 7.6001 18C6.09076 18 3.6001 13.4485 3.6001 10.9514C3.6001 8.28478 5.02836 6.25171 7.2001 6.25171C8.22196 6.25171 9.1041 6.39891 9.84543 6.69864C10.159 6.82451 10.5142 6.81597 10.8204 6.67197C11.422 6.38824 12.2156 6.25171 13.199 6.25171C14.4012 6.25171 15.4497 6.83837 16.3201 7.97437C16.3516 8.01534 16.3745 8.06221 16.3876 8.1122C16.4006 8.1622 16.4035 8.2143 16.396 8.26542C16.3886 8.31655 16.3709 8.36566 16.3441 8.40984C16.3174 8.45402 16.282 8.49238 16.2401 8.52264C15.2684 9.23731 14.8001 10.0384 14.8001 10.9514C14.8001 11.8634 15.2684 12.6656 16.2401 13.3792Z" fill="#1E110D"/>
<path d="M16.2401 13.3792C16.3948 13.4922 16.4449 13.6992 16.3574 13.8677C14.9494 16.6261 13.8262 18 12.8001 18C12.3222 18 11.8529 17.8485 11.3953 17.5541C11.0669 17.3432 10.6865 17.2273 10.2963 17.219C9.9061 17.2107 9.52119 17.3104 9.1841 17.5072C8.62943 17.8325 8.10143 18 7.6001 18C6.09076 18 3.6001 13.4485 3.6001 10.9514C3.6001 8.28478 5.02836 6.25171 7.2001 6.25171C8.22196 6.25171 9.1041 6.39891 9.84543 6.69864C10.159 6.82451 10.5142 6.81598 10.8204 6.67198C11.422 6.38824 12.2156 6.25171 13.199 6.25171C14.4012 6.25171 15.4497 6.83838 16.3201 7.97438C16.3516 8.01534 16.3745 8.06221 16.3876 8.1122C16.4006 8.1622 16.4035 8.2143 16.396 8.26542C16.3886 8.31655 16.3709 8.36566 16.3441 8.40984C16.3174 8.45402 16.282 8.49238 16.2401 8.52264C15.2684 9.23731 14.8001 10.0384 14.8001 10.9514C14.8001 11.8634 15.2684 12.6656 16.2401 13.3792Z" fill="#1E110D"/>
</g>
<defs>
<clipPath id="clip0_28_3292">
<rect width="16" height="16" fill="white" transform="translate(2 2)"/>
</clipPath>
</defs>
</svg>
