<svg width="40" height="40" viewBox="0 0 40 40" fill="none" xmlns="http://www.w3.org/2000/svg">
<g clip-path="url(#clip0_0_530)">
<path d="M33.7754 32.2206C33.6864 31.6593 33.5974 31.1661 33.5618 30.6218C33.455 29.5503 33.2948 28.4617 32.9211 27.4582C32.5473 26.4547 31.9778 25.5363 31.1947 24.8899C30.4472 24.2606 29.6819 23.7163 28.9166 23.3081C28.1513 22.8999 27.4216 22.5598 26.7453 22.2706C25.3749 21.7093 24.2181 21.3862 23.3994 21.2331C22.9366 21.1481 22.5807 21.097 22.3671 21.063C22.5985 20.7909 22.8121 20.5187 23.0078 20.2466C23.3282 19.8044 23.613 19.3962 23.8621 18.988H24.0579C24.7342 18.988 25.4639 18.971 26.2648 18.8179C26.6563 18.7329 27.0835 18.6138 27.475 18.3757C27.7242 18.2226 27.9378 18.0015 28.0801 17.7634C28.1513 17.8314 28.2759 17.8994 28.5073 17.9505C28.7743 18.0015 29.1658 18.0525 29.7709 17.9505C30.0735 17.8824 30.4294 17.7634 30.7854 17.5423C31.1591 17.3211 31.5151 16.947 31.7642 16.4707C32.0312 15.9435 32.1914 15.2121 32.0846 14.4637C32.0312 14.0895 31.9422 13.7153 31.7286 13.3412C31.5151 12.967 31.1947 12.6608 30.8566 12.4737C30.1447 12.0995 29.4506 12.1165 28.9878 12.1846C28.7387 12.2186 28.5429 12.2696 28.4183 12.3206C28.4005 12.1165 28.3649 11.9124 28.3471 11.7083C28.2047 10.7218 27.9556 9.73535 27.5818 8.76587C27.386 8.27262 27.1547 7.81339 26.8877 7.33716C26.6029 6.86092 26.2648 6.4187 25.8554 6.0275C24.2359 4.46272 22.029 3.66332 19.8933 3.37417C17.7398 3.10204 15.5507 3.34016 13.7175 4.19058C11.8844 5.024 10.6029 6.46972 9.85545 7.8304C9.17914 9.08903 8.82319 10.3647 8.64521 11.5893C8.60962 11.8954 8.57402 12.1676 8.55623 12.5077C8.55623 12.8139 8.57402 13.086 8.60962 13.3582C8.53843 13.3582 8.46724 13.3241 8.39605 13.3071C8.23587 13.2731 8.05789 13.2391 7.80873 13.2391C7.34599 13.2221 6.72308 13.3241 6.01118 13.6983C5.8332 13.7834 5.67302 13.9194 5.47725 14.0555C5.31707 14.2086 5.1213 14.3617 4.97892 14.5488C4.65856 14.9229 4.3738 15.4332 4.26702 16.0625C4.16023 16.6748 4.30261 17.4402 4.78314 18.0525C4.99672 18.3757 5.38826 18.6478 5.76201 18.8349C6.15356 19.022 6.5629 19.1411 7.00784 19.1921C7.47058 19.2431 7.95111 19.2431 8.46724 19.073C8.7164 18.988 8.98337 18.8519 9.21474 18.6478C9.32152 18.5458 9.42831 18.4267 9.51729 18.3246C9.58848 18.2056 9.65967 18.1035 9.73087 17.9845C9.98003 17.5082 10.0868 16.947 10.0868 16.4197C10.0868 15.8924 10.0334 15.3652 9.94444 14.8549C9.85545 14.3277 9.74866 13.8174 9.69527 13.2901C9.62408 12.7629 9.64188 12.3036 9.73087 11.7253C9.89104 10.6198 10.2292 9.44621 10.8343 8.32365C11.4928 7.11605 12.5963 5.87442 14.1803 5.12605C15.7464 4.37768 17.7576 4.12255 19.7509 4.34366C21.7264 4.58178 23.7553 5.29614 25.1969 6.63981C25.5529 6.96297 25.8554 7.35416 26.1046 7.74536C26.3538 8.15356 26.5851 8.59578 26.7631 9.05501C27.1369 9.95647 27.4038 10.8919 27.564 11.8104C27.7242 12.7459 27.7954 13.6643 27.7954 14.5658C27.7954 15.008 27.7954 15.4842 27.7954 15.9094C27.7954 16.3347 27.7954 16.7429 27.6886 17.1C27.5996 17.4572 27.4038 17.7464 27.1191 17.9335C26.8165 18.1205 26.4606 18.2566 26.1046 18.3417C25.4105 18.5117 24.7164 18.5628 24.0935 18.5968C24.6986 17.5423 24.9656 16.5558 25.0902 15.7394C25.2147 14.9059 25.1969 14.2086 25.1613 13.6643C25.0546 12.5758 24.8054 12.0315 24.663 11.7764C24.5206 11.5212 24.4494 11.5212 24.3605 11.5383C24.2715 11.5553 24.2181 11.6063 24.2359 11.8784C24.2359 12.1676 24.3605 12.6948 24.3605 13.6983C24.3605 14.2086 24.3249 14.8209 24.1825 15.5863C24.0223 16.3347 23.7375 17.2361 23.168 18.1546C23.0612 18.3076 22.9544 18.4777 22.8299 18.6478C22.029 18.6818 21.3705 18.7329 20.8543 18.7669C20.445 18.8009 20.1424 18.8349 19.9467 18.8519C19.9467 18.7839 19.9467 18.6988 19.9467 18.6308C19.9467 18.3587 19.8043 18.0865 19.6263 17.9164C19.2704 17.5593 18.772 17.4572 18.3983 17.5082C18.0067 17.5763 17.7754 17.7804 17.6508 17.9164C17.5262 18.0695 17.4906 18.1716 17.5084 18.1716C17.5262 18.1716 17.6152 18.1205 17.7576 18.0185C17.8999 17.9164 18.1313 17.7804 18.4339 17.7634C18.7364 17.7634 19.1102 17.8654 19.3593 18.1376C19.4839 18.2736 19.5729 18.4437 19.5729 18.6308C19.5729 18.8179 19.5195 19.022 19.3771 19.1921C19.128 19.5323 18.6474 19.6343 18.2559 19.6003C17.8643 19.5663 17.544 19.3622 17.4372 19.107C17.3126 18.8519 17.366 18.5968 17.4372 18.4267C17.5084 18.2566 17.544 18.1716 17.5084 18.1546C17.5084 18.1546 17.4016 18.2056 17.2948 18.3587C17.188 18.5287 17.0813 18.8179 17.188 19.1751C17.4016 19.9575 18.8966 20.3317 19.6975 19.3962C19.8043 19.2601 19.8755 19.09 19.9111 18.9199C20.1068 18.9199 20.4094 18.954 20.8365 18.954C21.2993 18.954 21.8688 18.954 22.5629 18.954C22.0468 19.6853 21.4417 20.4847 20.6586 21.1821C20.089 21.6583 19.4305 22.0665 18.6474 22.1856C17.8821 22.2876 17.0101 22.0665 16.1914 21.5903C14.376 20.5528 12.7031 18.0695 12.1869 15.2121C11.9378 13.7834 11.9556 12.2526 12.4895 10.9089C12.7564 10.2456 13.148 9.61629 13.6819 9.14006C14.1981 8.64681 14.8388 8.28963 15.4973 8.0175C16.8321 7.47322 18.2915 7.40519 19.5373 7.6263C20.7831 7.84741 21.8332 8.39168 22.5451 9.021C23.257 9.65031 23.6663 10.3307 23.9155 10.7899C24.1647 11.2661 24.2893 11.5383 24.3249 11.5212C24.3605 11.5212 24.3249 11.2151 24.1113 10.7048C23.9155 10.1946 23.5418 9.46322 22.8299 8.73185C22.1002 8.0175 21.0145 7.35416 19.6441 7.06502C18.2915 6.77588 16.7075 6.77587 15.1947 7.33716C14.4472 7.60929 13.6997 8.0175 13.059 8.57878C12.4183 9.14006 11.9378 9.85441 11.6174 10.6198C10.9589 12.1676 10.9055 13.8514 11.1547 15.4162C11.5996 18.0355 12.8988 20.3997 14.6074 21.8454C14.2158 21.9134 13.3972 22.1516 11.742 22.8319C10.9945 23.1381 10.0868 23.5293 8.94777 24.0565C8.39605 24.3286 7.73754 24.6178 7.09683 25.128C6.47391 25.6553 5.93999 26.3357 5.54844 27.1861C4.76535 28.8529 4.55178 30.928 4.69416 33.2581C4.72975 33.8364 4.78314 34.4487 4.85433 35.061C4.88993 35.3672 4.92553 35.8264 5.29927 36.2176C5.76201 36.6428 6.18915 36.6598 6.5629 36.7278C7.3104 36.8129 8.07569 36.7449 8.7342 36.7449C9.4817 36.7449 10.247 36.7449 11.0301 36.7278C11.8844 36.6938 12.792 36.6598 13.7531 36.6258C14.6964 36.5918 15.693 36.6258 16.7609 36.6258C18.861 36.6258 21.1213 36.5748 23.4528 36.5067C24.6096 36.4557 25.8021 36.4217 26.9767 36.3877C27.564 36.3707 28.1691 36.3367 28.7565 36.3196C29.3438 36.2856 29.9489 36.2856 30.5718 36.2006C31.1947 36.1155 31.8354 35.9625 32.4227 35.6393C32.9923 35.3332 33.544 34.7719 33.6864 34.1085C33.8466 33.4282 33.7576 32.8159 33.6864 32.2716L33.7754 32.2206ZM8.82319 17.5082L8.68081 17.7294C8.68081 17.7294 8.59182 17.8314 8.53843 17.8994C8.43164 17.9845 8.30706 18.0695 8.16468 18.1205C7.86212 18.2226 7.50617 18.2396 7.18581 18.2056C6.50951 18.1376 5.88659 17.8654 5.61963 17.4912C5.28148 17.083 5.17469 16.6068 5.22808 16.1816C5.28148 15.7564 5.45945 15.3652 5.70862 15.059C5.8154 14.8889 5.95778 14.7699 6.08237 14.6508C6.22475 14.5488 6.34933 14.4297 6.49171 14.3447C7.02564 14.0045 7.52397 13.8684 7.89772 13.8344C8.09349 13.8004 8.25367 13.8174 8.37825 13.8004C8.50283 13.7834 8.62742 13.8004 8.7164 13.8004C8.78759 14.2256 8.85878 14.6168 8.91218 14.991C9.09015 15.9775 9.14355 16.8789 8.80539 17.5252L8.82319 17.5082ZM29.0234 12.5758C29.4328 12.6438 30.0201 12.7629 30.465 13.086C30.91 13.4092 31.0879 13.9365 31.1057 14.5318C31.1413 15.11 30.9811 15.6373 30.8032 15.9775C30.4828 16.6068 29.9489 16.8449 29.5217 16.981C29.0946 17.117 28.7742 17.1511 28.5429 17.1851C28.4539 17.1851 28.3827 17.2191 28.3293 17.2361C28.4717 16.7939 28.4895 16.3347 28.5073 15.8924C28.5073 15.4502 28.5251 15.025 28.5429 14.5488C28.5429 13.8684 28.5429 13.1881 28.4717 12.4907C28.5963 12.5077 28.792 12.5418 29.0234 12.5588V12.5758ZM15.6752 22.5257C16.6541 23.104 17.7932 23.4102 18.8788 23.2571C19.9645 23.087 20.8009 22.5428 21.4417 21.9815C21.762 21.7093 22.029 21.4202 22.2781 21.1481C22.4917 21.2161 22.9189 21.3181 23.4884 21.4882C23.3994 21.5733 23.3104 21.7944 23.2392 22.2536C23.168 22.6618 23.1502 23.2741 22.8833 23.9885C22.8121 24.1756 22.7231 24.3627 22.5985 24.5498C22.4739 24.7539 22.3137 24.975 22.1358 25.2131C21.7798 25.6723 21.3171 26.1826 20.7831 26.7609C20.4628 27.101 20.0534 27.4922 19.6263 27.9345C19.5195 27.9004 19.4127 27.8494 19.2882 27.8154C19.0568 27.7304 18.8254 27.6453 18.594 27.5433C18.1313 27.3562 17.6686 27.1351 17.2414 26.8969C16.3694 26.4207 15.6041 25.8084 15.1413 25.128C14.9278 24.7879 14.7854 24.4307 14.7142 24.1075C14.6786 23.9375 14.6608 23.7844 14.643 23.6313C14.643 23.4612 14.6252 23.3251 14.6074 23.1891C14.5718 22.7809 14.5362 22.5087 14.5006 22.3727C14.7676 22.2366 14.91 22.1516 14.9989 22.0835C15.2125 22.2706 15.4439 22.4237 15.6752 22.5598V22.5257ZM32.9567 33.8194C32.8499 34.2616 32.5117 34.5848 32.0668 34.8229C31.6219 35.061 31.0879 35.1801 30.554 35.2481C30.0023 35.3161 29.415 35.3161 28.8098 35.3332C28.2047 35.3502 27.6174 35.3672 27.0301 35.3842C25.8377 35.4182 24.663 35.4352 23.5062 35.4692C21.1925 35.5202 18.9322 35.5373 16.8499 35.5373C15.8176 35.5373 14.7854 35.5032 13.8065 35.5373C12.8454 35.5713 11.9378 35.6053 11.0835 35.6223C10.3182 35.6563 9.57069 35.6563 8.85878 35.6563C8.44944 35.6563 8.11129 35.6733 7.75534 35.6903C7.41718 35.6903 7.07903 35.6903 6.79427 35.6563C6.50951 35.6393 6.22475 35.5202 6.20695 35.4862C6.11796 35.4012 6.06457 35.1971 6.02897 34.9079C5.95778 34.3126 5.90439 33.7344 5.8688 33.1731C5.72641 30.945 5.92219 29.006 6.5807 27.5603C6.90105 26.8459 7.34599 26.2506 7.82653 25.8254C8.32486 25.4002 8.91218 25.111 9.4639 24.8389C10.5496 24.2776 11.4394 23.8524 12.1691 23.5122C13.2548 23.002 13.9311 22.6618 14.376 22.4407C14.3226 22.5768 14.287 22.8319 14.2336 23.1721C14.2336 23.3081 14.1981 23.4612 14.1803 23.6143C14.1803 23.7844 14.1625 23.9715 14.1803 24.1756C14.2158 24.5838 14.3226 25.009 14.5362 25.4512C14.9989 26.3186 15.8176 27.067 16.7431 27.6453C17.2058 27.9345 17.6864 28.1896 18.1669 28.4277C18.3983 28.5468 18.6474 28.6488 18.8788 28.7509C19.0034 28.8019 19.128 28.8529 19.2348 28.9039C19.4483 29.006 19.6797 29.057 19.9111 29.006C20.089 28.955 20.2136 28.8699 20.3382 28.7339L20.5696 28.5127C20.6942 28.3937 20.8187 28.2746 20.9433 28.1556C21.1747 27.9174 21.4061 27.6963 21.6018 27.4922C22.1714 26.9139 22.6519 26.3527 23.0256 25.8424C23.2214 25.5873 23.3816 25.3322 23.524 25.094C23.6841 24.8389 23.7909 24.5838 23.8621 24.3286C24.1469 23.3422 24.0579 22.7128 24.0401 22.3046C24.0045 21.9645 23.9689 21.7604 23.9333 21.6413C24.6452 21.8794 25.5529 22.2026 26.5674 22.6788C27.2259 22.985 27.9378 23.3592 28.6675 23.7674C29.3794 24.1926 30.1091 24.7369 30.8032 25.3492C31.4795 25.9445 31.96 26.7779 32.2804 27.6963C32.6007 28.6318 32.7253 29.6353 32.7965 30.7068C32.8321 31.7954 33.2236 32.952 32.9745 33.8364L32.9567 33.8194Z" fill="#C33F34" stroke="#C33F34" stroke-width="0.3" stroke-miterlimit="10"/>
<path d="M35.2703 32.4587C35.1635 32.4587 35.0923 33.3772 34.6296 34.3807C34.1846 35.3842 33.5083 36.0475 33.5973 36.1326C33.6507 36.2176 34.4872 35.6223 34.9855 34.5338C35.4839 33.4452 35.3593 32.4587 35.2703 32.4757V32.4587Z" fill="#C33F34" stroke="#C33F34" stroke-width="0.3" stroke-miterlimit="10"/>
<path d="M35.6618 34.4487C35.5551 34.4147 35.3949 34.7208 35.2169 35.078C35.0389 35.4352 34.9143 35.7584 35.0033 35.8094C35.0923 35.8774 35.3771 35.6223 35.5729 35.2311C35.7686 34.8229 35.7686 34.4657 35.6618 34.4317V34.4487Z" fill="#C33F34" stroke="#C33F34" stroke-width="0.3" stroke-miterlimit="10"/>
<path d="M10.5317 25.8254C10.5317 25.8254 10.1936 25.8594 9.71304 26.0975C9.2503 26.3357 8.64519 26.7779 8.12906 27.3732C7.61293 27.9685 7.29257 28.6318 7.15019 29.1251C6.99001 29.6183 6.99001 29.9415 7.04341 29.9415C7.15019 29.9755 7.45275 28.7509 8.43162 27.6113C9.39268 26.4547 10.5851 25.9275 10.5317 25.8254Z" fill="#C33F34" stroke="#C33F34" stroke-width="0.3" stroke-miterlimit="10"/>
<path d="M9.42824 27.3562C8.57395 28.0535 8.30699 28.904 8.41377 28.938C8.52056 28.989 8.91211 28.2747 9.6952 27.6453C10.4605 26.999 11.2614 26.7269 11.2258 26.6078C11.2258 26.5058 10.2825 26.6588 9.44603 27.3562H9.42824Z" fill="#C33F34" stroke="#C33F34" stroke-width="0.3" stroke-miterlimit="10"/>
<path d="M7.38149 11.2831C7.45268 10.4157 7.71964 9.22511 8.32476 8.05152C8.92988 6.86093 9.74856 5.92546 10.4071 5.34717C11.0656 4.75187 11.5461 4.46273 11.5105 4.4117C11.5105 4.37769 10.9588 4.5988 10.2291 5.16008C9.4994 5.72136 8.60952 6.67383 7.98661 7.89845C7.36369 9.14007 7.13232 10.3987 7.13232 11.2831C7.13232 12.1846 7.2747 12.7289 7.3281 12.7119C7.39929 12.7119 7.3281 12.1506 7.41709 11.2831H7.38149Z" fill="#C33F34" stroke="#C33F34" stroke-width="0.3" stroke-miterlimit="10"/>
</g>
<defs>
<clipPath id="clip0_0_530">
<rect width="32" height="34" fill="white" transform="translate(4 3)"/>
</clipPath>
</defs>
</svg>
