<svg width="20" height="20" viewBox="0 0 20 20" fill="none" xmlns="http://www.w3.org/2000/svg">
<g clip-path="url(#clip0_28_3283)">
<path d="M17.9924 10.1497C17.9924 9.49419 17.938 9.01584 17.8202 8.51978H10.1594V11.4784H14.6561C14.5655 12.2137 14.0759 13.321 12.988 14.0651L12.9727 14.1641L15.3949 15.9976L15.5627 16.0139C17.1039 14.6232 17.9924 12.5769 17.9924 10.1497Z" fill="#4285F4"/>
<path d="M10.1594 17.945C12.3624 17.945 14.2119 17.2363 15.5627 16.0139L12.988 14.065C12.299 14.5345 11.3742 14.8623 10.1594 14.8623C8.00174 14.8623 6.17042 13.4716 5.51761 11.5493L5.42192 11.5573L2.9033 13.4618L2.87036 13.5513C4.21211 16.1556 6.96817 17.945 10.1594 17.945Z" fill="#34A853"/>
<path d="M5.51756 11.5494C5.34531 11.0533 5.24563 10.5218 5.24563 9.97257C5.24563 9.42332 5.34531 8.89184 5.5085 8.39577L5.50394 8.29013L2.95375 6.35498L2.87031 6.39376C2.31731 7.47449 2 8.68811 2 9.97257C2 11.257 2.31731 12.4706 2.87031 13.5513L5.51756 11.5494Z" fill="#F1AC1D"/>
<path d="M10.1594 5.08269C11.6915 5.08269 12.725 5.72934 13.3144 6.26974L15.6171 4.07286C14.2029 2.7884 12.3624 2 10.1594 2C6.96817 2 4.21211 3.78937 2.87036 6.39371L5.50855 8.39573C6.17042 6.47347 8.00174 5.08269 10.1594 5.08269Z" fill="#EB4335"/>
</g>
<defs>
<clipPath id="clip0_28_3283">
<rect width="16" height="16" fill="white" transform="translate(2 2)"/>
</clipPath>
</defs>
</svg>
