<svg width="64" height="64" viewBox="0 0 64 64" fill="none" xmlns="http://www.w3.org/2000/svg">
<path d="M38.6529 1.54381C31.9586 -2.40102 23.4314 2.06182 21.0672 9.02173C18.4772 16.6325 22.7806 25.3191 30.5507 27.6567C38.3209 29.9944 46.941 25.2792 48.8935 17.2434C50.846 9.20768 45.1081 1.26489 36.9129 0.0163547C35.3058 -0.222726 34.6018 2.23449 36.2355 2.48686C51.8688 4.93079 47.9638 28.3076 32.5298 25.3589C26.1012 24.1369 21.5852 18.0669 22.7939 11.4922C24.2151 3.77523 31.2148 1.18519 38.2943 2.3806C38.7724 2.46029 39.1178 1.82273 38.6396 1.54381H38.6529Z" fill="#1E110D"/>
<path d="M1.96739 57.7675C10.7204 59.4809 19.9781 59.3879 28.8507 60.2114C39.3437 61.181 49.7835 62.4429 60.2101 63.9836C61.8172 64.2227 62.5079 61.7522 60.8875 61.5264C51.5102 60.1849 42.1064 59.0293 32.6627 58.1527C22.7276 57.2229 12.0486 55.6955 2.10021 56.7713C1.5822 56.8245 1.3564 57.648 1.96739 57.7808V57.7675Z" fill="#1E110D"/>
<path d="M3.29563 56.3464C5.72629 51.7242 5.77942 46.2519 10.5743 43.0774C15.9271 39.5311 22.2229 40.8593 28.1866 41.457C29.5015 41.5898 29.7805 39.4248 28.4921 39.1592C22.2229 37.8442 14.7715 37.1801 9.24609 41.0984C4.79653 44.2596 2.14008 50.7944 2.53854 56.1339C2.56511 56.5058 3.0964 56.7183 3.29563 56.3331V56.3464Z" fill="#1E110D"/>
<path d="M29.3952 40.8858C31.6798 41.7492 34.2034 42.0015 36.6075 42.4C38.5733 42.7321 40.5125 43.2899 42.4915 42.9711C43.1822 42.8649 43.3017 41.7492 42.6908 41.4569C40.8977 40.5936 38.8522 40.5936 36.8864 40.3412C34.469 40.0358 31.9853 39.5576 29.5413 39.7435C28.8772 39.7967 28.771 40.6467 29.3819 40.8858H29.3952Z" fill="#1E110D"/>
<path d="M42.0931 43.1305C47.6849 43.2102 54.6847 43.3431 57.806 48.9083C60.3164 53.3712 58.9881 57.9668 59.8515 62.6555C60.0109 63.5321 61.2328 63.3727 61.4719 62.6555C63.1588 57.5949 62.2157 50.21 58.7623 45.9995C54.6714 41.0187 48.0037 40.9257 42.0931 41.2179C40.8711 41.2843 40.8578 43.104 42.0931 43.1173V43.1305Z" fill="#1E110D"/>
</svg>
