<svg width="24" height="24" viewBox="0 0 24 24" fill="none" xmlns="http://www.w3.org/2000/svg">
<path d="M12 4.27911e-07C8.81853 -0.000848955 5.767 1.26282 3.51661 3.51306C1.26622 5.7633 0.00127282 8.81582 0 11.9992C0.000420174 13.5756 0.311143 15.1365 0.914427 16.5927C1.51771 18.0489 2.40174 19.372 3.51604 20.4864C4.63035 21.6007 5.9531 22.4846 7.40878 23.0875C8.86446 23.6903 10.4246 24.0004 12 24C14.0896 24 16.656 23.4749 18.4864 22.4839L22.9504 23.96C23.0914 24.0063 23.2424 24.0124 23.3867 23.9778C23.531 23.9431 23.6628 23.869 23.7674 23.7636C23.872 23.6583 23.9452 23.526 23.9789 23.3814C24.0127 23.2368 24.0056 23.0857 23.9584 22.945L22.4768 18.5087C23.552 16.6308 24 14.1765 24 11.9992C23.9987 8.81582 22.7338 5.7633 20.4834 3.51306C18.233 1.26282 15.1815 -0.000848955 12 4.27911e-07Z" fill="#1E110D"/>
</svg>
