<svg width="333" height="330" viewBox="0 0 333 330" fill="none" xmlns="http://www.w3.org/2000/svg">
<rect width="333" height="330" rx="24" fill="#F0CBA2"/>
<g clip-path="url(#clip0_23_547)">
<g opacity="0.6">
<path d="M155.761 119.725C156.156 120.662 156.447 121.765 157.112 122.494C161.395 127.264 162.101 133.49 163.993 139.218C164.679 141.321 163.64 142.008 161.291 141.592C158.692 141.134 156.094 140.634 153.475 140.28C149.899 139.801 149.38 140.155 149.068 143.674C148.818 146.423 148.964 149.193 148.735 151.942C148.569 154.087 146.968 155.191 144.869 154.879C142.832 154.566 142.354 153.129 142.499 151.338C142.686 149.172 142.915 146.986 143.039 144.82C143.372 138.863 142.811 138.301 136.783 138.509C136.097 138.53 135.431 138.78 134.745 138.78C134.205 138.78 133.581 138.697 133.145 138.447C129.32 136.177 128.821 133.49 131.607 130.075C131.96 129.638 132.417 129.263 132.771 128.805C134.101 127.097 135.66 125.556 135.016 122.973C134.849 122.307 135.577 121.307 136.076 120.599C139.423 115.851 142.832 111.123 146.386 106.146L149.941 106.063C152.02 110.957 153.87 115.372 155.761 119.787V119.725ZM137.593 128.492C138.466 128.18 139.319 127.867 140.358 127.493C141.335 130.429 138.487 131.97 138.383 134.261C138.633 134.386 138.861 134.511 139.111 134.636C139.838 133.157 140.524 131.658 141.293 130.179C141.647 129.492 142.125 128.846 142.561 128.18C143.06 128.971 144.016 129.763 143.975 130.512C143.892 131.949 143.247 133.324 142.748 134.948C144.162 135.635 145.368 135.656 145.95 133.928C146.365 132.699 146.449 131.366 146.677 130.075C146.989 129.992 147.301 129.929 147.613 129.846C148.132 130.825 148.922 131.741 149.109 132.762C149.795 136.698 150.045 136.927 154.265 136.031C154.493 134.907 154.743 133.74 154.992 132.574C155.262 132.491 155.533 132.387 155.803 132.303C156.717 134.011 157.611 135.698 158.651 137.656C160.293 132.012 156.697 126.889 151.562 126.805C148.236 126.743 144.91 126.66 141.626 126.243C139.547 125.972 138.362 126.576 137.614 128.451L137.593 128.492ZM140.15 121.849C144.037 122.703 144.723 122.265 145.118 119.246C145.243 118.35 145.472 117.455 145.659 116.58C146.012 116.58 146.386 116.58 146.74 116.58C147.072 118.475 147.405 120.391 147.717 122.286C147.862 122.286 148.028 122.286 148.174 122.286L148.028 116.746C151.25 117.684 150.107 121.203 152.747 122.744C152.331 117.934 150.377 114.268 148.278 110.228C144.37 113.518 142.665 117.725 140.129 121.87L140.15 121.849Z" fill="#B79B7E"/>
<path d="M245.541 232.038C247.807 231.976 249.615 231.976 251.424 231.872C257.473 231.518 260.321 229.185 262.067 223.417C262.441 222.167 263.023 220.834 263.917 219.918C269.925 213.649 269.883 206.985 263.668 200.904C263.356 200.591 263.044 200.258 262.691 199.863C263.169 198.176 263.626 196.51 264.083 194.864C265.081 191.366 264.52 187.992 262.961 184.805C261.963 182.785 260.362 181.14 257.93 181.14C255.852 181.14 255.207 179.995 254.625 178.329C254.105 176.829 253.399 175.371 252.588 173.997C249.782 169.207 244.398 167.166 239.347 169.103C237.704 169.728 236.353 169.853 234.753 169.103C230.72 167.27 226.916 168.145 223.278 170.269C220.867 171.685 219.1 173.622 219.037 176.538C218.996 178.516 218.102 179.37 216.314 179.891C212.614 180.953 211.055 184.014 210.535 187.367C209.953 190.991 210.016 194.76 211.928 198.134C212.635 199.384 212.614 200.342 211.928 201.633C210.307 204.611 210.203 207.964 211.201 211.025C211.803 212.879 213.695 214.295 215.005 215.898C215.254 215.794 215.483 215.69 215.732 215.586C215.42 216.773 215.067 217.939 214.818 219.147C213.695 224.749 217.042 229.456 222.675 230.435C223.694 230.602 225.045 231.08 225.481 231.83C226.604 233.788 228.121 234.163 230.117 233.934C231.718 233.746 233.318 233.705 234.919 233.517C236.852 233.288 237.995 233.913 238.266 235.975C238.577 238.474 238.952 240.973 239.326 243.472C239.492 244.596 239.409 246.033 240.053 246.762C240.947 247.783 242.361 248.574 243.691 248.845C244.232 248.949 245.645 247.512 245.728 246.658C246.04 243.722 245.978 240.765 245.957 237.807C245.957 236.016 245.728 234.225 245.562 231.976L245.541 232.038ZM230.2 230.893C230.159 229.227 230.595 227.623 229.992 226.686C228.849 224.874 227.456 226.436 226.147 227.019C223.777 228.082 220.285 227.019 218.726 224.854C217.187 222.75 217.458 219.272 219.412 217.19C220.035 216.523 220.971 216.148 221.49 215.44C221.906 214.878 222.197 213.878 221.989 213.274C221.802 212.754 220.846 212.296 220.181 212.191C219.308 212.067 218.351 212.337 217.437 212.358C215.566 212.421 214.464 211.4 213.924 209.672C212.656 205.506 214.88 201.487 219.079 200.446C219.64 200.3 220.305 200.321 220.721 199.988C221.282 199.55 222.072 198.821 222.031 198.28C221.989 197.676 221.199 196.76 220.617 196.635C219.557 196.426 218.331 196.51 217.271 196.822C215.774 197.259 214.797 196.947 214.215 195.531C212.739 191.886 212.822 188.179 214.901 184.93C216.647 182.202 219.536 182.369 222.343 183.473C222.55 183.556 222.8 183.598 223.008 183.598C224.588 183.577 225.087 182.619 224.608 181.307C224.317 180.495 223.548 179.849 223.008 179.099C222.052 177.746 221.885 176.434 223.008 174.997C226.479 170.581 232.362 170.623 235.73 175.038C236.291 175.767 237.289 176.434 238.141 176.517C238.557 176.558 239.056 175.163 239.638 174.538C240.49 173.601 241.404 172.06 242.381 171.998C245.292 171.789 248.098 172.497 249.906 175.205C251.507 177.6 252.214 180.099 251.798 183.035C251.653 184.077 252.422 185.389 253.128 186.305C253.357 186.597 254.833 186.201 255.54 185.784C258.471 184.077 260.03 184.639 261.069 187.909C262.441 192.219 260.57 195.781 258.367 199.217C256.683 201.841 257.39 203.674 260.487 203.799C262.462 203.861 263.46 204.819 264.166 206.36C265.455 209.13 265.622 212.025 263.896 214.586C263.169 215.669 261.734 216.627 260.446 216.94C257.681 217.627 257.265 218.064 258.159 220.855C259.053 223.625 258.637 225.041 256.538 226.874C254.251 228.873 251.611 229.144 248.784 228.706C246.83 228.394 245.312 227.936 245.458 225.333C245.666 221.417 246.061 220.563 248.971 220.126C249.761 220.001 250.8 220.209 251.299 219.772C252.048 219.126 252.941 218.023 252.858 217.19C252.734 215.794 251.486 215.565 250.197 216.086C249.428 216.398 248.638 216.69 247.391 217.169C248.638 214.357 249.782 212.108 250.613 209.755C250.863 209.026 250.489 207.485 249.948 207.193C248.535 206.444 248.015 207.672 247.641 208.859C247.225 210.171 246.726 211.483 246.269 212.775C245.396 212.233 245.209 211.858 245.125 211.442C244.335 207.506 243.629 203.528 242.693 199.613C242.506 198.821 241.488 198.217 240.864 197.509C240.303 198.384 239.305 199.238 239.284 200.112C239.263 201.529 239.887 202.966 240.24 204.361C237.559 205.84 237.684 205.86 237.372 208.797C237.081 211.671 236.852 214.628 235.023 217.356C233.609 215.44 232.424 213.774 231.177 212.15C230.429 211.15 229.556 209.755 228.184 210.963C226.874 212.108 228.038 213.233 228.849 214.212C229.577 215.107 230.45 215.919 230.99 216.919C233.048 220.688 236.228 223.916 236.935 228.873C234.503 229.602 232.175 230.289 230.242 230.851L230.2 230.893ZM241.55 230.164C240.303 227.582 239.222 225.687 238.494 223.667C238.016 222.354 237.642 220.751 237.933 219.439C238.806 215.649 240.033 211.942 241.093 208.318C241.966 210.838 242.922 213.545 244.003 216.69C243.296 220.605 242.444 225.187 241.55 230.164ZM242.34 243.097C242.34 243.097 242.506 243.097 242.589 243.097C242.153 239.723 241.696 236.329 241.259 232.955C241.529 232.934 241.82 232.892 242.09 232.872C242.174 236.287 242.257 239.682 242.361 243.097H242.34Z" fill="#B79B7E"/>
<path d="M320.105 238.765C318.65 237.62 317.61 236.703 316.488 235.933C305.658 228.435 295.493 234.766 291.917 244.929C290.4 249.24 289.464 253.78 288.591 258.279C288.404 259.216 289.527 261.153 290.358 261.361C291.917 261.757 292.645 260.257 292.832 258.758C293.165 255.967 293.497 253.156 293.871 249.928C298.07 251.906 300.731 250.219 303.288 247.762C305.616 245.513 306.427 245.887 307.57 248.97C308.194 250.657 309.254 252.156 309.898 253.843C310.272 254.801 310.418 255.988 310.252 256.988C309.877 259.008 309.191 260.965 308.672 262.944C308.547 263.381 308.298 263.943 308.464 264.277C308.984 265.297 309.67 266.234 310.272 267.192C311 266.297 312.039 265.526 312.372 264.506C313.723 260.507 314.866 256.446 316.114 252.406C316.197 252.135 316.592 251.948 316.737 251.823C318.504 252.739 320.292 253.489 321.83 254.572C322.537 255.072 322.911 256.175 323.264 257.05C323.93 258.612 324.262 260.341 325.094 261.819C326.57 264.443 328.877 264.86 331.018 262.798C332.203 261.653 332.951 260.007 333.783 258.529C334.448 257.342 334.801 255.946 335.508 254.801C336.963 252.468 338.439 252.552 339.811 254.988C340.31 255.884 340.601 256.904 340.975 257.862C342.846 262.59 345.195 263.444 349.789 261.049C350.184 260.84 350.62 260.757 351.514 260.445C351.784 264.652 352.346 268.567 350.62 272.399C350.329 273.024 349.955 273.607 349.727 274.273C349.207 275.793 349.519 277.105 351.161 277.584C352.761 278.043 353.489 276.897 353.801 275.564C356.732 262.84 355.401 250.782 347.482 240.098C340.31 230.435 331.974 230.31 322.682 236.974C321.851 237.557 320.999 238.119 320.084 238.744L320.105 238.765ZM319.44 245.721C322.183 241.118 326.57 238.432 331.475 236.703C335.259 235.37 339.104 236.037 341.931 239.161C344.301 241.785 346.317 244.7 348.417 247.554C350.329 250.136 349.643 253.093 349.082 255.842C348.874 256.904 347.419 258.154 346.317 258.404C345.652 258.57 344.363 257.154 343.719 256.217C342.7 254.718 342.16 252.885 341.1 251.406C339.291 248.907 336.901 248.47 334.573 250.49C333.014 251.844 332.037 253.905 330.873 255.717C329.999 257.071 329.272 258.508 328.482 259.903L327.484 259.633C327.193 258.341 326.777 257.071 326.653 255.759C326.424 253.676 325.697 251.573 323.763 251.031C320.957 250.24 320.105 248.303 319.44 245.763V245.721ZM297.862 246.533C297.488 246.366 297.114 246.2 296.719 246.012C296.948 244.784 296.782 243.284 297.447 242.389C302.352 235.662 308.318 234.517 315.178 239.244C316.03 239.827 317.007 241.577 316.716 242.285C315.573 245.179 313.952 247.866 312.497 250.636C312.185 250.594 311.852 250.552 311.54 250.511C311.104 249.303 310.647 248.074 310.252 246.866C308.755 242.264 305.304 241.243 301.521 244.221C300.398 245.117 299.089 245.763 297.862 246.533Z" fill="#B79B7E"/>
<path d="M45.9219 258.383C52.8233 256.862 54.9644 253.843 54.5902 246.783C54.5278 245.658 54.5486 244.409 54.9852 243.43C57.0431 238.744 55.0891 235.099 51.2435 231.122C50.1417 229.976 48.7698 229.081 47.5433 228.06C45.0489 225.998 42.7831 226.103 40.7251 228.581C39.8313 229.664 38.979 229.955 37.5239 229.955C35.653 229.955 33.5743 230.309 31.9737 231.205C30.9136 231.809 29.9989 233.579 29.9573 234.87C29.8742 236.932 29.5624 238.536 28.0865 240.118C26.3404 241.993 26.5482 243.93 27.941 246.116C29.0219 247.824 30.0613 249.573 30.9343 251.385C31.9945 253.551 33.7198 254.801 35.9856 255.134C38.4177 255.488 38.9998 256.904 38.7503 259.007C38.5425 260.715 38.3554 262.444 37.9396 264.11C37.3992 266.317 38.0228 267.629 40.247 268.296C45.4854 269.879 45.3399 270.358 45.5478 264.422C45.6101 262.381 45.818 260.34 45.9427 258.403L45.9219 258.383ZM51.8671 249.282C51.5137 250.49 51.4721 251.573 50.9316 252.197C50.1833 253.072 49.04 253.593 48.0838 254.28C47.5433 253.384 46.7326 252.531 46.5248 251.573C46.0882 249.448 46.0674 247.241 45.6309 245.117C45.4438 244.159 44.8202 242.722 44.1134 242.534C42.5336 242.097 42.1179 243.513 41.8061 244.846C41.3903 246.637 40.9122 248.407 40.3717 250.177C39.8728 251.843 38.7711 252.739 37.0042 252.197C35.3204 251.677 33.5535 250.989 34.1148 248.699C34.5305 247.012 33.9277 246.2 32.4934 245.429C31.6203 244.971 31.0799 243.909 30.3939 243.117C31.2462 242.534 32.0153 241.722 32.9507 241.389C35.1541 240.597 35.466 240.056 34.3642 237.932C34.1979 237.619 33.803 237.369 33.803 237.099C33.803 236.016 33.5535 234.704 34.0732 233.933C34.4682 233.329 35.8609 233.225 36.8171 233.204C37.5655 233.204 38.3762 233.558 39.1037 233.912C41.0993 234.891 42.1802 234.558 42.7831 232.163C43.3443 229.955 44.55 229.768 46.2753 231.247C47.5849 232.35 48.8945 233.454 50.1417 234.62C51.8671 236.245 53.6132 238.265 52.553 240.618C51.2227 243.617 49.0816 246.283 51.8463 249.303L51.8671 249.282Z" fill="#B79B7E"/>
<path d="M47.2729 194.01C43.5104 196.28 39.7687 198.55 35.4657 201.133C35.2371 199.446 35.1123 198.488 34.9876 197.53C34.3848 193.115 31.6201 190.345 27.6497 190.178C24.4277 190.053 21.1641 192.907 20.2079 196.718C19.709 198.78 20.0416 200.883 21.7877 201.987C23.7625 203.236 26.1531 204.652 28.3357 204.611C35.0084 204.507 41.1406 202.237 46.3167 197.884C47.2105 197.134 47.5847 195.76 48.2083 194.677C47.8965 194.448 47.5847 194.219 47.2729 193.969V194.01ZM29.0841 200.508C25.7581 201.362 23.9496 200.779 23.3468 198.675C22.744 196.551 24.3446 194.177 26.7975 193.552C28.8762 193.032 30.8302 194.26 31.4746 196.53C32.0774 198.696 31.3291 199.946 29.1048 200.508H29.0841Z" fill="#B79B7E"/>
<path d="M107.909 175.829C108.865 176.142 109.842 176.746 110.798 176.704C114.374 176.517 117.845 176.537 121.151 178.224C121.67 178.495 122.543 178.037 123.25 177.933C123.021 177.246 122.897 176.475 122.502 175.892C122.211 175.455 121.608 175.163 121.088 174.996C116.785 173.559 112.461 173.747 108.159 174.663C108.075 175.059 107.992 175.455 107.909 175.85V175.829Z" fill="#B79B7E"/>
<path d="M78.3912 181.036C80.9689 181.973 82.8813 180.515 84.9184 180.078C86.8101 179.662 88.6809 179.162 90.5102 178.537C91.1338 178.329 91.5703 177.641 92.1108 177.183C91.5495 176.683 91.0714 176.038 90.427 175.725C89.9697 175.496 89.2422 175.538 88.7433 175.725C85.4381 177.017 82.1745 178.391 78.9109 179.766C78.703 179.849 78.6615 180.349 78.412 181.036H78.3912Z" fill="#B79B7E"/>
<path d="M272.918 291.475C274.248 290.622 275.849 289.893 277.055 288.747C277.678 288.164 277.616 286.852 277.886 285.873C276.971 285.915 275.911 285.686 275.142 286.04C273.209 286.915 271.359 287.997 269.571 289.164C269.031 289.518 268.761 290.33 268.386 290.934C268.948 291.226 269.509 291.704 270.091 291.746C270.985 291.809 271.879 291.58 272.939 291.455L272.918 291.475Z" fill="#B79B7E"/>
<path d="M58.4977 189.991C59.5786 190.282 60.1399 190.636 60.5972 190.512C63.3619 189.783 66.1058 189.012 68.8081 188.096C69.3694 187.908 69.6604 186.95 70.0969 186.346C69.3486 186.034 68.4963 185.326 67.8727 185.513C65.1288 186.284 62.4472 187.284 59.7865 188.283C59.3707 188.45 59.1421 189.095 58.4977 189.991Z" fill="#B79B7E"/>
<path d="M288.467 275.148C289.361 275.793 289.86 276.481 290.358 276.481C293.622 276.46 296.241 274.773 298.632 272.753C299.006 272.44 299.151 271.337 298.881 270.941C298.611 270.545 297.551 270.254 297.114 270.462C294.308 271.878 291.606 273.44 288.467 275.148Z" fill="#B79B7E"/>
<path d="M164.263 191.449C167.173 193.969 170.063 196.509 173.139 199.175C174.47 197.759 173.805 196.364 172.911 195.26C170.832 192.636 168.254 190.824 164.845 190.678C164.658 190.949 164.45 191.199 164.263 191.47V191.449Z" fill="#B79B7E"/>
<path d="M184.385 221.188C186.838 218.002 184.822 213.545 179.708 210.463C179.812 214.982 183.595 217.419 184.385 221.188Z" fill="#B79B7E"/>
<path d="M252.671 295.953C253.274 295.204 253.835 294.495 254.417 293.787C253.565 293.412 252.713 292.704 251.881 292.725C249.865 292.788 247.849 293.1 245.853 293.475C245.333 293.579 244.897 294.204 244.419 294.6C244.834 295.079 245.229 295.932 245.666 295.953C247.911 296.057 250.156 295.953 252.65 295.953H252.671Z" fill="#B79B7E"/>
<path d="M229.535 290.351C230.325 292.413 234.566 294.995 236.27 294.87C237.725 294.766 238.266 293.6 237.289 292.85C235.355 291.35 233.09 290.267 230.886 289.164C230.658 289.06 229.888 290.038 229.535 290.351Z" fill="#B79B7E"/>
<path d="M311.188 268.671C313.557 270.649 316.322 270.712 319.066 270.733C319.419 270.733 320.001 270.025 320.043 269.587C320.084 269.15 319.69 268.338 319.315 268.234C316.634 267.401 313.89 266.776 311.167 268.671H311.188Z" fill="#B79B7E"/>
<path d="M142.208 179.245C145.783 180.89 148.735 182.244 151.812 183.639C152.103 179.87 147.654 177.704 142.208 179.245Z" fill="#B79B7E"/>
<path d="M215.961 277.335C215.421 280.084 217.146 282.916 220.389 284.624C221.491 282 220.16 279.813 215.961 277.335Z" fill="#B79B7E"/>
<path d="M194.218 241.889C196.297 241.327 196.317 239.806 195.964 238.349C195.507 236.474 194.841 234.621 191.869 234.392C192.7 237.057 193.428 239.411 194.218 241.889Z" fill="#B79B7E"/>
<path d="M205.9 264.631C207.064 262.444 206.731 259.945 205.006 258.675C204.632 258.404 203.946 258.341 203.489 258.466C203.218 258.55 203.01 259.195 202.969 259.612C202.907 260.674 204.673 263.631 205.879 264.631H205.9Z" fill="#B79B7E"/>
<path d="M161.893 239.827C161.706 237.432 161.062 234.454 161.29 231.539C162.122 220.855 157.466 213.253 148.797 207.547C140.462 202.049 131.565 198.051 121.441 198.571C115.808 198.842 110.549 198.009 105.186 196.676C102.338 195.968 99.2614 196.01 96.2888 196.01C93.0045 196.01 88.4728 199.3 87.8908 202.695C86.893 208.547 82.8603 211.775 78.0585 213.274C65.6693 217.127 61.7613 237.599 71.4897 246.908C74.7533 250.011 77.9753 253.177 78.1832 258.112C78.2248 258.904 78.3703 259.716 78.3287 260.507C77.9753 268.088 81.1973 273.836 86.7891 278.834C92.0067 283.52 98.1389 286.081 104.521 288.435C108.699 289.976 112.96 289.122 117.159 288.935C121.088 288.768 124.601 289.643 128.135 291.205C135.805 294.599 143.538 297.806 151.271 301.055C153.911 302.159 157.279 301.597 158.339 299.348C160.708 294.328 165.386 291.934 169.439 288.81C171.248 287.414 173.139 286.061 174.781 284.478C177.671 281.666 178.856 278.23 178.294 274.127C177.338 267.213 174.095 261.257 170.686 255.384C168.836 252.198 166.737 249.178 164.866 245.992C163.827 244.222 163.037 242.285 161.852 239.827H161.893ZM69.4318 238.828C69.5565 238.703 69.6812 238.578 69.8059 238.453C69.5357 236.516 69.016 234.579 69.0576 232.663C69.2239 224.395 72.9032 218.335 80.6984 215.211C85.8952 213.129 89.0757 209.505 90.6555 204.153C91.8404 200.154 93.836 198.759 98.1181 198.925C101.423 199.05 104.687 199.779 107.971 200.258C112.253 200.904 116.702 202.612 120.797 201.966C124.476 201.383 127.844 201.57 131.191 202.382C139.838 204.527 147.384 208.818 153.454 215.44C156.884 219.189 158.256 223.896 157.881 228.873C157.341 236.453 159.399 243.097 163.39 249.47C167.028 255.301 170.437 261.34 173.347 267.546C175.447 272.045 176.694 277.106 172.62 281.416C170.582 283.582 168.4 285.748 165.884 287.248C162.164 289.476 158.9 291.996 156.405 295.578C154.659 298.077 153.246 298.41 150.46 297.286C145.035 295.099 139.485 293.121 134.246 290.517C126.285 286.56 118.095 284.728 109.239 286.123C108.054 286.311 106.662 286.081 105.518 285.644C99.9682 283.499 94.2933 281.729 89.6369 277.605C84.3986 272.961 80.8024 267.838 81.135 260.403C81.3844 255.072 79.8462 250.344 75.4601 246.596C73.0279 244.513 71.4065 241.452 69.411 238.848L69.4318 238.828Z" fill="#B79B7E"/>
<path d="M149.712 252.968C149.795 252.135 150.107 251.281 149.962 250.49C149.192 246.554 147.467 243.055 144.432 240.369C142.561 238.702 140.337 237.744 137.78 238.203C129.819 239.619 122.813 237.224 116.245 232.934C115.58 232.496 114.81 232.038 114.083 231.997C113.438 231.997 112.794 232.58 112.15 232.892C112.461 233.454 112.628 234.308 113.106 234.496C119.051 237.12 124.539 241.056 131.315 241.431C133.124 241.535 135.036 241.681 136.762 241.222C140.358 240.264 142.873 241.722 144.765 244.471C145.908 246.158 146.636 248.137 147.446 250.032C147.883 251.011 148.112 252.073 148.423 253.114C148.86 253.051 149.296 253.01 149.733 252.947L149.712 252.968Z" fill="#B79B7E"/>
<path d="M153.183 278.688C154.327 277.147 154.16 275.731 153.287 274.231C151.583 271.295 149.088 269.358 145.804 268.629C143.122 268.025 140.316 267.942 137.718 267.15C132.147 265.443 126.659 263.402 121.15 261.506C120.402 261.236 119.674 260.715 118.926 260.653C118.261 260.59 117.554 261.007 116.868 261.215C117.201 261.84 117.367 262.735 117.908 263.027C119.196 263.756 120.589 264.318 122.003 264.776C128.384 266.921 134.433 269.962 141.376 270.462C146.199 270.816 150.564 272.69 152.269 278.001C152.352 278.25 152.788 278.396 153.204 278.709L153.183 278.688Z" fill="#B79B7E"/>
<path d="M146.095 227.04C146.261 226.207 146.573 225.374 146.552 224.562C146.386 219.563 139.194 213.774 134.454 215.773C131.253 217.127 128.177 216.085 125.37 214.169C123.666 213.003 121.982 211.754 120.132 210.921C119.384 210.587 117.596 210.962 117.284 211.545C116.536 212.941 117.928 213.316 119.009 213.815C121.067 214.794 123.104 215.856 124.996 217.085C128.031 219.064 131.17 219.897 134.787 218.939C138.84 217.876 141.813 219.48 143.538 223.416C144.079 224.624 144.536 225.874 145.035 227.102C145.388 227.081 145.742 227.061 146.095 227.019V227.04Z" fill="#B79B7E"/>
<path d="M83.6711 238.411C83.7542 239.556 83.6711 240.056 83.8581 240.389C85.6458 243.367 91.3207 245.7 94.6675 244.575C97.3075 243.7 99.8435 242.909 102.442 244.742C102.691 242.076 101.652 240.702 99.303 240.556C98.43 240.493 97.453 240.66 96.6215 240.993C92.9006 242.451 89.4915 242.014 86.2902 239.556C85.7082 239.119 84.9391 238.952 83.6503 238.39L83.6711 238.411Z" fill="#B79B7E"/>
<path d="M103.211 224.832C102.837 223.604 102.775 222.812 102.38 222.292C100.925 220.376 95.3537 218.96 93.2126 219.959C92.7553 220.167 92.2148 221.334 92.3188 221.438C92.9008 222 93.7115 222.812 94.3351 222.708C96.9543 222.312 99.3033 222.646 101.382 224.353C101.611 224.541 102.006 224.52 103.211 224.832Z" fill="#B79B7E"/>
<path d="M94.5221 263.214C95.2496 263.547 95.9564 264.026 96.7255 264.214C98.2638 264.589 99.8228 264.88 101.382 265.068C101.964 265.13 102.608 264.859 103.211 264.734C103.045 264.006 103.024 263.214 102.671 262.61C102.421 262.173 101.756 261.756 101.278 261.736C99.0953 261.694 96.9334 261.819 94.7508 261.881C94.6676 262.319 94.6052 262.777 94.5221 263.214Z" fill="#B79B7E"/>
<path d="M42.7414 174.58C42.492 168.332 39.8728 164.396 35.0709 162.73C31.8073 161.585 28.3775 162.563 26.0077 165.042C23.0351 168.145 21.3722 171.873 20.6654 175.996C20.3536 177.829 20.4783 179.974 21.1435 181.682C22.5778 185.409 24.3863 188.991 26.1948 192.573C27.2549 194.656 29.3129 194.989 30.9551 193.219C34.1355 189.783 37.2744 186.263 40.1222 182.556C41.9307 180.203 43.1987 177.412 42.7414 174.601V174.58ZM36.7963 181.348L36.9002 181.244C34.8631 184.68 32.2231 187.554 28.3775 190.054C26.9223 186.805 25.1762 184.035 24.4487 180.994C23.1391 175.58 24.8436 170.81 29.1466 167.166C31.5579 165.125 35.8401 165.646 37.7733 168.103C40.434 171.477 39.9351 178.204 36.7755 181.348H36.7963Z" fill="#B79B7E"/>
<path d="M36.7963 181.327C37.2536 179.099 38.0019 176.891 38.0851 174.663C38.189 171.706 36.2558 169.561 33.5743 168.936C30.9551 168.311 28.3151 169.498 26.86 171.976C24.9268 175.225 25.0723 178.391 27.2342 180.932C29.6455 183.743 31.8489 184.076 35.071 182.139C35.653 181.785 36.2974 181.535 36.9002 181.244L36.7963 181.348V181.327ZM30.4562 172.06C32.3063 173.205 35.2165 172.955 34.6136 175.975C34.3642 177.266 33.408 178.682 32.3478 179.432C31.8489 179.786 29.9781 178.953 29.3545 178.162C27.6707 176.058 28.9179 174.142 30.4562 172.039V172.06Z" fill="#B79B7E"/>
</g>
</g>
<g clip-path="url(#clip1_23_547)">
<path d="M183.88 321.959C183.88 321.959 239.739 373.843 240.432 375.91C243.879 386.161 185.8 327.887 183.428 325.498C181.056 323.108 183.88 321.959 183.88 321.959Z" fill="#331D16" stroke="#231F20" stroke-width="0.301523" stroke-miterlimit="10"/>
<path d="M215.317 365.265C215.005 363.39 214.684 316.546 213.096 315.478C211.518 314.419 177.308 287.051 177.308 287.051C177.308 287.051 171.941 288.866 172.413 288.886C172.886 288.906 206.141 316.304 207.136 318.451C208.141 320.599 210.121 367.14 210.121 367.14L215.307 365.265H215.317Z" fill="#331D16"/>
<path d="M215.317 365.265C214.945 353.773 215.015 340.87 214.543 329.389C214.302 324.903 214.342 320.377 213.548 315.931C213.488 315.659 213.367 315.347 213.076 315.185C203.197 307.474 187.438 294.742 177.509 286.799L177.368 286.688L177.197 286.749C175.941 287.212 173.499 287.968 172.303 288.523C172.272 288.543 172.212 288.583 172.182 288.603C172.132 288.674 172.202 288.523 172.061 288.765C172.011 289.158 172.212 289.178 172.232 289.198C173.991 290.418 175.991 292.142 177.82 293.583C187.096 301.285 197.538 309.53 206.252 317.776C206.583 318.129 206.975 318.451 207.005 318.966C207.588 322.514 207.709 326.183 208 329.782C208.523 337.806 209.649 358.934 210.091 367.21L210.141 367.19L215.317 365.275V365.265ZM215.317 365.265L210.111 367.109L210.161 367.14C209.639 352.957 209.016 337.705 207.99 323.512C207.82 321.798 207.769 320.105 207.367 318.411C207.206 318.038 206.865 317.726 206.603 317.433C197.91 309.127 187.498 300.821 178.242 293.069C176.303 291.577 174.524 289.833 172.443 288.553C172.393 288.553 172.504 288.553 172.554 288.583C172.554 288.613 172.745 288.613 172.715 288.986C172.574 289.208 172.664 289.067 172.634 289.117L172.614 289.138L172.634 289.128C173.77 288.613 176.212 287.817 177.418 287.374L177.107 287.313C187.136 295.267 202.845 307.837 212.824 315.558L212.975 315.669C212.975 315.679 212.975 315.669 213.005 315.74C213.046 315.82 213.086 315.941 213.116 316.052C213.9 320.437 213.9 324.953 214.151 329.409C214.593 340.497 214.845 354.237 215.317 365.275V365.265Z" fill="#231F20"/>
<path d="M103.43 353.44L54.1039 286.093L53.531 275.68L106.817 346.666L103.43 353.44Z" fill="#331D16"/>
<path d="M103.429 353.44C89.2185 333.884 68.2139 304.379 54.5458 286.073L53.993 275.66L53.1689 275.962C68.2943 296.083 91.6004 326.979 106.756 346.717C106.816 346.374 103.429 353.511 103.429 353.44ZM103.429 353.44L106.877 346.696L106.897 346.656L106.866 346.616C91.8215 326.092 68.3948 294.762 52.988 274.178C52.988 274.682 53.6312 285.236 53.6614 286.113V286.244L53.7418 286.345C68.0531 305.901 88.7864 333.713 103.419 353.43L103.429 353.44Z" fill="#231F20"/>
<path d="M124.173 398.278V346.666L89.2188 308.593H102.002C102.002 308.593 130.344 338.501 130.695 343.592C131.047 348.682 131.087 395.768 131.087 395.768L124.163 398.278H124.173Z" fill="#331D16"/>
<path d="M124.173 398.278C124.173 398.187 124.394 346.656 124.394 346.575C124.354 346.505 89.51 308.441 89.4598 308.371L89.2186 308.925H102.002C106.424 314.066 113.178 320.931 118.163 326.848C120.826 329.913 123.449 333.017 125.932 336.223C127.168 337.826 128.384 339.459 129.409 341.192C129.901 342.059 130.454 342.936 130.474 343.894C130.534 344.902 130.555 345.92 130.575 346.938C130.856 361.101 130.876 381.413 131.037 395.768C131.238 395.667 124.123 398.278 124.163 398.278H124.173ZM124.173 398.278L131.107 395.818L131.137 395.808V395.778C131.137 380.052 131.389 359.388 130.957 343.874C130.926 342.755 130.333 341.838 129.841 340.951C128.796 339.187 127.58 337.543 126.344 335.92C118.826 326.294 110.555 317.312 102.254 308.371L102.153 308.27H102.012H89.2286H88.4749L88.9874 308.824L124.022 346.817C123.871 346.031 124.233 398.439 124.183 398.278H124.173Z" fill="#231F20"/>
<path d="M193.81 238.957C195.87 235.459 200.493 231.689 207.307 231.689C218.724 231.689 237.176 254.39 239.789 284.511C242.392 314.631 234.623 350.194 225.96 358.47C217.297 366.746 205.398 374.065 196.875 357.845C188.353 341.626 183.157 315.81 183.006 292.635C182.815 264.521 188.272 248.403 193.82 238.957H193.81Z" fill="#A8362C"/>
<path d="M193.81 238.957C196.383 234.693 201.207 232.062 206.121 231.8C214.332 231.356 220.975 239.33 225.417 245.388C240.844 267.444 240.302 295.619 236.302 321.112C235.266 327.554 233.859 333.924 232.06 340.124C230.221 345.91 228.272 352.2 224.201 356.696C215.488 365.103 205.81 370.214 198.825 356.877C195.187 350.114 192.483 342.906 190.302 335.467C182.092 307.211 178.986 265.337 193.82 238.967L193.81 238.957ZM193.81 238.957C177.167 267.656 180.222 325.417 193.338 355.456C201.217 374.367 214.191 373.278 227.628 360.315C232.663 355.144 234.704 348.138 236.764 341.495C243.196 317.332 244.965 285.881 235.618 262.394C231.387 251.437 219.377 231.034 206.111 231.649C201.177 231.961 196.343 234.653 193.81 238.957Z" fill="#231F20"/>
<path d="M205.428 302.666C203.89 302.666 202.644 299.777 202.644 296.214C202.644 292.651 203.89 289.763 205.428 289.763C206.965 289.763 208.212 292.651 208.212 296.214C208.212 299.777 206.965 302.666 205.428 302.666Z" fill="#1C75BC" stroke="#231F20" stroke-width="0.238706" stroke-miterlimit="10"/>
<path d="M241.216 377.23C236.583 377.23 237.427 272.263 238.332 270.106C239.236 267.949 242.191 263.654 241.427 270.106C240.663 276.557 245.849 377.23 241.216 377.23Z" fill="#331D16" stroke="#231F20" stroke-width="0.301523" stroke-miterlimit="10"/>
<path d="M183.187 324.258C178.554 324.258 180.212 236.387 181.127 234.24C182.041 232.093 184.986 227.788 184.222 234.24C183.458 240.691 187.82 324.258 183.187 324.258Z" fill="#331D16" stroke="#231F20" stroke-width="0.57792" stroke-miterlimit="10"/>
<path d="M241.216 302.212L106.816 346.667L53.5309 275.68L176.403 245.56L241.216 302.212Z" fill="#653C2E"/>
<path d="M241.216 302.212C241.266 302.282 105.419 346.394 107.088 346.454L53.8927 275.408L53.6414 276.113C53.6012 276.103 177.287 245.782 176.232 245.761L241.226 302.201L241.216 302.212ZM241.216 302.212C241.105 302.121 176.574 245.358 176.473 245.267C176.423 245.207 53.5108 275.277 53.4203 275.247L52.757 275.408L53.1691 275.952C53.3198 276.154 106.545 346.888 106.686 347.079C106.867 347.261 241.005 302.111 241.216 302.212Z" fill="#231F20"/>
<path d="M58.1137 380.909C53.4806 380.909 52.7369 251.124 53.6414 248.977C54.5459 246.83 57.5006 242.526 56.7368 248.977C55.973 255.429 62.7468 380.909 58.1137 380.909Z" fill="#331D16" stroke="#231F20" stroke-width="0.301523" stroke-miterlimit="10"/>
<path d="M241.216 302.212V307.051L106.113 353.44L106.816 346.666L241.216 302.212Z" fill="#331D16"/>
<path d="M241.216 302.212C241.216 302.212 241.156 307.171 241.216 307.02C203.408 319.691 144.142 340.003 105.962 352.997L106.565 353.481L107.259 346.707C105.249 348.168 241.658 301.799 241.216 302.202V302.212ZM241.216 302.212C240.894 302.595 106.163 345.87 106.364 346.616L105.651 353.39L105.57 354.106L106.254 353.874C144.514 340.618 203.458 320.357 241.226 307.081C241.286 307.081 241.196 302.242 241.226 302.212H241.216Z" fill="#231F20"/>
<path d="M176.403 253.171V153.778L53.531 169.736V275.681L176.403 253.171Z" fill="#653C2E"/>
<path d="M176.403 253.171C176.484 228.232 176.675 178.394 176.695 153.455C176.604 153.304 53.6516 169.372 53.4808 169.282L53.0788 169.332V169.735L53.2094 275.68V276.073L53.5913 276.003C84.2139 270.348 145.811 258.937 176.403 253.171ZM176.403 253.171C145.751 258.624 84.0933 269.793 53.4707 275.368C54.4155 277.464 53.722 169.302 53.9833 169.745L53.5813 170.199C53.4607 170.078 177.76 154.383 176.112 153.798C176.112 178.566 176.303 228.413 176.393 253.181L176.403 253.171Z" fill="#231F20"/>
<path d="M177.157 265.398C177.157 265.398 220.854 292.172 222.814 300.77C224.774 309.369 224.563 368.994 224.563 365.648C224.563 365.648 217.186 369.317 216.865 367.361C212.925 343.602 214.372 309.389 208.322 304.843C200.192 298.724 175.89 277.696 143.981 286.093C114.917 293.744 143.198 323.31 148.414 330.477C153.63 337.644 155.861 385.435 155.861 385.435C155.861 385.435 149.991 390.516 149.64 387.784C147.037 367.956 138.112 340.961 123.399 333.28C104.183 323.239 78.4952 303.643 75.852 286.91C73.2088 270.176 79.9424 252.969 79.9424 252.969L177.147 265.398H177.157Z" fill="#592B80" stroke="#231F20" stroke-width="0.57792" stroke-miterlimit="10"/>
<path d="M246.784 275.68C246.784 275.68 248.412 283.18 245.387 287.061C242.522 290.74 234.784 293.966 229.065 290.498C225.146 288.119 175.84 241.074 175.84 241.074L176.514 224.411L246.774 275.68H246.784Z" fill="#331D16"/>
<path d="M246.784 275.68C247.417 279.712 247.688 284.662 244.613 287.766C241.588 290.639 237.156 292.212 233.015 291.637C228.674 291.103 225.91 287.293 222.714 284.682C219.568 281.799 216.443 278.896 213.337 275.972C200.895 264.289 188.503 252.546 176.162 240.741L176.303 241.094L176.956 224.431L176.262 224.764C196.232 239.3 226.915 261.487 246.774 275.68H246.784ZM246.784 275.68C238.091 269.218 220.603 256.245 211.88 249.824L176.775 224.058L176.122 223.574L176.092 224.391L175.388 241.044V241.255L175.529 241.397L194.132 258.997C203.458 267.777 212.794 276.537 222.322 285.095C225.598 287.736 228.493 291.597 232.945 292.061C237.236 292.575 241.699 290.911 244.764 287.908C247.839 284.682 247.487 279.732 246.774 275.66L246.784 275.68Z" fill="#231F20"/>
<path d="M165.328 202.729C165.328 202.729 247.668 263.725 246.784 275.68C245.899 287.636 235.266 286.91 229.065 285.005C222.865 283.1 147.117 208.999 147.117 208.999L165.328 202.739V202.729Z" fill="#653C2E"/>
<path d="M165.328 202.728C181.639 215.117 197.74 227.798 213.448 240.953C223.166 249.259 232.975 257.555 241.437 267.152C243.377 269.581 245.628 272.011 246.342 275.055C246.412 276.164 246.141 277.565 245.839 278.674C244.322 284.903 238.151 286.405 232.483 285.337C231.297 285.115 229.99 284.893 228.885 284.399C227.87 283.875 226.824 283.039 225.829 282.283C198.493 259.108 173.207 233.564 147.208 208.907L147.158 209.129L165.318 202.738L165.328 202.728ZM165.328 202.728L147.077 208.867L146.876 208.938L147.027 209.089C161.579 223.524 176.343 237.747 191.187 251.89C198.614 258.957 206.081 265.983 213.659 272.878C217.458 276.315 221.267 279.742 225.277 282.978C226.543 283.906 227.86 285.145 229.478 285.589C234.081 286.869 239.729 287.293 243.628 283.986C245.407 282.464 246.402 280.196 246.894 277.928C247.206 276.315 247.397 274.501 246.513 272.988C244.08 268.341 240.332 264.723 236.754 261.013C214.624 239.622 189.961 221.085 165.338 202.718L165.328 202.728Z" fill="#231F20"/>
<path d="M53.3096 214.734C62.1335 205.037 81.3694 178.959 83.51 176.056C84.0829 170.109 84.4346 166.459 84.4346 166.459L177.157 167.689C177.157 167.689 177.488 173.223 177.951 181.731L180.152 171.711C180.152 171.711 209.568 217.597 212.523 217.597C215.478 217.597 228.613 188.727 228.613 188.727L233.427 191.449C233.427 191.449 218.643 226.266 211.638 229.784C205.468 232.879 183.388 195.995 178.232 187.195C179.539 212.214 181.408 253.947 180.141 267.263C178.292 286.708 79.2086 277.626 76.3343 277.626C75.7715 277.626 75.7413 273.352 76.0529 266.507C64.2842 251.367 46.5459 222.154 53.2895 214.734H53.3096ZM63.229 226.377C60.7667 228.131 69.2188 242.173 76.8167 253.766C77.892 238.06 79.691 217.285 81.2689 199.926C76.676 207.537 66.4953 224.059 63.2189 226.377H63.229Z" fill="#F1AC1D"/>
<path d="M53.3097 214.735C64.0834 202.426 73.7516 189.181 83.5705 176.096C83.6107 176.066 84.5152 166.5 84.5353 166.46L84.4348 166.55C107.56 166.923 154.042 167.659 177.157 168.103L176.755 167.72C176.926 170.401 177.519 182.82 177.669 185.159L178.413 181.832L180.654 171.822L179.73 171.994C183.75 178.294 187.81 184.564 191.92 190.794C196.041 197.023 200.192 203.233 204.543 209.321C206.885 212.356 208.845 215.732 211.87 218.162C213.076 218.878 214.302 217.305 214.955 216.468C216.674 214.18 218.041 211.7 219.417 209.221C222.995 202.618 226.231 195.884 229.387 189.09L228.211 189.473L233.015 192.215L232.653 191.136C227.628 202.436 222.503 213.888 215.679 224.21C214.312 225.984 212.905 228.393 210.885 229.089C209.598 229.029 208.483 228.041 207.428 227.214C201.418 221.73 196.775 214.624 192.141 207.91C187.539 201.015 183.167 193.959 178.946 186.812L177.267 183.959C178.192 201.66 179.117 219.361 179.679 237.073C179.921 246.407 180.222 255.752 179.79 265.076L179.689 266.618C179.71 269.169 177.961 271.094 175.82 272.435C158.795 282.152 110.776 279.38 90.0026 278.422L77.6008 277.606L76.8269 277.556L76.435 277.535C76.3345 277.535 76.3747 277.535 76.3445 277.515C76.3244 277.485 76.2943 277.435 76.2742 277.374C75.6712 273.816 76.1234 270.106 76.1837 266.497C69.5306 258.03 45.9028 224.25 53.3299 214.755L53.3097 214.735ZM53.3097 214.735C45.8325 224.22 69.5004 258.312 75.9727 266.507C75.842 269.622 75.6711 272.747 75.8219 275.862C75.8822 276.447 75.8521 277.092 76.1636 277.636C76.2139 277.717 76.3948 277.747 76.4249 277.737L76.8068 277.757L77.5807 277.808C100.625 279.269 157.459 283.916 176.343 273.241C178.584 271.931 180.755 269.532 180.735 266.679L180.855 265.116C181.368 255.752 181.147 246.367 180.986 237.012C180.604 220.38 179.921 203.757 179.066 187.155L177.559 187.608C181.77 194.795 186.121 201.882 190.734 208.827C195.488 215.753 200.021 222.789 206.272 228.545C207.588 229.613 209.056 230.853 210.955 230.863C213.759 230.46 215.639 227.174 217.176 225.238C224.272 214.553 229.377 202.779 234.533 191.086L233.859 190.713L229.045 188.001L228.251 187.558C225.025 194.604 221.699 201.64 218.041 208.454C216.513 211.206 214.493 215.017 212.603 216.851C209.88 214.543 207.88 211.327 205.689 208.505C201.307 202.487 197.106 196.318 192.935 190.128C188.544 183.596 184.212 177.014 179.931 170.411L179.669 171.611L177.509 181.631L178.433 181.701L177.579 167.659L177.559 167.276H177.177C154.032 167.105 107.5 166.601 84.3544 166.349V166.439C84.3745 166.399 83.3997 176.197 83.46 175.996C73.6913 189.11 64.0633 202.386 53.3299 214.724L53.3097 214.735Z" fill="#231F20"/>
<path d="M63.2291 226.367C60.2744 228.968 74.9475 251.427 77.1686 255.258L77.3193 253.786C79.3897 235.319 80.9575 216.186 81.9424 197.678C78.9274 202.971 75.852 208.263 72.6662 213.454C69.7416 217.889 67.1085 222.698 63.2291 226.367ZM63.2291 226.367C67.1286 222.718 69.832 217.95 72.9174 213.615C75.9324 209.19 78.847 204.704 81.7213 200.188L80.7464 199.866C78.7565 217.496 77.2791 235.954 76.3143 253.715L77.2389 253.473C74.7063 249.562 60.4654 229.815 63.2291 226.367Z" fill="#231F20"/>
<path d="M211.639 98.1342C211.639 98.1342 214.443 192.991 131.489 192.991C48.536 192.991 50.536 98.1342 50.536 98.1342C50.536 98.1342 73.7818 70.4031 121.871 63.5686C169.961 56.7341 211.639 98.1342 211.639 98.1342Z" fill="#F2CCA1"/>
<path d="M211.569 98.1645C210.935 127.64 201.428 161.479 176.393 179.261C172.755 182.023 168.303 184.291 164.172 186.217C163.559 186.449 161.781 187.134 161.127 187.376C157.248 188.908 152.705 190.108 148.605 190.874C145.429 191.62 142.153 191.811 138.927 192.245L137.841 192.295C116.977 193.858 94.7164 188.797 79.2996 173.919C63.33 158.778 55.4106 136.984 52.4458 115.533C51.6619 109.767 51.1694 103.931 51.1895 98.1444L51.0388 98.5476C61.1994 87.6507 74.2343 79.6065 87.8522 73.7801C95.5304 70.4334 103.621 67.9738 111.791 66.1492C118.012 64.8287 124.766 63.6795 131.128 63.5283C161.198 63.0142 189.589 78.538 211.579 98.1645H211.569ZM211.699 98.1041C187.408 75.3526 153.881 57.7422 119.821 63.1957C117.811 63.5384 113.389 64.2541 111.49 64.7279C95.852 68.125 80.7066 74.1833 67.3701 83.1145C61.1089 87.3785 55.1492 92.0357 50.0539 97.7109L49.9031 97.8823V98.1141C50.4961 125.432 58.6266 155.099 78.9579 174.302C88.5959 183.243 100.978 189.281 113.882 191.64C120.987 193.102 128.465 193.555 135.721 193.293C136.384 193.253 138.364 193.233 139.017 193.192C142.283 192.799 145.6 192.648 148.826 191.942C193.84 184.302 212.021 139.635 211.719 98.1041H211.699Z" fill="#231F20"/>
<path d="M190.403 114.374C190.373 113.174 189.85 111.511 186.594 111.511C183.338 111.511 183.187 114.021 183.187 114.575C183.187 115.13 184.142 117.942 186.916 117.841C189.69 117.741 190.433 115.715 190.393 114.374H190.403Z" fill="#FFF5EA"/>
<path d="M190.433 114.364C190.524 109.797 182.735 110.362 183.016 114.777C183.67 119.454 190.654 119.344 190.433 114.364ZM190.363 114.364C190.463 117.146 186.735 118.325 184.775 116.773C184.152 116.259 183.639 115.513 183.398 114.717C183.087 112.741 184.755 111.551 186.614 111.803C188.282 111.844 190.393 112.297 190.363 114.374V114.364Z" fill="#231F20"/>
<path d="M83.5605 114.374C83.5304 113.174 83.0078 111.511 79.7516 111.511C76.4953 111.511 76.3446 114.021 76.3446 114.575C76.3446 115.13 77.2993 117.942 80.0732 117.841C82.847 117.741 83.5907 115.715 83.5505 114.374H83.5605Z" fill="#FFF5EA"/>
<path d="M83.6008 114.364C83.6913 109.797 75.9025 110.362 76.1839 114.777C76.8371 119.454 83.8219 119.344 83.6008 114.364ZM83.5305 114.364C83.631 117.146 79.9024 118.325 77.9426 116.773C77.3195 116.259 76.807 115.513 76.5658 114.717C76.2542 112.741 77.9225 111.551 79.7818 111.803C81.4501 111.844 83.5606 112.297 83.5305 114.374V114.364Z" fill="#231F20"/>
<path d="M192.644 108.225C192.714 108.023 193.85 104.405 193.247 103.669C192.644 102.933 188.373 101.259 186.905 101.189C185.438 101.118 182.493 100.382 181.559 101.189C180.624 101.995 180.152 103.497 180.152 104.515C180.152 105.534 182.825 107.953 185.699 108.215C188.574 108.487 192.644 108.215 192.644 108.215V108.225Z" fill="#1E110D"/>
<path d="M72.6362 108.225C72.5658 108.023 71.4302 104.405 72.0332 103.669C72.6362 102.933 76.9075 101.259 78.3748 101.189C79.8421 101.118 82.7867 100.382 83.7214 101.189C84.6561 101.995 85.1284 103.497 85.1284 104.515C85.1284 105.534 82.4551 107.953 79.5808 108.215C76.7064 108.487 72.6362 108.215 72.6362 108.215V108.225Z" fill="#1E110D"/>
<path d="M187.88 136.641C188.081 136.369 190.222 133.295 187.88 128.537C185.539 123.779 182.132 125.392 181.599 124.918C181.066 124.444 175.85 122.368 172.514 127.66C169.177 132.952 173.519 140.119 179.458 140.452C185.398 140.785 187.87 136.631 187.87 136.631L187.88 136.641Z" fill="#EEB19F"/>
<path d="M187.911 136.661C190.343 133.002 188.865 126.379 184.473 124.918C183.599 124.636 182.634 124.827 181.78 124.757C177.278 122.277 171.66 125.986 171.127 130.875C170.434 140.522 182.443 144.393 187.911 136.661ZM187.85 136.621C182.664 143.546 171.227 139.756 171.68 130.936C172.001 126.158 177.247 122.418 181.599 125.16C182.494 125.371 183.448 125.16 184.313 125.492C188.142 126.894 190.162 133.204 187.85 136.631V136.621Z" fill="#231F20"/>
<path d="M97.6004 133.577C97.6607 133.91 98.1631 137.629 93.912 140.795C89.6608 143.96 87.3694 140.966 86.6759 141.147C85.9825 141.319 80.4047 140.784 79.8419 134.545C79.2791 128.305 86.3945 123.91 91.8417 126.329C97.2888 128.748 97.6004 133.577 97.6004 133.577Z" fill="#EEB19F"/>
<path d="M97.5703 133.577C98.0728 137.679 93.3995 142.377 89.3593 141.873C88.4347 141.772 87.691 141.147 86.7966 140.925C81.6811 141.379 78.7063 135.653 80.5957 131.248C84.1836 123.194 96.113 125.049 97.5703 133.577ZM97.6406 133.577C96.314 124.202 83.8117 122.146 80.0731 131.047C78.3244 135.643 81.6409 141.51 86.7765 141.359C87.5704 141.691 88.3342 142.296 89.2488 142.447C93.8216 143.163 98.1431 137.941 97.6406 133.567V133.577Z" fill="#231F20"/>
<path d="M134.896 105.574C134.896 106.38 138.846 130.089 138.032 131.4C137.218 132.71 132.916 134.212 131.419 133.809C129.921 133.406 125.76 132.206 125.559 130.492C125.358 128.789 128.494 110.493 128.353 109.495C128.213 108.497 128.424 106.38 130.062 105.574C131.7 104.767 134.906 105.574 134.906 105.574H134.896Z" fill="#F2CCA1"/>
<path d="M134.866 105.593C135.479 111.46 136.394 117.327 137.188 123.174C137.469 125.875 138.223 128.657 137.922 131.349C136.866 132.599 135.158 133.103 133.61 133.526C132.907 133.677 132.153 133.819 131.479 133.677C129.56 133.052 127.037 132.518 125.861 130.764C125.59 129.797 126.133 127.579 126.203 126.5L127.52 117.73C127.892 115.23 128.304 112.539 128.535 110.019C128.123 105.321 130.937 104.858 134.856 105.593H134.866ZM134.917 105.553C131.781 104.656 128.193 104.767 128.103 108.89C128.193 110.14 127.791 111.995 127.61 113.255C126.957 117.519 126.203 122.176 125.67 126.43C125.58 127.942 125.067 129.464 125.459 130.956C126.806 132.901 129.319 133.284 131.419 133.94C132.947 134.141 134.384 133.567 135.771 133.012C136.605 132.619 137.52 132.226 138.092 131.46C138.514 128.718 137.851 125.865 137.66 123.103C136.947 117.216 135.932 111.4 134.906 105.543L134.917 105.553Z" fill="#231F20"/>
<path d="M142.906 129.092C142.906 129.092 144.604 131.793 142.906 132.297C141.208 132.801 138.022 131.4 138.022 131.4" fill="#F2CCA1"/>
<path d="M142.876 129.111C143.037 130.271 144.273 132.468 142.233 132.206C140.836 132.035 139.378 131.349 138.002 131.43C139.187 132.388 140.735 132.882 142.253 132.589C143.027 132.458 143.931 132.025 143.941 131.107C143.921 130.271 143.499 129.575 142.926 129.071L142.866 129.111H142.876Z" fill="#231F20"/>
<path d="M121.057 129.092C121.057 129.092 119.359 131.793 121.057 132.297C122.756 132.801 125.942 131.4 125.942 131.4" fill="#F2CCA1"/>
<path d="M121.027 129.071C120.183 129.747 119.479 131.43 120.615 132.196C122.253 133.113 124.725 132.66 125.931 131.37C124.464 131.501 123.157 131.974 121.73 132.206C121.389 132.247 121.007 132.226 120.755 132.015C120.504 131.793 120.534 131.44 120.605 131.148C120.615 130.684 121.168 129.384 121.027 129.071Z" fill="#231F20"/>
<path d="M135.56 129.454C135.56 129.454 135.087 131.057 132.756 131.258C130.414 131.46 128.143 129.454 128.143 129.454" fill="#F2CCA1"/>
<path d="M135.529 129.444C134.796 130.24 134.012 130.754 133.037 131.107C132.002 131.299 131.027 130.664 130.113 130.281C129.6 130.109 128.504 129.424 128.133 129.474C129.178 131.127 131.228 131.712 133.077 131.329C134.213 131.42 135.56 130.734 135.6 129.454L135.529 129.434V129.444Z" fill="#231F20"/>
<path d="M53.531 123.093C53.3401 123.184 49.6115 125.281 50.7472 130.381C51.8828 135.482 56.5762 137.085 56.526 136.833C56.4757 136.581 53.531 123.083 53.531 123.083V123.093Z" fill="#F2CCA1"/>
<path d="M53.5609 123.033C50.7569 123.9 49.3901 127.307 50.0835 130.019C50.9881 133.143 53.2594 135.926 56.1739 137.357C56.5257 137.488 56.988 137.408 57.0684 136.924C56.5357 132.377 55.0483 127.146 53.5609 123.033ZM53.5006 123.164C54.0734 128.244 54.5759 132.297 55.993 136.944C55.9226 136.702 56.1639 136.329 56.4553 136.329C53.6915 135.865 51.2393 132.871 51.2494 129.827C50.8574 127.347 51.7217 124.898 53.5006 123.174V123.164Z" fill="#231F20"/>
<path d="M206.624 134.988C206.835 134.988 211.096 134.726 212.292 129.635C213.478 124.545 209.95 121.057 209.88 121.299C209.809 121.541 206.624 134.988 206.624 134.988Z" fill="#F2CCA1"/>
<path d="M206.563 135.028C209.468 135.472 212.171 132.992 212.714 130.25C213.257 127.045 212.413 123.547 210.413 120.986C210.151 120.714 209.709 120.583 209.418 120.986C207.93 125.311 206.996 130.674 206.563 135.018V135.028ZM206.674 134.938C208.362 130.109 209.669 126.248 210.403 121.44C210.362 121.682 209.98 121.924 209.719 121.793C212.021 123.456 212.925 127.146 211.588 129.918C210.865 132.327 209.026 134.162 206.674 134.938Z" fill="#231F20"/>
<path d="M106.816 428.045C102.183 428.045 101.439 298.26 102.344 296.113C103.248 293.966 106.203 289.662 105.439 296.113C104.676 302.565 111.449 428.045 106.816 428.045Z" fill="#331D16" stroke="#231F20" stroke-width="0.301523" stroke-miterlimit="10"/>
<path d="M34.7072 226.679V233.373C35.6921 236.246 105.872 319.742 108.445 321.959C111.108 324.258 124.163 324.258 128.525 315.488C129.419 313.683 128.525 304.127 128.525 304.127L46.3753 229.976L34.7072 226.679Z" fill="#331D16"/>
<path d="M34.7071 226.679L34.6669 233.373C36.0437 235.651 38.6567 238.735 40.2949 240.893C53.8726 257.969 67.9829 274.783 81.9525 291.506C90.6659 301.788 99.1682 312.262 108.183 322.292C112.454 324.933 119.65 323.552 123.791 321.122C126.042 319.792 127.992 317.786 129.047 315.367C129.761 311.647 129.168 307.806 128.947 304.087C105.811 282.898 69.6009 250.661 46.4254 229.915C46.4053 229.885 34.7372 226.699 34.7071 226.679ZM34.7071 226.679C34.7071 226.679 46.4656 230.086 46.3249 230.026C68.7668 250.429 106.042 284.581 128.102 304.157C128.354 307.252 128.585 310.387 128.434 313.451C128.364 314.217 128.344 314.953 127.982 315.528C124.675 321.596 116.585 323.874 110.163 322.322C108.625 321.949 107.831 320.618 106.806 319.53C90.4347 300.69 74.4049 281.527 58.385 262.384C54.4957 257.717 44.1843 245.338 40.4657 240.751C38.8778 238.725 36.1141 235.5 34.7674 233.363L34.7272 226.669L34.7071 226.679Z" fill="#231F20"/>
<path d="M52.6664 223.091C52.6664 223.091 129.409 292.162 128.524 304.117C127.64 316.073 114.294 316.546 108.103 314.631C101.912 312.716 34.707 226.68 34.707 226.68L52.6664 223.091Z" fill="#653C2E"/>
<path d="M52.6665 223.091C75.7013 244.663 99.1481 266.064 119.67 290.095C122.786 294.148 126.555 298.2 128.032 303.17C128.263 304.077 127.921 305.045 127.841 305.952C127.801 306.274 127.67 306.567 127.59 306.869C127.439 307.403 127.188 308.169 126.906 308.643C124.283 314.077 117.5 315.468 111.982 314.913C110.706 314.782 109.419 314.54 108.213 314.187C107.208 313.693 106.183 312.645 105.319 311.839C80.1635 284.894 58.0131 255.237 34.8176 226.609L34.7472 226.801L52.6866 223.091H52.6665ZM52.6665 223.091L34.6869 226.559L34.496 226.599L34.6166 226.76C47.4807 243.463 60.6161 259.975 73.8621 276.376C83.9222 288.593 93.6708 301.083 104.686 312.484C105.741 313.441 106.545 314.399 107.922 315.054C109.238 315.447 110.555 315.699 111.892 315.831C115.881 316.204 120.113 315.639 123.59 313.542C125.881 312.071 127.69 309.772 128.384 307.111C128.635 306.577 128.695 305.7 128.796 305.115C129.409 301.627 126.816 298.654 125.097 295.912C117.299 285.237 107.912 275.862 98.6959 266.457C83.8218 251.508 68.3748 237.153 52.6665 223.101V223.091Z" fill="#231F20"/>
<path d="M51.9729 282.948C54.0332 279.45 58.6562 275.68 65.4702 275.68C76.8871 275.68 95.339 298.381 97.952 328.501C100.555 358.622 92.7863 394.185 84.1231 402.461C75.46 410.737 63.5607 418.056 55.0382 401.836C46.5157 385.617 41.3199 359.801 41.1691 336.626C40.9782 308.512 46.4354 292.394 51.983 282.948H51.9729Z" fill="#A8362C"/>
<path d="M51.973 282.949C54.5458 278.685 59.3698 276.054 64.2843 275.792C72.4952 275.348 79.1383 283.322 83.5805 289.38C99.0073 311.436 98.4646 339.61 94.4647 365.104C93.4295 371.545 92.0225 377.916 90.2236 384.115C88.3844 389.902 86.4347 396.192 82.3644 400.688C73.651 409.095 63.9728 414.205 56.988 400.869C53.3499 394.105 50.6464 386.898 48.4655 379.458C40.2546 351.203 37.1491 309.329 51.983 282.959L51.973 282.949ZM51.973 282.949C35.3301 311.647 38.3853 369.408 51.5006 399.448C59.3799 418.358 72.3545 417.27 85.7915 404.306C90.8266 399.135 92.8667 392.129 94.927 385.486C101.359 361.324 103.128 329.873 93.7813 306.386C89.5502 295.428 77.5404 275.025 64.2743 275.64C59.3397 275.953 54.5056 278.644 51.973 282.949Z" fill="#231F20"/>
<path d="M212.694 84.1225C212.694 84.1225 193.408 29.7388 138.142 27.9445C82.877 26.1501 61.6412 51.966 56.5358 58.4175C51.4304 64.8689 50.5359 87.8119 50.5359 87.8119L212.694 84.1225Z" fill="#592D81"/>
<path d="M212.744 84.1627C202.865 57.984 180.845 35.1519 152.976 29.1641C147.901 28.1258 142.745 27.4605 137.57 27.3799C134.233 27.4504 130.575 27.3396 127.258 27.5008C101.299 28.6702 73.631 36.8655 56.6463 57.6916C54.4253 60.3932 53.4404 63.9415 52.6263 67.2781C51.0284 74.2134 50.3349 81.31 49.9329 88.4066C96.324 87.8018 165.76 85.5841 212.754 84.1728L212.744 84.1627ZM212.624 84.0821C165.76 84.7071 96.726 85.8462 50.5158 87.2373L51.0987 87.832C51.4102 81.0177 52.0233 74.1428 53.4705 67.4595C53.9429 65.2318 54.5861 63.0443 55.4906 60.998C56.8775 57.9739 59.4704 55.484 61.7216 53.0143C66.4552 48.1052 72.0933 44.0428 78.0028 40.6558C92.9774 32.2386 110.263 28.9423 127.288 28.4383C136.333 28.3174 145.549 28.4786 154.353 30.7871C181.207 37.1579 202.051 59.1734 212.624 84.0821Z" fill="#231F20"/>
<path d="M211.639 97.842C211.639 97.842 158.293 85.312 112.183 89.9692C66.0733 94.6263 50.5761 100.816 50.5761 100.816L47.129 83.8705C47.129 83.8705 103.892 70.6048 135.56 71.6834C167.227 72.762 212.684 84.1226 212.684 84.1226L211.629 97.8319L211.639 97.842Z" fill="#592D81"/>
<path d="M211.599 97.7814C185.217 91.582 158.012 88.1345 130.886 88.3563C117.289 88.5276 103.781 90.332 90.3444 92.2574C76.9275 94.3642 63.4403 96.3299 50.4858 100.574L50.8375 100.765L47.5109 83.7999L47.2195 84.2535C74.4853 78.5279 102.073 73.2861 129.962 72.399C143.881 72.3083 157.78 74.2336 171.529 76.3203C184.936 78.1851 200.192 81.9552 212.433 84.1225L211.588 97.8016L211.599 97.7814ZM211.679 97.8923L212.945 84.1427L212.965 83.931C199.337 80.4633 185.579 77.5702 171.72 75.1409C157.921 72.7821 143.992 70.8365 129.942 70.9071C101.892 71.7236 74.3245 77.3686 47.0386 83.4975L46.6768 83.5782L46.7572 83.9411L50.3249 100.856L50.3852 101.148C53.6314 99.9487 57.0283 99.0516 60.4052 98.2149C83.4902 93.0235 107.269 90.1203 130.896 89.5558C158.032 89.4147 185.046 92.6203 211.679 97.8722V97.8923Z" fill="#231F20"/>
<path d="M151.74 155.855C140.353 158.536 128.414 158.788 116.886 156.933C115.238 156.661 113.6 156.318 111.982 155.855C124.082 160.29 139.599 160.038 151.74 155.855Z" fill="#231F20"/>
<path d="M150.846 153.133C150.896 155.169 151.991 156.984 153.177 158.566C152.363 156.752 151.328 155.088 150.846 153.133Z" fill="#231F20"/>
<path d="M91.1785 284.208C91.7915 285.67 96.1231 293.905 95.701 294.944C95.2789 295.982 95.1684 300.085 96.2236 300.256C97.2789 300.427 95.8116 295.145 96.505 295.952C97.1985 296.758 99.1884 302.061 100.213 301.879C101.239 301.698 99.8115 295.407 99.8115 295.407C99.8115 295.407 104.887 303.956 106.244 303.986C107.61 304.026 101.751 295.932 101.982 296.204C102.213 296.476 106.977 302.817 108.937 302.232C110.897 301.647 97.711 279.954 97.711 279.954L91.1684 284.198L91.1785 284.208Z" fill="#F2CCA1"/>
<path d="M91.1381 284.198C92.505 287.696 94.4145 290.922 95.3692 294.511C95.3692 294.581 95.4094 294.692 95.3994 294.732C95.3793 294.793 95.4295 294.773 95.3793 294.894C94.9773 296.617 94.7964 298.503 95.5401 300.176C95.6707 300.377 95.8918 300.64 96.324 300.65C96.5652 300.65 96.7863 300.428 96.8466 300.297C97.1883 299.38 96.937 298.412 96.8667 297.565C96.8365 297.313 96.6958 296.255 96.7059 296.083C96.6858 296.134 96.6255 296.214 96.5049 296.265C96.2737 296.295 96.2938 296.255 96.2335 296.234C96.2436 296.255 96.334 296.376 96.3843 296.456C97.3893 298.17 98.1129 300.287 99.4797 301.839C99.6405 301.97 99.7913 302.162 100.153 302.192C101.138 302.101 100.816 300.519 100.796 299.843C100.625 298.331 100.314 296.869 99.9923 295.398L99.6908 295.519C100.897 297.464 102.113 299.39 103.419 301.265C104.213 302.273 104.887 303.502 106.052 304.178C108.454 304.702 102.836 297.021 102.465 296.325C102.424 296.275 102.334 296.113 102.294 296.073C102.595 295.7 101.982 296.819 101.852 296.557C101.691 296.466 101.721 296.436 101.771 296.517C103.259 298.452 104.766 300.367 106.756 301.92C107.389 302.464 109.439 303.482 109.59 301.92C108.967 298.21 106.615 294.914 104.967 291.597C102.686 287.535 100.294 283.543 97.7913 279.612C95.52 281.134 93.2989 282.727 91.1281 284.209L91.1381 284.198ZM91.2185 284.229L97.8617 280.186L97.4998 280.106C99.7611 284.057 102.022 288.019 104.183 292.021C105.781 295.216 107.882 298.392 108.696 301.859C108.676 301.99 108.696 301.839 108.806 301.819C108.294 301.9 107.771 301.537 107.258 301.194C105.078 299.561 103.831 297.746 102.123 295.892C101.982 295.63 101.379 296.769 101.681 296.396C101.681 296.406 101.751 296.507 101.761 296.517C102.153 297.061 102.967 298.23 103.359 298.785C104.364 300.377 105.751 301.98 106.233 303.805C105.248 303.371 104.394 302.031 103.65 301.073C102.113 298.976 100.746 296.728 99.4395 294.48L99.6506 295.468C99.9521 297.363 100.666 299.813 100.153 301.617C100.043 301.617 99.741 301.285 99.5601 301.013C98.4747 299.369 97.922 297.494 96.8265 295.771C96.6858 295.62 96.6054 295.458 96.2536 295.519C96.0828 295.569 96.0124 295.7 95.9622 295.801C95.8617 296.144 95.932 296.245 95.932 296.537C96.0225 297.535 96.2838 298.855 96.1933 299.783C96.1833 299.853 96.1632 299.914 96.1531 299.934C96.133 299.964 96.1933 299.884 96.2436 299.894C96.2938 299.894 96.2436 299.873 96.2436 299.884C96.0225 299.662 95.932 299.259 95.8617 298.865C95.6305 297.515 95.7612 296.103 96.0526 294.763C95.1582 291.003 92.8768 287.646 91.2185 284.249V284.229Z" fill="#231F20"/>
<path d="M63.2393 226.367C63.2393 226.367 99.922 279.017 100.163 284.037C100.404 289.057 92.7764 287.051 92.7764 287.051C92.7764 287.051 51.2596 227.597 51.8324 221.891C52.4053 216.186 53.3198 214.724 53.3198 214.724" fill="#F1AC1D"/>
<path d="M63.2091 226.387C73.2592 241.487 85.9524 259.864 95.4899 275.176C97.0778 277.948 99.0276 280.7 99.9723 283.764C100.565 287.736 95.4598 287.645 92.8066 286.889C89.2689 281.526 84.8569 275.196 81.0681 269.47C75.3898 261.043 69.1788 251.618 63.6513 243.019C61.7418 240.066 59.8624 237.092 58.0333 234.088C55.8725 230.308 53.3098 226.618 52.0133 222.445C51.8525 221.649 52.1339 220.671 52.1741 219.865C52.4153 218.131 52.6364 216.357 53.3299 214.754C52.4656 216.105 52.2746 218.171 51.943 219.834L51.7621 221.145C51.4505 222.475 52.0736 223.826 52.5862 225.026C54.0434 228.252 55.8122 231.306 57.5811 234.35C61.1388 240.429 64.9176 246.386 68.7768 252.273C76.4752 264.067 84.4952 275.65 92.6156 287.151C94.1734 287.645 95.9723 287.736 97.6105 287.413C102.213 286.214 99.6507 281.97 98.1432 279.258C87.6107 260.993 75.4702 243.342 63.189 226.377L63.2091 226.387Z" fill="#231F20"/>
<path d="M273.045 134.484C273.256 135.845 261.608 199.251 258.924 199.331C256.241 199.412 224.312 193.374 222.02 192.83C219.729 192.275 232.372 125.281 233.89 123.406C235.407 121.531 273.587 128.829 273.587 128.829L273.045 134.484Z" fill="#653C2D"/>
<path d="M273.045 134.484C273.256 135.845 261.608 199.251 258.924 199.331C256.241 199.412 224.312 193.374 222.02 192.83C219.729 192.275 232.372 125.281 233.89 123.406C235.407 121.531 273.587 128.829 273.587 128.829L273.045 134.484Z" stroke="#1E110D" stroke-width="0.552793" stroke-miterlimit="10"/>
<path style="mix-blend-mode:multiply" opacity="0.22" d="M270.472 136.47C270.653 137.73 260.06 196.297 257.658 196.378C255.246 196.458 226.674 190.975 224.613 190.47C222.563 189.966 234.06 128.073 235.427 126.339C236.794 124.605 270.974 131.248 270.974 131.248L270.472 136.47Z" fill="url(#paint0_linear_23_547)"/>
<path d="M222.201 192.749C223.096 192.023 225.588 189.886 226.864 187.779C227.045 187.477 227.256 187.154 227.457 186.812C228.673 184.856 230.342 182.164 230 181.056C229.94 180.874 229.829 180.753 229.648 180.683C229.598 180.663 229.538 180.642 229.467 180.642C228.141 180.642 225.297 184.412 223.819 186.791C223.749 186.902 223.628 186.963 223.508 186.963C223.468 186.963 223.437 186.963 223.397 186.943C223.236 186.892 223.136 186.741 223.146 186.58L223.829 172.689C222.774 177.598 221.216 185.31 221.216 187.799C221.216 190.451 221.87 192.084 222.201 192.739V192.749Z" fill="#F3CCA1"/>
<path d="M223.236 177.336C222.392 181.539 221.578 186.035 221.578 187.809C221.578 189.936 222.01 191.378 222.332 192.164C223.397 191.267 225.448 189.412 226.553 187.587C226.734 187.285 226.945 186.952 227.156 186.62C228.201 184.936 229.96 182.114 229.658 181.166C229.638 181.096 229.608 181.055 229.468 181.005C228.473 181.005 225.92 184.11 224.131 186.983C223.99 187.204 223.759 187.325 223.518 187.325C223.448 187.325 223.367 187.315 223.297 187.295C222.985 187.194 222.774 186.892 222.784 186.559L223.236 177.316M224.402 168.354L223.508 186.6C223.508 186.6 227.447 180.279 229.468 180.279C229.578 180.279 229.689 180.299 229.799 180.34C231.679 181.146 228.794 185.299 227.176 187.96C225.558 190.622 222.101 193.293 222.101 193.293C222.101 193.293 220.845 191.529 220.855 187.799C220.855 183.989 224.412 168.354 224.412 168.354H224.402Z" fill="#1E110D"/>
</g>
<defs>
<linearGradient id="paint0_linear_23_547" x1="236.762" y1="127.661" x2="259.442" y2="195.73" gradientUnits="userSpaceOnUse">
<stop stop-color="white"/>
<stop offset="0.24" stop-color="#FCFCFC"/>
<stop offset="0.38" stop-color="#F4F4F4"/>
<stop offset="0.49" stop-color="#E6E6E6" stop-opacity="0.99"/>
<stop offset="0.59" stop-color="#D2D2D2" stop-opacity="0.98"/>
<stop offset="0.67" stop-color="#B9B9B9" stop-opacity="0.97"/>
<stop offset="0.75" stop-color="#999999" stop-opacity="0.96"/>
<stop offset="0.83" stop-color="#737373" stop-opacity="0.95"/>
<stop offset="0.9" stop-color="#484848" stop-opacity="0.93"/>
<stop offset="0.97" stop-color="#181818" stop-opacity="0.91"/>
<stop offset="1" stop-opacity="0.9"/>
</linearGradient>
<clipPath id="clip0_23_547">
<rect width="293" height="196.242" fill="white" transform="translate(20 106)"/>
</clipPath>
<clipPath id="clip1_23_547">
<rect width="258.564" height="305" fill="white" transform="translate(25 25)"/>
</clipPath>
</defs>
</svg>
