<svg width="876" height="324" viewBox="0 0 876 324" fill="none" xmlns="http://www.w3.org/2000/svg">
<rect width="876" height="324" rx="24" fill="#F0CBA2"/>
<g clip-path="url(#clip0_14_6)">
<g opacity="0.6">
<path d="M681.416 60.6446C681.897 61.7811 682.252 63.1198 683.062 64.0038C688.28 69.7877 689.141 77.3397 691.445 84.2854C692.281 86.8364 691.015 87.6699 688.153 87.1648C684.987 86.6091 681.821 86.0029 678.63 85.5736C674.273 84.9926 673.64 85.422 673.26 89.6905C672.956 93.0245 673.134 96.3837 672.855 99.7177C672.652 102.319 670.702 103.658 668.144 103.279C665.662 102.9 665.079 101.157 665.257 98.9852C665.485 96.3585 665.763 93.7064 665.915 91.0797C666.32 83.8561 665.637 83.1741 658.291 83.4267C657.456 83.452 656.645 83.755 655.809 83.755C655.151 83.755 654.391 83.654 653.859 83.3509C649.199 80.5979 648.591 77.3397 651.985 73.1975C652.415 72.6671 652.973 72.2124 653.403 71.6568C655.024 69.5857 656.924 67.7166 656.139 64.5847C655.936 63.7765 656.822 62.5641 657.43 61.7054C661.508 55.9467 665.662 50.2133 669.993 44.1768L674.324 44.0757C676.857 50.0112 679.111 55.3658 681.416 60.7203V60.6446ZM659.279 71.2779C660.343 70.8991 661.381 70.5202 662.648 70.0656C663.838 73.6268 660.368 75.4959 660.242 78.2742C660.546 78.4257 660.824 78.5773 661.128 78.7288C662.015 76.9356 662.85 75.117 663.788 73.3238C664.218 72.4903 664.801 71.7073 665.333 70.8991C665.94 71.8588 667.106 72.8186 667.055 73.7279C666.954 75.4706 666.168 77.1376 665.561 79.1077C667.283 79.9412 668.752 79.9664 669.461 77.8701C669.968 76.3799 670.069 74.7634 670.347 73.1975C670.727 73.0964 671.107 73.0207 671.487 72.9196C672.12 74.1067 673.083 75.2181 673.311 76.4557C674.147 81.2293 674.451 81.5071 679.592 80.4211C679.871 79.0572 680.175 77.6428 680.479 76.2284C680.808 76.1273 681.137 76.001 681.466 75.9C682.581 77.9711 683.67 80.017 684.936 82.3911C686.937 75.5464 682.555 69.3331 676.3 69.2321C672.247 69.1563 668.195 69.0553 664.193 68.5501C661.66 68.2218 660.216 68.9542 659.305 71.2274L659.279 71.2779ZM662.395 63.2208C667.131 64.2564 667.967 63.726 668.448 60.0636C668.6 58.9776 668.878 57.8915 669.106 56.8307C669.537 56.8307 669.993 56.8307 670.423 56.8307C670.829 59.1291 671.234 61.4528 671.614 63.7512C671.791 63.7512 671.994 63.7512 672.171 63.7512L671.994 57.0328C675.92 58.1693 674.527 62.4378 677.743 64.3069C677.237 58.4724 674.856 54.0271 672.298 49.1272C667.536 53.1179 665.459 58.2199 662.369 63.2461L662.395 63.2208Z" fill="#B79B7E"/>
<path d="M790.806 196.857C793.567 196.782 795.771 196.782 797.974 196.655C805.344 196.226 808.814 193.397 810.942 186.401C811.398 184.885 812.107 183.269 813.196 182.158C820.516 174.555 820.465 166.473 812.892 159.098C812.512 158.719 812.132 158.315 811.702 157.835C812.284 155.789 812.842 153.768 813.399 151.773C814.614 147.53 813.931 143.438 812.031 139.574C810.815 137.124 808.865 135.128 805.902 135.128C803.369 135.128 802.584 133.739 801.875 131.719C801.241 129.9 800.38 128.132 799.392 126.465C795.973 120.656 789.413 118.181 783.259 120.53C781.258 121.287 779.611 121.439 777.661 120.53C772.748 118.307 768.113 119.368 763.68 121.944C760.742 123.662 758.589 126.011 758.513 129.547C758.463 131.946 757.374 132.982 755.196 133.613C750.687 134.901 748.788 138.614 748.154 142.68C747.445 147.075 747.521 151.647 749.851 155.738C750.712 157.254 750.687 158.416 749.851 159.982C747.876 163.593 747.749 167.66 748.965 171.373C749.699 173.621 752.004 175.338 753.6 177.283C753.904 177.157 754.182 177.03 754.486 176.904C754.106 178.344 753.676 179.758 753.372 181.223C752.004 188.017 756.082 193.726 762.946 194.913C764.187 195.115 765.833 195.696 766.365 196.605C767.733 198.979 769.582 199.434 772.013 199.156C773.963 198.929 775.914 198.878 777.864 198.651C780.219 198.373 781.612 199.131 781.942 201.631C782.322 204.662 782.777 207.693 783.233 210.724C783.436 212.088 783.335 213.83 784.12 214.714C785.209 215.952 786.931 216.912 788.552 217.24C789.211 217.366 790.933 215.624 791.034 214.588C791.414 211.027 791.338 207.44 791.313 203.854C791.313 201.682 791.034 199.509 790.832 196.782L790.806 196.857ZM772.114 195.468C772.064 193.448 772.596 191.503 771.861 190.366C770.468 188.169 768.771 190.063 767.176 190.77C764.288 192.059 760.033 190.77 758.134 188.144C756.259 185.593 756.589 181.375 758.969 178.849C759.729 178.041 760.869 177.586 761.502 176.727C762.009 176.045 762.363 174.833 762.11 174.101C761.882 173.469 760.717 172.913 759.906 172.787C758.843 172.636 757.678 172.964 756.563 172.989C754.284 173.065 752.941 171.827 752.283 169.731C750.738 164.68 753.448 159.805 758.564 158.542C759.248 158.365 760.058 158.39 760.565 157.986C761.249 157.456 762.211 156.572 762.161 155.915C762.11 155.183 761.148 154.071 760.438 153.92C759.147 153.667 757.652 153.768 756.361 154.147C754.537 154.678 753.347 154.299 752.637 152.581C750.839 148.161 750.94 143.665 753.473 139.725C755.601 136.417 759.121 136.619 762.541 137.957C762.794 138.058 763.098 138.109 763.351 138.109C765.276 138.084 765.884 136.922 765.301 135.331C764.947 134.345 764.01 133.563 763.351 132.653C762.186 131.012 761.983 129.42 763.351 127.678C767.581 122.323 774.749 122.374 778.852 127.728C779.535 128.612 780.751 129.42 781.79 129.521C782.296 129.572 782.904 127.88 783.613 127.122C784.652 125.985 785.766 124.116 786.957 124.04C790.502 123.788 793.922 124.647 796.125 127.93C798.075 130.835 798.937 133.866 798.43 137.427C798.253 138.69 799.19 140.281 800.051 141.392C800.33 141.746 802.128 141.266 802.989 140.761C806.56 138.69 808.46 139.372 809.726 143.337C811.398 148.565 809.118 152.884 806.434 157.052C804.382 160.234 805.243 162.457 809.017 162.608C811.423 162.684 812.639 163.846 813.5 165.715C815.07 169.074 815.273 172.585 813.171 175.692C812.284 177.005 810.537 178.167 808.966 178.546C805.598 179.379 805.091 179.91 806.18 183.294C807.269 186.653 806.763 188.371 804.205 190.594C801.419 193.018 798.202 193.347 794.757 192.816C792.377 192.437 790.528 191.882 790.705 188.725C790.958 183.976 791.44 182.941 794.985 182.41C795.948 182.259 797.214 182.511 797.822 181.981C798.734 181.198 799.823 179.859 799.722 178.849C799.57 177.157 798.05 176.879 796.48 177.51C795.543 177.889 794.58 178.243 793.061 178.824C794.58 175.414 795.973 172.686 796.986 169.832C797.29 168.948 796.834 167.079 796.176 166.725C794.454 165.816 793.82 167.306 793.364 168.746C792.858 170.337 792.25 171.928 791.693 173.494C790.629 172.838 790.401 172.383 790.3 171.878C789.337 167.104 788.476 162.28 787.336 157.532C787.108 156.572 785.867 155.839 785.108 154.981C784.424 156.042 783.208 157.077 783.183 158.138C783.157 159.855 783.917 161.598 784.348 163.29C781.08 165.084 781.232 165.109 780.853 168.67C780.498 172.156 780.219 175.742 777.991 179.051C776.268 176.727 774.825 174.707 773.305 172.737C772.393 171.524 771.329 169.832 769.658 171.297C768.062 172.686 769.48 174.05 770.468 175.237C771.355 176.323 772.418 177.308 773.077 178.521C775.584 183.092 779.46 187.007 780.321 193.018C777.357 193.902 774.521 194.736 772.165 195.418L772.114 195.468ZM785.943 194.584C784.424 191.452 783.107 189.154 782.22 186.704C781.638 185.113 781.182 183.168 781.536 181.577C782.6 176.98 784.094 172.484 785.386 168.089C786.45 171.145 787.615 174.429 788.932 178.243C788.071 182.991 787.033 188.548 785.943 194.584ZM786.906 210.269C786.906 210.269 787.109 210.269 787.21 210.269C786.678 206.177 786.121 202.06 785.589 197.969C785.918 197.943 786.273 197.893 786.602 197.868C786.703 202.01 786.805 206.127 786.931 210.269H786.906Z" fill="#B79B7E"/>
<path d="M881.657 205.016C879.884 203.626 878.618 202.515 877.25 201.581C864.054 192.488 851.669 200.166 847.313 212.492C845.464 217.72 844.324 223.226 843.26 228.682C843.032 229.818 844.4 232.167 845.413 232.42C847.313 232.9 848.199 231.081 848.427 229.263C848.832 225.878 849.238 222.468 849.693 218.554C854.81 220.953 858.052 218.907 861.167 215.927C864.004 213.199 864.991 213.654 866.384 217.392C867.144 219.438 868.436 221.256 869.221 223.302C869.677 224.464 869.854 225.903 869.652 227.116C869.196 229.566 868.36 231.94 867.727 234.339C867.575 234.87 867.271 235.552 867.474 235.956C868.107 237.193 868.943 238.33 869.677 239.492C870.563 238.406 871.83 237.471 872.235 236.234C873.881 231.384 875.274 226.459 876.794 221.559C876.895 221.231 877.377 221.003 877.554 220.852C879.707 221.963 881.885 222.873 883.759 224.186C884.62 224.792 885.076 226.131 885.507 227.192C886.317 229.086 886.723 231.182 887.736 232.975C889.534 236.158 892.345 236.663 894.954 234.163C896.398 232.773 897.31 230.778 898.323 228.985C899.133 227.545 899.564 225.853 900.425 224.464C902.198 221.635 903.996 221.736 905.668 224.691C906.276 225.777 906.63 227.015 907.086 228.177C909.366 233.91 912.228 234.946 917.825 232.041C918.306 231.788 918.838 231.687 919.927 231.308C920.257 236.41 920.94 241.159 918.838 245.806C918.484 246.564 918.028 247.271 917.749 248.079C917.116 249.923 917.496 251.514 919.497 252.095C921.447 252.651 922.333 251.262 922.713 249.645C926.285 234.213 924.664 219.589 915.014 206.632C906.276 194.913 896.119 194.761 884.798 202.843C883.785 203.551 882.746 204.233 881.632 204.99L881.657 205.016ZM880.847 213.452C884.19 207.87 889.534 204.611 895.511 202.515C900.121 200.899 904.807 201.707 908.251 205.495C911.139 208.678 913.595 212.214 916.153 215.674C918.484 218.806 917.648 222.393 916.964 225.727C916.711 227.015 914.938 228.53 913.595 228.833C912.785 229.035 911.215 227.318 910.429 226.181C909.188 224.363 908.53 222.14 907.238 220.347C905.035 217.316 902.122 216.785 899.285 219.235C897.386 220.877 896.195 223.378 894.777 225.575C893.713 227.217 892.827 228.96 891.864 230.652L890.648 230.323C890.294 228.757 889.787 227.217 889.635 225.626C889.357 223.1 888.47 220.549 886.115 219.892C882.696 218.932 881.657 216.583 880.847 213.502V213.452ZM854.556 214.437C854.1 214.235 853.645 214.032 853.163 213.805C853.442 212.315 853.239 210.496 854.05 209.41C860.027 201.252 867.296 199.863 875.654 205.596C876.693 206.304 877.883 208.425 877.529 209.284C876.136 212.795 874.16 216.053 872.387 219.412C872.007 219.362 871.602 219.311 871.222 219.261C870.69 217.796 870.133 216.306 869.652 214.841C867.828 209.259 863.624 208.021 859.014 211.633C857.646 212.719 856.051 213.502 854.556 214.437Z" fill="#B79B7E"/>
<path d="M547.584 228.808C555.993 226.964 558.601 223.302 558.145 214.74C558.069 213.376 558.095 211.86 558.627 210.673C561.134 204.99 558.753 200.57 554.068 195.746C552.725 194.357 551.054 193.271 549.559 192.033C546.52 189.533 543.759 189.659 541.252 192.665C540.163 193.978 539.124 194.332 537.351 194.332C535.072 194.332 532.539 194.761 530.589 195.847C529.297 196.58 528.183 198.726 528.132 200.292C528.031 202.793 527.651 204.738 525.853 206.657C523.725 208.93 523.978 211.279 525.675 213.931C526.992 216.003 528.259 218.124 529.322 220.322C530.614 222.948 532.716 224.464 535.477 224.868C538.44 225.297 539.15 227.015 538.846 229.566C538.592 231.637 538.364 233.733 537.858 235.754C537.199 238.431 537.959 240.022 540.669 240.83C547.052 242.75 546.875 243.331 547.128 236.133C547.204 233.657 547.457 231.182 547.609 228.833L547.584 228.808ZM554.828 217.771C554.397 219.235 554.346 220.549 553.688 221.307C552.776 222.367 551.383 222.999 550.218 223.832C549.559 222.746 548.572 221.711 548.318 220.549C547.786 217.973 547.761 215.295 547.229 212.719C547.001 211.557 546.241 209.814 545.38 209.587C543.455 209.057 542.949 210.774 542.569 212.391C542.062 214.563 541.48 216.71 540.821 218.857C540.213 220.877 538.871 221.963 536.718 221.307C534.667 220.675 532.514 219.842 533.198 217.063C533.704 215.017 532.97 214.032 531.222 213.098C530.158 212.542 529.5 211.254 528.664 210.294C529.702 209.587 530.64 208.602 531.779 208.198C534.464 207.238 534.844 206.582 533.502 204.005C533.299 203.626 532.818 203.323 532.818 202.995C532.818 201.682 532.514 200.09 533.147 199.156C533.628 198.423 535.325 198.297 536.49 198.272C537.402 198.272 538.39 198.701 539.276 199.131C541.708 200.318 543.025 199.914 543.759 197.009C544.443 194.332 545.912 194.104 548.014 195.898C549.61 197.236 551.206 198.575 552.725 199.989C554.828 201.959 556.955 204.409 555.663 207.263C554.042 210.901 551.434 214.133 554.802 217.796L554.828 217.771Z" fill="#B79B7E"/>
<path d="M549.23 150.738C544.646 153.491 540.087 156.244 534.844 159.376C534.565 157.33 534.413 156.168 534.261 155.006C533.527 149.651 530.158 146.292 525.321 146.09C521.395 145.939 517.418 149.399 516.253 154.021C515.645 156.521 516.051 159.072 518.178 160.411C520.584 161.927 523.497 163.644 526.156 163.594C534.287 163.467 541.758 160.714 548.065 155.435C549.154 154.526 549.61 152.859 550.37 151.546C549.99 151.268 549.61 150.99 549.23 150.687V150.738ZM527.068 158.618C523.016 159.653 520.812 158.946 520.078 156.395C519.343 153.819 521.294 150.94 524.282 150.182C526.815 149.55 529.196 151.041 529.981 153.794C530.715 156.42 529.804 157.936 527.094 158.618H527.068Z" fill="#B79B7E"/>
<path d="M623.111 128.688C624.276 129.067 625.467 129.799 626.632 129.749C630.988 129.521 635.218 129.547 639.245 131.592C639.878 131.921 640.942 131.365 641.803 131.239C641.524 130.405 641.373 129.471 640.891 128.764C640.537 128.233 639.802 127.88 639.169 127.678C633.926 125.935 628.658 126.162 623.415 127.273C623.314 127.753 623.213 128.233 623.111 128.713V128.688Z" fill="#B79B7E"/>
<path d="M587.146 135.002C590.286 136.139 592.617 134.371 595.099 133.84C597.403 133.335 599.683 132.729 601.912 131.971C602.672 131.719 603.204 130.885 603.862 130.33C603.178 129.723 602.596 128.94 601.811 128.562C601.253 128.284 600.367 128.334 599.759 128.562C595.732 130.128 591.755 131.795 587.779 133.461C587.526 133.563 587.475 134.169 587.171 135.002H587.146Z" fill="#B79B7E"/>
<path d="M824.163 268.942C825.784 267.906 827.734 267.022 829.203 265.633C829.963 264.926 829.887 263.335 830.216 262.148C829.102 262.198 827.81 261.92 826.873 262.35C824.518 263.411 822.263 264.724 820.085 266.138C819.427 266.568 819.098 267.553 818.642 268.285C819.325 268.639 820.009 269.22 820.718 269.27C821.808 269.346 822.897 269.068 824.188 268.917L824.163 268.942Z" fill="#B79B7E"/>
<path d="M562.907 145.863C564.224 146.216 564.908 146.646 565.465 146.494C568.834 145.61 572.177 144.676 575.47 143.564C576.153 143.337 576.508 142.175 577.04 141.443C576.128 141.064 575.09 140.205 574.33 140.433C570.987 141.367 567.719 142.579 564.477 143.792C563.971 143.994 563.692 144.777 562.907 145.863Z" fill="#B79B7E"/>
<path d="M843.108 249.14C844.197 249.923 844.805 250.757 845.413 250.757C849.389 250.731 852.581 248.686 855.493 246.236C855.949 245.857 856.127 244.518 855.797 244.038C855.468 243.558 854.176 243.205 853.645 243.457C850.225 245.175 846.933 247.069 843.108 249.14Z" fill="#B79B7E"/>
<path d="M691.775 147.631C695.321 150.687 698.841 153.768 702.59 157.001C704.211 155.284 703.4 153.592 702.311 152.253C699.778 149.071 696.638 146.873 692.484 146.696C692.256 147.025 692.003 147.328 691.775 147.656V147.631Z" fill="#B79B7E"/>
<path d="M716.292 183.698C719.281 179.834 716.824 174.429 710.593 170.691C710.72 176.172 715.33 179.127 716.292 183.698Z" fill="#B79B7E"/>
<path d="M799.494 274.372C800.228 273.463 800.912 272.604 801.621 271.746C800.583 271.291 799.544 270.432 798.531 270.457C796.074 270.533 793.618 270.912 791.186 271.367C790.553 271.493 790.021 272.251 789.439 272.731C789.945 273.311 790.426 274.347 790.958 274.372C793.694 274.499 796.429 274.372 799.468 274.372H799.494Z" fill="#B79B7E"/>
<path d="M771.304 267.578C772.266 270.078 777.433 273.21 779.51 273.059C781.283 272.933 781.942 271.518 780.751 270.609C778.396 268.79 775.635 267.477 772.95 266.138C772.672 266.012 771.735 267.199 771.304 267.578Z" fill="#B79B7E"/>
<path d="M870.791 241.285C873.679 243.685 877.047 243.76 880.391 243.786C880.821 243.786 881.53 242.927 881.581 242.396C881.632 241.866 881.151 240.881 880.695 240.755C877.427 239.744 874.084 238.987 870.766 241.285H870.791Z" fill="#B79B7E"/>
<path d="M664.902 132.83C669.258 134.825 672.855 136.467 676.603 138.159C676.958 133.588 671.538 130.961 664.902 132.83Z" fill="#B79B7E"/>
<path d="M754.765 251.792C754.106 255.126 756.209 258.561 760.16 260.632C761.502 257.45 759.881 254.798 754.765 251.792Z" fill="#B79B7E"/>
<path d="M728.272 208.804C730.805 208.122 730.83 206.278 730.4 204.51C729.842 202.237 729.032 199.989 725.41 199.712C726.423 202.944 727.31 205.799 728.272 208.804Z" fill="#B79B7E"/>
<path d="M742.506 236.385C743.925 233.733 743.519 230.702 741.417 229.162C740.961 228.833 740.125 228.757 739.568 228.909C739.239 229.01 738.986 229.793 738.935 230.298C738.859 231.586 741.012 235.173 742.481 236.385H742.506Z" fill="#B79B7E"/>
<path d="M688.887 206.304C688.659 203.399 687.874 199.787 688.153 196.251C689.166 183.294 683.493 174.075 672.931 167.155C662.774 160.487 651.934 155.637 639.6 156.269C632.736 156.597 626.328 155.587 619.793 153.97C616.323 153.112 612.575 153.162 608.953 153.162C604.951 153.162 599.43 157.153 598.721 161.27C597.505 168.367 592.591 172.282 586.74 174.101C571.645 178.773 566.884 203.601 578.737 214.891C582.713 218.655 586.639 222.494 586.892 228.48C586.943 229.439 587.12 230.424 587.07 231.384C586.639 240.578 590.565 247.549 597.378 253.611C603.735 259.294 611.207 262.4 618.983 265.254C624.074 267.123 629.266 266.088 634.382 265.861C639.169 265.658 643.449 266.719 647.755 268.614C657.101 272.731 666.523 276.62 675.945 280.56C679.161 281.899 683.265 281.217 684.556 278.489C687.444 272.402 693.142 269.498 698.081 265.709C700.285 264.017 702.59 262.375 704.591 260.455C708.111 257.046 709.555 252.878 708.871 247.903C707.706 239.517 703.755 232.294 699.601 225.171C697.347 221.307 694.789 217.644 692.509 213.78C691.243 211.633 690.28 209.284 688.837 206.304H688.887ZM576.229 205.091C576.381 204.94 576.533 204.788 576.685 204.637C576.356 202.288 575.723 199.939 575.774 197.615C575.976 187.588 580.459 180.238 589.957 176.45C596.289 173.924 600.164 169.529 602.089 163.038C603.533 158.188 605.964 156.496 611.182 156.698C615.209 156.85 619.185 157.734 623.187 158.315C628.405 159.098 633.825 161.169 638.814 160.386C643.297 159.679 647.4 159.906 651.478 160.891C662.015 163.492 671.209 168.696 678.604 176.727C682.783 181.274 684.455 186.982 683.999 193.018C683.341 202.212 685.848 210.269 690.711 217.998C695.143 225.07 699.297 232.395 702.843 239.921C705.401 245.377 706.921 251.514 701.956 256.743C699.474 259.369 696.815 261.996 693.75 263.815C689.217 266.517 685.24 269.573 682.201 273.918C680.073 276.949 678.351 277.353 674.957 275.989C668.347 273.337 661.584 270.937 655.201 267.78C645.501 262.981 635.522 260.759 624.732 262.451C623.288 262.678 621.591 262.4 620.198 261.87C613.436 259.268 606.521 257.121 600.848 252.121C594.465 246.488 590.084 240.275 590.489 231.258C590.793 224.792 588.919 219.059 583.574 214.512C580.611 211.987 578.636 208.274 576.204 205.117L576.229 205.091Z" fill="#B79B7E"/>
<path d="M674.045 222.241C674.147 221.231 674.527 220.195 674.349 219.235C673.412 214.462 671.31 210.219 667.612 206.96C665.333 204.94 662.622 203.778 659.507 204.334C649.807 206.051 641.271 203.147 633.268 197.944C632.457 197.413 631.52 196.857 630.633 196.807C629.848 196.807 629.063 197.514 628.278 197.893C628.658 198.575 628.861 199.611 629.443 199.838C636.687 203.02 643.373 207.794 651.63 208.249C653.834 208.375 656.164 208.552 658.266 207.996C662.648 206.834 665.712 208.602 668.017 211.936C669.41 213.982 670.297 216.381 671.285 218.68C671.816 219.867 672.095 221.155 672.475 222.418C673.007 222.342 673.539 222.292 674.071 222.216L674.045 222.241Z" fill="#B79B7E"/>
<path d="M678.275 253.434C679.668 251.565 679.465 249.847 678.402 248.029C676.325 244.468 673.285 242.119 669.284 241.235C666.016 240.502 662.597 240.401 659.431 239.441C652.643 237.37 645.957 234.895 639.245 232.597C638.333 232.268 637.447 231.637 636.535 231.561C635.724 231.485 634.863 231.99 634.027 232.243C634.433 233.001 634.635 234.087 635.294 234.44C636.864 235.324 638.561 236.006 640.283 236.562C648.059 239.163 655.429 242.851 663.889 243.457C669.765 243.887 675.084 246.16 677.161 252.6C677.262 252.903 677.794 253.08 678.3 253.459L678.275 253.434Z" fill="#B79B7E"/>
<path d="M669.638 190.796C669.841 189.785 670.221 188.775 670.196 187.79C669.993 181.728 661.229 174.707 655.455 177.131C651.554 178.773 647.806 177.51 644.386 175.187C642.31 173.772 640.258 172.257 638.004 171.247C637.092 170.842 634.914 171.297 634.534 172.004C633.622 173.696 635.319 174.151 636.636 174.757C639.144 175.944 641.626 177.232 643.931 178.723C647.628 181.122 651.453 182.132 655.86 180.971C660.799 179.682 664.421 181.627 666.523 186.401C667.181 187.866 667.739 189.381 668.347 190.871C668.777 190.846 669.208 190.821 669.638 190.77V190.796Z" fill="#B79B7E"/>
<path d="M593.579 204.586C593.68 205.975 593.579 206.582 593.807 206.986C595.985 210.597 602.9 213.426 606.977 212.062C610.194 211.002 613.284 210.042 616.45 212.264C616.754 209.032 615.487 207.365 612.625 207.188C611.562 207.112 610.371 207.314 609.358 207.718C604.825 209.486 600.671 208.956 596.77 205.975C596.061 205.445 595.124 205.243 593.554 204.561L593.579 204.586Z" fill="#B79B7E"/>
<path d="M617.387 188.118C616.931 186.628 616.855 185.668 616.374 185.037C614.601 182.713 607.813 180.996 605.204 182.208C604.647 182.461 603.989 183.875 604.115 184.001C604.824 184.683 605.812 185.668 606.572 185.542C609.763 185.062 612.625 185.466 615.158 187.537C615.437 187.765 615.918 187.74 617.387 188.118Z" fill="#B79B7E"/>
<path d="M606.8 234.668C607.687 235.072 608.548 235.653 609.485 235.88C611.359 236.335 613.259 236.688 615.158 236.916C615.867 236.991 616.653 236.663 617.387 236.511C617.184 235.627 617.159 234.668 616.729 233.935C616.425 233.405 615.614 232.9 615.032 232.874C612.372 232.824 609.738 232.975 607.079 233.051C606.977 233.582 606.901 234.137 606.8 234.668Z" fill="#B79B7E"/>
<path d="M543.709 127.172C543.405 119.595 540.213 114.822 534.363 112.801C530.386 111.412 526.207 112.599 523.32 115.605C519.698 119.368 517.672 123.889 516.811 128.89C516.431 131.113 516.583 133.714 517.393 135.785C519.141 140.306 521.344 144.651 523.548 148.995C524.839 151.521 527.347 151.925 529.348 149.778C533.223 145.61 537.047 141.342 540.517 136.846C542.721 133.992 544.266 130.607 543.709 127.198V127.172ZM536.465 135.381L536.592 135.255C534.109 139.422 530.893 142.908 526.207 145.939C524.434 141.998 522.307 138.639 521.42 134.952C519.825 128.385 521.901 122.601 527.144 118.181C530.082 115.706 535.3 116.337 537.655 119.317C540.897 123.409 540.289 131.567 536.44 135.381H536.465Z" fill="#B79B7E"/>
<path d="M536.465 135.356C537.022 132.653 537.934 129.976 538.035 127.273C538.162 123.687 535.806 121.085 532.539 120.328C529.348 119.57 526.131 121.01 524.358 124.015C522.003 127.955 522.18 131.795 524.814 134.876C527.752 138.286 530.437 138.69 534.363 136.341C535.072 135.911 535.857 135.608 536.592 135.255L536.465 135.381V135.356ZM528.74 124.116C530.994 125.505 534.54 125.202 533.805 128.865C533.502 130.431 532.336 132.148 531.045 133.057C530.437 133.487 528.157 132.476 527.398 131.517C525.346 128.966 526.866 126.642 528.74 124.091V124.116Z" fill="#B79B7E"/>
</g>
</g>
<g clip-path="url(#clip1_14_6)">
<path d="M478.021 96.8877C478.021 96.8877 496.334 232.282 505.41 261.13L517.668 262.021C517.668 262.021 504.088 153.3 508.849 136.251C513.622 119.202 538.246 117.865 556.627 117.501C575.021 117.136 595.896 120.241 601.357 137.979C606.805 155.703 598.566 255.393 600.616 257.444C602.665 259.496 614.182 260.104 614.182 258.052C614.182 256 622.421 97.5627 621.059 92.7975C619.697 88.0189 529.791 92.1091 507.311 92.7975C484.831 93.486 478.021 96.8877 478.021 96.8877Z" fill="#1E110D"/>
<path d="M478.129 96.9418C484.251 136.872 490.67 180.703 497.737 220.241C500.258 233.808 502.578 247.59 506.421 260.819L505.491 260.09L517.749 260.954L516.603 262.169C513.245 234.118 510.224 206.027 508.336 177.828C507.675 167.244 507.055 156.634 507.298 146.024C506.313 123.049 526.231 118.972 544.841 117.622C564.138 116.677 592.902 114.895 601.492 136.588C603.758 143.365 603.542 150.695 603.879 157.755C604.486 182.336 602.477 217.568 601.654 242.461C601.573 247.28 601.128 252.153 601.6 256.918C601.587 256.877 601.6 256.891 601.465 256.702C603.96 258.079 608.424 258.349 611.552 258.079C612.105 258.025 612.644 257.917 613.103 257.728C613.211 257.687 613.251 257.606 613.143 257.755C613.089 257.795 613.049 258.038 613.062 258.038C613.089 257.485 613.13 256.257 613.157 255.676C615.288 202.342 619.144 146.456 620.061 93.243V93.162C620.061 93.162 620.048 93.0675 620.075 93.162C620.142 93.3105 620.169 93.324 620.169 93.324C618.753 92.6086 616.798 92.5006 614.991 92.2576C583.395 90.2733 551.597 92.2171 519.96 92.9055C506.232 93.513 491.345 92.6491 478.143 96.9552L478.129 96.9418ZM477.913 96.8337C484.521 94.161 491.736 93.621 498.762 92.9055C504.803 92.4196 513.744 92.1226 519.906 91.8256C551.651 90.7862 583.422 88.5184 615.18 90.1788C617.216 90.4622 619.549 90.4217 621.531 91.6771C621.693 91.8256 621.882 91.9876 622.03 92.3521C622.111 92.5546 622.098 92.5816 622.125 92.6761L622.165 92.9191C621.855 146.267 617.823 202.342 615.436 255.771L615.368 257.093L615.342 257.741V258.038C615.342 258.268 615.234 258.727 615.072 258.956C613.224 261.683 601.829 260.428 599.739 258.16C599.429 257.755 599.415 257.525 599.335 257.161C598.89 252.22 599.335 247.293 599.456 242.38L601.506 200.074C602.18 182.471 603.097 164.828 602.099 147.239C601.802 116.812 567.455 116.839 544.868 118.365C531.922 119.512 514.377 121.523 509.563 135.711C507.824 142.46 508.525 149.669 508.592 156.607C510.278 191.826 514.58 226.896 518.72 261.913L518.882 263.222L517.573 263.127L505.315 262.21L504.587 262.156L504.385 261.481C500.542 248.022 498.317 234.321 495.835 220.606C488.782 179.474 483.119 138.303 477.9 96.8608L477.913 96.8337Z" fill="#1E110D"/>
<path d="M503.926 262.021C503.926 261.251 503.158 255.568 502.524 252.895C501.89 250.223 501 248.049 500.488 246.902C499.975 245.754 500.11 241.678 499.598 239.126C499.085 236.575 498.708 235.684 498.33 234.28C497.952 232.876 515.888 233.646 516.535 234.402C517.182 235.158 517.56 236.575 517.681 238.478C517.803 240.395 517.196 246.254 517.452 249.696C517.708 253.138 517.681 262.007 517.681 262.007H503.94L503.926 262.021Z" fill="#C33F34" stroke="#1E110D" stroke-miterlimit="10"/>
<path d="M518.989 256.473C518.989 256.473 519.664 277.585 520.136 279.637C520.608 281.689 523.116 293.365 522.792 297.455C522.482 301.559 509.631 301.586 500.245 300.452C495.053 299.818 453.154 310.536 447.019 305.028C445.293 303.476 444.497 294.783 448.273 292.258C452.049 289.734 501.189 272.091 501.661 267.042C502.133 261.994 502.295 256.473 502.295 256.473C508.511 258.7 514.162 259.01 518.989 256.473Z" fill="#1E110D"/>
<path d="M499.584 239.113C499.584 239.113 502.645 238.789 507.419 239.113C512.193 239.437 515.065 239.491 515.065 239.491L517.236 239.234" fill="#C33F34"/>
<path d="M499.584 239.113C499.584 239.113 502.645 238.789 507.419 239.113C512.193 239.437 515.065 239.491 515.065 239.491L517.236 239.234" stroke="#1E110D" stroke-miterlimit="10"/>
<path d="M471.306 282.62C471.616 282.62 475.702 283.376 479.006 284.915C482.31 286.454 482.889 287.088 482.889 287.088" stroke="#C33F34" stroke-width="0.5" stroke-miterlimit="10"/>
<path d="M482.889 288.02C483.411 288.02 483.833 287.597 483.833 287.075C483.833 286.553 483.411 286.13 482.889 286.13C482.368 286.13 481.945 286.553 481.945 287.075C481.945 287.597 482.368 288.02 482.889 288.02Z" fill="#C33F34"/>
<path d="M477.576 279.92C477.886 279.92 481.972 280.676 485.276 282.215C488.594 283.74 489.16 284.388 489.16 284.388" stroke="#C33F34" stroke-width="0.5" stroke-miterlimit="10"/>
<path d="M489.16 285.32C489.681 285.32 490.104 284.897 490.104 284.375C490.104 283.853 489.681 283.43 489.16 283.43C488.639 283.43 488.216 283.853 488.216 284.375C488.216 284.897 488.639 285.32 489.16 285.32Z" fill="#C33F34"/>
<path d="M482.889 277.22C483.2 277.22 487.286 277.976 490.589 279.515C493.907 281.041 494.473 281.689 494.473 281.689" stroke="#C33F34" stroke-width="0.5" stroke-miterlimit="10"/>
<path d="M494.487 282.62C495.008 282.62 495.431 282.197 495.431 281.675C495.431 281.153 495.008 280.73 494.487 280.73C493.965 280.73 493.543 281.153 493.543 281.675C493.543 282.197 493.965 282.62 494.487 282.62Z" fill="#C33F34"/>
<path d="M489.16 274.899C489.47 274.899 493.556 275.655 496.86 277.193C500.177 278.719 500.744 279.367 500.744 279.367" stroke="#C33F34" stroke-width="0.5" stroke-miterlimit="10"/>
<path d="M500.757 280.312C501.279 280.312 501.701 279.889 501.701 279.367C501.701 278.845 501.279 278.422 500.757 278.422C500.236 278.422 499.813 278.845 499.813 279.367C499.813 279.889 500.236 280.312 500.757 280.312Z" fill="#C33F34"/>
<path d="M613.413 262.021C613.413 261.251 614.182 255.568 614.816 252.895C615.449 250.223 616.339 248.049 616.852 246.902C617.364 245.754 617.229 241.678 617.742 239.126C618.254 236.575 618.632 235.684 619.009 234.28C619.387 232.876 601.452 233.646 600.804 234.402C600.157 235.158 599.779 236.575 599.658 238.478C599.537 240.382 600.144 246.254 599.887 249.696C599.631 253.138 599.658 262.007 599.658 262.007H613.4L613.413 262.021Z" fill="#C33F34" stroke="#1E110D" stroke-miterlimit="10"/>
<path d="M598.35 256.473C598.35 256.473 597.676 277.585 597.204 279.637C596.732 281.689 594.224 293.365 594.547 297.455C594.871 301.546 607.709 301.586 617.095 300.452C622.286 299.818 664.185 310.536 670.321 305.028C672.047 303.476 672.843 294.783 669.067 292.258C665.291 289.734 616.151 272.091 615.679 267.042C615.207 261.994 615.045 256.473 615.045 256.473C610.864 259.996 604.809 258.74 598.35 256.473Z" fill="#1E110D"/>
<path d="M617.742 239.113C617.742 239.113 614.681 238.789 609.907 239.113C605.133 239.437 602.261 239.491 602.261 239.491L600.09 239.234" fill="#C33F34"/>
<path d="M617.742 239.113C617.742 239.113 614.681 238.789 609.907 239.113C605.133 239.437 602.261 239.491 602.261 239.491L600.09 239.234" stroke="#1E110D" stroke-miterlimit="10"/>
<path d="M646.034 282.62C645.724 282.62 641.638 283.376 638.334 284.915C635.03 286.454 634.45 287.088 634.45 287.088" stroke="#C33F34" stroke-width="0.5" stroke-miterlimit="10"/>
<path d="M634.437 288.02C634.958 288.02 635.381 287.597 635.381 287.075C635.381 286.553 634.958 286.13 634.437 286.13C633.915 286.13 633.493 286.553 633.493 287.075C633.493 287.597 633.915 288.02 634.437 288.02Z" fill="#C33F34"/>
<path d="M639.763 279.92C639.453 279.92 635.367 280.676 632.063 282.215C628.746 283.74 628.179 284.388 628.179 284.388" stroke="#C33F34" stroke-width="0.5" stroke-miterlimit="10"/>
<path d="M628.166 285.32C628.687 285.32 629.11 284.897 629.11 284.375C629.11 283.853 628.687 283.43 628.166 283.43C627.645 283.43 627.222 283.853 627.222 284.375C627.222 284.897 627.645 285.32 628.166 285.32Z" fill="#C33F34"/>
<path d="M634.437 277.22C634.126 277.22 630.04 277.976 626.737 279.515C623.419 281.041 622.853 281.689 622.853 281.689" stroke="#C33F34" stroke-width="0.5" stroke-miterlimit="10"/>
<path d="M622.839 282.62C623.361 282.62 623.783 282.197 623.783 281.675C623.783 281.153 623.361 280.73 622.839 280.73C622.318 280.73 621.895 281.153 621.895 281.675C621.895 282.197 622.318 282.62 622.839 282.62Z" fill="#C33F34"/>
<path d="M628.166 274.899C627.856 274.899 623.77 275.655 620.466 277.193C617.162 278.732 616.582 279.367 616.582 279.367" stroke="#C33F34" stroke-width="0.5" stroke-miterlimit="10"/>
<path d="M616.582 280.312C617.103 280.312 617.526 279.889 617.526 279.367C617.526 278.845 617.103 278.422 616.582 278.422C616.061 278.422 615.638 278.845 615.638 279.367C615.638 279.889 616.061 280.312 616.582 280.312Z" fill="#C33F34"/>
<path d="M622.893 163.06C620.668 147.333 626.939 126.923 646.519 130.568C659.142 133.51 664.441 147.725 665.547 159.32C662.661 148.832 657.658 135.859 645.98 133.146C628.247 129.92 623.271 149.088 622.893 163.046V163.06Z" fill="#1E110D"/>
<path d="M615.099 188.91C615.099 188.91 608.909 262.533 625.792 265.125C642.676 267.717 678.587 262.128 685.842 258.416C693.097 254.704 673.773 180.095 673.773 180.095L615.099 188.897V188.91Z" fill="#74322C"/>
<path d="M615.099 188.91C614.209 205.338 611.593 251.478 622.543 263.046C624.188 264.734 626.467 264.869 628.705 265.071C633.263 265.463 637.862 265.422 642.433 265.206C656.107 264.369 669.97 262.776 683.118 258.916C684.062 258.538 685.195 258.322 685.923 257.62C687.393 254.785 686.813 251.005 686.732 247.833C684.48 224.952 678.682 202.558 673.368 180.217L673.813 180.514L615.085 188.924L615.099 188.91ZM615.099 188.91C615.449 188.87 673.76 179.69 674.056 179.65C678.695 197.617 682.956 215.679 686.072 233.983C687.11 240.841 688.364 247.739 687.892 254.731C687.744 255.905 687.622 257.12 686.813 258.295C685.977 259.267 684.602 259.496 683.469 259.955C670.132 263.802 656.283 265.314 642.474 266.084C637.862 266.273 633.236 266.3 628.624 265.868C626.318 265.679 623.702 265.395 622.017 263.6C610.622 251.275 613.912 205.973 615.099 188.91Z" fill="#1E110D"/>
<path d="M612.941 163.91C614.033 164.14 671.373 157.431 671.373 157.431C671.373 157.431 685.141 201.397 681.824 203.988C678.506 206.58 613.076 214.558 611.174 211.264C609.273 207.971 612.941 163.897 612.941 163.897V163.91Z" fill="#74322C"/>
<path d="M612.941 163.91C629.528 162.196 654.53 158.969 671.332 157.039L671.656 156.999L671.75 157.323C675.809 170.673 680.017 183.969 682.484 197.738C682.7 199.696 683.226 201.829 682.579 203.867C682.484 204.137 682.147 204.488 681.905 204.596C677.347 206.297 672.438 206.688 667.691 207.539C650.457 209.928 633.142 212.304 615.719 212.439C614.141 212.304 612.429 212.52 611.013 211.669C610.703 211.359 610.716 211.143 610.622 210.9C610.258 209.091 610.298 207.363 610.271 205.608C610.419 191.664 611.754 177.787 612.928 163.91H612.941ZM612.941 163.91C612.011 177.787 611.013 191.704 610.972 205.608C611.067 207.431 610.918 209.51 611.525 211.116C611.984 211.386 612.617 211.453 613.184 211.521C617.486 211.858 621.828 211.494 626.13 211.224C639.979 210.171 653.801 208.565 667.543 206.472C672.168 205.649 676.956 205.176 681.379 203.61C681.527 203.529 681.487 203.543 681.581 203.408C682.066 201.707 681.648 199.75 681.433 197.9C679.073 184.239 674.933 170.849 670.995 157.566L671.427 157.849C654.53 159.752 629.676 162.641 612.941 163.924V163.91Z" fill="#1E110D"/>
<path d="M622.924 163.036L616.677 163.583L620.891 211.793L627.137 211.246L622.924 163.036Z" fill="#C33F34"/>
<path d="M616.65 163.6C618.092 177.76 620.129 197.819 621.342 211.777L620.816 211.332L627.06 210.765L626.602 211.318C625.401 197.09 623.702 177.112 622.785 163.073L622.907 163.181L616.65 163.613V163.6ZM616.65 163.6L622.88 162.938H622.988V163.046C624.511 176.95 626.305 197.09 627.586 211.224L627.627 211.723L627.128 211.764L620.884 212.29L620.398 212.331C619.144 198.103 617.688 178.016 616.636 163.6H616.65Z" fill="#1E110D"/>
<path d="M667.597 158.249L661.377 159.048L667.537 207.048L673.756 206.248L667.597 158.249Z" fill="#C33F34"/>
<path d="M661.394 159.037C663.417 173.13 666.249 193.081 668.042 206.985L667.503 206.567L673.719 205.743L673.288 206.31C671.508 192.15 669.013 172.252 667.516 158.254L667.638 158.348L661.407 159.037H661.394ZM661.394 159.037L667.597 158.119H667.705L667.718 158.213C669.809 172.05 672.411 192.096 674.272 206.162L674.34 206.661L673.841 206.729L667.624 207.512L667.139 207.566C665.305 193.405 663.039 173.386 661.394 159.023V159.037Z" fill="#1E110D"/>
<path d="M620.857 212.358L621.653 232.849L629.771 232.134L627.101 211.818L620.857 212.358Z" fill="#C33F34"/>
<path d="M620.857 212.358C621.261 218.351 621.868 226.937 622.111 232.822L621.612 232.39L629.73 231.634L629.272 232.201L628.004 222.037L626.871 211.845L627.114 212.047L620.857 212.371V212.358ZM620.857 212.358L627.074 211.588L627.289 211.561L627.33 211.777L628.867 221.915L630.27 232.066L630.337 232.593L629.811 232.633L621.68 233.308L621.194 233.349C620.938 227.153 620.911 218.621 620.843 212.371L620.857 212.358Z" fill="#1E110D"/>
<path d="M667.705 207.35L669.552 227.774L677.616 226.64L673.908 206.486L667.705 207.35Z" fill="#C33F34"/>
<path d="M667.705 207.35C668.406 213.316 669.471 221.861 670.011 227.733L669.498 227.315L677.562 226.14L677.144 226.721L675.351 216.623L673.692 206.513L673.948 206.702L667.705 207.35ZM667.705 207.35L673.881 206.256L674.083 206.216L674.124 206.432L676.187 216.475L678.115 226.545L678.21 227.058L677.684 227.126L669.606 228.206L669.134 228.273C668.554 222.104 668.096 213.586 667.705 207.336V207.35Z" fill="#1E110D"/>
<path d="M405.08 -149.171C405.08 -149.171 420.466 -87.4271 417.917 -66.2472C415.369 -45.0674 406.994 -36.1445 409.004 -18.5284C411.027 -0.912262 425.672 12.1143 420.979 26.2477C416.286 40.3811 404.419 48.0215 407.857 59.1311C411.296 70.2408 436.109 67.9055 456.836 67.541C477.563 67.1765 601.937 54.3525 627.155 56.1749C652.372 57.9972 653.397 62.0739 659.506 62.3304C665.628 62.5869 653.896 23.8179 653.64 -1.18224C653.383 -26.1823 668.312 -62.4945 667.988 -79.5437C667.664 -96.5929 667.893 -106.825 667.516 -108.337C667.138 -109.849 673.072 -178.221 673.072 -178.221L474.987 -217.503L405.08 -149.171Z" fill="#1E110D"/>
<path d="M444.254 101.329C443.728 97.5764 453.505 62.2361 455.824 49.4391C462.945 10.1571 477.522 -26.1146 477.522 -26.1146L614.303 -30.9473C614.303 -30.9473 623.797 -23.5768 628.341 0.640303C631.524 17.5815 647.072 111.237 647.072 111.237C648.502 118.594 652.952 142.42 650.646 142.285C647.908 142.123 644.807 131.958 644.631 131.513C644.456 131.067 648.151 143.932 646.452 143.257C644.753 142.582 642.258 129.515 642.258 129.515C642.258 129.515 641.179 138.073 639.804 137.844C638.428 137.614 638.334 130.028 637.835 128.691C637.322 127.355 636.756 134.672 635.515 133.97C634.261 133.281 636.271 128.165 637.282 127.045C638.253 125.965 622.044 28.0162 622.044 28.0162C620.843 55.0141 619.967 73.7642 617.594 93.0407L480.179 102.018C478.372 74.9116 475.054 38.7209 476.16 15.7322C476.16 15.7322 464.104 71.0779 456.822 93.3917C456.35 94.8496 487.555 117.069 486.814 119.647C486.503 120.727 486.153 121.497 485.762 121.618C484.804 121.902 483.968 122.036 483.24 122.05C477.185 122.104 444.699 104.488 444.254 101.343V101.329Z" fill="#F0CBA2"/>
<path d="M444.2 101.343C444.483 95.8485 446.169 90.5164 447.275 85.1438L451.091 69.0936C453.802 58.4159 455.69 47.6167 457.969 36.8445C462.742 15.3542 469.121 -5.77169 477.064 -26.3036C476.915 -27.451 613.952 -30.7718 614.317 -31.2712H614.451L614.532 -31.2037C617.998 -28.072 620.277 -24.0223 622.3 -19.9051C626.224 -11.6303 628.179 -2.61294 629.663 6.36387C631.106 14.7332 639.44 64.1259 641.017 73.6697C642.649 83.0919 646.169 104.933 647.868 114.045C649.122 120.754 650.336 127.49 651.158 134.267C651.361 136.818 651.927 139.464 651.32 142.028C651.253 142.177 651.172 142.366 650.943 142.487C650.673 142.609 650.511 142.514 650.349 142.487C648.637 141.772 647.895 139.923 647.072 138.424C646.061 136.318 645.063 133.7 644.443 131.661C645.4 131.445 644.699 131.459 644.928 131.486L644.955 131.58L645.009 131.783C645.306 133.322 648.731 144.31 646.371 143.5C645.98 143.297 645.845 143.014 645.67 142.771C643.687 138.573 643 134.037 642.002 129.555L642.582 129.542C642.096 132.336 641.961 135.103 640.599 137.695C640.464 137.844 640.33 138.046 640.019 138.127C638.078 138.357 638.132 130.595 637.673 129.069C637.66 129.002 637.633 128.907 637.619 128.853C637.619 128.799 637.525 128.691 637.619 128.786C637.781 128.894 637.929 128.759 637.916 128.759C637.349 129.798 637.093 134.887 635.421 134.24C633.83 133.025 635.987 128.435 636.904 127.058C636.958 126.977 637.026 126.91 637.08 126.829C636.985 127.018 637.066 126.829 637.039 126.788C637.039 126.64 637.039 126.464 637.026 126.302C632.872 93.5807 626.831 60.6432 621.558 28.1107L622.624 28.0432V28.0972C621.639 49.952 620.87 71.8608 618.187 93.6347C618.012 93.6347 480.57 102.611 480.26 102.625L479.653 102.665L479.612 102.072C477.805 73.3322 474.65 44.5524 475.702 15.7186L476.686 15.8536C472.034 36.5475 467.22 57.2145 461.731 77.7059C460.288 82.984 458.805 88.2486 457.119 93.4592C465.547 101.694 476.282 108.362 484.98 116.691C485.748 117.514 486.706 118.27 487.097 119.391C487.056 120.214 486.787 120.727 486.396 121.429C486.166 121.888 485.519 121.955 485.087 122.077C483.766 122.428 482.323 122.306 481.055 121.915C474.272 119.782 468.029 116.407 461.758 113.114C457.106 110.576 452.48 107.957 448.124 104.947C446.749 103.867 445.009 102.989 444.241 101.37L444.2 101.343ZM444.322 101.329C444.416 101.721 444.753 102.058 445.063 102.368C447.342 104.447 450.039 106.027 452.642 107.647C458.697 111.278 464.954 114.585 471.333 117.568C474.542 119.026 477.765 120.498 481.136 121.456C482.62 121.928 484.103 121.888 485.559 121.429C486.153 121.254 486.207 120.511 486.449 119.998C486.652 119.512 486.571 119.377 486.315 118.986C478.628 110.697 468.608 104.326 460.005 96.9284C458.832 95.862 457.456 94.9845 456.593 93.6211C456.553 93.6076 456.566 93.2972 456.593 93.2972C457.16 91.4478 457.753 89.612 458.279 87.7626C465.035 63.9774 470.348 39.7873 475.675 15.6511L476.659 15.7861C476.093 30.149 476.915 44.5524 477.765 58.9018C478.642 73.2782 479.801 87.6276 480.772 102.004L480.138 101.437L617.553 92.4467L616.973 92.9867C619.643 71.4693 620.479 49.7495 621.518 28.0702V28.0162L621.76 22.8866L622.583 27.9487C627.68 60.5622 633.493 93.5132 637.633 126.289C637.606 126.626 637.754 126.869 637.525 127.288C636.392 128.948 635.542 131.04 635.448 133.065C635.448 133.376 635.556 133.659 635.677 133.713C636.392 132.863 636.5 131.472 636.81 130.379C636.985 129.771 637.053 128.921 637.417 128.381C637.457 128.313 637.687 128.138 637.929 128.286C638.037 128.381 638.091 128.475 638.105 128.516C638.186 128.678 638.199 128.799 638.239 128.948L638.334 129.474C638.55 131.175 638.698 132.944 638.941 134.618C639.17 135.603 639.156 136.926 639.885 137.547C639.912 137.547 640.019 137.466 640.1 137.358C641.301 135.049 641.57 132.08 641.988 129.488L642.218 127.72C643.269 132.647 644.025 137.925 646.128 142.501C646.263 142.717 646.438 142.96 646.56 143.014C646.492 143.068 646.627 143.014 646.56 143.014C646.816 141.286 646.209 139.45 645.899 137.722C645.589 136.143 645.063 134.348 644.685 132.755C644.631 132.485 644.429 131.864 644.389 131.607C644.604 131.607 643.89 131.553 644.861 131.351C644.928 131.486 644.888 131.418 644.915 131.459C645.67 133.74 646.492 136.021 647.531 138.181C648.299 139.572 648.987 141.313 650.471 141.974C650.767 142.028 650.7 142.042 650.848 141.799C651.536 137.128 650.282 132.215 649.742 127.531C648.34 118.54 646.506 109.617 645.117 100.627C642.325 83.4699 634.504 37.56 631.483 19.8628C628.624 4.717 627.114 -12.4537 618.416 -25.5882C617.175 -27.451 615.773 -29.2869 614.114 -30.7178L614.33 -30.6503C614.681 -30.5018 475.594 -25.3182 478.008 -25.9526C470.159 -5.46122 463.592 15.5837 458.778 36.993C456.512 47.7247 454.435 58.5644 451.577 69.1745L447.558 85.1708C446.385 90.5029 444.645 95.835 444.295 101.275L444.322 101.329Z" fill="#1E110D"/>
<path d="M619.589 -28.3421C619.589 -28.3421 627.249 -13.8712 630.553 -2.12714C633.843 9.60345 641.233 71.5907 641.233 71.5907L628.597 72.1981L622.044 28.016L621.194 96.8877L478.129 102.908L474.812 23.3724L462.014 79.3256L449.392 75.2084C449.392 75.2084 456.661 30.8238 463.862 6.01273C468.919 -11.4279 478.008 -37.8589 478.008 -37.8589L619.589 -28.3556V-28.3421Z" fill="#C33F34"/>
<path d="M619.589 -28.3421C623.541 -20.7287 627.182 -12.9263 629.906 -4.7729C632.481 3.43446 633.412 12.0468 634.841 20.4972C637.403 37.4788 639.682 54.4875 641.84 71.5232L641.921 72.1712L641.26 72.2117L628.625 72.8596L628.031 72.8866L627.937 72.3062L621.235 28.1511L622.826 28.0431L622.192 96.9147V97.8867L621.221 97.9272L478.17 104.11L476.996 104.164L476.942 102.976L473.679 23.4399L475.918 23.6424L463.053 79.5821L462.796 80.7295L461.691 80.365L449.068 76.2344L448.205 75.9509L448.354 75.0599C451.631 55.8374 455.204 36.6689 459.816 17.7164C464.563 -1.42516 471.184 -19.9727 477.482 -38.6283C513.056 -36.0635 584.015 -30.9879 619.576 -28.3421H619.589ZM619.589 -28.3421C584.285 -30.4479 513.258 -34.9026 477.967 -37.1029L478.722 -37.6024C472.641 -19.1628 466.208 -0.723228 461.664 18.1618C457.227 37.0739 453.667 56.2424 450.444 75.3974L449.729 74.223L462.351 78.3132L460.976 79.0961L473.706 23.116L475.594 14.8546L475.958 23.3319L479.316 102.868L478.089 101.734L621.154 95.8753L620.183 96.8878L621.248 28.0296L622.839 27.9216L629.245 72.1307L628.571 71.5772L641.206 71.0102L640.626 71.6852C638.118 50.3838 635.664 29.069 632.319 7.88911C630.661 -4.9484 625.348 -16.841 619.589 -28.3151V-28.3421Z" fill="#1E110D"/>
<path d="M515.51 -8.03963C515.51 -8.03963 533.351 15.6645 555.009 15.4081C576.666 15.1516 582.438 -13.4122 582.438 -13.4122L515.51 -8.02614V-8.03963Z" fill="#F0CBA2" stroke="#1E110D" stroke-width="1.78" stroke-miterlimit="10"/>
<path d="M405.201 -166.936C405.74 -136.523 411.93 -105.691 425.038 -78.1533C448.475 -28.0316 494.5 -4.58391 548.697 -6.91924C591.742 -8.20163 627.195 -29.422 648.893 -66.6387C669.269 -101.979 677.333 -143.529 677.819 -183.999L678.25 -183.148C668.217 -190.181 656.97 -195.689 645.724 -200.575C622.961 -210.254 599.011 -217.031 574.71 -221.58C562.587 -223.807 550.37 -225.872 538.004 -225.751C488.284 -225.17 441.638 -199.414 405.201 -166.949V-166.936ZM404.985 -167.03C440.991 -200.764 487.758 -226.831 537.99 -228.059C550.504 -228.343 562.911 -226.196 575.169 -223.996C587.414 -221.755 599.55 -218.893 611.525 -215.438C635.367 -208.229 658.953 -199.104 679.599 -184.903L680.03 -184.593V-184.053C678.695 -124.941 660.665 -55.2725 607.237 -22.578C569.397 0.22171 512.786 0.302689 474.245 -20.9447C423.393 -49.2655 404.688 -111.982 404.985 -167.03Z" fill="#1E110D"/>
<path d="M642.865 65.0573C641.867 65.2058 625.374 66.8527 625.415 68.9045C625.455 70.9564 627.492 79.7442 629.029 79.4607C630.566 79.1772 643.296 78.6508 644.645 77.1659C645.993 75.681 642.865 65.0573 642.865 65.0573Z" fill="#C33F34"/>
<path d="M642.865 65.0573C637.39 66.4342 631.659 66.9067 626.548 69.107C626.332 69.1745 626.332 69.4445 626.467 68.9855C626.494 69.3365 626.642 70.1059 626.696 70.4704C627.33 73.0757 627.869 76.14 629.299 78.3673C629.312 78.3943 629.353 78.3943 629.164 78.3133C629.096 78.2998 628.908 78.2593 628.8 78.2998C629.218 78.2323 629.649 78.2053 630.027 78.1648C634.046 77.8273 638.577 77.6789 642.501 77.0309C643.121 76.8959 643.755 76.7879 644.025 76.5449C644.551 72.7787 643.35 68.8505 642.851 65.0708L642.865 65.0573ZM642.865 65.0573C644.186 68.4996 645.441 71.9553 645.751 75.708C645.805 76.4774 645.67 77.5844 644.928 78.0433C641.988 79.5957 638.779 79.5552 635.664 80.0412C633.924 80.2301 632.009 80.3651 630.256 80.5406C629.636 80.5676 628.989 80.7971 628.436 80.5946C627.95 80.4191 627.775 80.2032 627.573 80.0277C625.509 77.0579 624.997 73.3727 624.431 69.9035C624.417 69.5525 624.323 69.08 624.39 68.7425C624.916 65.3003 639.75 65.2193 642.865 65.0708V65.0573Z" fill="#1E110D"/>
<path d="M643.971 68.8911C643.971 68.8911 644.092 68.5536 639.858 69.4985C635.623 70.4434 633.938 70.3624 633.938 70.3624" fill="#C33F34"/>
<path d="M643.971 68.8911C643.971 68.8911 644.092 68.5536 639.858 69.4985C635.623 70.4434 633.938 70.3624 633.938 70.3624" stroke="#1E110D" stroke-linecap="round" stroke-linejoin="round"/>
<path d="M636.257 75.2355C636.257 75.2355 633.587 75.492 631.524 75.924C629.461 76.3559 627.141 76.5719 627.141 76.5719" fill="#C33F34"/>
<path d="M636.257 75.2355C636.257 75.2355 633.587 75.492 631.524 75.924C629.461 76.3559 627.141 76.5719 627.141 76.5719" stroke="#1E110D" stroke-linecap="round" stroke-linejoin="round"/>
<path d="M466.276 70.9967C465.305 70.7537 449.392 66.0831 448.664 68.0134C447.936 69.9438 446.533 78.8396 448.044 79.1501C449.554 79.4605 461.569 83.7667 463.376 82.8893C465.183 82.0119 466.276 70.9967 466.276 70.9967Z" fill="#C33F34"/>
<path d="M466.276 70.9967C460.679 70.2138 455.191 68.4994 449.635 68.6074C449.406 68.5939 449.311 68.8369 449.608 68.4589C449.5 68.7964 449.338 69.5658 449.271 69.9168C448.88 72.5626 448.232 75.5999 448.718 78.2187C448.718 78.2457 448.758 78.2592 448.623 78.1107C448.569 78.0702 448.408 77.9622 448.286 77.9622C448.704 78.0567 449.109 78.1917 449.473 78.3131C453.316 79.5146 457.578 81.0669 461.461 81.9444C462.082 82.0524 462.715 82.1873 463.053 82.0659C464.954 78.7721 465.318 74.6819 466.276 70.9832V70.9967ZM466.276 70.9967C466.208 74.6954 466.073 78.3671 464.967 81.9444C464.725 82.6733 464.185 83.6587 463.322 83.7937C460.018 84.1177 457.052 82.8758 453.977 82.1739C452.291 81.7014 450.457 81.1074 448.785 80.5945C448.205 80.392 447.518 80.3515 447.073 79.96C446.695 79.6225 446.601 79.3526 446.493 79.1096C445.684 75.5998 446.601 71.9552 447.383 68.5534C447.491 68.2294 447.599 67.757 447.787 67.46C449.567 64.4632 463.349 69.9708 466.289 71.0102L466.276 70.9967Z" fill="#1E110D"/>
<path d="M465.871 74.9654C465.871 74.9654 466.114 74.6954 461.825 73.98C457.537 73.2646 456.013 72.5626 456.013 72.5626" fill="#C33F34"/>
<path d="M465.871 74.9654C465.871 74.9654 466.114 74.6954 461.825 73.98C457.537 73.2646 456.013 72.5626 456.013 72.5626" stroke="#1E110D" stroke-linecap="round" stroke-linejoin="round"/>
<path d="M456.337 77.9487C456.337 77.9487 453.761 77.1927 451.698 76.8148C449.621 76.4368 447.396 75.7618 447.396 75.7618" fill="#C33F34"/>
<path d="M456.337 77.9487C456.337 77.9487 453.761 77.1927 451.698 76.8148C449.621 76.4368 447.396 75.7618 447.396 75.7618" stroke="#1E110D" stroke-linecap="round" stroke-linejoin="round"/>
<path d="M555.022 15.3947L557.058 90.5164" stroke="#1E110D" stroke-width="1.78" stroke-miterlimit="10"/>
<path d="M545.879 43.4185C547.592 43.4185 548.981 42.0285 548.981 40.3137C548.981 38.599 547.592 37.209 545.879 37.209C544.166 37.209 542.777 38.599 542.777 40.3137C542.777 42.0285 544.166 43.4185 545.879 43.4185Z" fill="#1E110D"/>
<path d="M563.72 43.4185C565.433 43.4185 566.822 42.0285 566.822 40.3137C566.822 38.599 565.433 37.209 563.72 37.209C562.007 37.209 560.618 38.599 560.618 40.3137C560.618 42.0285 562.007 43.4185 563.72 43.4185Z" fill="#1E110D"/>
<path d="M545.879 56.067C547.592 56.067 548.981 54.6769 548.981 52.9622C548.981 51.2475 547.592 49.8575 545.879 49.8575C544.166 49.8575 542.777 51.2475 542.777 52.9622C542.777 54.6769 544.166 56.067 545.879 56.067Z" fill="#1E110D"/>
<path d="M563.72 56.067C565.433 56.067 566.822 54.6769 566.822 52.9622C566.822 51.2475 565.433 49.8575 563.72 49.8575C562.007 49.8575 560.618 51.2475 560.618 52.9622C560.618 54.6769 562.007 56.067 563.72 56.067Z" fill="#1E110D"/>
<path d="M547.12 68.54C548.833 68.54 550.221 67.15 550.221 65.4353C550.221 63.7205 548.833 62.3305 547.12 62.3305C545.407 62.3305 544.018 63.7205 544.018 65.4353C544.018 67.15 545.407 68.54 547.12 68.54Z" fill="#1E110D"/>
<path d="M564.961 68.54C566.674 68.54 568.062 67.15 568.062 65.4353C568.062 63.7205 566.674 62.3305 564.961 62.3305C563.248 62.3305 561.859 63.7205 561.859 65.4353C561.859 67.15 563.248 68.54 564.961 68.54Z" fill="#1E110D"/>
<path d="M477.428 85.7917C479.073 85.7917 517.668 89.5175 553.997 87.6546C590.326 85.7917 621.383 82.9974 621.383 82.9974L621.208 96.8744C621.208 96.8744 531.45 104.542 504.304 104.542C477.158 104.542 478.143 102.895 478.143 102.895L477.428 85.7782V85.7917Z" fill="#EEB19F"/>
<path d="M477.428 85.7917C501.378 87.4656 525.435 88.4105 549.439 87.4251C573.416 86.2102 597.406 84.5228 621.329 82.4305L621.963 82.3765V83.0244L621.801 96.9014V97.4413C597.77 99.4392 573.739 101.288 549.682 102.868C531.773 103.894 513.825 105.217 495.876 104.758C490.104 104.474 484.184 104.704 478.534 103.354C478.399 103.3 478.237 103.246 478.116 103.124C478.089 103.084 477.994 103.043 478.048 102.854L478.035 102.922L477.441 85.8052L477.428 85.7917ZM477.428 85.7917L478.264 102.908V102.976C478.264 102.841 478.291 102.989 478.372 103.003C478.439 103.043 478.52 103.07 478.601 103.111C484.238 104.353 490.117 104.042 495.862 104.245C513.811 104.474 531.706 103.084 549.601 101.882C573.47 100.236 597.312 98.3322 621.154 96.3074L620.601 96.9014L620.79 83.0244L621.423 83.6049C597.46 85.6027 573.497 87.3306 549.466 88.3025C525.422 89.1394 501.378 87.857 477.428 85.8187V85.7917Z" fill="#1E110D"/>
<path d="M484.683 85.0492C482.242 87.9919 481.231 112.722 488.122 113.491C495.013 114.261 557.058 113.91 557.948 109.685C558.838 105.46 561.266 81.6879 557.948 81.5124C554.631 81.3369 490.536 77.9622 484.683 85.0492Z" fill="#EEB19F"/>
<path d="M484.683 85.0491C483.591 86.8715 483.469 89.1123 483.186 91.1776C482.768 95.4028 482.782 99.6685 483.294 103.88C483.914 107.525 484.562 113.667 489.43 113.451C504.264 113.829 519.124 113.329 533.931 112.6C541.267 112.101 548.751 111.966 555.899 110.238C556.438 110.049 557.004 109.901 557.355 109.563C557.382 109.496 557.355 109.658 557.395 109.455C558.569 100.978 559.796 92.0686 558.676 83.5372C558.542 82.9568 558.366 82.2548 557.935 82.0253L557.139 81.9714C555.184 81.8499 549.655 81.5664 547.619 81.4719C535.576 81.1614 492.572 78.5561 484.696 85.0491H484.683ZM484.683 85.0491C486.22 83.5507 488.445 83.0918 490.468 82.5923C496.698 81.2829 503.104 80.9859 509.455 80.689C522.172 80.176 534.916 80.2975 547.646 80.6485C550.113 80.7295 555.548 80.8914 557.989 81.0129C562.277 81.6204 559.229 104.974 558.717 108.888C558.609 109.307 558.623 109.914 558.299 110.306C556.869 111.615 554.833 111.669 553.067 112.061C546.742 113.032 540.35 113.329 533.985 113.64C519.138 114.153 504.264 114.355 489.416 113.734C484.454 113.896 483.766 107.66 483.173 103.921C482.687 99.6955 482.701 95.4163 483.159 91.1911C483.456 89.1258 483.591 86.8715 484.696 85.0626L484.683 85.0491Z" fill="#1E110D"/>
<path d="M483.24 90.5164C483.24 90.5164 499.004 92.1092 521.241 92.3117C543.479 92.5007 559.634 90.5164 559.634 90.5164" fill="#EEB19F"/>
<path d="M483.24 90.5164C483.24 90.5164 499.004 92.1092 521.241 92.3117C543.479 92.5007 559.634 90.5164 559.634 90.5164" stroke="#1E110D" stroke-miterlimit="10"/>
<path d="M551.61 99.1014C551.705 98.629 552.19 91.4881 552.851 91.4206C553.512 91.3531 554.092 98.818 553.62 99.1014C553.148 99.3849 551.61 99.1014 551.61 99.1014Z" fill="#1E110D"/>
<path d="M484.548 125.344L481.487 111.818L493.462 117.811L484.548 125.344Z" fill="#1E110D"/>
</g>
<g clip-path="url(#clip2_14_6)">
<path d="M280.243 156.488C280.243 156.488 369.276 239.113 370.381 242.404C375.876 258.73 283.302 165.928 279.522 162.123C275.741 158.318 280.243 156.488 280.243 156.488Z" fill="#52433F" stroke="#1E110D" stroke-width="0.48" stroke-miterlimit="10"/>
<path d="M330.35 225.452C329.853 222.466 329.341 147.868 326.81 146.166C324.295 144.48 269.766 100.896 269.766 100.896C269.766 100.896 261.212 103.786 261.965 103.818C262.718 103.85 315.725 147.482 317.311 150.902C318.912 154.321 322.068 228.438 322.068 228.438L330.334 225.452H330.35Z" fill="#52433F"/>
<path d="M330.35 225.452C329.757 207.152 329.869 186.604 329.117 168.319C328.732 161.176 328.796 153.968 327.531 146.889C327.435 146.455 327.242 145.957 326.778 145.701C311.031 133.42 285.913 113.145 270.087 100.495L269.862 100.319L269.59 100.415C267.588 101.153 263.695 102.357 261.789 103.24C261.741 103.272 261.645 103.337 261.596 103.369C261.516 103.481 261.628 103.24 261.404 103.626C261.324 104.252 261.645 104.284 261.677 104.316C264.48 106.258 267.668 109.003 270.583 111.299C285.369 123.563 302.012 136.695 315.901 149.826C316.429 150.388 317.054 150.902 317.102 151.721C318.031 157.371 318.224 163.214 318.688 168.945C319.521 181.724 321.315 215.371 322.02 228.55L322.1 228.518L330.35 225.468V225.452ZM330.35 225.452L322.052 228.39L322.132 228.438C321.299 205.851 320.306 181.563 318.672 158.96C318.4 156.231 318.32 153.534 317.679 150.838C317.423 150.244 316.878 149.746 316.462 149.28C302.605 136.053 286.009 122.825 271.256 110.48C268.164 108.104 265.329 105.327 262.013 103.289C261.933 103.289 262.109 103.289 262.189 103.337C262.189 103.385 262.494 103.385 262.445 103.979C262.221 104.332 262.365 104.107 262.317 104.187L262.285 104.22L262.317 104.204C264.127 103.385 268.02 102.117 269.942 101.41L269.446 101.314C285.433 113.98 310.47 133.998 326.377 146.295L326.618 146.471C326.618 146.487 326.618 146.471 326.666 146.584C326.73 146.712 326.794 146.905 326.842 147.081C328.091 154.064 328.091 161.256 328.492 168.351C329.197 186.01 329.597 207.89 330.35 225.468V225.452Z" fill="#1E110D"/>
<path d="M367.386 222.193C368.091 220.989 369.693 219.673 372.063 219.673C376.02 219.673 382.396 227.523 383.309 237.941C384.206 248.36 381.515 260.656 378.519 263.514C375.524 266.371 371.407 268.907 368.459 263.305C365.512 257.702 363.718 248.777 363.653 240.75C363.589 231.022 365.48 225.452 367.402 222.193H367.386Z" fill="#C33F34"/>
<path d="M367.386 222.193C370.878 217.345 375.748 220.428 378.327 224.425C383.629 232.066 383.517 241.794 382.091 250.607C381.082 256.338 379.528 265.071 372.64 265.826C367.93 265.472 365.448 253.015 364.663 248.954C363.333 240.109 363.029 230.316 367.386 222.209V222.193ZM367.386 222.193C361.427 232.756 362.276 255.503 369.068 265.601C370.766 267.864 374.066 267.896 376.26 266.371C379.64 264.541 381.386 261.186 382.251 257.638C384.078 250.928 384.494 243.865 383.645 236.978C383.245 230.461 374.755 213.139 367.386 222.177V222.193Z" fill="#1E110D"/>
<path d="M371.407 244.218C370.876 244.218 370.446 243.219 370.446 241.987C370.446 240.754 370.876 239.755 371.407 239.755C371.937 239.755 372.368 240.754 372.368 241.987C372.368 243.219 371.937 244.218 371.407 244.218Z" fill="#1C75BC" stroke="#1E110D" stroke-width="0.08" stroke-miterlimit="10"/>
<path d="M152.01 206.622L73.3892 99.3714L72.4761 82.7886L157.409 195.834L152.01 206.622Z" fill="#52433F"/>
<path d="M152.01 206.622C129.36 175.479 95.8799 128.492 74.094 99.3393L73.213 82.7565L71.8994 83.2381C96.008 115.28 133.156 164.483 157.313 195.914C157.409 195.369 152.01 206.734 152.01 206.622ZM152.01 206.622L157.505 195.882L157.537 195.818L157.489 195.754C133.508 163.07 96.1682 113.177 71.6111 80.3967C71.6111 81.1994 72.6363 98.0069 72.6844 99.4035V99.6122L72.8125 99.7727C95.6236 130.916 128.671 175.206 151.994 206.606L152.01 206.622Z" fill="#1E110D"/>
<path d="M385.712 269.197C385.712 269.197 385.872 279.182 385.311 280.61C384.75 282.039 251.617 347.503 239.458 342.27C225.217 336.138 185.074 288.958 185.074 288.958V278.01L353.69 250.35L385.712 269.181V269.197Z" fill="#331D15" stroke="#1E110D" stroke-width="0.38" stroke-miterlimit="10"/>
<path d="M185.074 278.026V195.834L129.359 135.202H149.736C149.736 135.202 194.909 182.831 195.47 190.938C196.031 199.045 196.095 274.028 196.095 274.028L185.058 278.026H185.074Z" fill="#52433F"/>
<path d="M185.074 278.026C185.074 277.881 185.426 195.818 185.426 195.69C185.362 195.577 129.824 134.961 129.744 134.849L129.36 135.731H149.736C156.784 143.918 167.549 154.851 175.494 164.274C179.739 169.154 183.92 174.098 187.877 179.203C189.847 181.755 191.786 184.356 193.42 187.117C194.204 188.498 195.085 189.894 195.118 191.419C195.214 193.025 195.246 194.646 195.278 196.267C195.726 218.822 195.758 251.169 196.015 274.028C196.335 273.868 184.994 278.026 185.058 278.026H185.074ZM185.074 278.026L196.127 274.109L196.175 274.093V274.044C196.175 249.002 196.575 216.093 195.886 191.387C195.838 189.605 194.893 188.145 194.108 186.732C192.442 183.923 190.504 181.306 188.534 178.721C176.552 163.391 163.368 149.088 150.136 134.849L149.976 134.688H149.752H129.376H128.174L128.991 135.571L184.833 196.075C184.593 194.823 185.17 278.282 185.09 278.026H185.074Z" fill="#1E110D"/>
<path d="M296.069 24.3075C299.353 18.7371 306.722 12.7332 317.583 12.7332C335.78 12.7332 365.191 48.8847 369.356 96.8511C373.505 144.818 361.122 201.453 347.314 214.632C333.506 227.812 314.539 239.466 300.955 213.637C287.371 187.808 279.089 146.696 278.849 109.79C278.545 65.018 287.243 39.3492 296.085 24.3075H296.069Z" fill="#C33F34"/>
<path d="M296.069 24.3074C300.17 17.517 307.859 13.3271 315.693 12.9098C328.78 12.2034 339.369 24.9014 346.449 34.5493C371.038 69.6733 370.173 114.542 363.798 155.14C362.148 165.398 359.905 175.543 357.038 185.416C354.106 194.63 350.998 204.647 344.511 211.807C330.622 225.195 315.196 233.334 304.063 212.096C298.264 201.324 293.955 189.846 290.479 177.999C277.391 133.003 272.441 66.3182 296.085 24.3235L296.069 24.3074ZM296.069 24.3074C269.542 70.0104 274.412 161.994 295.316 209.832C307.875 239.948 328.556 238.214 349.973 217.57C357.999 209.335 361.251 198.178 364.535 187.599C374.787 149.12 377.606 99.0343 362.708 61.6307C355.964 44.1811 336.822 11.6897 315.677 12.669C307.811 13.1666 300.106 17.4528 296.069 24.3074Z" fill="#1E110D"/>
<path d="M314.587 125.763C312.137 125.763 310.15 121.163 310.15 115.489C310.15 109.815 312.137 105.215 314.587 105.215C317.038 105.215 319.025 109.815 319.025 115.489C319.025 121.163 317.038 125.763 314.587 125.763Z" fill="#1C75BC" stroke="#1E110D" stroke-width="0.38" stroke-miterlimit="10"/>
<path d="M371.631 244.507C364.246 244.507 365.592 77.3466 367.033 73.9113C368.475 70.4759 373.185 63.6373 371.967 73.9113C370.75 84.1852 379.016 244.507 371.631 244.507Z" fill="#52433F" stroke="#1E110D" stroke-width="0.48" stroke-miterlimit="10"/>
<path d="M279.137 160.148C271.752 160.148 274.396 20.2139 275.853 16.7946C277.311 13.3753 282.005 6.5207 280.787 16.7946C279.57 27.0686 286.522 160.148 279.137 160.148Z" fill="#52433F" stroke="#1E110D" stroke-width="0.92" stroke-miterlimit="10"/>
<path d="M371.631 125.04L157.409 195.834L72.4763 82.7888L268.324 34.8223L371.631 125.04Z" fill="#653C2E"/>
<path d="M371.631 125.04C371.711 125.152 155.182 195.401 157.841 195.497L73.0529 82.3551L72.6524 83.4788C72.5884 83.4627 269.734 35.1752 268.052 35.1431L371.647 125.024L371.631 125.04ZM371.631 125.04C371.455 124.896 268.597 34.5009 268.437 34.3565C268.357 34.2602 72.4442 82.1464 72.3 82.0982L71.2428 82.3551L71.8995 83.2219C72.1398 83.543 156.976 196.187 157.201 196.492C157.489 196.781 371.295 124.88 371.631 125.04Z" fill="#1E110D"/>
<path d="M80.5177 244.732C80.5177 244.732 157.665 318.945 158.77 322.236C164.265 338.562 83.5613 254.171 79.7808 250.366C76.0003 246.562 80.5017 244.732 80.5017 244.732H80.5177Z" fill="#52433F" stroke="#1E110D" stroke-width="0.48" stroke-miterlimit="10"/>
<path d="M79.7809 250.366C72.3961 250.366 71.2107 43.6836 72.6524 40.2643C74.0941 36.845 78.8037 29.9904 77.5863 40.2643C76.3688 50.5383 87.1656 250.366 79.7809 250.366Z" fill="#52433F" stroke="#1E110D" stroke-width="0.48" stroke-miterlimit="10"/>
<path d="M330.35 225.452C334.403 228.743 390.998 262.406 385.311 271.54C379.624 280.674 248.573 331.707 240.596 330.567C232.618 329.427 185.074 278.025 185.074 278.025L330.35 225.452Z" fill="#653C2F" stroke="#1E110D" stroke-width="0.38" stroke-miterlimit="10"/>
<path d="M371.631 125.04V132.746L156.287 206.622L157.409 195.834L371.631 125.04Z" fill="#52433F"/>
<path d="M371.631 125.04C371.631 125.04 371.535 132.938 371.631 132.698C311.367 152.876 216.903 185.223 156.047 205.915L157.008 206.686L158.114 195.898C154.91 198.226 372.336 124.382 371.631 125.024V125.04ZM371.631 125.04C371.118 125.65 156.368 194.566 156.688 195.754L155.551 206.541L155.422 207.681L156.512 207.312C217.496 186.202 311.447 153.936 371.647 132.794C371.743 132.794 371.599 125.088 371.647 125.04H371.631Z" fill="#1E110D"/>
<path d="M268.324 46.9423V-111.341L72.4762 -85.9286V82.7888L268.324 46.9423Z" fill="#653C2E"/>
<path d="M268.324 46.9422C268.453 7.22703 268.757 -72.1392 268.789 -111.854C268.645 -112.095 72.6684 -86.5066 72.3961 -86.6511L71.7553 -86.5709V-85.9287L71.9635 82.7887V83.4147L72.5723 83.3024C121.382 74.2966 219.563 56.1246 268.324 46.9422ZM268.324 46.9422C219.466 55.6269 121.19 73.4137 72.3801 82.291C73.8858 85.63 72.7805 -86.619 73.197 -85.9127L72.5563 -85.1903C72.364 -85.3829 270.487 -110.378 267.86 -111.309C267.86 -71.8663 268.164 7.51598 268.308 46.9583L268.324 46.9422Z" fill="#1E110D"/>
<path d="M269.526 66.4145C269.526 66.4145 339.176 109.051 342.3 122.745C345.424 136.438 345.087 231.392 345.087 226.062C345.087 226.062 333.329 231.905 332.817 228.791C326.537 190.954 328.844 136.47 319.201 129.23C306.241 119.486 267.507 85.9992 216.647 99.3714C170.32 111.556 215.398 158.639 223.711 170.053C232.025 181.467 235.582 257.574 235.582 257.574C235.582 257.574 226.226 265.665 225.666 261.314C221.517 229.738 207.292 186.748 183.84 174.516C153.212 158.527 112.267 127.32 108.054 100.672C103.841 74.0236 114.574 46.6211 114.574 46.6211L269.51 66.4145H269.526Z" fill="#592B80" stroke="#1E110D" stroke-width="0.92" stroke-miterlimit="10"/>
<path d="M380.506 82.7886C380.506 82.7886 383.101 94.732 378.279 100.912C373.713 106.772 361.379 111.909 352.264 106.386C346.017 102.598 267.427 27.6785 267.427 27.6785L268.501 1.14282L380.49 82.7886H380.506Z" fill="#52433F"/>
<path d="M380.505 82.7887C381.515 89.2099 381.947 97.0919 377.045 102.036C372.224 106.611 365.159 109.116 358.559 108.201C351.639 107.35 347.234 101.282 342.14 97.124C337.126 92.5329 332.144 87.9096 327.194 83.2542C307.363 64.6487 287.611 45.947 267.94 27.1489L268.164 27.7107L269.205 1.17504L268.1 1.70479C299.93 24.8533 348.836 60.186 380.489 82.7887H380.505ZM380.505 82.7887C366.649 72.4987 338.776 51.8384 324.872 41.6126L268.917 0.581086L267.876 -0.189453L267.828 1.11084L266.707 27.6305V27.9676L266.931 28.1923L296.582 56.2209C311.448 70.2031 326.329 84.1532 341.515 97.7822C346.737 101.988 351.351 108.136 358.447 108.875C365.287 109.694 372.4 107.045 377.286 102.261C382.187 97.124 381.627 89.242 380.489 82.7566L380.505 82.7887Z" fill="#1E110D"/>
<path d="M250.671 -33.3872C250.671 -33.3872 381.915 63.7497 380.505 82.7886C379.096 101.828 362.148 100.672 352.264 97.6377C342.38 94.6037 221.645 -23.4022 221.645 -23.4022L250.671 -33.3711V-33.3872Z" fill="#653C2E"/>
<path d="M250.671 -33.3874C276.67 -13.6582 302.333 6.5365 327.37 27.4857C342.861 40.7134 358.495 53.9251 371.983 69.2076C375.075 73.0763 378.663 76.9451 379.801 81.7931C379.913 83.559 379.48 85.7903 379 87.5562C376.581 97.4769 366.745 99.8688 357.71 98.1672C355.82 97.814 353.738 97.4609 351.976 96.6743C350.358 95.8395 348.692 94.5071 347.106 93.3031C303.534 56.3972 263.23 15.7188 221.789 -23.5469L221.709 -23.1937L250.655 -33.3713L250.671 -33.3874ZM250.671 -33.3874L221.581 -23.6111L221.261 -23.4987L221.501 -23.2579C244.696 -0.269993 268.228 22.3808 291.888 44.9033C303.726 56.1564 315.629 67.3454 327.707 78.3257C333.762 83.7997 339.833 89.2578 346.225 94.4108C348.243 95.8877 350.342 97.8622 352.921 98.5685C360.257 100.607 369.26 101.282 375.475 96.0161C378.311 93.5921 379.897 89.9802 380.682 86.3682C381.178 83.7998 381.483 80.9102 380.073 78.5022C376.196 71.1018 370.221 65.3388 364.518 59.4313C329.245 25.3667 289.934 -4.15482 250.688 -33.4034L250.671 -33.3874Z" fill="#1E110D"/>
<path d="M72.1237 -14.268C86.1884 -29.711 116.849 -71.2402 120.261 -75.8635C121.174 -85.3348 121.735 -91.146 121.735 -91.146L269.526 -89.1875C269.526 -89.1875 270.054 -80.3744 270.791 -66.8257L274.299 -82.7824C274.299 -82.7824 321.187 -9.70898 325.897 -9.70898C330.606 -9.70898 351.543 -55.6849 351.543 -55.6849L359.216 -51.3505C359.216 -51.3505 335.652 4.09663 324.487 9.69913C314.651 14.6274 279.458 -44.1106 271.24 -58.1249C273.322 -18.2813 276.302 48.1783 274.283 69.3843C271.336 100.351 113.405 85.8868 108.823 85.8868C107.926 85.8868 107.878 79.0804 108.375 68.1803C89.6165 44.0687 61.3429 -2.453 72.0917 -14.268H72.1237ZM87.9344 4.27323C84.0098 7.06645 97.4818 29.4283 109.592 47.8893C111.306 22.8787 114.174 -10.2066 116.689 -37.8499C109.368 -25.7299 93.1406 0.581032 87.9185 4.27323H87.9344Z" fill="#F1AC1D"/>
<path d="M72.1237 -14.2679C89.2961 -33.8686 104.706 -54.9623 120.357 -75.7992C120.421 -75.8473 121.863 -91.0817 121.895 -91.1459L121.735 -91.0014C158.594 -90.4074 232.682 -89.2355 269.526 -88.5292L268.885 -89.1392C269.157 -84.8691 270.103 -65.0918 270.343 -61.3675L271.528 -66.665L275.1 -82.6057L273.627 -82.3327C280.034 -72.2996 286.506 -62.3146 293.058 -52.3938C299.626 -42.4731 306.241 -32.5844 313.178 -22.8884C316.91 -18.0564 320.034 -12.6786 324.855 -8.80986C326.778 -7.6701 328.732 -10.1744 329.773 -11.5068C332.513 -15.1508 334.691 -19.0999 336.886 -23.0489C342.588 -33.5636 347.747 -44.2871 352.777 -55.1068L350.902 -54.4968L358.559 -50.1304L357.983 -51.848C349.973 -33.8526 341.804 -15.6163 330.927 0.82196C328.748 3.64729 326.505 7.48399 323.286 8.59164C321.235 8.49532 319.457 6.92213 317.775 5.60578C308.196 -3.12708 300.795 -14.4445 293.41 -25.1358C286.073 -36.1161 279.105 -47.3532 272.377 -58.7348L269.702 -63.2778C271.176 -35.0887 272.65 -6.89954 273.547 21.3056C273.931 36.1708 274.412 51.0519 273.723 65.901L273.563 68.3571C273.595 72.4185 270.807 75.4846 267.395 77.6197C240.259 93.0948 163.72 88.6802 130.609 87.1552L110.842 85.8549L109.608 85.7746L108.983 85.7425C108.823 85.7425 108.887 85.7425 108.839 85.7104C108.807 85.6622 108.759 85.582 108.727 85.4857C107.766 79.8189 108.487 73.9114 108.583 68.1645C97.9784 54.6799 60.3178 0.886185 72.1558 -14.2358L72.1237 -14.2679ZM72.1237 -14.2679C60.2056 0.83802 97.9304 55.1294 108.247 68.1805C108.038 73.1409 107.766 78.1173 108.006 83.0777C108.102 84.0088 108.054 85.0362 108.551 85.903C108.631 86.0315 108.919 86.0796 108.967 86.0636L109.576 86.0957L110.81 86.1759C147.541 88.5036 238.129 95.9041 268.228 78.9039C271.801 76.817 275.261 72.9964 275.229 68.4534L275.421 65.9652C276.238 51.0519 275.885 36.1065 275.629 21.2093C275.02 -5.27818 273.931 -31.7496 272.569 -58.189L270.167 -57.4666C276.879 -46.0208 283.815 -34.7355 291.167 -23.675C298.744 -12.6465 305.969 -1.44151 315.933 7.72477C318.031 9.42639 320.37 11.4009 323.398 11.417C327.867 10.7748 330.863 5.54156 333.313 2.45937C344.623 -14.5568 352.761 -33.3068 360.978 -51.9283L359.905 -52.5223L352.232 -56.8405L350.966 -57.5469C345.824 -46.3258 340.522 -35.1208 334.691 -24.2689C332.256 -19.8864 329.036 -13.8184 326.025 -10.8967C321.684 -14.5729 318.496 -19.6938 315.004 -24.1887C308.019 -33.7723 301.324 -43.5968 294.676 -53.4533C287.675 -63.8557 280.771 -74.3383 273.947 -84.8531L273.531 -82.9428L270.087 -66.986L271.56 -66.8737L270.199 -89.2355L270.167 -89.8456H269.558C232.666 -90.1185 158.498 -90.9211 121.606 -91.3224V-91.178C121.638 -91.2422 120.085 -75.6386 120.181 -75.9597C104.61 -55.0747 89.2641 -33.9328 72.1558 -14.2839L72.1237 -14.2679Z" fill="#1E110D"/>
<path d="M87.9345 4.25723C83.2249 8.39892 106.613 44.1651 110.153 50.2652L110.393 47.9215C113.693 18.5123 116.192 -11.9563 117.762 -41.4297C112.956 -33.0018 108.054 -24.574 102.976 -16.3067C98.3148 -9.24336 94.1178 -1.58607 87.9345 4.25723ZM87.9345 4.25723C94.1498 -1.55396 98.4589 -9.14704 103.377 -16.0498C108.182 -23.0971 112.828 -30.2407 117.409 -37.4325L115.856 -37.9462C112.684 -9.86943 110.329 19.5237 108.791 47.8091L110.265 47.4238C106.228 41.1953 83.5292 9.74737 87.9345 4.25723Z" fill="#1E110D"/>
<path d="M157.409 325.43C150.024 325.43 148.839 118.747 150.28 115.328C151.722 111.909 156.432 105.054 155.214 115.328C153.997 125.602 164.794 325.43 157.409 325.43Z" fill="#52433F" stroke="#1E110D" stroke-width="0.48" stroke-miterlimit="10"/>
<path d="M42.4726 4.75488V15.4141C44.0425 19.9892 155.903 152.956 160.004 156.488C164.249 160.148 185.058 160.148 192.01 146.182C193.436 143.309 192.01 128.09 192.01 128.09L61.0707 10.0042L42.4726 4.75488Z" fill="#52433F"/>
<path d="M42.4727 4.75496L42.4086 15.4142C44.6032 19.0422 48.7681 23.9544 51.3792 27.3897C73.0209 54.5836 95.5116 81.36 117.778 107.992C131.666 124.366 145.218 141.045 159.588 157.018C166.396 161.224 177.865 159.025 184.465 155.156C188.053 153.037 191.161 149.842 192.843 145.99C193.98 140.066 193.035 133.95 192.683 128.026C155.807 94.2827 98.0906 42.9451 61.1508 9.90797C61.1188 9.85981 42.5207 4.78707 42.4727 4.75496ZM42.4727 4.75496C42.4727 4.75496 61.2149 10.1809 60.9906 10.0846C96.761 42.5759 156.175 96.9636 191.337 128.139C191.738 133.067 192.106 138.059 191.866 142.939C191.754 144.16 191.722 145.331 191.145 146.246C185.875 155.91 172.979 159.538 162.743 157.066C160.292 156.472 159.027 154.353 157.393 152.619C131.298 122.616 105.748 92.0995 80.2134 61.6148C74.0141 54.1822 57.5786 34.4691 51.6515 27.165C49.1205 23.9383 44.7153 18.8013 42.5688 15.3981L42.5047 4.73889L42.4727 4.75496Z" fill="#1E110D"/>
<path d="M71.0985 -0.960022C71.0985 -0.960022 193.42 109.035 192.01 128.074C190.6 147.113 169.327 147.868 159.459 144.818C149.592 141.768 42.4726 4.75488 42.4726 4.75488L71.0985 -0.960022Z" fill="#653C2E"/>
<path d="M71.0986 -0.959961C107.814 33.3935 145.186 67.4741 177.897 105.745C182.863 112.198 188.87 118.651 191.225 126.565C191.593 128.01 191.049 129.551 190.921 130.996C190.857 131.51 190.648 131.975 190.52 132.457C190.28 133.308 189.879 134.528 189.431 135.282C185.25 143.935 174.437 146.15 165.643 145.267C163.608 145.058 161.558 144.673 159.636 144.111C158.034 143.325 156.4 141.655 155.022 140.371C114.927 97.4612 79.6207 50.2332 42.6488 4.64256L42.5367 4.94757L71.1306 -0.959961H71.0986ZM71.0986 -0.959961L42.4406 4.56229L42.1363 4.62651L42.3285 4.88334C62.8328 31.4832 83.7696 57.7781 104.883 83.8964C120.918 103.353 136.456 123.242 154.013 141.398C155.695 142.923 156.976 144.448 159.171 145.492C161.269 146.118 163.368 146.519 165.498 146.728C171.858 147.322 178.602 146.423 184.145 143.084C187.797 140.74 190.68 137.08 191.786 132.842C192.186 131.991 192.282 130.595 192.442 129.664C193.42 124.109 189.287 119.374 186.547 115.007C174.117 98.007 159.155 83.0777 144.466 68.1002C120.757 44.2935 96.1363 21.434 71.0986 -0.943892V-0.959961Z" fill="#1E110D"/>
<path d="M69.9932 94.3629C73.2771 88.7925 80.6458 82.7886 91.5067 82.7886C109.704 82.7886 139.115 118.94 143.28 166.907C147.429 214.873 135.046 271.508 121.238 284.688C107.43 297.867 88.4631 309.522 74.879 283.692C61.2948 257.863 53.013 216.751 52.7727 179.845C52.4684 135.073 61.1667 109.405 70.0092 94.3629H69.9932Z" fill="#C33F34"/>
<path d="M69.9933 94.3632C74.0941 87.5728 81.7832 83.3829 89.6165 82.9655C102.704 82.2592 113.293 94.9572 120.373 104.605C144.962 139.729 144.097 184.597 137.722 225.195C136.072 235.453 133.829 245.599 130.962 255.471C128.03 264.686 124.922 274.703 118.435 281.863C104.546 295.251 89.12 303.39 77.9868 282.152C72.1879 271.38 67.8788 259.902 64.4027 248.055C51.3151 203.058 46.3653 136.374 70.0093 94.3792L69.9933 94.3632ZM69.9933 94.3632C43.4658 140.066 48.3356 232.05 69.2404 279.888C81.7993 310.004 102.48 308.27 123.897 287.626C131.923 279.39 135.175 268.234 138.458 257.655C148.711 219.176 151.53 169.09 136.632 131.686C129.888 114.237 110.746 81.7455 89.6005 82.7247C81.7352 83.2224 74.0301 87.5085 69.9933 94.3632Z" fill="#1E110D"/>
<path d="M88.5111 195.834C86.0605 195.834 84.0739 191.234 84.0739 185.56C84.0739 179.886 86.0605 175.286 88.5111 175.286C90.9617 175.286 92.9484 179.886 92.9484 185.56C92.9484 191.234 90.9617 195.834 88.5111 195.834Z" fill="#F1AC1D" stroke="#1E110D" stroke-width="0.69" stroke-miterlimit="10"/>
<path d="M235.598 257.574C235.598 257.574 237.936 272.343 240.98 274.237C244.024 276.131 266.739 281.108 268.324 284.527C270.599 289.471 260.731 292.891 251.232 291.366C241.733 289.84 231.481 285.233 228.437 278.025C225.394 270.818 225.682 261.314 225.682 261.314L235.598 257.574Z" fill="#F1AC1D" stroke="#1E110D" stroke-width="0.58" stroke-miterlimit="10"/>
<path d="M236.559 262.598C236.559 262.598 229.27 265.167 225.682 264.91C222.094 264.637 219.226 259.227 222.062 257.574C224.897 255.936 235.373 251.843 237.264 254.122C239.17 256.402 236.559 262.598 236.559 262.598Z" fill="#1E110D"/>
<path d="M345.103 226.062C345.103 226.062 348.051 244.716 346.673 247.894C343.053 256.258 324.199 275.088 321.363 273.916C318.528 272.744 314.651 268.506 316.558 264.894C318.464 261.282 333.201 246.144 333.201 244.33C333.201 242.516 332.817 228.791 332.817 228.791L345.087 226.062H345.103Z" fill="#F1AC1D" stroke="#1E110D" stroke-width="0.58" stroke-miterlimit="10"/>
<path d="M345.648 228.871C345.648 228.871 338.359 231.44 334.771 231.183C331.183 230.926 328.315 225.5 331.151 223.847C333.986 222.209 344.463 218.116 346.353 220.395C348.259 222.675 345.648 228.871 345.648 228.871Z" fill="#1E110D"/>
<path d="M153.837 304.465C154.542 303.261 156.144 301.945 158.514 301.945C162.471 301.945 168.847 309.795 169.76 320.213C170.657 330.631 167.966 342.928 164.97 345.786C161.974 348.643 157.858 351.179 154.91 345.577C151.963 339.974 150.168 331.049 150.104 323.022C150.04 313.294 151.931 307.724 153.853 304.465H153.837Z" fill="#C33F34"/>
<path d="M153.837 304.465C157.329 299.617 162.199 302.699 164.778 306.697C170.08 314.338 169.968 324.066 168.542 332.879C167.533 338.61 165.979 347.343 159.091 348.097C157.025 348.017 155.871 345.898 155.006 344.148C149.896 332.719 147.894 315.927 153.837 304.481V304.465ZM153.837 304.465C147.878 315.028 148.727 337.775 155.519 347.873C157.217 350.136 160.517 350.168 162.711 348.643C166.091 346.813 167.837 343.458 168.702 339.91C170.529 333.2 170.945 326.137 170.096 319.25C169.696 312.733 161.205 295.411 153.837 304.449V304.465Z" fill="#1E110D"/>
<path d="M157.858 326.49C157.327 326.49 156.896 325.491 156.896 324.258C156.896 323.026 157.327 322.027 157.858 322.027C158.388 322.027 158.819 323.026 158.819 324.258C158.819 325.491 158.388 326.49 157.858 326.49Z" fill="#F1AC1D" stroke="#1E110D" stroke-width="0.69" stroke-miterlimit="10"/>
<path d="M132.483 96.3693C133.46 98.697 140.365 111.812 139.692 113.466C139.019 115.119 138.843 121.653 140.525 121.926C142.207 122.199 139.868 113.787 140.973 115.071C142.079 116.355 145.25 124.799 146.884 124.51C148.518 124.221 146.244 114.204 146.244 114.204C146.244 114.204 154.333 127.817 156.496 127.865C158.674 127.93 149.335 115.039 149.704 115.472C150.072 115.906 157.665 126.003 160.789 125.072C163.913 124.141 142.896 89.5949 142.896 89.5949L132.467 96.3532L132.483 96.3693Z" fill="#F2CCA1"/>
<path d="M132.419 96.3538C134.598 101.924 137.641 107.061 139.163 112.776C139.163 112.888 139.227 113.065 139.211 113.129C139.179 113.226 139.259 113.193 139.179 113.386C138.538 116.131 138.25 119.133 139.436 121.798C139.644 122.119 139.996 122.536 140.685 122.552C141.069 122.552 141.422 122.199 141.518 121.99C142.063 120.53 141.662 118.989 141.55 117.64C141.502 117.239 141.278 115.553 141.294 115.28C141.262 115.361 141.166 115.489 140.973 115.569C140.605 115.617 140.637 115.553 140.541 115.521C140.557 115.553 140.701 115.746 140.781 115.874C142.383 118.603 143.536 121.974 145.715 124.447C145.971 124.655 146.212 124.96 146.788 125.008C148.358 124.864 147.845 122.344 147.813 121.268C147.541 118.86 147.045 116.532 146.532 114.189L146.051 114.381C147.974 117.48 149.912 120.546 151.994 123.532C153.26 125.137 154.333 127.095 156.191 128.171C160.02 129.006 151.065 116.773 150.473 115.666C150.409 115.585 150.264 115.328 150.2 115.264C150.681 114.67 149.704 116.452 149.495 116.035C149.239 115.89 149.287 115.842 149.367 115.971C151.738 119.053 154.141 122.103 157.313 124.575C158.322 125.442 161.59 127.063 161.83 124.575C160.837 118.668 157.088 113.418 154.461 108.137C150.825 101.667 147.012 95.3103 143.024 89.0497C139.403 91.4737 135.863 94.01 132.403 96.3698L132.419 96.3538ZM132.547 96.4019L143.136 89.9647L142.559 89.8363C146.164 96.129 149.768 102.438 153.212 108.811C155.759 113.9 159.107 118.956 160.404 124.479C160.372 124.687 160.404 124.447 160.581 124.414C159.764 124.543 158.931 123.965 158.114 123.419C154.638 120.819 152.651 117.929 149.928 114.975C149.704 114.558 148.743 116.372 149.223 115.778C149.223 115.794 149.335 115.955 149.351 115.971C149.976 116.837 151.274 118.7 151.898 119.583C153.5 122.119 155.711 124.671 156.48 127.577C154.91 126.887 153.548 124.752 152.363 123.227C149.912 119.888 147.733 116.308 145.651 112.728L145.987 114.301C146.468 117.319 147.605 121.22 146.788 124.093C146.612 124.093 146.131 123.564 145.843 123.13C144.113 120.514 143.232 117.528 141.486 114.783C141.262 114.542 141.134 114.285 140.573 114.381C140.301 114.462 140.188 114.67 140.108 114.831C139.948 115.377 140.06 115.537 140.06 116.003C140.204 117.592 140.621 119.695 140.477 121.172C140.461 121.284 140.429 121.38 140.413 121.413C140.381 121.461 140.477 121.332 140.557 121.348C140.637 121.348 140.557 121.316 140.557 121.332C140.204 120.979 140.06 120.337 139.948 119.711C139.58 117.56 139.788 115.312 140.252 113.177C138.827 107.19 135.19 101.844 132.547 96.4341V96.4019Z" fill="#1E110D"/>
<path d="M87.9504 4.25723C87.9504 4.25723 146.42 88.1022 146.804 96.0966C147.189 104.091 135.03 100.897 135.03 100.897C135.03 100.897 68.8558 6.21572 69.7688 -2.87029C70.6819 -11.9563 72.1396 -14.284 72.1396 -14.284" fill="#F1AC1D"/>
<path d="M87.9025 4.28917C103.921 28.3366 124.153 57.6013 139.355 81.9859C141.886 86.4004 144.994 90.7829 146.5 95.663C147.445 101.988 139.307 101.843 135.078 100.639C129.44 92.0993 122.407 82.018 116.368 72.8998C107.317 59.4795 97.4177 44.4699 88.6073 30.7767C85.5637 26.0731 82.5681 21.3375 79.6527 16.5537C76.2086 10.5338 72.1238 4.65838 70.0573 -1.98758C69.801 -3.25576 70.2495 -4.81291 70.3136 -6.09715C70.698 -8.85827 71.0505 -11.6836 72.1558 -14.236C70.7782 -12.0849 70.4738 -8.79406 69.9452 -6.14531L69.6568 -4.05841C69.1602 -1.93941 70.1534 0.211711 70.9704 2.12202C73.2931 7.25899 76.1125 12.1231 78.9318 16.9711C84.6025 26.6511 90.6257 36.1384 96.777 45.5134C109.048 64.2954 121.831 82.7404 134.774 101.057C137.257 101.843 140.124 101.988 142.735 101.474C150.072 99.5639 145.987 92.8056 143.584 88.4873C126.797 59.3992 107.446 31.2904 87.8704 4.27312L87.9025 4.28917Z" fill="#1E110D"/>
</g>
<defs>
<clipPath id="clip0_14_6">
<rect width="357" height="238" fill="white" transform="translate(516 44)"/>
</clipPath>
<clipPath id="clip1_14_6">
<rect width="303" height="307" fill="white" transform="translate(385)"/>
</clipPath>
<clipPath id="clip2_14_6">
<rect width="368" height="324" fill="white" transform="translate(27)"/>
</clipPath>
</defs>
</svg>
