<svg width="11" height="26" viewBox="0 0 11 26" fill="none" xmlns="http://www.w3.org/2000/svg">
<path d="M2.2011 24.7489C3.09556 24.0231 5.58798 21.8861 6.86434 19.7793C7.04524 19.4768 7.25629 19.1543 7.45729 18.8115C8.67335 16.8559 10.3417 14.1645 9.99995 13.0556C9.93965 12.8742 9.8291 12.7532 9.6482 12.6827C9.59795 12.6625 9.53765 12.6423 9.4673 12.6423C8.14069 12.6423 5.29653 16.4124 3.81917 18.7914C3.74881 18.9023 3.62821 18.9627 3.50761 18.9627C3.46741 18.9627 3.43726 18.9627 3.39706 18.9426C3.23626 18.8922 3.13575 18.741 3.1458 18.5797L3.82921 4.6889C2.77395 9.59805 1.21619 17.3096 1.21619 19.7994C1.21619 22.4506 1.86945 24.0836 2.2011 24.7388V24.7489Z" fill="#F3CCA1"/>
<path d="M3.23644 9.33574C2.39223 13.5393 1.57817 18.0351 1.57817 19.8093C1.57817 21.9362 2.01033 23.3777 2.33193 24.164C3.39724 23.2668 5.44745 21.4121 6.55296 19.5875C6.73386 19.2851 6.94492 18.9524 7.15597 18.6198C8.20117 16.9364 9.95994 14.1139 9.65843 13.1663C9.63833 13.0957 9.60818 13.0554 9.46748 13.005C8.47252 13.005 5.91981 16.1098 4.13089 18.9827C3.99019 19.2045 3.75904 19.3254 3.51784 19.3254C3.44749 19.3254 3.36708 19.3153 3.29673 19.2952C2.98518 19.1944 2.77413 18.892 2.78418 18.5593L3.23644 9.31559M4.40224 0.354126L3.50778 18.5996C3.50778 18.5996 7.44741 12.2792 9.46748 12.2792C9.57803 12.2792 9.68858 12.2994 9.79913 12.3397C11.6785 13.1461 8.79413 17.2993 7.17606 19.9605C5.558 22.6217 2.10077 25.293 2.10077 25.293C2.10077 25.293 0.844516 23.5289 0.854567 19.7992C0.854567 15.9888 4.41229 0.354126 4.41229 0.354126H4.40224Z" fill="#1E110D"/>
</svg>
