<svg width="271" height="144" viewBox="0 0 271 144" fill="none" xmlns="http://www.w3.org/2000/svg">
<g opacity="0.3" clip-path="url(#clip0_0_901)">
<path d="M256.505 145.055C252.041 141.087 248.014 137.717 244.294 134.043C243.526 133.283 243.307 130.787 243.949 130.121C244.862 129.131 246.755 128.937 248.262 128.691C248.856 128.593 249.686 129.179 250.249 129.658C253.686 132.557 257.149 135.448 260.486 138.458C262.196 139.995 263.071 142.173 261.168 143.841C260.044 144.842 257.911 144.737 256.496 145.073L256.505 145.055Z" fill="#CABAA8"/>
<path d="M158.138 78.9958C155.801 77.8593 153.365 76.8795 151.153 75.5312C149.449 74.4976 148.56 72.6771 149.664 70.7339C150.714 68.9012 152.593 68.313 154.488 69.2347C158.666 71.266 162.816 73.3525 166.832 75.6693C168.664 76.7198 170.021 78.5626 168.765 80.8186C167.553 82.9825 165.513 83.06 163.425 82.113C161.558 81.2733 159.745 80.3233 157.905 79.4284L158.128 78.9684L158.138 78.9958Z" fill="#CABAA8"/>
<path d="M209.362 100.787C211.762 102.637 215.056 105.126 218.26 107.708C219.867 108.99 220.674 110.793 219.514 112.664C218.183 114.793 215.886 114.836 214.043 113.621C210.613 111.362 207.4 108.753 204.178 106.207C202.488 104.863 201.216 103.174 202.426 100.873C203.403 99.0046 205.616 98.8521 209.343 100.778L209.362 100.787Z" fill="#CABAA8"/>
<path d="M34.7869 36.1466C34.2904 35.1088 32.9375 33.5863 33.1809 32.4305C33.4513 31.2195 35.4079 29.395 36.4249 29.5028C41.3727 30.043 46.3061 30.9403 51.1063 32.2051C52.1343 32.4775 53.4332 34.9066 53.1987 36.044C52.9552 37.1997 51.013 38.6671 49.7145 38.7638C47.5841 38.9338 45.3694 38.1071 43.1777 37.7012C40.6284 37.2352 38.0881 36.7507 34.7685 36.1376L34.7869 36.1466Z" fill="#CABAA8"/>
<path d="M91.7704 50.7731C91.4714 50.2181 90.12 48.8329 90.3466 47.8054C90.6522 46.475 92.1318 44.5552 93.2652 44.4237C98.2377 43.8838 102.825 45.7275 107.052 48.17C107.872 48.6369 108.58 50.6424 108.242 51.4789C107.779 52.6188 106.362 53.6137 105.104 54.0943C104.202 54.452 102.925 53.9445 101.851 53.6726C98.7942 52.8461 95.7366 51.9281 91.7614 50.7915L91.7704 50.7731Z" fill="#CABAA8"/>
<path d="M17.3078 32.0382C16.442 32.3681 15.007 33.354 13.5523 33.3975C10.4138 33.4413 7.24295 33.0371 4.10986 32.7422C1.91123 32.5377 0.752271 31.1778 0.75588 29.0179C0.761004 26.9954 2.22984 25.7529 3.95052 25.7705C7.81312 25.8285 11.7324 26.0506 15.5017 26.7686C17.666 27.184 18.3765 29.3725 17.3078 32.0382Z" fill="#CABAA8"/>
<path d="M128.229 65.5438C125.954 64.2328 124.088 63.5305 122.83 62.2814C121.978 61.4123 121.343 59.4426 121.753 58.4588C122.181 57.4383 124.309 56.1519 125.163 56.4536C129.325 57.9542 133.418 59.7851 137.303 61.902C138.077 62.3236 138.507 64.8081 137.996 65.7655C137.458 66.7781 135.528 67.7511 134.364 67.5718C132.027 67.2315 129.8 66.103 128.21 65.5349L128.229 65.5438Z" fill="#CABAA8"/>
<path d="M73.4761 40.8077C71.1927 44.521 68.3738 43.6735 65.9776 42.9862C63.1592 42.1845 59.1327 43.0251 58.3258 38.742C57.9849 36.8697 59.19 34.9528 60.9401 35.144C64.7425 35.5596 68.5143 36.5063 72.1513 37.6833C72.9595 37.9398 73.1657 40.0424 73.4672 40.8261L73.4761 40.8077Z" fill="#CABAA8"/>
<path d="M187.651 88.0686C189.387 89.4588 191.506 90.7623 193.018 92.5668C193.769 93.4554 194.088 95.8404 193.464 96.5153C192.551 97.5046 190.3 98.344 189.214 97.8618C186.548 96.7015 184.075 94.9077 181.803 93.0292C180.362 91.828 180.507 89.9869 181.735 88.4908C183.433 86.4496 185.439 87.5165 187.633 88.0596L187.651 88.0686Z" fill="#CABAA8"/>
<path d="M230.61 115.58C232.292 117.035 234.1 118.369 235.628 120C236.916 121.376 237.065 123.315 235.568 124.475C234.615 125.218 232.707 125.587 231.613 125.169C229.756 124.448 228.211 122.946 226.533 121.766C224.633 120.432 223.579 118.623 224.965 116.521C226.342 114.437 228.431 114.68 230.629 115.589L230.61 115.58Z" fill="#CABAA8"/>
</g>
<defs>
<clipPath id="clip0_0_901">
<rect width="285.039" height="33.2307" fill="white" transform="translate(14.0083 0.922852) rotate(25.9325)"/>
</clipPath>
</defs>
</svg>
