<svg width="40" height="40" viewBox="0 0 40 40" fill="none" xmlns="http://www.w3.org/2000/svg">
<g clip-path="url(#clip0_0_542)">
<path d="M33.242 31.8746C33.1337 30.9818 33.0254 30.1199 32.9171 29.2887C32.7006 27.6264 32.5149 26.0719 32.3293 24.6096C31.958 21.7006 31.6332 19.1917 31.3547 17.0215C31.2155 15.9441 31.0763 14.959 30.968 14.0355C30.9061 13.5737 30.8442 13.1428 30.7978 12.7272C30.7359 12.327 30.7205 11.9422 30.705 11.5574C30.6586 10.7878 30.6276 10.0798 30.4111 9.40254C30.1945 8.69452 29.6531 8.18659 29.1271 7.97111C28.6011 7.72484 28.0287 7.74023 27.642 7.81719C27.2398 7.89415 26.9304 7.97111 26.652 8.03268C26.095 8.15581 25.7083 8.26355 25.4453 8.34051C25.2752 8.38669 25.1669 8.43286 25.074 8.46365C25.074 8.40208 25.0431 8.32512 25.0276 8.26355C24.9194 7.92493 24.7492 7.63249 24.5481 7.417C24.347 7.20152 24.0685 7.09378 23.8674 7.09378C23.4652 7.09378 23.2641 7.17074 23.2641 7.18613C23.2641 7.2323 23.4961 7.21691 23.821 7.29387C23.9912 7.34005 24.1613 7.4324 24.3006 7.6171C24.4398 7.8018 24.5636 8.06346 24.6254 8.37129C24.6873 8.66374 24.7182 9.01775 24.6718 9.37176C24.6254 9.72577 24.5171 10.0952 24.2387 10.2491C23.9448 10.4338 23.4961 10.5108 23.0475 10.5415C22.5834 10.5723 22.1039 10.5723 21.5779 10.5723C21.3149 10.5723 21.021 10.6031 20.7735 10.6185C20.5105 10.6493 20.2475 10.6647 19.9845 10.6955C19.4586 10.7416 18.9171 10.7878 18.3912 10.8494C17.3238 10.9571 16.2409 11.0495 15.189 11.1572C14.663 11.2034 14.1525 11.265 13.642 11.3111C13.41 11.3419 13.2089 11.3419 13.0542 11.3111C12.8995 11.2803 12.8221 11.2188 12.7448 11.111C12.5746 10.8802 12.5127 10.4646 12.4508 10.0336C12.4199 9.81812 12.389 9.61803 12.3735 9.43333C12.358 9.24863 12.3735 9.14088 12.3735 9.14088C12.3735 9.14088 12.4044 9.1101 12.5127 9.06393C12.621 9.03314 12.7602 8.98697 12.9149 8.97157C13.2398 8.9254 13.5492 8.87922 13.8586 8.83305C14.4774 8.7407 15.0497 8.64835 15.5757 8.57139C16.6431 8.41747 17.5713 8.29434 18.3602 8.1712C19.9381 7.94033 21.0055 7.8018 21.7481 7.69406C23.1868 7.46318 23.2486 7.35544 23.2332 7.21691C23.2332 7.09378 23.1713 6.98603 22.2276 6.98603C22.274 6.90908 22.305 6.75516 22.2431 6.43193C22.1812 6.15488 22.0265 5.69312 21.5315 5.21598C21.052 4.73883 20.2011 4.32325 19.0718 4.27708C18.4685 4.2463 17.6796 4.32325 16.9061 4.58491C16.1326 4.83118 15.3746 5.26215 14.7868 5.80087C14.5083 6.07792 14.2608 6.37036 14.0752 6.66281C13.905 6.97064 13.7967 7.24769 13.7503 7.50935C13.7194 7.63249 13.7194 7.75562 13.7039 7.84797C13.3945 7.89415 13.0696 7.94032 12.7448 7.9865C12.5591 8.01728 12.3735 8.06346 12.1724 8.12503C11.9713 8.20199 11.6774 8.34051 11.4917 8.64835C11.3061 8.98697 11.337 9.2948 11.3525 9.52568C11.368 9.75656 11.4144 9.97204 11.4453 10.1875C11.4453 10.2337 11.4608 10.2953 11.4763 10.3414C11.2133 10.3722 10.8575 10.403 10.3934 10.4184C9.88289 10.4492 9.26411 10.48 8.53703 10.5877C8.18123 10.6493 7.77902 10.7262 7.37681 10.8802C6.99007 11.0341 6.52598 11.2803 6.30941 11.7883C6.263 11.9114 6.21659 12.0499 6.21659 12.1731C6.21659 12.3116 6.20112 12.4501 6.21659 12.5579C6.23206 12.8041 6.263 13.035 6.27847 13.2813C6.32488 13.7738 6.37129 14.2817 6.4177 14.8205C6.51051 15.8825 6.6188 17.0215 6.71162 18.2066C6.92819 20.5924 7.16024 23.2244 7.42322 25.9795C7.73261 28.7346 7.98013 31.5975 8.44422 34.5219C8.47516 34.7066 8.50609 34.8914 8.56797 35.0914L8.59891 35.2454L8.66079 35.4301C8.7072 35.5686 8.76908 35.6302 8.83096 35.7225C9.07847 36.0919 9.44974 36.4151 9.86742 36.5691C10.7182 36.8769 11.5227 36.7691 12.2497 36.7076C13.7194 36.5691 15.158 36.4151 16.5967 36.2612C22.3205 35.6302 27.6729 35.0453 31.8652 34.4604L32.2365 34.3988C32.3757 34.368 32.5149 34.3372 32.6696 34.2757C32.747 34.2449 32.8398 34.1987 32.9171 34.1525C33.01 34.091 33.1028 34.014 33.1801 33.9217C33.3194 33.7524 33.3812 33.4753 33.3812 33.306C33.3812 32.9828 33.3348 32.7519 33.3039 32.5364C33.3039 32.3209 33.2729 32.1054 33.242 31.8746ZM14.168 7.60171C14.2608 7.40161 14.4155 7.18613 14.5857 6.95525C14.7868 6.73977 15.0033 6.50889 15.2818 6.30879C15.8387 5.90861 16.5194 5.60077 17.2155 5.43146C17.8961 5.24676 18.5613 5.21598 19.0564 5.24676C19.9691 5.29294 20.5724 5.58538 20.9437 5.87782C21.3149 6.17027 21.4851 6.46271 21.6089 6.66281C21.7017 6.81672 21.7636 6.90907 21.8254 6.97064C21.7945 6.97064 21.7481 6.97064 21.7171 6.97064C20.9746 7.00143 19.8917 7.06299 18.2829 7.24769C17.4785 7.34004 16.5503 7.44779 15.4674 7.58631C15.0343 7.64788 14.5702 7.70945 14.0752 7.78641C14.0906 7.72484 14.1216 7.66327 14.1525 7.60171H14.168ZM32.3912 33.3214C32.3912 33.3214 32.3602 33.3368 32.3138 33.3522C32.2519 33.383 32.1591 33.3983 32.0663 33.4291L31.726 33.4907C27.5956 34.0602 22.2122 34.6913 16.5194 35.3685C15.0961 35.5378 13.642 35.6917 12.2033 35.861C11.4917 35.938 10.7647 35.9996 10.2232 35.7995C9.94477 35.7071 9.74366 35.5224 9.5735 35.2915C9.54256 35.23 9.48068 35.153 9.48068 35.1068L9.44974 35.0299L9.4188 34.9067C9.37239 34.7528 9.34145 34.5681 9.31051 34.3988C8.83096 31.5513 8.52156 28.6577 8.16576 25.9179C7.87184 23.1782 7.57792 20.5462 7.31493 18.1759C7.17571 16.9907 7.05195 15.8517 6.92819 14.7897C6.86632 14.2664 6.80444 13.743 6.75803 13.2659C6.72709 13.0196 6.69615 12.7887 6.68068 12.5425C6.66521 12.4193 6.68068 12.327 6.68068 12.2346C6.68068 12.1269 6.71162 12.0499 6.74256 11.9576C6.86632 11.6036 7.22212 11.3727 7.57792 11.2188C7.93372 11.0495 8.30499 10.9725 8.64532 10.8955C9.34145 10.757 9.96024 10.6955 10.4707 10.6339C10.9194 10.5877 11.2906 10.5261 11.5381 10.4646C11.6 10.834 11.6774 11.265 11.9713 11.7113C12.1724 11.9884 12.5282 12.2192 12.8531 12.2808C13.1779 12.3578 13.5028 12.327 13.7658 12.2808C14.2763 12.2192 14.7868 12.1577 15.3127 12.0961C16.3647 11.9576 17.4321 11.8344 18.5149 11.6959C19.0564 11.6344 19.5823 11.5574 20.1083 11.4958C20.6343 11.4343 21.1448 11.3419 21.6243 11.3111C22.1194 11.2803 22.6299 11.265 23.1249 11.2034C23.6199 11.1418 24.1304 11.0495 24.579 10.7416C24.8111 10.5877 24.9658 10.3261 25.0431 10.1106C25.1205 9.87969 25.1669 9.66421 25.1669 9.44872C25.1669 9.20245 25.1669 8.97157 25.1205 8.75609C25.2133 8.75609 25.3216 8.75609 25.4917 8.75609C25.7702 8.7407 26.1569 8.69452 26.7293 8.61756C27.0077 8.57139 27.3326 8.54061 27.7194 8.47904C28.0752 8.43286 28.4464 8.44825 28.8177 8.64835C29.189 8.84844 29.5293 9.17167 29.6685 9.6796C29.8232 10.2029 29.8542 10.8802 29.8696 11.6344C29.8696 12.0038 29.8851 12.4347 29.947 12.8657C29.9934 13.2813 30.0398 13.7122 30.1017 14.174C30.21 15.0821 30.3182 16.0826 30.442 17.16C30.705 19.3149 30.9989 21.8391 31.3547 24.7482C31.5403 26.2104 31.726 27.765 31.9271 29.4427C32.0354 30.2738 32.1437 31.1358 32.2519 32.0285C32.2829 32.2594 32.3138 32.4748 32.3448 32.7057C32.3757 32.9366 32.4221 33.1675 32.4066 33.306V33.3522L32.3912 33.3214Z" fill="#C33F34" stroke="#C33F34" stroke-width="0.3" stroke-miterlimit="10"/>
<path d="M28.5392 13.4506C28.632 13.4198 28.5083 12.8349 28.137 12.2038C27.7658 11.5728 27.3171 11.1726 27.2553 11.2341C27.1779 11.2957 27.4873 11.7882 27.8431 12.3885C28.1989 12.9888 28.4619 13.4967 28.5547 13.4659L28.5392 13.4506Z" fill="#C33F34" stroke="#C33F34" stroke-width="0.3" stroke-miterlimit="10"/>
<path d="M14.8022 16.3442C14.8022 16.2518 13.5182 16.3134 11.9558 16.4981C10.3934 16.6828 9.14031 16.8983 9.15578 16.9906C9.17125 17.083 10.4398 17.0214 12.0022 16.8367C13.5492 16.652 14.8177 16.4365 14.8022 16.3442Z" fill="#C33F34" stroke="#C33F34" stroke-width="0.3" stroke-miterlimit="10"/>
<path d="M18.9172 16.1749C20.0464 16.0518 20.9437 15.8671 20.9282 15.7747C20.9127 15.6824 20 15.6977 18.8707 15.8363C17.7415 15.9594 16.8442 16.1441 16.8597 16.2365C16.8752 16.3288 17.7879 16.298 18.9172 16.1749Z" fill="#C33F34" stroke="#C33F34" stroke-width="0.3" stroke-miterlimit="10"/>
<path d="M25.5691 15.2822C26.7293 15.1437 27.6575 14.959 27.642 14.8666C27.6266 14.7743 26.6829 14.8051 25.5227 14.9282C24.3625 15.0513 23.4343 15.2514 23.4498 15.3438C23.4652 15.4361 24.4089 15.4053 25.5691 15.2822Z" fill="#C33F34" stroke="#C33F34" stroke-width="0.3" stroke-miterlimit="10"/>
<path d="M23.2332 29.7658C23.2332 29.6581 23.2177 29.5504 23.2023 29.4272C23.2023 29.1348 23.1713 28.7962 23.0476 28.4421C22.9857 28.2574 22.8619 28.1035 22.7227 28.0112C22.5835 27.9188 22.4288 27.8573 22.2277 27.8265C21.9802 27.7957 21.7791 27.8265 21.5625 27.8265L20.6807 27.9034C20.7271 27.6726 20.6807 27.0877 20.4796 25.5793C20.3404 24.5788 20.2476 23.9939 20.1702 23.6399C20.2321 23.6245 20.3094 23.5937 20.3713 23.5629C21.0365 23.2243 21.315 22.5625 21.3614 22.0699C21.4542 22.0699 21.5625 22.0699 21.7017 22.0699H21.9028C22.1503 22.0392 22.4752 22.0084 22.8155 21.8083C23.0321 21.6851 23.2023 21.4697 23.2796 21.2542C23.357 21.0541 23.4034 20.8386 23.4343 20.5462C23.4653 20.069 23.4343 19.5919 23.3106 19.0531C23.2487 18.7299 23.1559 18.4683 23.0476 18.222C22.8774 17.868 22.6608 17.6063 22.3978 17.437C22.073 17.2061 21.6244 17.2215 21.315 17.2677L16.5349 17.791C16.2255 17.8218 15.8542 17.8834 15.5293 18.0527C15.1735 18.2374 14.8951 18.5914 14.8332 18.9608C14.7404 19.4687 14.8023 19.9305 14.8487 20.3307C14.8487 20.4538 14.8796 20.5769 14.8951 20.6847L14.926 20.9309C14.9724 21.3465 15.0188 21.7929 15.2199 22.1777C15.3592 22.4701 15.684 22.6394 15.9161 22.6702C16.0398 22.701 16.1636 22.701 16.2719 22.701C16.3802 22.701 16.473 22.701 16.5503 22.701C16.7978 22.6702 17.0144 22.6702 17.2001 22.6548H17.4166C17.4166 22.6548 17.6951 22.6394 17.9426 22.5779C18.0199 22.701 18.0973 22.8395 18.2056 22.9473C18.484 23.2705 18.8244 23.5014 19.1956 23.6091C19.3349 23.6553 19.4741 23.6707 19.6133 23.6861C19.6133 24.0247 19.6443 24.5018 19.6752 24.8866C19.505 24.7789 18.9327 24.7481 16.8443 24.979C16.1172 25.0559 15.452 25.1637 14.9415 25.256C14.1525 25.3946 13.9978 25.4715 14.0288 25.6716C14.0288 25.7794 14.0597 25.8871 14.694 25.8871C15.1117 25.8871 15.8078 25.8409 16.9371 25.7024C17.6641 25.6254 18.3293 25.5177 18.8398 25.4254C19.3813 25.333 19.6288 25.256 19.7216 25.1637C19.7525 25.4407 19.7835 25.6254 19.7835 25.6254C19.7835 25.6408 20.031 27.4263 20.294 27.888L18.9172 27.9958C18.5614 28.042 18.1592 28.1343 17.8962 28.5037C17.7724 28.673 17.6951 28.9039 17.7106 29.1348C17.7106 29.3195 17.7415 29.4734 17.7724 29.6427C17.8498 29.9505 17.8807 30.2122 17.8962 30.4585C17.9271 30.6432 17.9426 30.8279 17.9581 31.0126C18.0045 31.382 18.0354 31.7206 18.1128 32.09C18.1746 32.3363 18.2675 32.6595 18.515 32.9365C18.778 33.1982 19.1183 33.2906 19.3503 33.3213C19.4586 33.3213 19.5514 33.3213 19.6443 33.3213C19.8918 33.3213 20.1238 33.2906 20.3404 33.2598C20.4641 33.2598 20.5724 33.229 20.6807 33.2136C21.5315 33.1366 22.1503 33.0597 22.568 32.9058C22.8001 32.8134 22.9857 32.6903 23.0785 32.5671C23.1249 32.5056 23.1713 32.4286 23.1868 32.367C23.2951 32.1977 23.326 31.8745 23.2951 31.5975L23.2023 29.7658H23.2332ZM21.3769 21.6082C21.3304 21.2696 21.2222 20.9925 21.1139 20.8078C21.052 20.7001 20.9592 20.5615 20.8509 20.4692C20.789 20.3153 20.6498 20.1767 20.5879 20.1152C20.4796 20.0074 20.0465 19.638 19.3813 19.6842C18.8708 19.715 18.2056 20.069 17.8653 20.7616C17.6951 21.1156 17.6332 21.5158 17.6951 21.8852C17.6951 21.9776 17.726 22.0699 17.757 22.1469C17.6641 22.1469 17.5559 22.1469 17.4321 22.1469H17.3083C17.0918 22.1469 16.8288 22.1161 16.5349 22.1469C16.21 22.1469 15.8851 22.1469 15.7923 21.9006C15.6531 21.6236 15.6222 21.2388 15.5912 20.8386V20.6385C15.5603 20.5154 15.5603 20.4076 15.5448 20.2845C15.4984 19.8997 15.452 19.4841 15.5448 19.1301C15.5912 18.9454 15.6995 18.7915 15.8851 18.6991C16.0862 18.5914 16.3338 18.5452 16.6586 18.5144L21.4233 17.9911C21.7172 17.9449 21.9028 17.9449 22.0575 18.0373C22.4133 18.2528 22.5835 18.7761 22.6918 19.1917C22.8001 19.6534 22.8465 20.1152 22.831 20.5154C22.831 20.7924 22.7691 21.1772 22.5371 21.3157C22.3205 21.4543 22.073 21.5004 21.8564 21.5312H21.81C21.6398 21.562 21.5006 21.5928 21.3923 21.6082H21.3769ZM18.515 21.0695C18.7161 20.6077 19.1338 20.3615 19.4586 20.3153C19.5205 20.3153 19.5669 20.3153 19.6288 20.3153C19.9227 20.3153 20.1548 20.4384 20.2785 20.5308C20.3713 20.5923 20.4332 20.6539 20.4796 20.6847C20.4796 20.6847 20.5106 20.7155 20.5415 20.7309C20.5415 20.7616 20.5724 20.7924 20.5724 20.8232C20.6034 20.8848 20.6343 20.9463 20.6652 21.0387C20.7735 21.3465 20.8199 21.6544 20.7735 21.9622C20.7271 22.2854 20.526 22.7472 20.0929 22.9473C19.7061 23.132 19.1492 22.9473 18.778 22.5163C18.5923 22.2854 18.4686 22.0392 18.4222 21.7929C18.3912 21.562 18.4222 21.3157 18.5304 21.0849L18.515 21.0695ZM18.4686 29.535C18.4376 29.3349 18.3912 29.0732 18.4686 28.9501C18.515 28.8731 18.6387 28.7808 18.9791 28.75L21.4387 28.5345C21.6398 28.5191 21.81 28.4883 21.9647 28.4883C22.1967 28.4883 22.3514 28.5345 22.3978 28.673C22.4907 28.9193 22.5061 29.1963 22.5371 29.4734C22.5371 29.6119 22.568 29.7351 22.5835 29.8428L22.6299 30.3507C22.6763 30.9048 22.7227 31.3358 22.7846 31.6898C22.8465 31.9669 22.831 32.1362 22.831 32.2285C22.7691 32.2901 22.6608 32.3978 22.4133 32.4594C22.0266 32.5671 21.3769 32.6133 20.6343 32.6441C20.4951 32.6441 20.3713 32.6595 20.2321 32.6749C19.9536 32.7057 19.6907 32.7364 19.4122 32.6749C19.273 32.6595 19.1028 32.6133 18.9791 32.4748C18.8862 32.367 18.8089 32.1977 18.7625 31.9669C18.7161 31.6744 18.6851 31.3358 18.6387 30.9972C18.6233 30.7971 18.5923 30.597 18.5769 30.3969C18.5459 30.0891 18.4995 29.7658 18.4531 29.5196L18.4686 29.535Z" fill="#C33F34" stroke="#C33F34" stroke-width="0.3" stroke-miterlimit="10"/>
<path d="M12.157 27.5494C12.4509 27.5494 12.7139 27.4725 12.8995 27.3955C13.4719 27.1492 13.9205 26.6259 13.9978 26.0718C14.1061 25.4869 13.8586 25.0713 13.7349 24.9174C13.673 24.8405 13.5647 24.7019 13.4409 24.6404C13.3945 24.5788 13.3172 24.4865 13.178 24.3633C12.8531 24.1171 12.4973 23.9785 12.0951 23.9631C11.8785 23.9631 11.5536 23.9939 11.2597 24.194C11.0277 24.3479 10.842 24.548 10.6255 24.8713C10.2387 25.5023 10.3315 26.395 10.842 26.9491C11.105 27.2416 11.4608 27.4571 11.8321 27.5186C11.9404 27.5494 12.0487 27.5494 12.1415 27.5494H12.157ZM13.3945 25.9487C13.3172 26.2873 13.0233 26.6105 12.6365 26.749C12.4045 26.826 12.1879 26.8568 11.9868 26.8106C11.7702 26.7644 11.5691 26.6413 11.3989 26.4566C11.0896 26.118 11.0277 25.5947 11.2443 25.2099C11.3835 24.979 11.5227 24.8251 11.6465 24.7173C11.7702 24.625 11.9249 24.5788 12.0951 24.5634H12.1415C12.4509 24.5634 12.7139 24.6865 12.8686 24.7635C12.9768 24.8405 13.0697 24.902 13.147 24.9328C13.147 24.9482 13.178 24.979 13.178 24.9944C13.2089 25.0406 13.2398 25.1021 13.2862 25.1791C13.3791 25.3484 13.4564 25.6254 13.3791 25.9487H13.3945Z" fill="#C33F34" stroke="#C33F34" stroke-width="0.3" stroke-miterlimit="10"/>
<path d="M26.7911 25.8101C26.8994 25.8255 27.0077 25.8409 27.1005 25.8409C27.3944 25.8409 27.6574 25.764 27.843 25.687C28.4154 25.4407 28.864 24.9174 28.9414 24.3633C29.0497 23.7784 28.8022 23.3628 28.6784 23.2089C28.6165 23.132 28.5082 22.9934 28.3845 22.9319C28.3381 22.8703 28.2607 22.778 28.1215 22.6548C27.7966 22.4086 27.4408 22.27 27.0386 22.2546C26.8221 22.2546 26.4972 22.2854 26.2033 22.4855C25.9712 22.6394 25.7856 22.8395 25.569 23.1628C25.3834 23.4706 25.306 23.84 25.337 24.2094C25.2287 24.2094 25.0895 24.2094 24.9193 24.2094C24.4861 24.2094 23.9292 24.271 23.3259 24.3479C20.9127 24.625 20.9436 24.8251 20.9591 24.979C20.9745 25.1483 21.1292 25.1945 21.516 25.1945C21.6088 25.1945 21.7016 25.1945 21.8099 25.1945C22.243 25.1945 22.8 25.1329 23.4033 25.0559C24.548 24.9174 25.1513 24.8097 25.4453 24.7173C25.5226 24.9174 25.6309 25.0867 25.7701 25.256C26.0331 25.5485 26.3734 25.764 26.7447 25.8255L26.7911 25.8101ZM28.3381 24.2556C28.2607 24.5942 27.9668 24.9174 27.5801 25.0559C27.348 25.1329 27.1314 25.1637 26.9303 25.1175C26.7138 25.0713 26.4972 24.9482 26.3425 24.7635C26.0331 24.4249 25.9712 23.9016 26.1878 23.5168C26.327 23.2859 26.4663 23.132 26.59 23.0242C26.7138 22.9319 26.8685 22.8857 27.0386 22.8703H27.085C27.3944 22.8703 27.6574 22.9934 27.8276 23.0704C27.9359 23.1474 28.0287 23.1935 28.106 23.2397C28.106 23.2551 28.137 23.2859 28.137 23.3013C28.1679 23.3475 28.1988 23.409 28.2453 23.486C28.3226 23.6553 28.4154 23.9323 28.3226 24.2556H28.3381Z" fill="#C33F34" stroke="#C33F34" stroke-width="0.3" stroke-miterlimit="10"/>
<path d="M29.1116 30.6124C29.1116 30.6124 29.1734 30.7355 29.2817 30.9356C29.39 31.1357 29.4828 31.4589 29.3746 31.8283C29.2817 32.1977 28.9878 32.5825 28.5083 32.7672C28.2762 32.8442 28.0132 32.8904 27.7502 32.8442C27.4873 32.798 27.2397 32.6441 27.0541 32.444C26.6674 32.013 26.6364 31.3974 26.8839 30.9818C27.0077 30.7663 27.1624 30.5662 27.3326 30.4431C27.5027 30.3199 27.7038 30.2584 27.8895 30.243C28.2762 30.243 28.5856 30.3661 28.7712 30.4739C28.9723 30.597 29.0806 30.6586 29.0961 30.6432C29.0961 30.6432 29.0342 30.52 28.8486 30.3661C28.663 30.2122 28.3381 30.0275 27.874 29.9967C27.642 29.9967 27.379 30.0429 27.1469 30.1968C26.9149 30.3507 26.7447 30.5662 26.5746 30.8279C26.2497 31.3512 26.2806 32.1516 26.7757 32.6903C27.0077 32.9519 27.3326 33.1366 27.6574 33.1982C27.9978 33.2598 28.3226 33.1982 28.6011 33.0905C29.158 32.8596 29.5292 32.3516 29.5911 31.9053C29.6685 31.4435 29.5138 31.0895 29.3591 30.8894C29.2044 30.6893 29.0961 30.6278 29.0806 30.6432L29.1116 30.6124Z" fill="#C33F34" stroke="#C33F34" stroke-width="0.3" stroke-miterlimit="10"/>
<path d="M11.1049 31.3051C11.1049 31.3051 11.1823 31.5667 11.4607 31.8899C11.7392 32.1978 12.2342 32.5672 12.8375 32.7981C13.4563 33.0289 14.0596 33.0751 14.4773 33.0289C14.895 32.9828 15.1425 32.875 15.127 32.8288C15.127 32.7211 14.0906 32.9058 12.9613 32.4748C11.8165 32.0593 11.1823 31.2435 11.0895 31.3204L11.1049 31.3051Z" fill="#C33F34" stroke="#C33F34" stroke-width="0.3" stroke-miterlimit="10"/>
<path d="M12.2807 33.2752C11.7083 33.1213 11.2751 32.8904 11.2133 32.9828C11.1514 33.0597 11.5381 33.4445 12.1878 33.6292C12.8376 33.8139 13.3635 33.6754 13.3635 33.583C13.3635 33.4753 12.8685 33.4445 12.2961 33.2906L12.2807 33.2752Z" fill="#C33F34" stroke="#C33F34" stroke-width="0.3" stroke-miterlimit="10"/>
<path d="M9.40333 9.187C10.3624 8.92534 11.1205 8.64829 11.0895 8.55594C11.0586 8.46359 10.2696 8.58672 9.31052 8.84838C8.3514 9.11004 7.59339 9.3871 7.62433 9.47945C7.65527 9.5718 8.44422 9.44866 9.40333 9.187Z" fill="#C33F34" stroke="#C33F34" stroke-width="0.3" stroke-miterlimit="10"/>
<path d="M33.3502 24.5173C33.0408 22.9473 32.7005 21.7006 32.5922 21.716C32.4839 21.7314 32.685 23.0243 32.9944 24.5942C33.3038 26.1642 33.6442 27.4109 33.7525 27.3955C33.8607 27.3801 33.6751 26.0872 33.3502 24.5173Z" fill="#C33F34" stroke="#C33F34" stroke-width="0.3" stroke-miterlimit="10"/>
</g>
<defs>
<clipPath id="clip0_0_542">
<rect width="28" height="33" fill="white" transform="translate(6 4)"/>
</clipPath>
</defs>
</svg>
