<svg width="40" height="40" viewBox="0 0 40 40" fill="none" xmlns="http://www.w3.org/2000/svg">
<path d="M33.0182 28.4909C33.0424 29.9758 33.0061 31.1879 33.1212 31.2C33.2364 31.2121 33.4667 30 33.4424 28.4848C33.4182 26.9697 33.1515 25.7636 33.0364 25.7818C32.9212 25.8 33 27.0061 33.0182 28.4909Z" fill="#C33F34"/>
<path d="M34.4727 27.6303C34.3515 27.6424 34.3393 28.3818 34.2242 29.2667C34.1151 30.1515 33.9393 30.8667 34.0545 30.9091C34.1575 30.9515 34.5272 30.2606 34.6484 29.3151C34.7696 28.3818 34.5878 27.6182 34.4727 27.6303Z" fill="#C33F34"/>
<path d="M7.98174 22.7879C7.9272 22.7818 7.82417 23.0485 7.79993 23.5091C7.76962 23.9636 7.84841 24.6121 8.12114 25.2667C8.39993 25.9152 8.80599 26.4242 9.1575 26.7212C9.50296 27.0242 9.76962 27.1333 9.79993 27.0909C9.87871 26.9939 9.01205 26.3091 8.51508 25.103C7.9878 23.897 8.10296 22.8 7.98174 22.7879Z" fill="#C33F34"/>
<path d="M6.55144 23.3273C6.44841 23.303 6.28478 24.903 7.0969 26.6424C7.88478 28.3939 9.19993 29.3151 9.25447 29.2242C9.34538 29.1333 8.22417 28.1212 7.48478 26.4667C6.71508 24.8303 6.67871 23.3212 6.55144 23.3273Z" fill="#C33F34"/>
<path d="M25.1454 33.5818C25.0788 33.5879 25.0727 33.8424 24.9636 34.2667C24.8545 34.6788 24.606 35.2727 24.0363 35.7455C23.4909 36.2182 22.5818 36.5212 21.6727 36.2606C20.7697 36.0242 19.9454 35.1697 19.8485 34.097C19.7333 33.0242 20.3818 32.0242 21.2182 31.6242C22.0606 31.1939 23.006 31.3151 23.6363 31.6727C24.2848 32.0303 24.6485 32.5636 24.8303 32.9455C25.0182 33.3394 25.0788 33.5879 25.1454 33.5818C25.1939 33.5818 25.2545 33.3151 25.1454 32.8364C25.0363 32.3697 24.7091 31.6788 23.9515 31.1636C23.2242 30.6485 22.0121 30.3939 20.8788 30.9151C20.3212 31.1636 19.806 31.6 19.4606 32.1818C19.103 32.7515 18.9394 33.4667 19.006 34.1818C19.0788 34.8909 19.3818 35.5636 19.8424 36.0545C20.2909 36.5515 20.8848 36.8848 21.4788 37.0182C22.6909 37.3091 23.8303 36.8303 24.4424 36.1818C25.0788 35.5333 25.2727 34.7879 25.2848 34.3091C25.303 33.8242 25.1939 33.5758 25.1454 33.5818Z" fill="#C33F34"/>
<path d="M36.7151 7.85454C36.5879 7.83636 36.4727 8.18182 36.1515 8.59394C35.8424 9.00606 35.2909 9.49697 34.5697 9.64848C33.8485 9.79394 33.1454 9.5697 32.703 9.31515C32.2485 9.0606 32 8.8 31.8909 8.8606C31.8 8.90909 31.8667 9.32727 32.3333 9.78788C32.7212 10.1818 33.4667 10.5697 34.3394 10.5273C34.3394 10.7758 34.3818 11.1939 34.4485 11.7212C34.5394 12.5818 34.6788 13.7818 34.2182 14.9212C33.9939 15.4848 33.6485 15.9515 33.2485 16.2545C32.8545 16.5636 32.3879 16.7091 31.9757 16.8061C31.3515 16.9394 30.8727 17.0061 30.6788 17.0848C30.6545 16.8303 30.6363 16.5758 30.6121 16.3091C30.4485 14.497 30.297 12.4788 29.7091 10.3576C29.4121 9.30303 29 8.22424 28.3394 7.22424C27.697 6.21212 26.7576 5.34545 25.6727 4.71515C24.9818 4.30909 24.2242 3.98788 23.4303 3.75757C23.7333 3.52727 24.1212 3.14545 24.4909 2.65454C25.1697 1.75757 25.503 0.884847 25.3091 0.763635C25.1091 0.636362 24.4727 1.27879 23.8121 2.14545C23.3757 2.72727 23.0363 3.27273 22.9151 3.61818C22.6303 3.55151 22.3454 3.49091 22.0606 3.44848C21.4121 3.35757 20.7394 3.30909 20.0667 3.36363C19.3939 3.41818 18.7333 3.53939 18.0788 3.71515C17.3697 3.90909 16.6667 4.17576 16 4.52727C15.7636 4.32121 15.3939 4.07273 14.9697 3.81818C14.2182 3.3697 13.5636 3.04242 13.406 3.21818C13.2485 3.38788 13.7091 4.04848 14.5333 4.54545C14.8121 4.70909 15.0788 4.8303 15.3273 4.90909C15 5.12121 14.6788 5.34545 14.3818 5.60606C13.297 6.53333 12.4424 7.73939 11.8788 9.07273C11.303 10.4 10.9879 11.7939 10.8182 13.1636C10.6545 14.5333 10.6121 15.8909 10.6485 17.2182C10.6667 17.6909 10.6909 18.1515 10.7151 18.6182C10.5212 18.6606 10.297 18.6909 10.0363 18.697C9.22423 18.7212 8.03029 18.3758 7.18786 17.4667C6.33938 16.5333 5.98786 15.3576 5.81211 14.5091C5.63635 13.6485 5.58786 13.0848 5.46665 13.0788C5.35756 13.0727 5.18786 13.6364 5.21817 14.5818C5.24847 15.503 5.52726 16.903 6.56362 18.0424C7.63029 19.1939 9.13332 19.4909 10.097 19.297C10.3454 19.2485 10.5576 19.1758 10.7394 19.097C10.8485 21.0667 11.0121 22.9636 11.1818 24.8C11.297 26.0061 11.4363 27.1758 11.5879 28.3152C11.6303 28.6 11.6667 28.8788 11.7091 29.1636L11.7757 29.6L11.8363 29.9818L11.8667 30.1697C11.8788 30.2303 11.8667 30.3212 11.9515 30.2848C12.606 30.2182 13.2545 30.1576 13.8909 30.0909C15.7151 29.903 17.4242 29.7273 19.0121 29.5636C18.8909 29.6545 18.7697 29.7394 18.6545 29.8364C18.2545 30.1879 17.897 30.6121 17.6182 31.0909C17.0363 32.0364 16.7636 33.2182 16.8667 34.3939C16.9879 35.5697 17.4848 36.6727 18.2424 37.4909C18.6121 37.9091 19.0424 38.2545 19.503 38.5212C19.9636 38.7939 20.4485 38.9939 20.9454 39.1091C21.9333 39.3636 22.9273 39.2788 23.7879 39.0242C24.6485 38.7636 25.3636 38.2909 25.903 37.7636C26.9939 36.6909 27.3454 35.4485 27.4121 34.6364C27.4727 33.8121 27.3273 33.3697 27.2848 33.3758C27.2121 33.3818 27.2424 33.8303 27.0848 34.5879C26.9273 35.3333 26.5151 36.4242 25.497 37.3212C24.9939 37.7576 24.3515 38.1455 23.5939 38.3455C22.8424 38.5394 21.9818 38.5879 21.1454 38.3455C20.7212 38.2364 20.3091 38.0606 19.9273 37.8182C19.5394 37.5879 19.1757 37.2848 18.8667 36.9333C18.2303 36.2364 17.8242 35.303 17.7151 34.3091C17.6303 33.3152 17.8485 32.3212 18.3333 31.5152C18.5697 31.103 18.8667 30.7455 19.2 30.4364C19.5333 30.1273 19.903 29.8727 20.297 29.6848C20.6424 29.5091 21.006 29.3939 21.3697 29.3151C21.703 29.2788 22.0363 29.2424 22.3576 29.2121C22.4727 29.2121 22.5879 29.2061 22.703 29.2121C23.4848 29.2606 24.1879 29.5152 24.7697 29.8485C25.9394 30.5333 26.5636 31.5212 26.8606 32.2242C27.1636 32.9394 27.2182 33.3818 27.2909 33.3758C27.3333 33.3758 27.3939 32.9151 27.1697 32.1152C26.9515 31.3333 26.3636 30.1818 25.0848 29.3394C24.8909 29.2121 24.6727 29.097 24.4485 28.9879C26 28.8182 27.3394 28.6667 28.4121 28.5394C29.4242 28.4182 30.2121 28.3212 30.7454 28.2424C31.2788 28.1636 31.5576 28.1091 31.5515 28.0788C31.5515 28.0485 31.2667 28.0485 30.7273 28.0727C30.1879 28.097 29.4 28.1455 28.3818 28.2121C26.9091 28.3151 20.5273 28.7636 20.3212 28.8364C20.1333 28.8545 19.9576 28.8667 19.7697 28.8848C17.9515 29.0364 15.9636 29.2061 13.8242 29.3879C13.3939 29.4242 12.9515 29.4606 12.5091 29.503C12.497 29.4909 12.503 29.4667 12.497 29.4485L12.4424 29.0545C12.406 28.7758 12.3697 28.497 12.3333 28.2182C12.1939 27.0909 12.0727 25.9273 11.9697 24.7273C11.7636 22.3394 11.5757 19.8061 11.4909 17.2061C11.4788 16.4424 11.4909 15.6667 11.5333 14.8909C12.2606 15.0242 16.1515 14.8 20.8363 14.3394C24.897 13.9394 28.3394 13.4909 29.6303 13.2C29.806 14.297 29.9212 15.3636 30.0303 16.3758C30.4303 20.0061 30.8 22.9333 31.0606 24.9576C31.1939 25.9697 31.303 26.7515 31.3879 27.2848C31.4727 27.8182 31.5273 28.0909 31.5576 28.0909C31.5879 28.0848 31.5879 27.8061 31.5576 27.2667C31.5273 26.7273 31.4727 25.9394 31.3879 24.9212C31.2242 23.0727 30.9939 20.4606 30.7091 17.2667C30.9091 17.3515 31.3818 17.4303 32.0727 17.4061C32.5394 17.3758 33.1333 17.2788 33.7091 16.903C34.2788 16.5394 34.7454 15.9333 35.0182 15.2424C35.297 14.5515 35.3697 13.8242 35.3333 13.2061C35.297 12.5818 35.1757 12.0424 35.0485 11.6061C34.897 11.097 34.7454 10.7212 34.6242 10.497C34.6667 10.4909 34.7091 10.4909 34.7576 10.4788C35.8 10.2545 36.4606 9.48485 36.6909 8.89091C36.9212 8.27273 36.8182 7.8606 36.7151 7.85454ZM20.7394 13.4909C16.103 13.9455 12.2788 14.4727 11.5273 14.7455C11.6303 12.9333 11.9212 11.1091 12.6545 9.41212C13.1757 8.17576 13.9515 7.09091 14.9273 6.25454C15.897 5.40606 17.0788 4.8606 18.2909 4.52727C20.7151 3.78788 23.2848 4.25454 25.2848 5.4C26.2848 5.97576 27.1333 6.73939 27.7212 7.64848C28.3333 8.55151 28.7394 9.56363 29.0363 10.5636C29.2667 11.3515 29.4363 12.1394 29.5697 12.9091C28.2303 12.8727 24.7818 13.0909 20.7394 13.4909Z" fill="#C33F34"/>
<path d="M6.55146 12.7636C6.99388 12.5455 7.27267 12.2364 7.46661 11.9758C7.84236 11.4424 7.94539 11.0667 7.86055 11C7.76358 10.9273 7.46661 11.1939 7.03024 11.5697C6.58782 11.9455 5.96964 12.303 5.25449 12.0424C4.52721 11.8061 4.07873 11.1758 3.81206 10.6788C3.54539 10.1758 3.41206 9.81212 3.29085 9.8303C3.18176 9.84849 3.10297 10.2424 3.25449 10.8909C3.33327 11.2121 3.48479 11.5879 3.75752 11.9636C4.0363 12.3333 4.46055 12.6788 4.98782 12.8545C5.50903 13.0303 6.11509 12.9879 6.55146 12.7636Z" fill="#C33F34"/>
<path d="M25.9696 18.0848C25.5999 17.8242 25.1333 17.7454 24.709 17.7636C23.9454 17.8 23.1333 17.8364 22.2787 17.8727C21.4181 17.9151 20.509 17.9697 19.5696 18.0909C19.0969 18.1454 18.6181 18.2303 18.1333 18.3273C17.8909 18.3758 17.6484 18.4364 17.406 18.497C17.1454 18.5636 16.8606 18.6606 16.5878 18.8606C16.309 19.0606 16.109 19.4182 16.0545 19.7212C15.9939 20.0303 15.9999 20.3091 16.0181 20.5636C16.0484 21.0182 16.0484 21.497 16.0787 21.9818C16.1151 22.4667 16.1636 22.9697 16.3939 23.4667C16.503 23.7151 16.6787 23.9394 16.8848 24.1333C17.103 24.3091 17.3393 24.4485 17.5878 24.5212C18.5393 24.7939 19.3696 24.7273 20.1454 24.6909C20.9212 24.6364 21.6302 24.5394 22.2727 24.4545C22.9151 24.3697 23.4909 24.297 23.9939 24.2545C24.4969 24.2303 24.9818 24.1697 25.3393 24.0424C25.703 23.9212 25.9636 23.7394 26.0969 23.5879C26.2363 23.4364 26.2666 23.3273 26.2424 23.3151C26.1878 23.2727 25.9393 23.6061 25.2545 23.7273C24.909 23.7939 24.503 23.8 23.9757 23.7879C23.4484 23.7818 22.8545 23.8182 22.2121 23.8667C21.5636 23.9151 20.8605 23.9697 20.109 24C19.3757 24.0182 18.5393 24.0242 17.8424 23.7939C17.509 23.6848 17.2727 23.4667 17.1333 23.1454C16.9878 22.8182 16.9333 22.3939 16.909 21.9515C16.8848 21.503 16.8909 21.0303 16.8605 20.5212C16.8424 20.297 16.8484 20.0848 16.8848 19.9151C16.9212 19.7454 16.9878 19.6424 17.103 19.5515C17.2302 19.4606 17.4121 19.3818 17.6242 19.3273C17.8545 19.2727 18.0848 19.2121 18.3151 19.1636C18.7757 19.0667 19.2302 18.9879 19.6848 18.9273C20.5939 18.8 21.4787 18.7273 22.3333 18.6667C23.1878 18.6 23.9999 18.5394 24.7575 18.4788C25.0909 18.4545 25.3878 18.503 25.606 18.6364C25.8242 18.7758 25.9818 19.0061 26.0666 19.2788C26.2484 19.8242 26.2666 20.4182 26.2848 20.9212C26.2969 21.4303 26.303 21.8788 26.3272 22.2485C26.4363 22.9576 26.1818 23.2788 26.2363 23.3212C26.2545 23.3394 26.3515 23.2788 26.4606 23.103C26.5757 22.9333 26.6484 22.6061 26.6545 22.2485C26.6787 21.8848 26.7151 21.4424 26.7515 20.9333C26.7696 20.4121 26.8181 19.8061 26.6302 19.103C26.5454 18.7394 26.3393 18.3454 25.9696 18.0848Z" fill="#C33F34"/>
<path d="M20.7453 10.2788C19.2181 10.4364 17.9696 10.6061 17.9635 10.8424C17.9575 11.0727 19.2484 11.2849 20.8302 11.1212C22.412 10.9636 23.6362 10.497 23.5817 10.2727C23.5332 10.0424 22.2726 10.1273 20.7453 10.2788Z" fill="#C33F34"/>
<path d="M18.5696 8.63636C18.606 8.2606 18.4666 8.00606 18.3454 7.87272C18.2181 7.73939 18.109 7.71515 18.0666 7.75151C17.9696 7.81818 18.1393 8.15757 17.9817 8.50909C17.909 8.67272 17.7696 8.78181 17.5151 8.8303C17.2605 8.88485 16.9151 8.84848 16.7878 8.72727C16.7211 8.67272 16.7029 8.61818 16.6969 8.53939C16.6908 8.4606 16.7332 8.35151 16.806 8.24848C16.9454 8.0303 17.1757 7.84848 17.3393 7.78182C17.6787 7.61818 17.9817 7.84242 18.0666 7.76363C18.109 7.72727 18.1029 7.61818 17.9878 7.47272C17.8726 7.32727 17.5878 7.15757 17.2181 7.2C16.8484 7.24848 16.5029 7.4303 16.1938 7.76969C16.0423 7.94545 15.8969 8.18182 15.8726 8.49697C15.8423 8.80606 15.9817 9.16969 16.2363 9.37575C16.4847 9.58788 16.7757 9.66666 17.0302 9.67878C17.2847 9.69697 17.509 9.6606 17.7332 9.58788C17.9514 9.51515 18.1635 9.38788 18.3151 9.21818C18.4726 9.0303 18.5514 8.81818 18.5696 8.63636Z" fill="#C33F34"/>
<path d="M22.0181 9.17576C22.2727 9.19394 22.4969 9.15757 22.7212 9.08485C22.9393 9.01212 23.1515 8.88485 23.303 8.71515C23.4545 8.53939 23.5333 8.33333 23.5575 8.15151C23.5939 7.77575 23.4545 7.52121 23.3333 7.38788C23.206 7.25454 23.0969 7.2303 23.0545 7.26666C22.9575 7.33333 23.1272 7.67272 22.9696 8.02424C22.8969 8.18788 22.7575 8.29697 22.503 8.34545C22.2484 8.4 21.903 8.36363 21.7757 8.24242C21.709 8.18788 21.6908 8.13333 21.6848 8.05454C21.6787 7.97575 21.7211 7.86666 21.7939 7.76363C21.9333 7.54545 22.1636 7.36363 22.3272 7.29697C22.6666 7.13333 22.9696 7.35757 23.0545 7.27879C23.0969 7.24242 23.0908 7.13333 22.9757 6.98788C22.8605 6.84242 22.5757 6.67272 22.206 6.71515C21.8363 6.76363 21.4908 6.94545 21.1818 7.28485C21.0302 7.4606 20.8848 7.69697 20.8605 8.01212C20.8302 8.32121 20.9696 8.68485 21.2242 8.89091C21.4787 9.08485 21.7696 9.15757 22.0181 9.17576Z" fill="#C33F34"/>
</svg>
