<svg width="40" height="40" viewBox="0 0 40 40" fill="none" xmlns="http://www.w3.org/2000/svg">
<g clip-path="url(#clip0_0_835)">
<path d="M20 0C25.3043 0 30.3914 2.10714 34.1421 5.85786C37.8929 9.60859 40 14.6957 40 20C40 25.3043 37.8929 30.3914 34.1421 34.1421C30.3914 37.8929 25.3043 40 20 40C14.6957 40 9.60859 37.8929 5.85786 34.1421C2.10714 30.3914 0 25.3043 0 20C0 14.6957 2.10714 9.60859 5.85786 5.85786C9.60859 2.10714 14.6957 0 20 0ZM20 2.5C15.3587 2.5 10.9075 4.34374 7.62563 7.62563C4.34374 10.9075 2.5 15.3587 2.5 20C2.5 24.6413 4.34374 29.0925 7.62563 32.3744C10.9075 35.6563 15.3587 37.5 20 37.5C24.6413 37.5 29.0925 35.6563 32.3744 32.3744C35.6563 29.0925 37.5 24.6413 37.5 20C37.5 15.3587 35.6563 10.9075 32.3744 7.62563C29.0925 4.34374 24.6413 2.5 20 2.5ZM29.935 13.355C30.0274 13.6323 30.0198 13.9332 29.9133 14.2054C29.8069 14.4776 29.6085 14.7039 29.3525 14.845L29.145 14.935L22.5 17.15V23.5475L24.935 30.855C25.0274 31.1323 25.0198 31.4332 24.9133 31.7054C24.8069 31.9776 24.6085 32.2039 24.3525 32.345L24.145 32.435C23.8677 32.5274 23.5668 32.5198 23.2946 32.4133C23.0224 32.3069 22.7961 32.1085 22.655 31.8525L22.565 31.645L20.065 24.145L20 23.75L19.935 24.145L17.435 31.645C17.3379 31.9428 17.1324 32.1933 16.8594 32.3469C16.5863 32.5004 16.2656 32.5459 15.9606 32.4742C15.6557 32.4025 15.3887 32.2189 15.2127 31.9598C15.0366 31.7007 14.9643 31.3849 15.01 31.075L15.065 30.855L17.5 23.54V17.15L10.855 14.935C10.5572 14.8379 10.3067 14.6324 10.1531 14.3594C9.99957 14.0863 9.95413 13.7656 10.0258 13.4606C10.0975 13.1557 10.2811 12.8887 10.5402 12.7127C10.7993 12.5366 11.1151 12.4643 11.425 12.51L11.645 12.565L18.9575 15H21.04L28.355 12.565C28.6693 12.4605 29.0122 12.485 29.3085 12.6331C29.6047 12.7812 29.83 13.0409 29.935 13.355ZM20 7.5C20.663 7.5 21.2989 7.76339 21.7678 8.23223C22.2366 8.70107 22.5 9.33696 22.5 10C22.5 10.663 22.2366 11.2989 21.7678 11.7678C21.2989 12.2366 20.663 12.5 20 12.5C19.337 12.5 18.7011 12.2366 18.2322 11.7678C17.7634 11.2989 17.5 10.663 17.5 10C17.5 9.33696 17.7634 8.70107 18.2322 8.23223C18.7011 7.76339 19.337 7.5 20 7.5Z" fill="#1E110D"/>
</g>
<defs>
<clipPath id="clip0_0_835">
<rect width="40" height="40" fill="white"/>
</clipPath>
</defs>
</svg>
