<svg width="32" height="33" viewBox="0 0 32 33" fill="none" xmlns="http://www.w3.org/2000/svg">
<path d="M29.2863 14.8563L23.6613 19.71L25.375 26.9688C25.4696 27.3628 25.4452 27.776 25.305 28.1562C25.1649 28.5364 24.9151 28.8666 24.5874 29.1049C24.2597 29.3433 23.8687 29.4792 23.4638 29.4954C23.0589 29.5117 22.6583 29.4076 22.3125 29.1963L16 25.3113L9.68376 29.1963C9.33805 29.4064 8.93789 29.5095 8.53369 29.4926C8.12948 29.4758 7.7393 29.3397 7.41227 29.1016C7.08524 28.8634 6.83598 28.5338 6.69589 28.1543C6.55581 27.7748 6.53114 27.3623 6.62501 26.9688L8.34501 19.71L2.72001 14.8563C2.41414 14.5919 2.19292 14.2433 2.08399 13.8539C1.97506 13.4646 1.98325 13.0518 2.10753 12.6671C2.23181 12.2824 2.46668 11.9428 2.7828 11.6908C3.09892 11.4388 3.48228 11.2854 3.88501 11.25L11.26 10.655L14.105 3.77C14.259 3.39477 14.5211 3.07381 14.858 2.84793C15.1949 2.62204 15.5913 2.50143 15.9969 2.50143C16.4025 2.50143 16.7989 2.62204 17.1358 2.84793C17.4727 3.07381 17.7348 3.39477 17.8888 3.77L20.7325 10.655L28.1075 11.25C28.511 11.2841 28.8955 11.4366 29.2128 11.6883C29.5301 11.9399 29.766 12.2796 29.8911 12.6648C30.0161 13.05 30.0247 13.4635 29.9158 13.8536C29.8069 14.2436 29.5853 14.5928 29.2788 14.8575L29.2863 14.8563Z" fill="#F1AC1D"/>
</svg>
