<svg width="40" height="40" viewBox="0 0 40 40" fill="none" xmlns="http://www.w3.org/2000/svg">
<path d="M20 14C18.4087 14 16.8826 14.6321 15.7574 15.7574C14.6321 16.8826 14 18.4087 14 20C14 21.5913 14.6321 23.1174 15.7574 24.2426C16.8826 25.3679 18.4087 26 20 26C21.5913 26 23.1174 25.3679 24.2426 24.2426C25.3679 23.1174 26 21.5913 26 20C26 18.4087 25.3679 16.8826 24.2426 15.7574C23.1174 14.6321 21.5913 14 20 14Z" fill="#1E110D"/>
<path fill-rule="evenodd" clip-rule="evenodd" d="M13.2 3C10.4948 3 7.90038 4.07464 5.98751 5.98751C4.07464 7.90038 3 10.4948 3 13.2L3 26.8C3 29.5052 4.07464 32.0996 5.98751 34.0125C7.90038 35.9254 10.4948 37 13.2 37H26.8C29.5052 37 32.0996 35.9254 34.0125 34.0125C35.9254 32.0996 37 29.5052 37 26.8V13.2C37 10.4948 35.9254 7.90038 34.0125 5.98751C32.0996 4.07464 29.5052 3 26.8 3L13.2 3ZM12.0667 20C12.0667 17.8959 12.9025 15.8781 14.3903 14.3903C15.8781 12.9025 17.8959 12.0667 20 12.0667C22.1041 12.0667 24.1219 12.9025 25.6097 14.3903C27.0975 15.8781 27.9333 17.8959 27.9333 20C27.9333 22.1041 27.0975 24.1219 25.6097 25.6097C24.1219 27.0975 22.1041 27.9333 20 27.9333C17.8959 27.9333 15.8781 27.0975 14.3903 25.6097C12.9025 24.1219 12.0667 22.1041 12.0667 20ZM27.9333 12.0667H30.2V9.8H27.9333V12.0667Z" fill="#1E110D"/>
</svg>
