<svg width="40" height="40" viewBox="0 0 40 40" fill="none" xmlns="http://www.w3.org/2000/svg">
<path d="M20 14C18.4087 14 16.8826 14.6321 15.7574 15.7574C14.6321 16.8826 14 18.4087 14 20C14 21.5913 14.6321 23.1174 15.7574 24.2426C16.8826 25.3679 18.4087 26 20 26C21.5913 26 23.1174 25.3679 24.2426 24.2426C25.3679 23.1174 26 21.5913 26 20C26 18.4087 25.3679 16.8826 24.2426 15.7574C23.1174 14.6321 21.5913 14 20 14Z" fill="#1E110D"/>
<path d="M20 36C28.8366 36 36 28.8366 36 20C36 11.1634 28.8366 4 20 4C11.1634 4 4 11.1634 4 20C4 28.8366 11.1634 36 20 36Z" fill="#1E110D"/>
<path d="M10.144 10.7301L17.7918 20.9557L10.0958 29.2697H11.828L18.566 21.9905L24.0099 29.2697H29.9043L21.826 18.469L28.9895 10.7301H27.2573L21.0521 17.4338L16.0384 10.7301H10.144ZM12.6913 12.0059H15.3991L27.3567 27.9939H24.6488L12.6913 12.0059Z" fill="#FFF5EA"/>
</svg>
