<svg width="207" height="57" viewBox="0 0 207 57" fill="none" xmlns="http://www.w3.org/2000/svg">
<g opacity="0.3" clip-path="url(#clip0_23_930)">
<path d="M8.11519 -5.8418C9.91273 -4.53841 11.5266 -3.44056 13.038 -2.21841C13.3501 -1.96548 13.5233 -1.05029 13.3102 -0.780255C13.0088 -0.380637 12.316 -0.238852 11.7675 -0.0925141C11.5515 -0.0343535 11.2228 -0.220415 10.9967 -0.376765C9.6187 -1.32276 8.23089 -2.26426 6.88556 -3.25495C6.19636 -3.76044 5.79239 -4.5337 6.435 -5.22097C6.81381 -5.63258 7.60685 -5.67253 8.11782 -5.84894L8.11519 -5.8418Z" fill="#F0CBA2"/>
<path d="M46.9371 14.969C47.8435 15.3033 48.7807 15.5759 49.6484 15.9932C50.317 16.3127 50.7131 16.9534 50.3762 17.7129C50.0552 18.4296 49.3819 18.7164 48.6468 18.4453C47.0267 17.8478 45.4146 17.229 43.8437 16.5199C43.127 16.1989 42.5574 15.5672 42.9389 14.6864C43.3074 13.8412 44.0591 13.7374 44.8663 14.0108C45.5879 14.2526 46.2937 14.5372 47.0074 14.8004L46.9416 14.9788L46.9371 14.969Z" fill="#F0CBA2"/>
<path d="M27.1856 8.79586C26.2297 8.20012 24.9193 7.40066 23.6389 6.56364C22.9973 6.1487 22.6324 5.51144 22.9925 4.77675C23.4064 3.94026 24.2543 3.83947 24.9811 4.22101C26.3329 4.93032 27.6178 5.77711 28.9035 6.59986C29.578 7.0351 30.1109 7.61267 29.7481 8.50853C29.4556 9.23574 28.6426 9.37373 27.1927 8.79849L27.1856 8.79586Z" fill="#F0CBA2"/>
<path d="M94.1455 26.2737C94.3674 26.6393 94.924 27.1526 94.8765 27.5892C94.8211 28.0471 94.1646 28.7941 93.7844 28.7917C91.9342 28.7742 90.0762 28.6241 88.2539 28.3332C87.8636 28.2703 87.2936 27.4196 87.3385 26.9902C87.386 26.5537 88.0503 25.9393 88.5271 25.8557C89.3089 25.7143 90.1586 25.9385 90.9843 26.0079C91.9445 26.0863 92.902 26.1719 94.1526 26.2763L94.1455 26.2737Z" fill="#F0CBA2"/>
<path d="M72.5275 22.9633C72.6585 23.1575 73.2095 23.6202 73.1635 24.0086C73.0995 24.512 72.6229 25.2767 72.2085 25.3671C70.389 25.7501 68.6243 25.2371 66.9704 24.4894C66.65 24.3469 66.314 23.6311 66.4084 23.3092C66.5378 22.8705 67.0252 22.4503 67.4727 22.2261C67.7932 22.0606 68.2845 22.2012 68.6917 22.2622C69.8529 22.4553 71.0177 22.6822 72.5301 22.9561L72.5275 22.9633Z" fill="#F0CBA2"/>
<path d="M100.763 27.1491C101.071 26.9952 101.565 26.5776 102.102 26.5079C103.261 26.376 104.449 26.4087 105.619 26.4023C106.44 26.3969 106.919 26.8573 106.997 27.6563C107.069 28.4047 106.572 28.9185 105.935 28.9754C104.504 29.0963 103.046 29.1585 101.625 29.0319C100.809 28.958 100.466 28.1746 100.763 27.1491Z" fill="#F0CBA2"/>
<path d="M58.4968 18.8429C59.3866 19.244 60.1026 19.4351 60.6141 19.8507C60.9611 20.1409 61.2686 20.8461 61.1531 21.2251C61.0324 21.6184 60.2929 22.1727 59.9657 22.0925C58.3708 21.6908 56.7894 21.1644 55.2741 20.5245C54.9725 20.3971 54.7218 19.4939 54.8756 19.1209C55.0373 18.7265 55.7151 18.2954 56.1524 18.3189C57.0296 18.3586 57.895 18.694 58.5039 18.8455L58.4968 18.8429Z" fill="#F0CBA2"/>
<path d="M79.662 25.9752C80.3699 24.5174 81.4438 24.727 82.3555 24.893C83.4276 25.0857 84.8861 24.6263 85.3425 26.181C85.5376 26.861 85.1624 27.6145 84.508 27.6083C83.0861 27.5947 81.656 27.3835 80.2672 27.0821C79.9588 27.017 79.8051 26.2468 79.6646 25.9681L79.662 25.9752Z" fill="#F0CBA2"/>
<path d="M35.6854 12.7007C34.992 12.2504 34.1601 11.8463 33.5344 11.2345C33.2238 10.9335 33.0178 10.063 33.2238 9.79035C33.5252 9.39073 34.327 8.99728 34.7462 9.13566C35.7754 9.46658 36.7561 10.039 37.6658 10.6502C38.2431 11.0414 38.2575 11.7278 37.8584 12.3265C37.3055 13.1441 36.5239 12.8234 35.6925 12.7033L35.6854 12.7007Z" fill="#F0CBA2"/>
<path d="M18.7803 4.10697C18.1047 3.63078 17.3865 3.20379 16.7612 2.657C16.2343 2.19513 16.1075 1.48357 16.6186 0.999119C16.9436 0.689294 17.6361 0.482517 18.056 0.596853C18.7694 0.795057 19.3962 1.29377 20.0606 1.66852C20.8126 2.09176 21.2692 2.72228 20.8339 3.55088C20.4013 4.37233 19.6195 4.35969 18.7732 4.10434L18.7803 4.10697Z" fill="#F0CBA2"/>
</g>
<g opacity="0.3" clip-path="url(#clip1_23_930)">
<path d="M212.582 52.8641C210.693 51.6979 209.002 50.7231 207.404 49.6167C207.074 49.3876 206.833 48.4879 207.025 48.2027C207.296 47.7818 207.976 47.5889 208.513 47.4022C208.724 47.3282 209.065 47.4893 209.302 47.6284C210.747 48.4693 212.201 49.305 213.616 50.1929C214.341 50.6458 214.801 51.3869 214.212 52.12C213.864 52.5587 213.077 52.6575 212.58 52.8714L212.582 52.8641Z" fill="#F0CBA2"/>
<path d="M172.321 34.9971C171.392 34.7312 170.437 34.529 169.541 34.1774C168.85 33.9084 168.408 33.299 168.687 32.5166C168.954 31.778 169.604 31.4419 170.357 31.6576C172.017 32.133 173.671 32.6303 175.29 33.2205C176.029 33.4874 176.644 34.075 176.329 34.9818C176.024 35.852 175.282 36.0114 174.457 35.7988C173.719 35.6113 172.994 35.38 172.263 35.1706L172.315 34.9877L172.321 34.9971Z" fill="#F0CBA2"/>
<path d="M192.476 39.6849C193.474 40.208 194.84 40.9078 196.179 41.6473C196.85 42.0134 197.261 42.6218 196.957 43.3812C196.606 44.2462 195.768 44.4097 195.015 44.0833C193.614 43.4764 192.27 42.7275 190.927 42.0026C190.221 41.6187 189.647 41.0823 189.942 40.162C190.18 39.4151 190.98 39.217 192.469 39.6829L192.476 39.6849Z" fill="#F0CBA2"/>
<path d="M124.402 27.2336C124.154 26.8855 123.561 26.4149 123.576 25.9761C123.597 25.5153 124.196 24.7216 124.575 24.6957C126.422 24.5756 128.286 24.5871 130.125 24.7418C130.518 24.7755 131.15 25.5815 131.137 26.013C131.122 26.4518 130.506 27.1139 130.036 27.2327C129.267 27.4318 128.403 27.2715 127.575 27.2637C126.611 27.2568 125.65 27.2427 124.395 27.2315L124.402 27.2336Z" fill="#F0CBA2"/>
<path d="M146.207 28.9277C146.062 28.7437 145.478 28.3233 145.495 27.9325C145.521 27.4258 145.94 26.6278 146.346 26.5068C148.132 25.9896 149.93 26.37 151.635 26.9927C151.965 27.1109 152.353 27.7997 152.283 28.1278C152.187 28.5749 151.732 29.0302 151.302 29.287C150.995 29.4759 150.495 29.3722 150.084 29.3416C148.912 29.2354 147.733 29.0958 146.205 28.935L146.207 28.9277Z" fill="#F0CBA2"/>
<path d="M117.739 26.8522C117.443 27.0286 116.981 27.4818 116.451 27.5912C115.304 27.8089 114.117 27.8646 112.951 27.958C112.133 28.0244 111.621 27.6009 111.484 26.8099C111.356 26.069 111.814 25.5196 112.445 25.4155C113.863 25.1886 115.312 25.0181 116.739 25.0388C117.558 25.0518 117.959 25.8075 117.739 26.8522Z" fill="#F0CBA2"/>
<path d="M160.505 31.9934C159.588 31.6595 158.86 31.5222 158.319 31.1458C157.951 30.8822 157.592 30.2018 157.679 29.8153C157.77 29.4141 158.466 28.8064 158.798 28.862C160.419 29.144 162.035 29.5514 163.594 30.0769C163.904 30.1815 164.221 31.0636 164.095 31.447C163.964 31.8523 163.32 32.3326 162.882 32.3417C162.004 32.3673 161.116 32.0972 160.498 31.9913L160.505 31.9934Z" fill="#F0CBA2"/>
<path d="M138.868 26.4543C138.27 27.9607 137.184 27.8315 136.262 27.7338C135.179 27.6213 133.759 28.1878 133.188 26.6714C132.943 26.0078 133.261 25.2285 133.914 25.186C135.333 25.0939 136.775 25.1982 138.182 25.3955C138.495 25.4374 138.705 26.194 138.866 26.4616L138.868 26.4543Z" fill="#F0CBA2"/>
<path d="M183.71 36.4227C184.435 36.8202 185.294 37.1613 185.964 37.7249C186.296 38.002 186.566 38.8548 186.381 39.142C186.11 39.5629 185.34 40.0149 184.911 39.9081C183.86 39.6546 182.84 39.1566 181.887 38.6148C181.283 38.2676 181.217 37.5842 181.571 36.9575C182.061 36.101 182.865 36.3627 183.703 36.4206L183.71 36.4227Z" fill="#F0CBA2"/>
<path d="M201.207 43.7357C201.916 44.1603 202.664 44.5327 203.328 45.0315C203.888 45.4529 204.067 46.1531 203.594 46.6742C203.293 47.0073 202.618 47.265 202.19 47.1822C201.464 47.0376 200.802 46.5869 200.112 46.2625C199.33 45.8964 198.828 45.3015 199.2 44.4429C199.571 43.5915 200.351 43.546 201.214 43.7378L201.207 43.7357Z" fill="#F0CBA2"/>
</g>
<defs>
<clipPath id="clip0_23_930">
<rect width="105.962" height="12.3533" fill="white" transform="translate(103.13 38.5376) rotate(-159.757)"/>
</clipPath>
<clipPath id="clip1_23_930">
<rect width="105.962" height="12.3533" fill="white" transform="translate(114.531 15.6714) rotate(15.9794)"/>
</clipPath>
</defs>
</svg>
