<svg width="383" height="178" viewBox="0 0 383 178" fill="none" xmlns="http://www.w3.org/2000/svg">
<g opacity="0.3" clip-path="url(#clip0_0_912)">
<path d="M5.5506 5.14002C8.09532 6.66369 10.3716 7.93537 12.5259 9.38449C12.9709 9.68446 13.3087 10.882 13.0568 11.2663C12.7026 11.8334 11.7973 12.1032 11.0846 12.3623C10.8039 12.465 10.3448 12.2559 10.0256 12.0744C8.08101 10.9771 6.12393 9.88698 4.2176 8.7264C3.24126 8.13455 2.61306 7.15296 3.3876 6.1631C3.84341 5.57097 4.89401 5.42485 5.55326 5.13022L5.5506 5.14002Z" fill="#CABAA8"/>
<path d="M59.6492 28.2815C60.8945 28.62 62.1736 28.8729 63.3771 29.3265C64.3042 29.6733 64.9064 30.4793 64.5472 31.5295C64.204 32.5208 63.3417 32.9813 62.3318 32.7068C60.106 32.1017 57.8881 31.4672 55.7148 30.7078C54.7235 30.3646 53.8914 29.5909 54.2959 28.374C54.6871 27.2062 55.6752 26.98 56.7814 27.2491C57.7699 27.4863 58.7425 27.7822 59.723 28.0488L59.6564 28.2939L59.6492 28.2815Z" fill="#CABAA8"/>
<path d="M32.6429 22.3823C31.301 21.7017 29.4635 20.7915 27.6616 19.8277C26.7594 19.3508 26.199 18.5456 26.5921 17.5258C27.0448 16.3642 28.1613 16.1306 29.1731 16.5531C31.0551 17.3385 32.8641 18.3147 34.6714 19.2588C35.62 19.7589 36.3968 20.465 36.0191 21.6996C35.7151 22.7016 34.6494 22.9805 32.6527 22.385L32.6429 22.3823Z" fill="#CABAA8"/>
<path d="M123.793 37.7904C124.131 38.2509 124.932 38.8688 124.92 39.4552C124.9 40.071 124.114 41.142 123.608 41.1834C121.144 41.377 118.654 41.3951 116.195 41.2215C115.668 41.1836 114.81 40.1184 114.819 39.5418C114.831 38.9554 115.643 38.06 116.268 37.8928C117.292 37.613 118.449 37.8117 119.555 37.8073C120.842 37.7991 122.127 37.8007 123.803 37.7931L123.793 37.7904Z" fill="#CABAA8"/>
<path d="M94.6386 35.9194C94.8357 36.1626 95.6231 36.7136 95.6075 37.2358C95.5813 37.9132 95.0367 38.9866 94.4959 39.1555C92.1197 39.8784 89.7113 39.4027 87.4229 38.6016C86.9799 38.4495 86.4488 37.5365 86.5367 37.097C86.6574 36.4981 87.2567 35.8818 87.8259 35.531C88.233 35.2732 88.9033 35.4027 89.4523 35.4362C91.02 35.557 92.5967 35.7223 94.6412 35.9096L94.6386 35.9194Z" fill="#CABAA8"/>
<path d="M132.701 38.1795C133.093 37.9386 133.702 37.3249 134.408 37.1693C135.935 36.8579 137.519 36.7621 139.075 36.6165C140.167 36.5131 140.858 37.0696 141.056 38.1237C141.24 39.111 140.638 39.853 139.797 40.0034C137.907 40.332 135.975 40.5858 134.069 40.5837C132.975 40.5811 132.426 39.5789 132.701 38.1795Z" fill="#CABAA8"/>
<path d="M75.4854 32.0812C76.7165 32.5107 77.6916 32.681 78.421 33.1741C78.9168 33.5195 79.4086 34.4219 79.2994 34.9398C79.1848 35.4772 78.2658 36.3015 77.821 36.2332C75.6516 35.8856 73.4855 35.3705 71.3942 34.6966C70.9779 34.5624 70.5385 33.3899 70.6994 32.8756C70.8683 32.3318 71.7197 31.6788 72.3044 31.6587C73.4762 31.6087 74.6672 31.9535 75.4952 32.0839L75.4854 32.0812Z" fill="#CABAA8"/>
<path d="M104.485 39.091C105.256 37.0682 106.71 37.2212 107.943 37.3352C109.392 37.4659 111.279 36.6837 112.068 38.6989C112.408 39.581 111.997 40.6276 111.125 40.696C109.232 40.8446 107.304 40.7312 105.421 40.493C105.003 40.4425 104.708 39.4357 104.488 39.0812L104.485 39.091Z" fill="#CABAA8"/>
<path d="M44.411 26.5819C43.4356 26.064 42.2811 25.6238 41.3769 24.8831C40.9283 24.5189 40.5522 23.3847 40.7943 22.9978C41.1485 22.4307 42.1693 21.8131 42.7434 21.9481C44.1517 22.2678 45.5238 22.9146 46.8059 23.6212C47.62 24.0741 47.7196 24.9858 47.2587 25.8292C46.6188 26.982 45.5411 26.6469 44.4208 26.5846L44.411 26.5819Z" fill="#CABAA8"/>
<path d="M20.9086 17.1284C19.9537 16.574 18.948 16.09 18.0518 15.4357C17.2965 14.8828 17.0445 13.9508 17.6677 13.2463C18.0639 12.7959 18.9611 12.4396 19.5333 12.5425C20.5058 12.7226 21.3983 13.3128 22.3264 13.7336C23.3766 14.2086 24.0582 14.9941 23.5761 16.1477C23.0966 17.2915 22.0549 17.3663 20.8988 17.1257L20.9086 17.1284Z" fill="#CABAA8"/>
</g>
<g opacity="0.3" clip-path="url(#clip1_0_912)">
<path d="M371.333 174.752C370.451 171.92 369.601 169.455 368.961 166.939C368.829 166.419 369.375 165.301 369.819 165.182C370.461 164.995 371.316 165.397 372.02 165.679C372.298 165.79 372.501 166.251 372.618 166.6C373.336 168.714 374.069 170.831 374.717 172.966C375.05 174.058 374.865 175.209 373.627 175.431C372.893 175.568 372.012 174.977 371.324 174.757L371.333 174.752Z" fill="#CABAA8"/>
<path d="M346.42 121.446C345.718 120.363 344.933 119.322 344.337 118.182C343.877 117.306 343.966 116.303 344.933 115.76C345.85 115.249 346.8 115.481 347.37 116.358C348.626 118.293 349.856 120.244 350.971 122.259C351.481 123.175 351.586 124.306 350.473 124.944C349.404 125.554 348.516 125.064 347.871 124.126C347.292 123.291 346.764 122.422 346.21 121.57L346.423 121.432L346.42 121.446Z" fill="#CABAA8"/>
<path d="M362.624 143.841C363.171 145.243 363.935 147.146 364.636 149.066C364.991 150.023 364.872 150.996 363.899 151.495C362.787 152.059 361.799 151.489 361.327 150.5C360.447 148.66 359.749 146.727 359.03 144.818C358.656 143.813 358.548 142.769 359.652 142.101C360.547 141.556 361.527 142.058 362.619 143.833L362.624 143.841Z" fill="#CABAA8"/>
<path d="M304.933 71.6092C304.988 71.0406 304.803 70.0462 305.202 69.617C305.628 69.1712 306.928 68.8965 307.333 69.203C309.299 70.7007 311.167 72.3466 312.885 74.1148C313.252 74.494 313.182 75.8601 312.791 76.2838C312.391 76.713 311.189 76.8395 310.612 76.5479C309.662 76.0742 308.932 75.1551 308.104 74.4207C307.139 73.5692 306.183 72.7122 304.928 71.6007L304.933 71.6092Z" fill="#CABAA8"/>
<path d="M325.423 92.4333C325.438 92.1207 325.218 91.1851 325.578 90.8061C326.049 90.3186 327.17 89.8812 327.686 90.1157C329.94 91.1603 331.418 93.12 332.59 95.2423C332.819 95.6509 332.607 96.6855 332.249 96.9546C331.759 97.3207 330.902 97.3809 330.244 97.263C329.768 97.184 329.355 96.6407 328.968 96.2499C327.88 95.1151 326.814 93.941 325.415 92.4389L325.423 92.4333Z" fill="#CABAA8"/>
<path d="M298.551 65.3825C298.098 65.301 297.235 65.3526 296.606 64.9983C295.259 64.2127 294.014 63.2281 292.757 62.2998C291.874 61.6494 291.73 60.774 292.285 59.8562C292.805 58.9972 293.748 58.8451 294.476 59.2935C296.104 60.3081 297.714 61.4069 299.133 62.6782C299.948 63.4095 299.689 64.5225 298.551 65.3825Z" fill="#CABAA8"/>
<path d="M337.146 108.059C336.514 106.918 335.9 106.142 335.685 105.288C335.546 104.7 335.78 103.699 336.207 103.386C336.651 103.062 337.885 103.06 338.171 103.407C339.557 105.112 340.829 106.939 341.939 108.835C342.16 109.213 341.706 110.38 341.243 110.656C340.755 110.949 339.685 110.869 339.236 110.494C338.329 109.75 337.671 108.699 337.14 108.05L337.146 108.059Z" fill="#CABAA8"/>
<path d="M320.195 83.5064C318.273 84.5007 317.291 83.4179 316.448 82.5115C315.454 81.4482 313.526 80.7739 314.281 78.7453C314.615 77.8615 315.619 77.355 316.315 77.8848C317.825 79.036 319.187 80.4053 320.433 81.838C320.711 82.1542 320.26 83.1013 320.187 83.512L320.195 83.5064Z" fill="#CABAA8"/>
<path d="M356.649 132.868C357.031 133.904 357.599 135.002 357.779 136.156C357.871 136.727 357.395 137.823 356.957 137.95C356.315 138.137 355.142 137.917 354.804 137.434C353.967 136.257 353.375 134.86 352.89 133.479C352.585 132.599 353.118 131.853 354.024 131.531C355.27 131.098 355.85 132.066 356.643 132.859L356.649 132.868Z" fill="#CABAA8"/>
<path d="M367.872 155.579C368.214 156.628 368.642 157.659 368.874 158.745C369.068 159.66 368.635 160.523 367.701 160.633C367.105 160.705 366.199 160.372 365.841 159.914C365.236 159.132 364.964 158.097 364.552 157.165C364.086 156.111 364.101 155.071 365.229 154.532C366.349 153.999 367.176 154.637 367.877 155.587L367.872 155.579Z" fill="#CABAA8"/>
</g>
<g opacity="0.3" clip-path="url(#clip2_0_912)">
<path d="M284.51 59.289C281.859 57.9588 279.494 56.8598 277.238 55.5749C276.772 55.3088 276.346 54.1398 276.569 53.7378C276.88 53.1459 277.763 52.8095 278.454 52.4982C278.727 52.3749 279.2 52.5492 279.532 52.7066C281.553 53.6562 283.585 54.5978 285.573 55.6135C286.59 56.1311 287.29 57.0633 286.591 58.108C286.18 58.7324 285.144 58.9562 284.508 59.299L284.51 59.289Z" fill="#CABAA8"/>
<path d="M228.841 40.2335C227.574 39.9885 226.279 39.8313 225.045 39.4685C224.095 39.1916 223.435 38.4325 223.715 37.3586C223.983 36.3445 224.809 35.8212 225.836 36.0199C228.101 36.4578 230.36 36.9257 232.584 37.5213C233.598 37.7899 234.485 38.4997 234.172 39.7432C233.869 40.9368 232.9 41.2359 231.777 41.0498C230.774 40.8868 229.782 40.6639 228.784 40.471L228.833 40.2216L228.841 40.2335Z" fill="#CABAA8"/>
<path d="M256.211 44.1085C257.6 44.6875 259.5 45.4586 261.368 46.2857C262.303 46.6943 262.922 47.4556 262.606 48.5018C262.241 49.6939 261.145 50.0097 260.104 49.6636C258.169 49.0203 256.293 48.1813 254.42 47.3742C253.437 46.946 252.61 46.2996 252.895 45.0403C253.123 44.0186 254.165 43.6612 256.201 44.1066L256.211 44.1085Z" fill="#CABAA8"/>
<path d="M164.167 35.5198C163.796 35.0858 162.951 34.5292 162.92 33.9435C162.894 33.3279 163.598 32.2014 164.1 32.1225C166.543 31.7462 169.024 31.5431 171.489 31.5334C172.018 31.532 172.953 32.5304 172.986 33.1061C173.018 33.6918 172.275 34.6452 171.664 34.8583C170.664 35.2134 169.495 35.1013 168.392 35.188C167.109 35.2918 165.828 35.3857 164.157 35.5179L164.167 35.5198Z" fill="#CABAA8"/>
<path d="M193.38 35.2181C193.166 34.9903 192.339 34.4994 192.316 33.9774C192.292 33.3 192.755 32.189 193.282 31.9804C195.598 31.0828 198.035 31.3782 200.377 32.007C200.83 32.1256 201.427 32.9967 201.372 33.4414C201.296 34.0477 200.744 34.7069 200.203 35.0989C199.816 35.3864 199.138 35.307 198.588 35.3145C197.016 35.3105 195.431 35.2628 193.378 35.2281L193.38 35.2181Z" fill="#CABAA8"/>
<path d="M155.255 35.7938C154.882 36.0632 154.32 36.7204 153.628 36.9281C152.128 37.3521 150.555 37.5654 149.015 37.8263C147.934 38.0106 147.203 37.507 146.927 36.4705C146.67 35.4997 147.215 34.715 148.043 34.5025C149.903 34.0343 151.812 33.6375 153.712 33.4979C154.804 33.4192 155.426 34.3778 155.255 35.7938Z" fill="#CABAA8"/>
<path d="M212.766 37.6216C211.506 37.2849 210.521 37.1875 209.757 36.75C209.237 36.4424 208.679 35.5791 208.75 35.0545C208.824 34.51 209.679 33.6198 210.128 33.6548C212.317 33.8401 214.516 34.1928 216.651 34.7093C217.076 34.8122 217.602 35.9487 217.479 36.4736C217.351 37.0285 216.551 37.743 215.969 37.8065C214.804 37.9434 213.591 37.6881 212.756 37.6197L212.766 37.6216Z" fill="#CABAA8"/>
<path d="M183.325 32.7872C182.706 34.8617 181.245 34.8172 180.008 34.7951C178.553 34.7725 176.729 35.6929 175.792 33.7419C175.388 32.8875 175.72 31.8133 176.584 31.6802C178.461 31.3913 180.392 31.361 182.288 31.4586C182.709 31.4778 183.078 32.4599 183.323 32.7971L183.325 32.7872Z" fill="#CABAA8"/>
<path d="M244.163 40.7956C245.174 41.2395 246.358 41.5927 247.315 42.2641C247.789 42.5939 248.249 43.697 248.036 44.1009C247.725 44.6928 246.753 45.3845 246.171 45.2925C244.742 45.0784 243.326 44.5354 241.995 43.9261C241.149 43.535 240.982 42.6333 241.379 41.7579C241.932 40.5607 243.031 40.8147 244.153 40.7936L244.163 40.7956Z" fill="#CABAA8"/>
<path d="M268.303 48.4756C269.297 48.9575 270.336 49.3654 271.278 49.9513C272.072 50.4464 272.393 51.3571 271.824 52.106C271.462 52.5846 270.594 53.0066 270.016 52.9466C269.032 52.8392 268.098 52.3171 267.142 51.9665C266.059 51.5708 265.321 50.8382 265.716 49.6519C266.109 48.4756 267.142 48.3236 268.313 48.4775L268.303 48.4756Z" fill="#CABAA8"/>
</g>
<defs>
<clipPath id="clip0_0_912">
<rect width="141.546" height="16.5019" fill="white" transform="translate(137.186 53.0563) rotate(-164.791)"/>
</clipPath>
<clipPath id="clip1_0_912">
<rect width="141.546" height="16.5019" fill="white" transform="translate(305.122 51.3019) rotate(57.0001)"/>
</clipPath>
<clipPath id="clip2_0_912">
<rect width="141.546" height="16.5019" fill="white" transform="translate(149.677 21.2916) rotate(10.945)"/>
</clipPath>
</defs>
</svg>
