<svg width="333" height="330" viewBox="0 0 333 330" fill="none" xmlns="http://www.w3.org/2000/svg">
<rect width="333" height="330" rx="24" fill="#F0CBA2"/>
<g clip-path="url(#clip0_23_411)">
<path d="M31.3446 176.23C31.3446 176.23 46.9344 239.065 44.352 260.619C41.7697 282.173 33.2848 291.253 35.3206 309.18C37.3701 327.107 52.2084 340.364 47.4536 354.747C42.6988 369.13 30.6751 376.905 34.1592 388.211C37.6434 399.517 62.7838 397.14 83.7842 396.769C104.785 396.399 230.801 383.348 256.351 385.203C281.902 387.057 282.94 391.206 289.13 391.467C295.333 391.728 283.446 352.274 283.186 326.833C282.926 301.391 298.052 264.438 297.724 247.087C297.396 229.737 297.628 219.324 297.246 217.786C296.863 216.247 302.875 146.668 302.875 146.668L102.175 106.692L31.3446 176.23Z" fill="#010101"/>
<path d="M71.0365 431.154C70.5036 427.335 80.4095 391.371 82.7595 378.348C89.9738 338.372 104.744 301.46 104.744 301.46L243.33 296.542C243.33 296.542 252.949 304.042 257.554 328.687C260.778 345.928 276.532 441.237 276.532 441.237C277.98 448.724 282.489 472.97 280.153 472.833C277.379 472.668 274.237 462.324 274.059 461.871C273.881 461.417 277.625 474.509 275.904 473.822C274.182 473.135 271.654 459.838 271.654 459.838C271.654 459.838 270.561 468.547 269.168 468.314C267.774 468.08 267.678 460.36 267.173 459C266.654 457.64 266.08 465.085 264.823 464.371C263.552 463.67 265.588 458.464 266.613 457.324C267.596 456.225 251.173 356.547 251.173 356.547C249.957 384.021 249.069 403.102 246.664 422.719L107.435 431.855C105.605 404.27 102.243 367.44 103.364 344.046C103.364 344.046 91.1488 400.369 83.7706 423.076C83.2924 424.56 114.909 447.172 114.158 449.796C113.843 450.895 113.488 451.678 113.092 451.801C112.122 452.09 111.275 452.227 110.537 452.241C104.402 452.296 71.4873 434.369 71.0365 431.168V431.154Z" fill="#F0CBA2"/>
<path d="M70.9818 431.168C71.2687 425.577 72.9766 420.15 74.097 414.683L77.9637 398.349C80.7101 387.483 82.6229 376.493 84.932 365.531C89.7688 343.661 96.2315 322.162 104.279 301.268C104.129 300.1 242.975 296.72 243.344 296.212H243.481L243.563 296.281C247.074 299.468 249.383 303.589 251.433 307.779C255.409 316.2 257.39 325.377 258.893 334.512C260.355 343.029 268.799 393.294 270.397 403.006C272.051 412.595 275.617 434.822 277.338 444.095C278.609 450.922 279.839 457.777 280.672 464.673C280.877 467.269 281.451 469.962 280.836 472.572C280.768 472.723 280.686 472.915 280.453 473.039C280.18 473.163 280.016 473.067 279.852 473.039C278.117 472.311 277.366 470.429 276.532 468.904C275.507 466.761 274.496 464.096 273.868 462.022C274.838 461.802 274.127 461.816 274.36 461.843L274.387 461.939L274.442 462.145C274.742 463.711 278.213 474.894 275.822 474.069C275.425 473.863 275.289 473.575 275.111 473.328C273.103 469.055 272.406 464.44 271.395 459.879L271.982 459.865C271.49 462.709 271.354 465.525 269.974 468.162C269.837 468.313 269.7 468.52 269.386 468.602C267.419 468.835 267.473 460.937 267.009 459.384C266.995 459.316 266.968 459.219 266.954 459.164C266.954 459.109 266.858 459 266.954 459.096C267.118 459.206 267.268 459.068 267.255 459.068C266.681 460.126 266.421 465.305 264.727 464.646C263.115 463.409 265.301 458.739 266.23 457.337C266.285 457.255 266.353 457.186 266.408 457.104C266.312 457.296 266.394 457.104 266.367 457.063C266.367 456.911 266.367 456.733 266.353 456.568C262.145 423.269 256.023 389.75 250.681 356.643L251.761 356.574V356.629C250.763 378.87 249.984 401.165 247.265 423.324C247.088 423.324 107.832 432.459 107.517 432.473L106.903 432.514L106.862 431.91C105.031 402.663 101.833 373.375 102.899 344.032L103.897 344.169C99.1828 365.229 94.305 386.26 88.7441 407.114C87.2821 412.485 85.7791 417.843 84.0712 423.145C92.6108 431.525 103.487 438.311 112.3 446.787C113.078 447.625 114.048 448.394 114.445 449.535C114.404 450.373 114.13 450.895 113.734 451.609C113.502 452.076 112.846 452.145 112.409 452.268C111.07 452.625 109.608 452.502 108.324 452.103C101.451 449.933 95.1248 446.499 88.7714 443.147C84.0576 440.564 79.3711 437.899 74.9578 434.836C73.5642 433.737 71.8016 432.844 71.0228 431.195L70.9818 431.168ZM71.1048 431.154C71.2004 431.552 71.542 431.896 71.8563 432.212C74.1654 434.327 76.898 435.935 79.535 437.583C85.6698 441.278 92.0096 444.644 98.4723 447.68C101.724 449.164 104.99 450.661 108.406 451.636C109.908 452.117 111.411 452.076 112.887 451.609C113.488 451.43 113.543 450.675 113.789 450.153C113.994 449.658 113.912 449.521 113.652 449.122C105.864 440.688 95.7123 434.204 86.9952 426.676C85.8065 425.59 84.4128 424.697 83.5384 423.31C83.4974 423.296 83.511 422.98 83.5384 422.98C84.1122 421.098 84.7134 419.23 85.2463 417.348C92.0916 393.143 97.4749 368.525 102.872 343.963L103.869 344.101C103.295 358.717 104.129 373.375 104.99 387.978C105.878 402.608 107.053 417.211 108.037 431.841L107.394 431.264L246.623 422.115L246.036 422.664C248.741 400.767 249.588 378.664 250.64 356.601V356.547L250.886 351.326L251.72 356.478C256.884 389.667 262.773 423.2 266.968 456.554C266.94 456.898 267.091 457.145 266.858 457.571C265.711 459.261 264.85 461.39 264.754 463.45C264.754 463.766 264.864 464.055 264.987 464.11C265.711 463.244 265.82 461.829 266.134 460.717C266.312 460.099 266.38 459.233 266.749 458.684C266.79 458.615 267.022 458.436 267.268 458.587C267.378 458.684 267.432 458.78 267.446 458.821C267.528 458.986 267.542 459.109 267.583 459.261L267.678 459.796C267.897 461.527 268.047 463.327 268.293 465.03C268.525 466.033 268.512 467.379 269.25 468.011C269.277 468.011 269.386 467.929 269.468 467.819C270.684 465.47 270.957 462.448 271.381 459.81L271.613 458.01C272.679 463.025 273.444 468.396 275.576 473.053C275.712 473.273 275.89 473.52 276.013 473.575C276.081 473.575 275.945 473.63 276.013 473.575C276.272 471.817 275.658 469.948 275.343 468.19C275.029 466.583 274.496 464.756 274.114 463.135C274.059 462.86 273.854 462.228 273.813 461.967C274.032 461.967 273.308 461.912 274.291 461.706C274.36 461.843 274.319 461.774 274.346 461.816C275.111 464.137 275.945 466.459 276.997 468.657C277.775 470.072 278.472 471.844 279.975 472.517C280.276 472.572 280.207 472.586 280.358 472.339C281.055 467.585 279.784 462.585 279.237 457.818C277.816 448.669 275.958 439.589 274.551 430.44C271.723 412.979 263.798 366.259 260.737 348.249C257.841 332.836 256.31 315.362 247.498 301.996C246.241 300.1 244.82 298.232 243.139 296.775L243.358 296.844C243.713 296.995 102.79 302.27 105.236 301.625C97.2836 322.478 90.6296 343.894 85.7518 365.682C83.4564 376.603 81.3522 387.634 78.4556 398.432L74.384 414.71C73.1953 420.137 71.4327 425.563 71.0775 431.099L71.1048 431.154Z" fill="#010101"/>
<path d="M248.686 299.193C248.686 299.193 256.447 313.92 259.795 325.871C263.128 337.809 270.616 400.891 270.616 400.891L257.813 401.509L251.173 356.547L250.312 426.634L105.359 432.761L101.997 351.821L89.031 408.762L76.2422 404.572C76.2422 404.572 83.6067 359.404 90.9029 334.155C96.0266 316.406 105.236 289.508 105.236 289.508L248.686 299.179V299.193Z" fill="#C33F34"/>
<path d="M248.686 299.193C252.69 306.941 256.379 314.881 259.139 323.179C261.748 331.531 262.691 340.295 264.139 348.895C266.735 366.176 269.045 383.485 271.231 400.822L271.313 401.481L270.643 401.523L257.841 402.182L257.24 402.209L257.144 401.619L250.353 356.684L251.965 356.574L251.323 426.662V427.651L250.34 427.692L105.4 433.984L104.211 434.039L104.156 432.83L100.85 351.89L103.118 352.096L90.0831 409.023L89.8235 410.191L88.7031 409.82L75.9142 405.616L75.0398 405.328L75.1901 404.421C78.5103 384.859 82.131 365.352 86.8039 346.065C91.6133 326.585 98.322 307.71 104.703 288.725C140.746 291.335 212.643 296.501 248.673 299.193H248.686ZM248.686 299.193C212.916 297.05 140.951 292.517 105.195 290.278L105.96 289.769C99.7976 308.535 93.2803 327.3 88.6757 346.518C84.1805 365.764 80.5734 385.271 77.3079 404.765L76.5837 403.569L89.3726 407.732L87.9789 408.529L100.877 351.56L102.79 343.153L103.159 351.78L106.561 432.72L105.318 431.566L250.271 425.604L249.287 426.634L250.367 356.56L251.979 356.45L258.469 401.44L257.786 400.877L270.589 400.3L270.001 400.987C267.46 379.309 264.973 357.618 261.584 336.064C259.904 323 254.521 310.897 248.686 299.221V299.193Z" fill="#010101"/>
<path d="M143.233 319.854C143.233 319.854 161.31 343.977 183.253 343.716C205.196 343.455 211.044 314.387 211.044 314.387L143.233 319.868V319.854Z" fill="#F0CBA2" stroke="#010101" stroke-width="1.78" stroke-miterlimit="10"/>
<path d="M31.3583 158.097C31.3583 158.097 26.5215 321.86 169.385 321.86C312.248 321.86 308.805 140.774 308.805 140.774C308.805 140.774 268.771 110.222 185.958 98.4358C103.131 86.6354 31.3583 158.097 31.3583 158.097Z" fill="#F0CBA2"/>
<path d="M31.4676 158.152C32.0141 189.102 38.2856 220.478 51.5663 248.502C75.313 299.509 121.946 323.371 176.858 320.994C220.472 319.689 256.392 298.094 278.377 260.22C299.022 224.256 307.192 181.973 307.684 140.788L308.121 141.653C297.956 134.496 286.561 128.891 275.166 123.919C252.102 114.069 227.836 107.173 203.215 102.543C190.932 100.277 178.553 98.1748 166.023 98.2984C115.647 98.8891 68.3858 125.1 31.4676 158.138V158.152ZM31.249 158.056C67.7299 123.726 115.114 97.1994 166.01 95.9493C178.689 95.6608 191.26 97.8451 203.679 100.084C216.086 102.365 228.383 105.277 240.516 108.794C264.672 116.129 288.569 125.416 309.488 139.868L309.925 140.184V140.733C308.572 200.889 290.305 271.787 236.171 305.059C197.832 328.261 140.473 328.344 101.424 306.721C49.8994 277.9 30.9484 214.077 31.249 158.056Z" fill="#010101"/>
<path d="M272.214 186.643C272.16 184.583 271.272 181.698 265.656 181.698C260.04 181.698 259.794 186.039 259.794 186.987C259.794 187.935 261.434 192.798 266.216 192.619C270.998 192.44 272.283 188.937 272.214 186.63V186.643Z" fill="#FFF5EA"/>
<path d="M272.16 186.643C272.201 183.058 268.566 182.275 265.697 182.206C262.459 181.808 259.658 183.786 260.163 187.234C260.587 188.608 261.461 189.899 262.541 190.792C265.916 193.484 272.337 191.438 272.16 186.643ZM272.283 186.643C272.624 195.257 260.683 195.449 259.507 187.358C259.07 179.733 272.378 178.717 272.283 186.643Z" fill="#010101"/>
<path d="M88.2248 186.643C88.1702 184.583 87.2821 181.698 81.6665 181.698C76.0509 181.698 75.8049 186.039 75.8049 186.987C75.8049 187.935 77.4445 192.798 82.2267 192.619C87.0088 192.44 88.2932 188.937 88.2248 186.63V186.643Z" fill="#FFF5EA"/>
<path d="M88.1702 186.643C88.2112 183.058 84.5767 182.275 81.7074 182.206C78.4693 181.808 75.6683 183.786 76.1738 187.234C76.5974 188.608 77.4718 189.899 78.5512 190.792C81.9261 193.484 88.3478 191.438 88.1702 186.643ZM88.2931 186.643C88.6347 195.257 76.693 195.449 75.518 187.358C75.0808 179.733 88.3888 178.717 88.2931 186.643Z" fill="#010101"/>
<path d="M276.095 176.024C276.204 175.681 278.172 169.43 277.133 168.167C276.095 166.889 268.73 164.004 266.203 163.894C263.675 163.784 258.606 162.507 257.007 163.894C255.409 165.282 254.589 167.878 254.589 169.65C254.589 171.422 259.193 175.585 264.139 176.038C269.085 176.505 276.108 176.038 276.108 176.038L276.095 176.024Z" fill="#010101"/>
<path d="M69.3968 176.024C69.2875 175.681 67.3199 169.43 68.3584 168.167C69.3968 166.889 76.7613 164.004 79.289 163.894C81.8167 163.784 86.8857 162.507 88.4844 163.894C90.0966 165.282 90.9027 167.878 90.9027 169.65C90.9027 171.422 86.2982 175.585 81.3521 176.038C76.406 176.505 69.3831 176.038 69.3831 176.038L69.3968 176.024Z" fill="#010101"/>
<path d="M267.883 225.08C268.225 224.613 271.914 219.297 267.883 211.082C263.852 202.867 257.991 205.642 257.075 204.831C256.16 204.021 247.183 200.435 241.431 209.571C235.679 218.706 243.153 231.083 253.4 231.66C263.634 232.237 267.897 225.066 267.897 225.066L267.883 225.08Z" fill="#EEB19F"/>
<path d="M267.828 225.053C271.832 219.283 268.266 208.156 261.735 205.834C260.382 205.381 258.975 205.477 257.526 205.395C257.321 205.367 257.007 205.285 256.816 205.134C249.287 200.669 240.584 207.098 239.983 215.244C239.545 220.863 242.784 226.426 247.552 229.229C253.947 232.952 263.484 231.372 267.828 225.053ZM267.924 225.121C258.414 238.474 237.892 231.839 239.013 215.134C240.01 206.686 249.438 200.312 257.28 204.557C258.77 204.735 260.45 204.337 261.994 204.845C269.564 207.304 272.078 218.857 267.91 225.108L267.924 225.121Z" fill="#010101"/>
<path d="M112.409 219.791C112.504 220.355 113.365 226.784 106.069 232.251C98.7592 237.719 94.7969 232.553 93.6082 232.856C92.4195 233.158 82.8142 232.237 81.8304 221.467C80.8603 210.697 93.1163 203.114 102.489 207.29C111.862 211.467 112.395 219.805 112.395 219.805L112.409 219.791Z" fill="#EEB19F"/>
<path d="M112.477 219.778C113.338 227.251 105.864 236.372 98.0214 235.095C96.4228 234.847 95.0974 233.721 93.6901 233.199C84.7817 233.378 79.2754 223.391 82.2266 215.409C88.7987 200.037 110.072 203.526 112.477 219.778ZM112.354 219.791C111.343 212.181 103.582 206.411 96.2042 206.782C90.6842 207.084 85.2872 210.56 83.1284 215.753C79.9039 223.418 84.9456 233.199 93.8131 232.457C95.357 232.842 96.6414 233.927 98.2263 234.092C105.099 235.012 113.311 226.756 112.368 219.778L112.354 219.791Z" fill="#010101"/>
<path d="M176.626 171.463C176.626 172.851 183.43 213.788 182.023 216.041C180.616 218.294 173.21 220.904 170.628 220.204C168.046 219.503 160.886 217.429 160.531 214.475C160.176 211.522 165.586 179.953 165.34 178.222C165.094 176.491 165.463 172.851 168.278 171.463C171.093 170.076 176.612 171.463 176.612 171.463H176.626Z" fill="#F0CBA2"/>
<path d="M176.667 171.422C178.443 181.533 180.192 191.575 181.408 201.727C181.832 205.546 182.242 209.365 182.392 213.197C182.378 214.187 182.556 215.189 182.16 216.151C181.162 217.484 179.591 218.157 178.156 218.83C175.779 219.778 173.292 220.726 170.669 220.41C167.13 219.338 162.621 218.569 160.394 215.272C159.711 212.717 160.599 210.038 160.749 207.455C161.665 200.12 162.963 192.042 164.083 184.706C164.384 182.536 165.067 179.335 164.903 177.164C165.094 170.021 171.215 169.856 176.667 171.409V171.422ZM176.585 171.491C169.822 170.241 165.04 170.996 165.723 179.143C165.299 183.511 164.575 188.127 163.947 192.454L161.678 207.606L161.173 211.398C161.091 212.538 160.722 213.926 161.077 214.97C163.113 218.006 167.444 218.898 170.751 220.011C171.926 220.258 173.21 220.011 174.426 219.75C177.077 219.022 180.028 218.129 181.832 215.972C182.351 211.315 181.039 206.507 180.561 201.85C179.345 192.949 177.446 180.297 176.558 171.491H176.585Z" fill="#010101"/>
<path d="M190.44 212.057C190.44 212.057 193.377 216.714 190.44 217.593C187.502 218.473 182.037 216.041 182.037 216.041" fill="#F0CBA2"/>
<path d="M190.481 212.016C192.886 214.145 193.05 217.566 189.32 218.102C187.051 218.596 183.458 217.731 182.051 215.986C184.578 216.22 186.833 217.03 189.279 217.442C189.866 217.511 190.522 217.47 190.959 217.099C191.396 216.714 191.328 216.11 191.219 215.602C191.041 214.53 190.645 213.376 190.385 212.085L190.495 212.016H190.481Z" fill="#010101"/>
<path d="M152.797 212.057C152.797 212.057 149.86 216.714 152.797 217.593C155.735 218.473 161.2 216.041 161.2 216.041" fill="#F0CBA2"/>
<path d="M152.852 212.085C152.579 214.077 150.447 217.882 153.945 217.442C156.364 217.154 158.864 215.959 161.228 216.11C159.206 217.758 156.487 218.624 153.918 218.115C152.579 217.882 151.021 217.14 151.008 215.547C151.008 214.145 151.745 212.923 152.756 212.03L152.866 212.098L152.852 212.085Z" fill="#010101"/>
<path d="M177.788 212.689C177.788 212.689 176.982 215.464 172.951 215.808C168.92 216.151 165.013 212.689 165.013 212.689" fill="#F0CBA2"/>
<path d="M177.842 212.703C177.774 214.901 175.451 216.096 173.497 215.945C170.314 216.604 166.775 215.601 164.971 212.744L165.053 212.648C166.242 213.129 167.308 213.651 168.387 214.132C169.959 214.791 171.653 215.876 173.429 215.56C175.096 214.942 176.449 214.049 177.719 212.689L177.842 212.73V212.703Z" fill="#010101"/>
<path d="M302.888 199.158C303.216 199.309 309.638 202.936 307.684 211.741C305.73 220.547 297.642 223.308 297.724 222.882C297.806 222.456 302.888 199.144 302.888 199.144V199.158Z" fill="#F0CBA2"/>
<path d="M302.834 199.048C305.198 199.707 307.015 201.686 308.094 203.87C311.701 211.425 304.952 220.506 298.339 223.761C297.724 223.995 296.945 223.858 296.795 223.02C297.71 215.176 300.265 206.136 302.834 199.048ZM302.943 199.268C301.959 208.046 301.099 215.024 298.653 223.047C298.776 222.621 298.366 221.989 297.86 221.989C302.779 221.069 306.769 216.11 306.824 210.752C307.384 206.755 306.318 202.716 303.435 199.845L303.134 199.543C303.039 199.433 302.889 199.378 302.929 199.268H302.943Z" fill="#010101"/>
<path d="M39.242 219.682C38.8867 219.682 31.5359 219.228 29.4864 210.436C27.4369 201.644 33.5307 195.627 33.6401 196.053C33.7494 196.479 39.242 219.682 39.242 219.682Z" fill="#F0CBA2"/>
<path d="M39.3376 219.764C36.9329 220.204 34.4189 219.214 32.506 217.717C25.9886 212.442 28.1337 201.411 32.7109 195.531C33.1618 195.064 33.927 194.844 34.4189 195.531C36.9875 203.004 38.5861 212.25 39.3376 219.764ZM39.1463 219.613C36.2361 211.274 33.9953 204.612 32.7246 196.314C32.8066 196.754 33.4351 197.139 33.8996 196.919C29.869 199.9 28.407 206.109 30.6888 210.945C31.9185 214.791 34.6238 217.964 38.4495 219.297L38.8458 219.434C38.9824 219.489 39.1327 219.475 39.1463 219.599V219.613Z" fill="#010101"/>
<path d="M89.8507 139.208C89.8507 139.208 100.535 153.289 81.803 162.053C63.0707 170.818 54.1076 179.939 57.8103 188.979C61.5131 198.031 39.2146 197.276 34.4461 202.592C29.6777 207.909 38.6408 218.033 32.0961 223.94C25.5514 229.833 10.3851 246.442 13.4594 255.261C16.5336 264.081 19.6898 270.001 19.6898 270.001C19.6898 270.001 14.1972 263.682 11.2869 251.744C8.37663 239.807 29.664 228.542 25.524 218.596C21.3841 208.65 19.1023 197.166 26.7674 193.732C34.4325 190.297 42.5348 198.32 47.0437 186.904C51.5662 175.502 42.7398 168.606 58.1656 162.191C73.5914 155.775 80.8876 155.253 80.8056 149.236C80.7236 143.219 77.1165 136.928 77.1165 136.928L89.8507 139.194V139.208Z" fill="#010101"/>
<path d="M31.3446 153.935C33.5034 146.668 39.6792 45.4234 165.012 42.3051C290.346 39.1867 306.577 125.416 306.577 125.416C306.577 125.416 141.006 116.033 92.9386 128.493C44.8576 140.953 31.3446 153.935 31.3446 153.935Z" fill="#653C2D" stroke="#010101" stroke-width="1.78" stroke-miterlimit="10"/>
<path d="M29.0628 177.824C29.0628 177.824 72.2251 136.804 174.481 138.37C275.056 139.909 308.818 166.93 308.818 166.93C308.818 166.93 312.685 131.886 310.554 126.693C308.422 121.501 215.922 104.824 170.86 104.631C73.7007 104.205 27.6419 138.631 26.9177 141.228C26.1936 143.824 29.0628 177.838 29.0628 177.838V177.824Z" fill="#653C2D" stroke="#010101" stroke-width="1.78" stroke-miterlimit="10"/>
<path d="M136.907 250.123C136.907 250.123 151.581 246.538 158.577 244.587C165.053 242.774 168.223 248.365 170.027 247.692C171.844 247.005 176.148 243.392 184.168 244.642C192.189 245.906 209.965 250.123 209.965 250.123C209.965 250.123 184.51 254.794 170.546 254.08C159.629 253.53 145.242 251.428 139.462 250.522C137.85 250.275 136.907 250.11 136.907 250.11V250.123Z" fill="#C33F34"/>
<path d="M139.462 250.536C139.462 251.882 152.948 265.798 170.833 265.784C196.616 265.77 209.022 250.178 209.022 250.178C209.022 250.178 173.306 253.324 164.507 252.624C155.708 251.923 139.462 250.536 139.462 250.536Z" fill="#C33F34"/>
<path d="M136.839 250.165C142.195 249.052 149.573 246.648 154.874 245.109C157.826 244.134 161.296 243.227 164.329 244.642C165.86 245.247 167.117 246.401 168.36 246.991C169.016 247.28 169.494 247.252 170.218 246.95C173.839 245.494 177.651 244.093 181.613 244.079C184.783 244.134 187.803 245.013 190.877 245.618C197.517 247.115 204.144 248.653 210.771 250.247C198.228 252.349 185.699 254.451 172.964 255C166.843 255.22 160.831 254.066 154.806 253.283C148.794 252.363 142.892 251.442 136.839 250.178V250.165ZM136.962 250.165C148.084 251.305 159.451 253.255 170.683 253.764C183.485 253.379 196.26 251.47 208.967 249.807L208.94 250.494C202.928 248.846 196.902 247.266 190.809 245.988C187.789 245.425 184.701 244.615 181.641 244.697C178.58 244.835 175.615 245.81 172.773 246.991C171.379 247.486 169.467 248.75 167.964 247.939C166.461 247.252 165.368 246.222 163.906 245.604C161.077 244.258 158.03 245.096 155.148 245.988C150.639 247.252 146.116 248.434 141.539 249.437C140.296 249.643 138.219 250.261 136.975 250.151L136.962 250.165Z" fill="#010101"/>
<path d="M140.05 252.788C144.996 256.291 150.324 259.19 155.803 261.649C161.214 264.232 167.253 265.963 173.265 265.413C179.249 264.822 185.07 263.105 190.754 261.1C196.465 259.135 202.053 256.813 207.601 254.355C202.832 257.679 196.779 260.165 191.178 262.336C185.439 264.355 179.427 265.949 173.292 266.086C161.255 265.963 148.466 261.196 140.036 252.802L140.05 252.788Z" fill="#010101"/>
</g>
<rect x="67" y="41" width="199" height="27" fill="#1E110D"/>
<rect x="34" y="68" width="265" height="27" fill="#F1AC1D"/>
<path d="M84.3452 61H81.7088L85.7259 49.3636H88.8963L92.9077 61H90.2713L87.3565 52.0227H87.2656L84.3452 61ZM84.1804 56.4261H90.4077V58.3466H84.1804V56.4261ZM100.355 52.7102C100.31 52.2519 100.115 51.8958 99.7699 51.642C99.4252 51.3883 98.9574 51.2614 98.3665 51.2614C97.965 51.2614 97.6259 51.3182 97.3494 51.4318C97.0729 51.5417 96.8608 51.6951 96.7131 51.892C96.5691 52.089 96.4972 52.3125 96.4972 52.5625C96.4896 52.7708 96.5331 52.9527 96.6278 53.108C96.7263 53.2633 96.8608 53.3977 97.0312 53.5114C97.2017 53.6212 97.3987 53.7178 97.6222 53.8011C97.8456 53.8807 98.0843 53.9489 98.3381 54.0057L99.3835 54.2557C99.8911 54.3693 100.357 54.5208 100.781 54.7102C101.205 54.8996 101.573 55.1326 101.884 55.4091C102.194 55.6856 102.435 56.0114 102.605 56.3864C102.779 56.7614 102.868 57.1913 102.872 57.6761C102.868 58.3883 102.687 59.0057 102.327 59.5284C101.971 60.0473 101.455 60.4508 100.781 60.7386C100.111 61.0227 99.3021 61.1648 98.3551 61.1648C97.4157 61.1648 96.5975 61.0208 95.9006 60.733C95.2074 60.4451 94.6657 60.0189 94.2756 59.4545C93.8892 58.8864 93.6866 58.1837 93.6676 57.3466H96.0483C96.0748 57.7367 96.1866 58.0625 96.3835 58.3239C96.5843 58.5814 96.8513 58.7765 97.1847 58.9091C97.5218 59.0379 97.9025 59.1023 98.3267 59.1023C98.7434 59.1023 99.1051 59.0417 99.4119 58.9205C99.7225 58.7992 99.9631 58.6307 100.134 58.4148C100.304 58.1989 100.389 57.9508 100.389 57.6705C100.389 57.4091 100.312 57.1894 100.156 57.0114C100.005 56.8333 99.7813 56.6818 99.4858 56.5568C99.1941 56.4318 98.8362 56.3182 98.4119 56.2159L97.1449 55.8977C96.1638 55.6591 95.3892 55.286 94.821 54.7784C94.2528 54.2708 93.9706 53.5871 93.9744 52.7273C93.9706 52.0227 94.1581 51.4072 94.5369 50.8807C94.9195 50.3542 95.4441 49.9432 96.1108 49.6477C96.7775 49.3523 97.535 49.2045 98.3835 49.2045C99.2472 49.2045 100.001 49.3523 100.645 49.6477C101.293 49.9432 101.796 50.3542 102.156 50.8807C102.516 51.4072 102.702 52.017 102.713 52.7102H100.355ZM104.527 61V49.3636H106.987V54.4943H107.141L111.328 49.3636H114.277L109.959 54.5739L114.328 61H111.385L108.197 56.2159L106.987 57.6932V61H104.527ZM123.92 49.3636H126.352V57.4773C126.352 58.2273 126.184 58.8788 125.847 59.4318C125.513 59.9848 125.049 60.411 124.455 60.7102C123.86 61.0095 123.169 61.1591 122.381 61.1591C121.68 61.1591 121.044 61.036 120.472 60.7898C119.903 60.5398 119.453 60.161 119.119 59.6534C118.786 59.142 118.621 58.5 118.625 57.7273H121.074C121.081 58.0341 121.144 58.2973 121.261 58.517C121.383 58.733 121.547 58.8996 121.756 59.017C121.968 59.1307 122.218 59.1875 122.506 59.1875C122.809 59.1875 123.064 59.1231 123.273 58.9943C123.485 58.8617 123.646 58.6686 123.756 58.4148C123.866 58.161 123.92 57.8485 123.92 57.4773V49.3636ZM130.392 61H127.756L131.773 49.3636H134.943L138.955 61H136.318L133.403 52.0227H133.312L130.392 61ZM130.227 56.4261H136.455V58.3466H130.227V56.4261ZM150.075 53.4375H147.587C147.541 53.1155 147.448 52.8295 147.308 52.5795C147.168 52.3258 146.988 52.1098 146.768 51.9318C146.549 51.7538 146.295 51.6174 146.007 51.5227C145.723 51.428 145.414 51.3807 145.081 51.3807C144.479 51.3807 143.954 51.5303 143.507 51.8295C143.06 52.125 142.714 52.5568 142.467 53.125C142.221 53.6894 142.098 54.375 142.098 55.1818C142.098 56.0114 142.221 56.7083 142.467 57.2727C142.717 57.8371 143.066 58.2633 143.513 58.5511C143.96 58.839 144.477 58.983 145.064 58.983C145.393 58.983 145.698 58.9394 145.979 58.8523C146.263 58.7652 146.515 58.6383 146.734 58.4716C146.954 58.3011 147.136 58.0947 147.28 57.8523C147.428 57.6098 147.53 57.3333 147.587 57.0227L150.075 57.0341C150.011 57.5682 149.85 58.0833 149.592 58.5795C149.339 59.072 148.996 59.5133 148.564 59.9034C148.136 60.2898 147.625 60.5966 147.03 60.8239C146.439 61.0473 145.77 61.1591 145.024 61.1591C143.986 61.1591 143.058 60.9242 142.24 60.4545C141.426 59.9848 140.782 59.3049 140.308 58.4148C139.839 57.5246 139.604 56.447 139.604 55.1818C139.604 53.9129 139.842 52.8333 140.32 51.9432C140.797 51.053 141.445 50.375 142.263 49.9091C143.081 49.4394 144.001 49.2045 145.024 49.2045C145.698 49.2045 146.323 49.2992 146.899 49.4886C147.479 49.678 147.992 49.9545 148.439 50.3182C148.886 50.678 149.25 51.1193 149.53 51.642C149.814 52.1648 149.996 52.7633 150.075 53.4375ZM151.839 61V49.3636H154.3V54.4943H154.453L158.641 49.3636H161.589L157.271 54.5739L161.641 61H158.697L155.51 56.2159L154.3 57.6932V61H151.839ZM168.58 61H165.943L169.96 49.3636H173.131L177.142 61H174.506L171.591 52.0227H171.5L168.58 61ZM168.415 56.4261H174.642V58.3466H168.415V56.4261ZM188.276 49.3636V61H186.151L181.088 53.6761H181.003V61H178.543V49.3636H180.702L185.724 56.6818H185.827V49.3636H188.276ZM189.626 49.3636H192.382L195.036 54.375H195.149L197.803 49.3636H200.558L196.314 56.8864V61H193.871V56.8864L189.626 49.3636ZM202.193 51.392V49.3636H211.75V51.392H208.188V61H205.756V51.392H202.193ZM213.324 61V49.3636H215.784V54.1648H220.778V49.3636H223.233V61H220.778V56.1932H215.784V61H213.324ZM227.722 49.3636V61H225.261V49.3636H227.722ZM239.479 49.3636V61H237.354L232.291 53.6761H232.206V61H229.746V49.3636H231.905L236.928 56.6818H237.03V49.3636H239.479ZM249.227 53.125C249.148 52.8485 249.036 52.6042 248.892 52.392C248.748 52.1761 248.572 51.9943 248.364 51.8466C248.159 51.6951 247.924 51.5795 247.659 51.5C247.398 51.4205 247.108 51.3807 246.79 51.3807C246.195 51.3807 245.672 51.5284 245.222 51.8239C244.775 52.1193 244.426 52.5492 244.176 53.1136C243.926 53.6742 243.801 54.3598 243.801 55.1705C243.801 55.9811 243.924 56.6705 244.17 57.2386C244.417 57.8068 244.765 58.2405 245.216 58.5398C245.667 58.8352 246.199 58.983 246.812 58.983C247.369 58.983 247.845 58.8845 248.239 58.6875C248.636 58.4867 248.939 58.2045 249.148 57.8409C249.36 57.4773 249.466 57.0473 249.466 56.5511L249.966 56.625H246.966V54.7727H251.835V56.2386C251.835 57.2614 251.619 58.1402 251.188 58.875C250.756 59.6061 250.161 60.1705 249.403 60.5682C248.646 60.9621 247.778 61.1591 246.801 61.1591C245.71 61.1591 244.752 60.9186 243.926 60.4375C243.1 59.9527 242.456 59.2652 241.994 58.375C241.536 57.4811 241.307 56.4205 241.307 55.1932C241.307 54.25 241.443 53.4091 241.716 52.6705C241.992 51.928 242.379 51.2992 242.875 50.7841C243.371 50.2689 243.949 49.8769 244.608 49.608C245.267 49.339 245.981 49.2045 246.75 49.2045C247.409 49.2045 248.023 49.3011 248.591 49.4943C249.159 49.6837 249.663 49.9527 250.102 50.3011C250.545 50.6496 250.907 51.0644 251.188 51.5455C251.468 52.0227 251.648 52.5492 251.727 53.125H249.227Z" fill="#FFF5EA"/>
<path d="M46.7791 78.392V76.3636H56.3359V78.392H52.7734V88H50.3416V78.392H46.7791ZM68.0717 82.1818C68.0717 83.4508 67.8312 84.5303 67.3501 85.4205C66.8729 86.3106 66.2214 86.9905 65.3956 87.4602C64.5736 87.9261 63.6494 88.1591 62.6229 88.1591C61.5888 88.1591 60.6607 87.9242 59.8388 87.4545C59.0168 86.9848 58.3672 86.3049 57.8899 85.4148C57.4126 84.5246 57.174 83.447 57.174 82.1818C57.174 80.9129 57.4126 79.8333 57.8899 78.9432C58.3672 78.053 59.0168 77.375 59.8388 76.9091C60.6607 76.4394 61.5888 76.2045 62.6229 76.2045C63.6494 76.2045 64.5736 76.4394 65.3956 76.9091C66.2214 77.375 66.8729 78.053 67.3501 78.9432C67.8312 79.8333 68.0717 80.9129 68.0717 82.1818ZM65.5774 82.1818C65.5774 81.3598 65.4543 80.6667 65.2081 80.1023C64.9657 79.5379 64.6229 79.1098 64.1797 78.8182C63.7365 78.5265 63.2176 78.3807 62.6229 78.3807C62.0282 78.3807 61.5092 78.5265 61.0661 78.8182C60.6229 79.1098 60.2782 79.5379 60.032 80.1023C59.7895 80.6667 59.6683 81.3598 59.6683 82.1818C59.6683 83.0038 59.7895 83.697 60.032 84.2614C60.2782 84.8258 60.6229 85.2538 61.0661 85.5455C61.5092 85.8371 62.0282 85.983 62.6229 85.983C63.2176 85.983 63.7365 85.8371 64.1797 85.5455C64.6229 85.2538 64.9657 84.8258 65.2081 84.2614C65.4543 83.697 65.5774 83.0038 65.5774 82.1818ZM73.5973 88V76.3636H81.4382V78.392H76.0575V81.1648H81.0348V83.1932H76.0575V85.9716H81.4609V88H73.5973ZM93.1271 76.3636V88H91.0021L85.9396 80.6761H85.8544V88H83.3942V76.3636H85.5533L90.576 83.6818H90.6783V76.3636H93.1271ZM95.1598 88V76.3636H97.62V81.1648H102.614V76.3636H105.069V88H102.614V83.1932H97.62V88H95.1598ZM109.103 88H106.467L110.484 76.3636H113.654L117.665 88H115.029L112.114 79.0227H112.023L109.103 88ZM108.938 83.4261H115.165V85.3466H108.938V83.4261ZM128.799 76.3636V88H126.674L121.612 80.6761H121.526V88H119.066V76.3636H121.225L126.248 83.6818H126.35V76.3636H128.799ZM141.099 80.4375H138.61C138.565 80.1155 138.472 79.8295 138.332 79.5795C138.192 79.3258 138.012 79.1098 137.792 78.9318C137.572 78.7538 137.318 78.6174 137.031 78.5227C136.746 78.428 136.438 78.3807 136.104 78.3807C135.502 78.3807 134.978 78.5303 134.531 78.8295C134.084 79.125 133.737 79.5568 133.491 80.125C133.245 80.6894 133.121 81.375 133.121 82.1818C133.121 83.0114 133.245 83.7083 133.491 84.2727C133.741 84.8371 134.089 85.2633 134.536 85.5511C134.983 85.839 135.5 85.983 136.087 85.983C136.417 85.983 136.722 85.9394 137.002 85.8523C137.286 85.7652 137.538 85.6383 137.758 85.4716C137.978 85.3011 138.159 85.0947 138.303 84.8523C138.451 84.6098 138.553 84.3333 138.61 84.0227L141.099 84.0341C141.034 84.5682 140.873 85.0833 140.616 85.5795C140.362 86.072 140.019 86.5133 139.587 86.9034C139.159 87.2898 138.648 87.5966 138.053 87.8239C137.462 88.0473 136.794 88.1591 136.048 88.1591C135.01 88.1591 134.082 87.9242 133.263 87.4545C132.449 86.9848 131.805 86.3049 131.332 85.4148C130.862 84.5246 130.627 83.447 130.627 82.1818C130.627 80.9129 130.866 79.8333 131.343 78.9432C131.82 78.053 132.468 77.375 133.286 76.9091C134.104 76.4394 135.025 76.2045 136.048 76.2045C136.722 76.2045 137.347 76.2992 137.923 76.4886C138.502 76.678 139.015 76.9545 139.462 77.3182C139.909 77.678 140.273 78.1193 140.553 78.642C140.837 79.1648 141.019 79.7633 141.099 80.4375ZM142.863 88V76.3636H150.704V78.392H145.323V81.1648H150.3V83.1932H145.323V85.9716H150.727V88H142.863ZM155.681 76.3636H158.437L161.09 81.375H161.204L163.857 76.3636H166.613L162.369 83.8864V88H159.925V83.8864L155.681 76.3636ZM177.947 82.1818C177.947 83.4508 177.706 84.5303 177.225 85.4205C176.748 86.3106 176.096 86.9905 175.271 87.4602C174.449 87.9261 173.524 88.1591 172.498 88.1591C171.464 88.1591 170.536 87.9242 169.714 87.4545C168.892 86.9848 168.242 86.3049 167.765 85.4148C167.288 84.5246 167.049 83.447 167.049 82.1818C167.049 80.9129 167.288 79.8333 167.765 78.9432C168.242 78.053 168.892 77.375 169.714 76.9091C170.536 76.4394 171.464 76.2045 172.498 76.2045C173.524 76.2045 174.449 76.4394 175.271 76.9091C176.096 77.375 176.748 78.053 177.225 78.9432C177.706 79.8333 177.947 80.9129 177.947 82.1818ZM175.452 82.1818C175.452 81.3598 175.329 80.6667 175.083 80.1023C174.841 79.5379 174.498 79.1098 174.055 78.8182C173.612 78.5265 173.093 78.3807 172.498 78.3807C171.903 78.3807 171.384 78.5265 170.941 78.8182C170.498 79.1098 170.153 79.5379 169.907 80.1023C169.665 80.6667 169.543 81.3598 169.543 82.1818C169.543 83.0038 169.665 83.697 169.907 84.2614C170.153 84.8258 170.498 85.2538 170.941 85.5455C171.384 85.8371 171.903 85.983 172.498 85.983C173.093 85.983 173.612 85.8371 174.055 85.5455C174.498 85.2538 174.841 84.8258 175.083 84.2614C175.329 83.697 175.452 83.0038 175.452 82.1818ZM186.957 76.3636H189.417V83.9205C189.417 84.7689 189.214 85.5114 188.809 86.1477C188.407 86.7841 187.845 87.2803 187.121 87.6364C186.398 87.9886 185.555 88.1648 184.593 88.1648C183.627 88.1648 182.782 87.9886 182.059 87.6364C181.335 87.2803 180.773 86.7841 180.371 86.1477C179.97 85.5114 179.769 84.7689 179.769 83.9205V76.3636H182.229V83.7102C182.229 84.1534 182.326 84.5473 182.519 84.892C182.716 85.2367 182.993 85.5076 183.349 85.7045C183.705 85.9015 184.12 86 184.593 86C185.07 86 185.485 85.9015 185.837 85.7045C186.193 85.5076 186.468 85.2367 186.661 84.892C186.858 84.5473 186.957 84.1534 186.957 83.7102V76.3636ZM191.441 88V76.3636H196.032C196.911 76.3636 197.661 76.5208 198.282 76.8352C198.907 77.1458 199.382 77.5871 199.708 78.1591C200.038 78.7273 200.202 79.3958 200.202 80.1648C200.202 80.9375 200.036 81.6023 199.702 82.1591C199.369 82.7121 198.886 83.1364 198.254 83.4318C197.625 83.7273 196.863 83.875 195.969 83.875H192.896V81.8977H195.572C196.041 81.8977 196.432 81.8333 196.742 81.7045C197.053 81.5758 197.284 81.3826 197.435 81.125C197.591 80.8674 197.668 80.5473 197.668 80.1648C197.668 79.7784 197.591 79.4527 197.435 79.1875C197.284 78.9223 197.051 78.7216 196.737 78.5852C196.426 78.4451 196.034 78.375 195.56 78.375H193.901V88H191.441ZM197.725 82.7045L200.617 88H197.901L195.072 82.7045H197.725ZM210.303 76.3636H212.735V84.4773C212.735 85.2273 212.567 85.8788 212.229 86.4318C211.896 86.9848 211.432 87.411 210.837 87.7102C210.243 88.0095 209.551 88.1591 208.763 88.1591C208.063 88.1591 207.426 88.036 206.854 87.7898C206.286 87.5398 205.835 87.161 205.502 86.6534C205.169 86.142 205.004 85.5 205.008 84.7273H207.457C207.464 85.0341 207.527 85.2973 207.644 85.517C207.765 85.733 207.93 85.8996 208.138 86.017C208.351 86.1307 208.601 86.1875 208.888 86.1875C209.192 86.1875 209.447 86.1231 209.656 85.9943C209.868 85.8617 210.029 85.6686 210.138 85.4148C210.248 85.161 210.303 84.8485 210.303 84.4773V76.3636ZM225.462 82.1818C225.462 83.4508 225.222 84.5303 224.741 85.4205C224.263 86.3106 223.612 86.9905 222.786 87.4602C221.964 87.9261 221.04 88.1591 220.013 88.1591C218.979 88.1591 218.051 87.9242 217.229 87.4545C216.407 86.9848 215.758 86.3049 215.281 85.4148C214.803 84.5246 214.565 83.447 214.565 82.1818C214.565 80.9129 214.803 79.8333 215.281 78.9432C215.758 78.053 216.407 77.375 217.229 76.9091C218.051 76.4394 218.979 76.2045 220.013 76.2045C221.04 76.2045 221.964 76.4394 222.786 76.9091C223.612 77.375 224.263 78.053 224.741 78.9432C225.222 79.8333 225.462 80.9129 225.462 82.1818ZM222.968 82.1818C222.968 81.3598 222.845 80.6667 222.599 80.1023C222.356 79.5379 222.013 79.1098 221.57 78.8182C221.127 78.5265 220.608 78.3807 220.013 78.3807C219.419 78.3807 218.9 78.5265 218.457 78.8182C218.013 79.1098 217.669 79.5379 217.423 80.1023C217.18 80.6667 217.059 81.3598 217.059 82.1818C217.059 83.0038 217.18 83.697 217.423 84.2614C217.669 84.8258 218.013 85.2538 218.457 85.5455C218.9 85.8371 219.419 85.983 220.013 85.983C220.608 85.983 221.127 85.8371 221.57 85.5455C222.013 85.2538 222.356 84.8258 222.599 84.2614C222.845 83.697 222.968 83.0038 222.968 82.1818ZM234.472 76.3636H236.933V83.9205C236.933 84.7689 236.73 85.5114 236.325 86.1477C235.923 86.7841 235.361 87.2803 234.637 87.6364C233.914 87.9886 233.071 88.1648 232.109 88.1648C231.143 88.1648 230.298 87.9886 229.575 87.6364C228.851 87.2803 228.289 86.7841 227.887 86.1477C227.486 85.5114 227.285 84.7689 227.285 83.9205V76.3636H229.745V83.7102C229.745 84.1534 229.842 84.5473 230.035 84.892C230.232 85.2367 230.508 85.5076 230.864 85.7045C231.22 85.9015 231.635 86 232.109 86C232.586 86 233.001 85.9015 233.353 85.7045C233.709 85.5076 233.984 85.2367 234.177 84.892C234.374 84.5473 234.472 84.1534 234.472 83.7102V76.3636ZM238.957 88V76.3636H243.548C244.426 76.3636 245.176 76.5208 245.798 76.8352C246.423 77.1458 246.898 77.5871 247.224 78.1591C247.553 78.7273 247.718 79.3958 247.718 80.1648C247.718 80.9375 247.551 81.6023 247.218 82.1591C246.885 82.7121 246.402 83.1364 245.769 83.4318C245.14 83.7273 244.379 83.875 243.485 83.875H240.411V81.8977H243.087C243.557 81.8977 243.947 81.8333 244.258 81.7045C244.568 81.5758 244.799 81.3826 244.951 81.125C245.106 80.8674 245.184 80.5473 245.184 80.1648C245.184 79.7784 245.106 79.4527 244.951 79.1875C244.799 78.9223 244.567 78.7216 244.252 78.5852C243.942 78.4451 243.549 78.375 243.076 78.375H241.417V88H238.957ZM245.241 82.7045L248.133 88H245.417L242.587 82.7045H245.241ZM259.19 76.3636V88H257.065L252.002 80.6761H251.917V88H249.457V76.3636H251.616L256.638 83.6818H256.741V76.3636H259.19ZM261.222 88V76.3636H269.063V78.392H263.683V81.1648H268.66V83.1932H263.683V85.9716H269.086V88H261.222ZM270.337 76.3636H273.093L275.746 81.375H275.86L278.513 76.3636H281.269L277.025 83.8864V88H274.582V83.8864L270.337 76.3636ZM285.46 76.3636L285.238 84.5114H283.158L282.931 76.3636H285.46ZM284.198 88.1477C283.823 88.1477 283.501 88.0152 283.232 87.75C282.963 87.4811 282.831 87.1591 282.835 86.7841C282.831 86.4129 282.963 86.0947 283.232 85.8295C283.501 85.5644 283.823 85.4318 284.198 85.4318C284.558 85.4318 284.874 85.5644 285.147 85.8295C285.42 86.0947 285.558 86.4129 285.562 86.7841C285.558 87.0341 285.492 87.2633 285.363 87.4716C285.238 87.6761 285.073 87.8409 284.869 87.9659C284.664 88.0871 284.441 88.1477 284.198 88.1477Z" fill="#1E110D"/>
<defs>
<clipPath id="clip0_23_411">
<rect width="307" height="289" fill="white" transform="translate(11 41)"/>
</clipPath>
</defs>
</svg>
