<svg width="876" height="324" viewBox="0 0 876 324" fill="none" xmlns="http://www.w3.org/2000/svg">
<rect width="876" height="324" rx="24" fill="#F0CBA2"/>
<g clip-path="url(#clip0_0_105)">
<path d="M405.08 172.359C405.08 172.359 420.466 234.323 417.917 255.579C415.369 276.835 406.994 285.789 409.004 303.468C411.027 321.147 425.672 334.221 420.979 348.404C416.286 362.588 404.419 370.256 407.857 381.405C411.296 392.555 436.109 390.211 456.836 389.845C477.563 389.48 601.937 376.61 627.155 378.439C652.372 380.267 653.397 384.359 659.506 384.616C665.628 384.873 653.896 345.966 653.64 320.877C653.383 295.787 668.312 259.345 667.988 242.235C667.664 225.125 667.893 214.856 667.516 213.339C667.138 211.822 673.072 143.205 673.072 143.205L474.987 103.783L405.08 172.359Z" fill="#010101"/>
<path d="M444.254 423.754C443.728 419.988 453.505 384.521 455.825 371.679C462.945 332.256 477.522 295.855 477.522 295.855L614.303 291.005C614.303 291.005 623.797 298.402 628.341 322.705C631.524 339.707 647.072 433.698 647.072 433.698C648.502 441.081 652.952 464.992 650.646 464.856C647.908 464.694 644.807 454.493 644.632 454.045C644.456 453.598 648.151 466.509 646.452 465.832C644.753 465.154 642.258 452.041 642.258 452.041C642.258 452.041 641.179 460.629 639.804 460.399C638.428 460.169 638.334 452.555 637.835 451.214C637.322 449.873 636.756 457.216 635.515 456.511C634.261 455.82 636.271 450.686 637.282 449.561C638.253 448.478 622.044 350.179 622.044 350.179C620.844 377.273 619.967 396.091 617.594 415.436L480.179 424.445C478.372 397.242 475.055 360.922 476.16 337.851C476.16 337.851 464.104 393.395 456.822 415.788C456.35 417.251 487.555 439.55 486.814 442.137C486.503 443.221 486.153 443.993 485.762 444.115C484.804 444.4 483.968 444.535 483.24 444.549C477.185 444.603 444.699 426.924 444.254 423.767V423.754Z" fill="#F0CBA2"/>
<path d="M444.2 423.767C444.483 418.254 446.169 412.903 447.275 407.511L451.091 391.403C453.802 380.687 455.69 369.85 457.969 359.039C462.742 337.472 469.121 316.27 477.064 295.665C476.915 294.514 613.953 291.181 614.317 290.68H614.452L614.532 290.748C617.998 293.89 620.277 297.955 622.3 302.087C626.224 310.391 628.179 319.441 629.663 328.449C631.106 336.849 639.44 386.418 641.017 395.996C642.649 405.452 646.169 427.371 647.868 436.515C649.122 443.248 650.336 450.008 651.158 456.809C651.361 459.37 651.927 462.025 651.32 464.599C651.253 464.748 651.172 464.937 650.943 465.059C650.673 465.181 650.511 465.086 650.349 465.059C648.637 464.341 647.895 462.485 647.072 460.982C646.061 458.868 645.063 456.24 644.443 454.195C645.4 453.978 644.699 453.991 644.928 454.018L644.955 454.113L645.009 454.316C645.306 455.861 648.731 466.888 646.371 466.075C645.98 465.872 645.845 465.588 645.67 465.344C643.688 461.131 643 456.579 642.002 452.081L642.582 452.068C642.096 454.872 641.961 457.649 640.599 460.25C640.465 460.399 640.33 460.602 640.02 460.684C638.078 460.914 638.132 453.124 637.673 451.593C637.66 451.526 637.633 451.431 637.619 451.377C637.619 451.322 637.525 451.214 637.619 451.309C637.781 451.417 637.929 451.282 637.916 451.282C637.349 452.325 637.093 457.432 635.421 456.782C633.83 455.563 635.987 450.957 636.904 449.575C636.958 449.494 637.026 449.426 637.08 449.345C636.985 449.534 637.066 449.345 637.039 449.304C637.039 449.155 637.039 448.979 637.026 448.816C632.872 415.978 626.831 382.923 621.558 350.274L622.624 350.206V350.26C621.639 372.193 620.87 394.18 618.187 416.032C618.012 416.032 480.57 425.041 480.26 425.054L479.653 425.095L479.613 424.499C477.805 395.657 474.65 366.774 475.702 337.838L476.686 337.973C472.034 358.741 467.22 379.482 461.731 400.046C460.288 405.343 458.805 410.627 457.119 415.856C465.547 424.12 476.282 430.812 484.98 439.171C485.748 439.997 486.706 440.756 487.097 441.88C487.056 442.706 486.787 443.221 486.396 443.926C486.166 444.386 485.519 444.454 485.088 444.576C483.766 444.928 482.323 444.806 481.055 444.413C474.272 442.273 468.029 438.886 461.758 435.581C457.106 433.034 452.48 430.406 448.124 427.385C446.749 426.301 445.009 425.42 444.241 423.795L444.2 423.767ZM444.322 423.754C444.416 424.147 444.753 424.485 445.063 424.797C447.342 426.883 450.039 428.468 452.642 430.094C458.697 433.738 464.954 437.057 471.333 440.051C474.542 441.514 477.765 442.991 481.136 443.953C482.62 444.427 484.103 444.386 485.56 443.926C486.153 443.75 486.207 443.005 486.45 442.49C486.652 442.002 486.571 441.867 486.315 441.474C478.628 433.156 468.609 426.761 460.005 419.338C458.832 418.267 457.456 417.387 456.593 416.018C456.553 416.005 456.566 415.693 456.593 415.693C457.16 413.837 457.753 411.995 458.279 410.139C465.035 386.269 470.348 361.992 475.675 337.77L476.659 337.905C476.093 352.32 476.915 366.774 477.765 381.175C478.642 395.603 479.801 410.004 480.772 424.431L480.138 423.862L617.553 414.84L616.973 415.382C619.643 393.788 620.479 371.99 621.518 350.233V350.179L621.761 345.031L622.583 350.111C627.681 382.841 633.493 415.91 637.633 448.803C637.606 449.141 637.754 449.385 637.525 449.805C636.392 451.471 635.542 453.571 635.448 455.603C635.448 455.915 635.556 456.199 635.677 456.254C636.392 455.4 636.5 454.005 636.81 452.908C636.985 452.298 637.053 451.444 637.417 450.903C637.457 450.835 637.687 450.659 637.929 450.808C638.037 450.903 638.091 450.997 638.105 451.038C638.186 451.201 638.199 451.322 638.239 451.472L638.334 452C638.55 453.707 638.698 455.482 638.941 457.161C639.17 458.15 639.156 459.478 639.885 460.101C639.912 460.101 640.02 460.02 640.1 459.911C641.301 457.595 641.57 454.614 641.988 452.013L642.218 450.239C643.269 455.183 644.025 460.48 646.128 465.073C646.263 465.29 646.439 465.534 646.56 465.588C646.492 465.642 646.627 465.588 646.56 465.588C646.816 463.854 646.209 462.011 645.899 460.277C645.589 458.692 645.063 456.89 644.685 455.292C644.632 455.021 644.429 454.398 644.389 454.14C644.605 454.14 643.89 454.086 644.861 453.883C644.928 454.018 644.888 453.951 644.915 453.991C645.67 456.281 646.492 458.57 647.531 460.738C648.299 462.133 648.987 463.881 650.471 464.545C650.767 464.599 650.7 464.612 650.848 464.368C651.536 459.681 650.282 454.75 649.742 450.049C648.34 441.027 646.506 432.072 645.117 423.049C642.326 405.831 634.504 359.757 631.483 341.997C628.625 326.797 627.114 309.565 618.416 296.383C617.176 294.514 615.773 292.671 614.114 291.235L614.33 291.303C614.681 291.452 475.594 296.654 478.008 296.017C470.159 316.582 463.592 337.702 458.778 359.188C456.512 369.958 454.436 380.836 451.577 391.485L447.558 407.538C446.385 412.889 444.645 418.24 444.295 423.7L444.322 423.754Z" fill="#010101"/>
<path d="M619.589 293.62C619.589 293.62 627.249 308.142 630.553 319.928C633.843 331.701 641.233 393.909 641.233 393.909L628.597 394.519L622.044 350.179L621.194 419.297L478.129 425.339L474.812 345.519L462.014 401.672L449.392 397.54C449.392 397.54 456.661 352.997 463.862 328.097C468.919 310.594 478.008 284.069 478.008 284.069L619.589 293.606V293.62Z" fill="#C33F34"/>
<path d="M619.589 293.62C623.541 301.26 627.182 309.09 629.906 317.273C632.481 325.51 633.412 334.153 634.841 342.633C637.403 359.676 639.682 376.745 641.84 393.842L641.921 394.492L641.26 394.533L628.624 395.183L628.031 395.21L627.937 394.627L621.235 350.315L622.826 350.206L622.192 419.324V420.299L621.221 420.34L478.17 426.545L476.996 426.599L476.942 425.407L473.679 345.587L475.918 345.79L463.053 401.929L462.796 403.081L461.691 402.715L449.068 398.57L448.205 398.285L448.354 397.391C451.631 378.1 455.204 358.863 459.816 339.843C464.563 320.633 471.184 302.019 477.482 283.297C513.056 285.871 584.015 290.964 619.576 293.62H619.589ZM619.589 293.62C584.285 291.506 513.258 287.036 477.967 284.827L478.722 284.326C472.641 302.832 466.208 321.337 461.664 340.29C457.227 359.269 453.667 378.506 450.444 397.73L449.729 396.551L462.351 400.656L460.976 401.442L473.706 345.262L475.594 336.971L475.958 345.478L479.316 425.298L478.089 424.16L621.154 418.281L620.183 419.297L621.248 350.193L622.839 350.084L629.245 394.451L628.57 393.896L641.206 393.327L640.626 394.004C638.118 372.627 635.664 351.236 632.319 329.98C630.661 317.097 625.348 305.162 619.589 293.647V293.62Z" fill="#010101"/>
<path d="M515.51 313.995C515.51 313.995 533.351 337.783 555.009 337.526C576.666 337.269 582.438 308.603 582.438 308.603L515.51 314.008V313.995Z" fill="#F0CBA2" stroke="#010101" stroke-width="1.78" stroke-miterlimit="10"/>
<path d="M405.093 154.476C405.093 154.476 400.319 315.972 541.321 315.972C682.323 315.972 678.924 137.393 678.924 137.393C678.924 137.393 639.413 107.264 557.679 95.6408C475.931 84.0038 405.093 154.476 405.093 154.476Z" fill="#F0CBA2"/>
<path d="M405.201 154.53C405.74 185.052 411.93 215.994 425.038 243.63C448.475 293.931 494.5 317.463 548.697 315.119C591.742 313.832 627.195 292.536 648.893 255.186C669.269 219.72 677.333 178.021 677.819 137.407L678.25 138.26C668.217 131.202 656.97 125.675 645.724 120.771C622.961 111.058 599.011 104.257 574.71 99.6914C562.587 97.4561 550.37 95.3834 538.004 95.5053C488.284 96.0879 441.638 121.936 405.201 154.517V154.53ZM404.985 154.436C440.991 120.581 487.758 94.4216 537.99 93.1888C550.504 92.9043 562.911 95.0583 575.169 97.2665C587.414 99.5153 599.55 102.387 611.525 105.855C635.367 113.09 658.953 122.248 679.599 136.499L680.03 136.811V137.353C678.695 196.676 660.665 266.593 607.237 299.404C569.397 322.285 512.786 322.367 474.245 301.043C423.393 272.621 404.688 209.681 404.985 154.436Z" fill="#010101"/>
<path d="M642.811 182.627C642.757 180.595 641.88 177.75 636.338 177.75C630.796 177.75 630.553 182.031 630.553 182.966C630.553 183.901 632.171 188.697 636.891 188.52C641.611 188.344 642.878 184.89 642.811 182.614V182.627Z" fill="#FFF5EA"/>
<path d="M642.757 182.627C642.797 179.092 639.21 178.319 636.378 178.252C633.182 177.859 630.418 179.81 630.917 183.21C631.335 184.565 632.198 185.838 633.263 186.719C636.594 189.374 642.932 187.355 642.757 182.627ZM642.878 182.627C643.215 191.121 631.429 191.311 630.27 183.332C629.838 175.813 642.973 174.811 642.878 182.627Z" fill="#010101"/>
<path d="M461.219 182.627C461.165 180.595 460.288 177.75 454.746 177.75C449.203 177.75 448.961 182.031 448.961 182.966C448.961 183.901 450.579 188.697 455.299 188.52C460.018 188.344 461.286 184.89 461.219 182.614V182.627Z" fill="#FFF5EA"/>
<path d="M461.165 182.627C461.205 179.092 457.618 178.319 454.786 178.252C451.59 177.859 448.826 179.81 449.325 183.21C449.743 184.565 450.606 185.838 451.671 186.719C455.002 189.374 461.34 187.355 461.165 182.627ZM461.286 182.627C461.623 191.121 449.837 191.311 448.677 183.332C448.246 175.813 461.38 174.811 461.286 182.627Z" fill="#010101"/>
<path d="M646.641 172.155C646.749 171.817 648.691 165.653 647.666 164.406C646.641 163.147 639.372 160.302 636.877 160.193C634.383 160.085 629.38 158.825 627.802 160.193C626.224 161.561 625.415 164.122 625.415 165.87C625.415 167.617 629.96 171.722 634.841 172.169C639.723 172.63 646.654 172.169 646.654 172.169L646.641 172.155Z" fill="#010101"/>
<path d="M442.636 172.155C442.528 171.817 440.586 165.653 441.611 164.406C442.636 163.147 449.905 160.302 452.399 160.193C454.894 160.085 459.897 158.825 461.475 160.193C463.066 161.561 463.862 164.122 463.862 165.87C463.862 167.617 459.317 171.722 454.436 172.169C449.554 172.63 442.622 172.169 442.622 172.169L442.636 172.155Z" fill="#010101"/>
<path d="M638.536 220.532C638.873 220.072 642.514 214.829 638.536 206.728C634.558 198.627 628.773 201.363 627.869 200.564C626.966 199.765 618.106 196.229 612.429 205.238C606.751 214.247 614.128 226.453 624.242 227.022C634.342 227.59 638.55 220.519 638.55 220.519L638.536 220.532Z" fill="#EEB19F"/>
<path d="M638.482 220.505C642.433 214.815 638.914 203.842 632.468 201.553C631.133 201.106 629.744 201.201 628.314 201.119C628.112 201.092 627.802 201.011 627.613 200.862C620.183 196.459 611.593 202.799 610.999 210.833C610.568 216.373 613.764 221.86 618.47 224.624C624.781 228.295 634.194 226.737 638.482 220.505ZM638.577 220.573C629.191 233.741 608.936 227.198 610.042 210.724C611.026 202.393 620.331 196.107 628.072 200.293C629.541 200.469 631.2 200.076 632.724 200.577C640.195 203.002 642.676 214.396 638.563 220.56L638.577 220.573Z" fill="#010101"/>
<path d="M485.087 215.317C485.182 215.872 486.031 222.212 478.83 227.604C471.616 232.996 467.705 227.902 466.532 228.2C465.359 228.498 455.878 227.591 454.907 216.97C453.95 206.349 466.046 198.871 475.297 202.989C484.548 207.107 485.074 215.33 485.074 215.33L485.087 215.317Z" fill="#EEB19F"/>
<path d="M485.155 215.303C486.004 222.673 478.628 231.668 470.888 230.408C469.31 230.164 468.002 229.054 466.613 228.539C457.82 228.715 452.386 218.866 455.299 210.995C461.785 195.836 482.782 199.277 485.155 215.303ZM485.034 215.317C484.036 207.812 476.376 202.122 469.094 202.488C463.646 202.786 458.319 206.213 456.189 211.334C453.006 218.893 457.982 228.539 466.734 227.807C468.258 228.187 469.526 229.257 471.09 229.419C477.873 230.327 485.978 222.185 485.047 215.303L485.034 215.317Z" fill="#010101"/>
<path d="M548.468 167.658C548.468 169.026 555.184 209.397 553.795 211.618C552.406 213.84 545.097 216.414 542.548 215.723C539.999 215.032 532.933 212.987 532.583 210.074C532.232 207.161 537.572 176.03 537.329 174.323C537.087 172.616 537.451 169.026 540.229 167.658C543.007 166.289 548.455 167.658 548.455 167.658H548.468Z" fill="#F0CBA2"/>
<path d="M548.509 167.617C550.262 177.588 551.988 187.491 553.188 197.502C553.606 201.268 554.011 205.034 554.159 208.814C554.145 209.79 554.321 210.778 553.93 211.727C552.945 213.041 551.394 213.705 549.978 214.368C547.632 215.303 545.178 216.238 542.589 215.926C539.096 214.87 534.646 214.111 532.448 210.86C531.773 208.34 532.65 205.698 532.798 203.151C533.702 195.917 534.983 187.951 536.089 180.717C536.385 178.577 537.06 175.42 536.898 173.28C537.087 166.235 543.128 166.073 548.509 167.604V167.617ZM548.428 167.685C541.752 166.452 537.033 167.197 537.707 175.231C537.289 179.539 536.574 184.09 535.954 188.358L533.715 203.3L533.216 207.039C533.135 208.164 532.771 209.532 533.122 210.562C535.131 213.556 539.406 214.436 542.669 215.534C543.829 215.777 545.097 215.534 546.297 215.276C548.913 214.558 551.826 213.678 553.606 211.551C554.118 206.958 552.824 202.217 552.352 197.624C551.152 188.846 549.277 176.369 548.401 167.685H548.428Z" fill="#010101"/>
<path d="M562.102 207.69C562.102 207.69 565.001 212.282 562.102 213.149C559.202 214.016 553.808 211.618 553.808 211.618" fill="#F0CBA2"/>
<path d="M562.142 207.649C564.516 209.749 564.678 213.122 560.996 213.65C558.758 214.138 555.211 213.285 553.822 211.564C556.317 211.794 558.542 212.594 560.956 213C561.536 213.068 562.183 213.027 562.614 212.662C563.046 212.282 562.978 211.686 562.871 211.185C562.695 210.128 562.304 208.99 562.048 207.717L562.156 207.649H562.142Z" fill="#010101"/>
<path d="M524.95 207.69C524.95 207.69 522.051 212.282 524.95 213.149C527.849 214.016 533.243 211.618 533.243 211.618" fill="#F0CBA2"/>
<path d="M525.004 207.717C524.734 209.681 522.63 213.434 526.083 213C528.47 212.716 530.937 211.537 533.27 211.686C531.274 213.312 528.591 214.165 526.056 213.664C524.734 213.434 523.197 212.702 523.183 211.131C523.183 209.749 523.911 208.543 524.909 207.663L525.017 207.73L525.004 207.717Z" fill="#010101"/>
<path d="M549.615 208.313C549.615 208.313 548.819 211.05 544.841 211.388C540.863 211.727 537.006 208.313 537.006 208.313" fill="#F0CBA2"/>
<path d="M549.668 208.326C549.601 210.494 547.308 211.673 545.38 211.524C542.238 212.174 538.745 211.185 536.965 208.367L537.046 208.272C538.219 208.746 539.271 209.261 540.337 209.735C541.887 210.386 543.56 211.456 545.313 211.144C546.958 210.535 548.293 209.654 549.547 208.313L549.668 208.354V208.326Z" fill="#010101"/>
<path d="M673.085 194.969C673.409 195.118 679.747 198.694 677.819 207.378C675.89 216.062 667.907 218.785 667.988 218.365C668.069 217.945 673.085 194.955 673.085 194.955V194.969Z" fill="#F0CBA2"/>
<path d="M673.031 194.86C675.364 195.511 677.158 197.462 678.223 199.616C681.783 207.066 675.122 216.021 668.595 219.232C667.988 219.462 667.219 219.327 667.071 218.5C667.974 210.765 670.496 201.851 673.031 194.86ZM673.139 195.077C672.168 203.734 671.319 210.616 668.905 218.527C669.026 218.107 668.622 217.484 668.123 217.484C672.977 216.577 676.915 211.686 676.969 206.403C677.522 202.46 676.47 198.478 673.625 195.646L673.328 195.348C673.234 195.24 673.085 195.186 673.126 195.077H673.139Z" fill="#010101"/>
<path d="M412.874 215.208C412.523 215.208 405.268 214.761 403.246 206.091C401.223 197.421 407.237 191.487 407.345 191.907C407.453 192.327 412.874 215.208 412.874 215.208Z" fill="#F0CBA2"/>
<path d="M412.968 215.29C410.595 215.723 408.114 214.748 406.226 213.271C399.793 208.069 401.911 197.191 406.428 191.392C406.873 190.932 407.628 190.715 408.114 191.392C410.649 198.762 412.227 207.879 412.968 215.29ZM412.78 215.141C409.907 206.917 407.696 200.347 406.442 192.165C406.522 192.598 407.143 192.977 407.601 192.761C403.623 195.7 402.18 201.824 404.432 206.592C405.646 210.386 408.316 213.515 412.092 214.829L412.483 214.965C412.618 215.019 412.766 215.005 412.78 215.127V215.141Z" fill="#010101"/>
<path d="M462.823 135.849C462.823 135.849 473.369 149.735 454.881 158.378C436.392 167.021 427.546 176.016 431.2 184.93C434.855 193.858 412.847 193.113 408.141 198.356C403.434 203.598 412.281 213.583 405.821 219.408C399.362 225.22 384.393 241.598 387.427 250.296C390.462 258.993 393.577 264.832 393.577 264.832C393.577 264.832 388.156 258.6 385.283 246.828C382.411 235.055 403.421 223.946 399.335 214.138C395.249 204.33 392.997 193.005 400.562 189.618C408.127 186.231 416.124 194.143 420.574 182.885C425.038 171.641 416.326 164.84 431.551 158.513C446.776 152.187 453.977 151.672 453.896 145.738C453.815 139.805 450.255 133.6 450.255 133.6L462.823 135.835V135.849Z" fill="#010101"/>
<path d="M405.08 150.372C407.21 143.205 413.306 43.3622 537.006 40.287C660.706 37.2118 676.726 122.248 676.726 122.248C676.726 122.248 513.312 112.995 465.871 125.282C418.416 137.569 405.08 150.372 405.08 150.372Z" fill="#653C2D" stroke="#010101" stroke-width="1.78" stroke-miterlimit="10"/>
<path d="M402.827 173.93C402.827 173.93 445.427 133.478 546.351 135.023C645.616 136.54 678.938 163.187 678.938 163.187C678.938 163.187 682.754 128.628 680.651 123.507C678.547 118.387 587.252 101.94 542.777 101.751C446.884 101.331 401.425 135.28 400.71 137.84C399.996 140.401 402.827 173.944 402.827 173.944V173.93Z" fill="#653C2D" stroke="#010101" stroke-width="1.78" stroke-miterlimit="10"/>
<path d="M509.267 245.229C509.267 245.229 523.75 241.693 530.654 239.769C537.046 237.981 540.175 243.495 541.955 242.831C543.748 242.154 547.996 238.591 555.912 239.824C563.828 241.07 581.372 245.229 581.372 245.229C581.372 245.229 556.249 249.835 542.467 249.131C531.692 248.589 517.493 246.516 511.788 245.622C510.197 245.378 509.267 245.215 509.267 245.215V245.229Z" fill="#C33F34"/>
<path d="M511.788 245.635C511.788 246.963 525.098 260.686 542.75 260.673C568.197 260.659 580.442 245.283 580.442 245.283C580.442 245.283 545.191 248.386 536.507 247.695C527.822 247.004 511.788 245.635 511.788 245.635Z" fill="#C33F34"/>
<path d="M509.199 245.27C514.485 244.172 521.767 241.802 527 240.284C529.912 239.322 533.338 238.428 536.331 239.824C537.842 240.42 539.082 241.558 540.31 242.14C540.957 242.425 541.429 242.398 542.144 242.1C545.717 240.664 549.48 239.282 553.39 239.268C556.519 239.322 559.499 240.189 562.533 240.785C569.087 242.262 575.627 243.779 582.168 245.351C569.788 247.424 557.422 249.496 544.854 250.038C538.813 250.255 532.879 249.117 526.932 248.345C520.999 247.437 515.173 246.53 509.199 245.283V245.27ZM509.32 245.27C520.297 246.394 531.517 248.318 542.602 248.819C555.238 248.44 567.846 246.557 580.388 244.917L580.361 245.595C574.427 243.969 568.48 242.411 562.466 241.151C559.486 240.596 556.438 239.797 553.417 239.878C550.397 240.013 547.47 240.975 544.665 242.14C543.29 242.628 541.402 243.874 539.918 243.075C538.435 242.398 537.356 241.382 535.913 240.772C533.122 239.444 530.115 240.271 527.269 241.151C522.819 242.398 518.356 243.563 513.838 244.552C512.611 244.755 510.561 245.364 509.334 245.256L509.32 245.27Z" fill="#010101"/>
<path d="M512.368 247.857C517.25 251.312 522.509 254.17 527.917 256.595C533.257 259.142 539.217 260.849 545.151 260.307C551.057 259.725 556.802 258.031 562.412 256.053C568.049 254.116 573.564 251.827 579.039 249.402C574.333 252.68 568.359 255.132 562.83 257.272C557.166 259.264 551.233 260.835 545.178 260.971C533.297 260.849 520.675 256.148 512.355 247.871L512.368 247.857Z" fill="#010101"/>
</g>
<rect x="648" y="41" width="199" height="27" fill="#1E110D"/>
<rect x="582" y="68" width="265" height="27" fill="#F1AC1D"/>
<path d="M667.345 61H664.709L668.726 49.3636H671.896L675.908 61H673.271L670.357 52.0227H670.266L667.345 61ZM667.18 56.4261H673.408V58.3466H667.18V56.4261ZM683.355 52.7102C683.31 52.2519 683.115 51.8958 682.77 51.642C682.425 51.3883 681.957 51.2614 681.366 51.2614C680.965 51.2614 680.626 51.3182 680.349 51.4318C680.073 51.5417 679.861 51.6951 679.713 51.892C679.569 52.089 679.497 52.3125 679.497 52.5625C679.49 52.7708 679.533 52.9527 679.628 53.108C679.726 53.2633 679.861 53.3977 680.031 53.5114C680.202 53.6212 680.399 53.7178 680.622 53.8011C680.846 53.8807 681.084 53.9489 681.338 54.0057L682.384 54.2557C682.891 54.3693 683.357 54.5208 683.781 54.7102C684.205 54.8996 684.573 55.1326 684.884 55.4091C685.194 55.6856 685.435 56.0114 685.605 56.3864C685.779 56.7614 685.868 57.1913 685.872 57.6761C685.868 58.3883 685.687 59.0057 685.327 59.5284C684.971 60.0473 684.455 60.4508 683.781 60.7386C683.111 61.0227 682.302 61.1648 681.355 61.1648C680.416 61.1648 679.598 61.0208 678.901 60.733C678.207 60.4451 677.666 60.0189 677.276 59.4545C676.889 58.8864 676.687 58.1837 676.668 57.3466H679.048C679.075 57.7367 679.187 58.0625 679.384 58.3239C679.584 58.5814 679.851 58.7765 680.185 58.9091C680.522 59.0379 680.902 59.1023 681.327 59.1023C681.743 59.1023 682.105 59.0417 682.412 58.9205C682.723 58.7992 682.963 58.6307 683.134 58.4148C683.304 58.1989 683.389 57.9508 683.389 57.6705C683.389 57.4091 683.312 57.1894 683.156 57.0114C683.005 56.8333 682.781 56.6818 682.486 56.5568C682.194 56.4318 681.836 56.3182 681.412 56.2159L680.145 55.8977C679.164 55.6591 678.389 55.286 677.821 54.7784C677.253 54.2708 676.971 53.5871 676.974 52.7273C676.971 52.0227 677.158 51.4072 677.537 50.8807C677.92 50.3542 678.444 49.9432 679.111 49.6477C679.777 49.3523 680.535 49.2045 681.384 49.2045C682.247 49.2045 683.001 49.3523 683.645 49.6477C684.293 49.9432 684.796 50.3542 685.156 50.8807C685.516 51.4072 685.702 52.017 685.713 52.7102H683.355ZM687.527 61V49.3636H689.987V54.4943H690.141L694.328 49.3636H697.277L692.959 54.5739L697.328 61H694.385L691.197 56.2159L689.987 57.6932V61H687.527ZM706.92 49.3636H709.352V57.4773C709.352 58.2273 709.184 58.8788 708.847 59.4318C708.513 59.9848 708.049 60.411 707.455 60.7102C706.86 61.0095 706.169 61.1591 705.381 61.1591C704.68 61.1591 704.044 61.036 703.472 60.7898C702.903 60.5398 702.453 60.161 702.119 59.6534C701.786 59.142 701.621 58.5 701.625 57.7273H704.074C704.081 58.0341 704.144 58.2973 704.261 58.517C704.383 58.733 704.547 58.8996 704.756 59.017C704.968 59.1307 705.218 59.1875 705.506 59.1875C705.809 59.1875 706.064 59.1231 706.273 58.9943C706.485 58.8617 706.646 58.6686 706.756 58.4148C706.866 58.161 706.92 57.8485 706.92 57.4773V49.3636ZM713.392 61H710.756L714.773 49.3636H717.943L721.955 61H719.318L716.403 52.0227H716.312L713.392 61ZM713.227 56.4261H719.455V58.3466H713.227V56.4261ZM733.075 53.4375H730.587C730.541 53.1155 730.448 52.8295 730.308 52.5795C730.168 52.3258 729.988 52.1098 729.768 51.9318C729.549 51.7538 729.295 51.6174 729.007 51.5227C728.723 51.428 728.414 51.3807 728.081 51.3807C727.479 51.3807 726.954 51.5303 726.507 51.8295C726.06 52.125 725.714 52.5568 725.467 53.125C725.221 53.6894 725.098 54.375 725.098 55.1818C725.098 56.0114 725.221 56.7083 725.467 57.2727C725.717 57.8371 726.066 58.2633 726.513 58.5511C726.96 58.839 727.477 58.983 728.064 58.983C728.393 58.983 728.698 58.9394 728.979 58.8523C729.263 58.7652 729.515 58.6383 729.734 58.4716C729.954 58.3011 730.136 58.0947 730.28 57.8523C730.428 57.6098 730.53 57.3333 730.587 57.0227L733.075 57.0341C733.011 57.5682 732.85 58.0833 732.592 58.5795C732.339 59.072 731.996 59.5133 731.564 59.9034C731.136 60.2898 730.625 60.5966 730.03 60.8239C729.439 61.0473 728.77 61.1591 728.024 61.1591C726.986 61.1591 726.058 60.9242 725.24 60.4545C724.426 59.9848 723.782 59.3049 723.308 58.4148C722.839 57.5246 722.604 56.447 722.604 55.1818C722.604 53.9129 722.842 52.8333 723.32 51.9432C723.797 51.053 724.445 50.375 725.263 49.9091C726.081 49.4394 727.001 49.2045 728.024 49.2045C728.698 49.2045 729.323 49.2992 729.899 49.4886C730.479 49.678 730.992 49.9545 731.439 50.3182C731.886 50.678 732.25 51.1193 732.53 51.642C732.814 52.1648 732.996 52.7633 733.075 53.4375ZM734.839 61V49.3636H737.3V54.4943H737.453L741.641 49.3636H744.589L740.271 54.5739L744.641 61H741.697L738.51 56.2159L737.3 57.6932V61H734.839ZM751.58 61H748.943L752.96 49.3636H756.131L760.142 61H757.506L754.591 52.0227H754.5L751.58 61ZM751.415 56.4261H757.642V58.3466H751.415V56.4261ZM771.276 49.3636V61H769.151L764.088 53.6761H764.003V61H761.543V49.3636H763.702L768.724 56.6818H768.827V49.3636H771.276ZM772.626 49.3636H775.382L778.036 54.375H778.149L780.803 49.3636H783.558L779.314 56.8864V61H776.871V56.8864L772.626 49.3636ZM785.193 51.392V49.3636H794.75V51.392H791.188V61H788.756V51.392H785.193ZM796.324 61V49.3636H798.784V54.1648H803.778V49.3636H806.233V61H803.778V56.1932H798.784V61H796.324ZM810.722 49.3636V61H808.261V49.3636H810.722ZM822.479 49.3636V61H820.354L815.291 53.6761H815.206V61H812.746V49.3636H814.905L819.928 56.6818H820.03V49.3636H822.479ZM832.227 53.125C832.148 52.8485 832.036 52.6042 831.892 52.392C831.748 52.1761 831.572 51.9943 831.364 51.8466C831.159 51.6951 830.924 51.5795 830.659 51.5C830.398 51.4205 830.108 51.3807 829.79 51.3807C829.195 51.3807 828.672 51.5284 828.222 51.8239C827.775 52.1193 827.426 52.5492 827.176 53.1136C826.926 53.6742 826.801 54.3598 826.801 55.1705C826.801 55.9811 826.924 56.6705 827.17 57.2386C827.417 57.8068 827.765 58.2405 828.216 58.5398C828.667 58.8352 829.199 58.983 829.812 58.983C830.369 58.983 830.845 58.8845 831.239 58.6875C831.636 58.4867 831.939 58.2045 832.148 57.8409C832.36 57.4773 832.466 57.0473 832.466 56.5511L832.966 56.625H829.966V54.7727H834.835V56.2386C834.835 57.2614 834.619 58.1402 834.188 58.875C833.756 59.6061 833.161 60.1705 832.403 60.5682C831.646 60.9621 830.778 61.1591 829.801 61.1591C828.71 61.1591 827.752 60.9186 826.926 60.4375C826.1 59.9527 825.456 59.2652 824.994 58.375C824.536 57.4811 824.307 56.4205 824.307 55.1932C824.307 54.25 824.443 53.4091 824.716 52.6705C824.992 51.928 825.379 51.2992 825.875 50.7841C826.371 50.2689 826.949 49.8769 827.608 49.608C828.267 49.339 828.981 49.2045 829.75 49.2045C830.409 49.2045 831.023 49.3011 831.591 49.4943C832.159 49.6837 832.663 49.9527 833.102 50.3011C833.545 50.6496 833.907 51.0644 834.188 51.5455C834.468 52.0227 834.648 52.5492 834.727 53.125H832.227Z" fill="#FFF5EA"/>
<path d="M593.779 78.392V76.3636H603.336V78.392H599.773V88H597.342V78.392H593.779ZM615.072 82.1818C615.072 83.4508 614.831 84.5303 614.35 85.4205C613.873 86.3106 613.221 86.9905 612.396 87.4602C611.574 87.9261 610.649 88.1591 609.623 88.1591C608.589 88.1591 607.661 87.9242 606.839 87.4545C606.017 86.9848 605.367 86.3049 604.89 85.4148C604.413 84.5246 604.174 83.447 604.174 82.1818C604.174 80.9129 604.413 79.8333 604.89 78.9432C605.367 78.053 606.017 77.375 606.839 76.9091C607.661 76.4394 608.589 76.2045 609.623 76.2045C610.649 76.2045 611.574 76.4394 612.396 76.9091C613.221 77.375 613.873 78.053 614.35 78.9432C614.831 79.8333 615.072 80.9129 615.072 82.1818ZM612.577 82.1818C612.577 81.3598 612.454 80.6667 612.208 80.1023C611.966 79.5379 611.623 79.1098 611.18 78.8182C610.737 78.5265 610.218 78.3807 609.623 78.3807C609.028 78.3807 608.509 78.5265 608.066 78.8182C607.623 79.1098 607.278 79.5379 607.032 80.1023C606.79 80.6667 606.668 81.3598 606.668 82.1818C606.668 83.0038 606.79 83.697 607.032 84.2614C607.278 84.8258 607.623 85.2538 608.066 85.5455C608.509 85.8371 609.028 85.983 609.623 85.983C610.218 85.983 610.737 85.8371 611.18 85.5455C611.623 85.2538 611.966 84.8258 612.208 84.2614C612.454 83.697 612.577 83.0038 612.577 82.1818ZM620.597 88V76.3636H628.438V78.392H623.058V81.1648H628.035V83.1932H623.058V85.9716H628.461V88H620.597ZM640.127 76.3636V88H638.002L632.94 80.6761H632.854V88H630.394V76.3636H632.553L637.576 83.6818H637.678V76.3636H640.127ZM642.16 88V76.3636H644.62V81.1648H649.614V76.3636H652.069V88H649.614V83.1932H644.62V88H642.16ZM656.103 88H653.467L657.484 76.3636H660.654L664.665 88H662.029L659.114 79.0227H659.023L656.103 88ZM655.938 83.4261H662.165V85.3466H655.938V83.4261ZM675.799 76.3636V88H673.674L668.612 80.6761H668.526V88H666.066V76.3636H668.225L673.248 83.6818H673.35V76.3636H675.799ZM688.099 80.4375H685.61C685.565 80.1155 685.472 79.8295 685.332 79.5795C685.192 79.3258 685.012 79.1098 684.792 78.9318C684.572 78.7538 684.318 78.6174 684.031 78.5227C683.746 78.428 683.438 78.3807 683.104 78.3807C682.502 78.3807 681.978 78.5303 681.531 78.8295C681.084 79.125 680.737 79.5568 680.491 80.125C680.245 80.6894 680.121 81.375 680.121 82.1818C680.121 83.0114 680.245 83.7083 680.491 84.2727C680.741 84.8371 681.089 85.2633 681.536 85.5511C681.983 85.839 682.5 85.983 683.087 85.983C683.417 85.983 683.722 85.9394 684.002 85.8523C684.286 85.7652 684.538 85.6383 684.758 85.4716C684.978 85.3011 685.159 85.0947 685.303 84.8523C685.451 84.6098 685.553 84.3333 685.61 84.0227L688.099 84.0341C688.034 84.5682 687.873 85.0833 687.616 85.5795C687.362 86.072 687.019 86.5133 686.587 86.9034C686.159 87.2898 685.648 87.5966 685.053 87.8239C684.462 88.0473 683.794 88.1591 683.048 88.1591C682.01 88.1591 681.082 87.9242 680.263 87.4545C679.449 86.9848 678.805 86.3049 678.332 85.4148C677.862 84.5246 677.627 83.447 677.627 82.1818C677.627 80.9129 677.866 79.8333 678.343 78.9432C678.82 78.053 679.468 77.375 680.286 76.9091C681.104 76.4394 682.025 76.2045 683.048 76.2045C683.722 76.2045 684.347 76.2992 684.923 76.4886C685.502 76.678 686.015 76.9545 686.462 77.3182C686.909 77.678 687.273 78.1193 687.553 78.642C687.837 79.1648 688.019 79.7633 688.099 80.4375ZM689.863 88V76.3636H697.704V78.392H692.323V81.1648H697.3V83.1932H692.323V85.9716H697.727V88H689.863ZM702.681 76.3636H705.437L708.09 81.375H708.204L710.857 76.3636H713.613L709.369 83.8864V88H706.925V83.8864L702.681 76.3636ZM724.947 82.1818C724.947 83.4508 724.706 84.5303 724.225 85.4205C723.748 86.3106 723.096 86.9905 722.271 87.4602C721.449 87.9261 720.524 88.1591 719.498 88.1591C718.464 88.1591 717.536 87.9242 716.714 87.4545C715.892 86.9848 715.242 86.3049 714.765 85.4148C714.288 84.5246 714.049 83.447 714.049 82.1818C714.049 80.9129 714.288 79.8333 714.765 78.9432C715.242 78.053 715.892 77.375 716.714 76.9091C717.536 76.4394 718.464 76.2045 719.498 76.2045C720.524 76.2045 721.449 76.4394 722.271 76.9091C723.096 77.375 723.748 78.053 724.225 78.9432C724.706 79.8333 724.947 80.9129 724.947 82.1818ZM722.452 82.1818C722.452 81.3598 722.329 80.6667 722.083 80.1023C721.841 79.5379 721.498 79.1098 721.055 78.8182C720.612 78.5265 720.093 78.3807 719.498 78.3807C718.903 78.3807 718.384 78.5265 717.941 78.8182C717.498 79.1098 717.153 79.5379 716.907 80.1023C716.665 80.6667 716.543 81.3598 716.543 82.1818C716.543 83.0038 716.665 83.697 716.907 84.2614C717.153 84.8258 717.498 85.2538 717.941 85.5455C718.384 85.8371 718.903 85.983 719.498 85.983C720.093 85.983 720.612 85.8371 721.055 85.5455C721.498 85.2538 721.841 84.8258 722.083 84.2614C722.329 83.697 722.452 83.0038 722.452 82.1818ZM733.957 76.3636H736.417V83.9205C736.417 84.7689 736.214 85.5114 735.809 86.1477C735.407 86.7841 734.845 87.2803 734.121 87.6364C733.398 87.9886 732.555 88.1648 731.593 88.1648C730.627 88.1648 729.782 87.9886 729.059 87.6364C728.335 87.2803 727.773 86.7841 727.371 86.1477C726.97 85.5114 726.769 84.7689 726.769 83.9205V76.3636H729.229V83.7102C729.229 84.1534 729.326 84.5473 729.519 84.892C729.716 85.2367 729.993 85.5076 730.349 85.7045C730.705 85.9015 731.12 86 731.593 86C732.07 86 732.485 85.9015 732.837 85.7045C733.193 85.5076 733.468 85.2367 733.661 84.892C733.858 84.5473 733.957 84.1534 733.957 83.7102V76.3636ZM738.441 88V76.3636H743.032C743.911 76.3636 744.661 76.5208 745.282 76.8352C745.907 77.1458 746.382 77.5871 746.708 78.1591C747.038 78.7273 747.202 79.3958 747.202 80.1648C747.202 80.9375 747.036 81.6023 746.702 82.1591C746.369 82.7121 745.886 83.1364 745.254 83.4318C744.625 83.7273 743.863 83.875 742.969 83.875H739.896V81.8977H742.572C743.041 81.8977 743.432 81.8333 743.742 81.7045C744.053 81.5758 744.284 81.3826 744.435 81.125C744.591 80.8674 744.668 80.5473 744.668 80.1648C744.668 79.7784 744.591 79.4527 744.435 79.1875C744.284 78.9223 744.051 78.7216 743.737 78.5852C743.426 78.4451 743.034 78.375 742.56 78.375H740.901V88H738.441ZM744.725 82.7045L747.617 88H744.901L742.072 82.7045H744.725ZM757.303 76.3636H759.735V84.4773C759.735 85.2273 759.567 85.8788 759.229 86.4318C758.896 86.9848 758.432 87.411 757.837 87.7102C757.243 88.0095 756.551 88.1591 755.763 88.1591C755.063 88.1591 754.426 88.036 753.854 87.7898C753.286 87.5398 752.835 87.161 752.502 86.6534C752.169 86.142 752.004 85.5 752.008 84.7273H754.457C754.464 85.0341 754.527 85.2973 754.644 85.517C754.765 85.733 754.93 85.8996 755.138 86.017C755.351 86.1307 755.601 86.1875 755.888 86.1875C756.192 86.1875 756.447 86.1231 756.656 85.9943C756.868 85.8617 757.029 85.6686 757.138 85.4148C757.248 85.161 757.303 84.8485 757.303 84.4773V76.3636ZM772.462 82.1818C772.462 83.4508 772.222 84.5303 771.741 85.4205C771.263 86.3106 770.612 86.9905 769.786 87.4602C768.964 87.9261 768.04 88.1591 767.013 88.1591C765.979 88.1591 765.051 87.9242 764.229 87.4545C763.407 86.9848 762.758 86.3049 762.281 85.4148C761.803 84.5246 761.565 83.447 761.565 82.1818C761.565 80.9129 761.803 79.8333 762.281 78.9432C762.758 78.053 763.407 77.375 764.229 76.9091C765.051 76.4394 765.979 76.2045 767.013 76.2045C768.04 76.2045 768.964 76.4394 769.786 76.9091C770.612 77.375 771.263 78.053 771.741 78.9432C772.222 79.8333 772.462 80.9129 772.462 82.1818ZM769.968 82.1818C769.968 81.3598 769.845 80.6667 769.599 80.1023C769.356 79.5379 769.013 79.1098 768.57 78.8182C768.127 78.5265 767.608 78.3807 767.013 78.3807C766.419 78.3807 765.9 78.5265 765.457 78.8182C765.013 79.1098 764.669 79.5379 764.423 80.1023C764.18 80.6667 764.059 81.3598 764.059 82.1818C764.059 83.0038 764.18 83.697 764.423 84.2614C764.669 84.8258 765.013 85.2538 765.457 85.5455C765.9 85.8371 766.419 85.983 767.013 85.983C767.608 85.983 768.127 85.8371 768.57 85.5455C769.013 85.2538 769.356 84.8258 769.599 84.2614C769.845 83.697 769.968 83.0038 769.968 82.1818ZM781.472 76.3636H783.933V83.9205C783.933 84.7689 783.73 85.5114 783.325 86.1477C782.923 86.7841 782.361 87.2803 781.637 87.6364C780.914 87.9886 780.071 88.1648 779.109 88.1648C778.143 88.1648 777.298 87.9886 776.575 87.6364C775.851 87.2803 775.289 86.7841 774.887 86.1477C774.486 85.5114 774.285 84.7689 774.285 83.9205V76.3636H776.745V83.7102C776.745 84.1534 776.842 84.5473 777.035 84.892C777.232 85.2367 777.508 85.5076 777.864 85.7045C778.22 85.9015 778.635 86 779.109 86C779.586 86 780.001 85.9015 780.353 85.7045C780.709 85.5076 780.984 85.2367 781.177 84.892C781.374 84.5473 781.472 84.1534 781.472 83.7102V76.3636ZM785.957 88V76.3636H790.548C791.426 76.3636 792.176 76.5208 792.798 76.8352C793.423 77.1458 793.898 77.5871 794.224 78.1591C794.553 78.7273 794.718 79.3958 794.718 80.1648C794.718 80.9375 794.551 81.6023 794.218 82.1591C793.885 82.7121 793.402 83.1364 792.769 83.4318C792.14 83.7273 791.379 83.875 790.485 83.875H787.411V81.8977H790.087C790.557 81.8977 790.947 81.8333 791.258 81.7045C791.568 81.5758 791.799 81.3826 791.951 81.125C792.106 80.8674 792.184 80.5473 792.184 80.1648C792.184 79.7784 792.106 79.4527 791.951 79.1875C791.799 78.9223 791.567 78.7216 791.252 78.5852C790.942 78.4451 790.549 78.375 790.076 78.375H788.417V88H785.957ZM792.241 82.7045L795.133 88H792.417L789.587 82.7045H792.241ZM806.19 76.3636V88H804.065L799.002 80.6761H798.917V88H796.457V76.3636H798.616L803.638 83.6818H803.741V76.3636H806.19ZM808.222 88V76.3636H816.063V78.392H810.683V81.1648H815.66V83.1932H810.683V85.9716H816.086V88H808.222ZM817.337 76.3636H820.093L822.746 81.375H822.86L825.513 76.3636H828.269L824.025 83.8864V88H821.582V83.8864L817.337 76.3636ZM832.46 76.3636L832.238 84.5114H830.158L829.931 76.3636H832.46ZM831.198 88.1477C830.823 88.1477 830.501 88.0152 830.232 87.75C829.963 87.4811 829.831 87.1591 829.835 86.7841C829.831 86.4129 829.963 86.0947 830.232 85.8295C830.501 85.5644 830.823 85.4318 831.198 85.4318C831.558 85.4318 831.874 85.5644 832.147 85.8295C832.42 86.0947 832.558 86.4129 832.562 86.7841C832.558 87.0341 832.492 87.2633 832.363 87.4716C832.238 87.6761 832.073 87.8409 831.869 87.9659C831.664 88.0871 831.441 88.1477 831.198 88.1477Z" fill="#1E110D"/>
<g clip-path="url(#clip1_0_105)">
<path d="M268.021 403.229V245.004L72.4192 270.407V439.062L268.021 403.229Z" fill="#653C2E"/>
<path d="M268.021 403.229C268.149 363.528 268.453 284.191 268.485 244.49C268.341 244.25 72.611 269.829 72.3391 269.684L71.6991 269.765V270.406L71.9071 439.062V439.688L72.515 439.575C121.264 430.573 219.321 412.408 268.021 403.229ZM268.021 403.229C219.225 411.91 121.072 429.69 72.3231 438.564C73.827 441.902 72.723 269.716 73.139 270.423L72.4991 271.145C72.3071 270.952 270.181 245.967 267.557 245.036C267.557 284.464 267.861 363.817 268.005 403.245L268.021 403.229Z" fill="#1E110D"/>
<path d="M250.391 322.929C250.391 322.929 381.47 420.03 380.062 439.062C378.654 458.094 361.727 456.938 351.856 453.905C341.984 450.873 221.401 332.91 221.401 332.91L250.391 322.945V322.929Z" fill="#653C2E"/>
<path d="M250.391 322.929C276.357 342.65 301.987 362.838 326.993 383.779C342.464 397.002 358.079 410.209 371.55 425.486C374.638 429.353 378.222 433.221 379.358 438.067C379.47 439.832 379.038 442.062 378.558 443.828C376.142 453.745 366.319 456.136 357.295 454.435C355.407 454.082 353.327 453.729 351.568 452.942C349.952 452.108 348.288 450.776 346.704 449.573C303.187 412.68 262.934 372.017 221.545 332.765L221.465 333.118L250.375 322.945L250.391 322.929ZM250.391 322.929L221.337 332.701L221.017 332.814L221.257 333.054C244.423 356.034 267.925 378.676 291.556 401.19C303.379 412.439 315.266 423.624 327.329 434.601C333.377 440.073 339.44 445.529 345.824 450.68C347.84 452.156 349.936 454.13 352.512 454.836C359.839 456.874 368.83 457.548 375.038 452.285C377.87 449.861 379.454 446.251 380.238 442.64C380.734 440.073 381.038 437.184 379.63 434.777C375.758 427.379 369.79 421.618 364.095 415.713C328.865 381.661 289.604 352.15 250.407 322.912L250.391 322.929Z" fill="#1E110D"/>
<path d="M72.0671 342.041C86.1141 326.604 116.736 285.09 120.144 280.468C121.056 271 121.616 265.191 121.616 265.191L269.221 267.149C269.221 267.149 269.749 275.959 270.485 289.503L273.989 273.552C273.989 273.552 320.818 346.598 325.521 346.598C330.225 346.598 351.136 300.639 351.136 300.639L358.799 304.972C358.799 304.972 335.265 360.399 324.113 365.999C314.29 370.926 279.141 312.209 270.933 298.2C273.013 338.029 275.989 404.464 273.973 425.663C271.029 456.618 113.296 442.159 108.721 442.159C107.825 442.159 107.777 435.355 108.273 424.459C89.5379 400.356 61.2998 353.852 72.0351 342.041H72.0671ZM87.858 360.575C83.9383 363.368 97.3933 385.721 109.488 404.175C111.2 379.174 114.064 346.101 116.576 318.468C109.264 330.583 93.0576 356.885 87.842 360.575H87.858Z" fill="#F1AC1D"/>
<path d="M72.0671 342.041C89.2179 322.447 104.609 301.362 120.24 280.532C120.304 280.484 121.744 265.255 121.776 265.191L121.616 265.336C158.429 265.929 232.424 267.101 269.221 267.807L268.581 267.197C268.853 271.466 269.797 291.236 270.037 294.959L271.221 289.663L274.789 273.728L273.317 274.001C279.717 284.031 286.18 294.012 292.724 303.929C299.283 313.846 305.891 323.731 312.818 333.424C316.546 338.254 319.666 343.63 324.481 347.497C326.401 348.636 328.353 346.133 329.393 344.801C332.129 341.158 334.305 337.211 336.497 333.263C342.192 322.752 347.344 312.033 352.367 301.217L350.496 301.827L358.143 306.192L357.567 304.475C349.568 322.464 341.408 340.693 330.545 357.125C328.369 359.95 326.129 363.785 322.914 364.892C320.866 364.796 319.09 363.223 317.41 361.907C307.843 353.178 300.451 341.865 293.076 331.177C285.748 320.201 278.789 308.968 272.069 297.59L269.397 293.049C270.869 321.228 272.341 349.407 273.237 377.602C273.621 392.461 274.101 407.337 273.413 422.18L273.253 424.636C273.285 428.696 270.501 431.761 267.093 433.895C239.991 449.364 163.549 444.951 130.479 443.427L110.736 442.127L109.504 442.047L108.881 442.015C108.721 442.015 108.785 442.015 108.737 441.983C108.705 441.935 108.657 441.854 108.625 441.758C107.665 436.093 108.385 430.188 108.481 424.443C97.8893 410.964 60.2759 357.19 72.0991 342.073L72.0671 342.041ZM72.0671 342.041C60.1639 357.141 97.8413 411.413 108.145 424.459C107.937 429.418 107.665 434.392 107.905 439.351C108.001 440.282 107.953 441.309 108.449 442.175C108.529 442.304 108.816 442.352 108.864 442.336L109.472 442.368L110.704 442.448C147.39 444.775 237.863 452.173 267.925 435.179C271.493 433.093 274.949 429.273 274.917 424.732L275.109 422.245C275.925 407.337 275.573 392.397 275.317 377.505C274.709 351.027 273.621 324.566 272.261 298.136L269.861 298.858C276.565 310.3 283.492 321.581 290.836 332.637C298.403 343.662 305.619 354.863 315.57 364.026C317.666 365.727 320.002 367.7 323.026 367.716C327.489 367.075 330.481 361.843 332.929 358.762C344.224 341.752 352.351 323.009 360.559 304.394L359.487 303.801L351.824 299.484L350.56 298.778C345.424 309.995 340.128 321.196 334.305 332.044C331.873 336.425 328.657 342.49 325.649 345.411C321.314 341.736 318.13 336.617 314.642 332.124C307.667 322.544 300.979 312.723 294.34 302.87C287.348 292.471 280.452 281.993 273.637 271.482L273.221 273.391L269.781 289.342L271.253 289.455L269.893 267.101L269.861 266.491H269.253C232.408 266.218 158.333 265.416 121.488 265.015V265.159C121.52 265.095 119.968 280.693 120.064 280.372C104.513 301.249 89.1859 322.383 72.0991 342.025L72.0671 342.041Z" fill="#1E110D"/>
<path d="M87.858 360.559C83.1543 364.7 106.513 400.453 110.048 406.55L110.288 404.208C113.584 374.809 116.08 344.352 117.648 314.889C112.848 323.314 107.953 331.739 102.881 340.003C98.2253 347.064 94.0336 354.718 87.858 360.559ZM87.858 360.559C94.0656 354.75 98.3693 347.16 103.281 340.26C108.081 333.215 112.72 326.074 117.296 318.885L115.744 318.371C112.576 346.438 110.224 375.82 108.689 404.095L110.16 403.71C106.129 397.484 83.4583 366.047 87.858 360.559Z" fill="#1E110D"/>
<path d="M324.113 156.424C324.113 156.424 328.577 307.427 196.522 307.427C64.4676 307.427 67.6514 156.424 67.6514 156.424C67.6514 156.424 104.657 112.278 181.211 101.398C257.766 90.518 324.113 156.424 324.113 156.424Z" fill="#F2CCA1"/>
<path d="M324.001 156.472C322.994 203.394 307.859 257.264 268.005 285.571C262.214 289.968 255.126 293.579 248.551 296.644C247.575 297.013 244.743 298.104 243.703 298.489C237.528 300.928 230.296 302.838 223.769 304.057C218.713 305.245 213.497 305.55 208.362 306.24L206.634 306.32C173.42 308.807 137.982 300.752 113.44 277.066C88.018 252.963 75.4109 218.269 70.6912 184.121C69.4433 174.942 68.6593 165.651 68.6913 156.44L68.4514 157.082C84.6263 139.735 105.377 126.929 127.055 117.654C139.278 112.326 152.158 108.411 165.165 105.506C175.068 103.404 185.819 101.575 195.946 101.334C243.815 100.515 289.012 125.228 324.017 156.472H324.001ZM324.209 156.376C285.54 120.157 232.168 92.1228 177.948 100.804C174.748 101.35 167.708 102.489 164.685 103.243C139.79 108.651 115.68 118.296 94.4496 132.513C84.4823 139.301 74.9949 146.715 66.8835 155.75L66.6435 156.023V156.392C67.5874 199.879 80.5305 247.106 112.896 277.676C128.239 291.91 147.95 301.522 168.492 305.277C179.804 307.604 191.707 308.326 203.258 307.909C204.314 307.844 207.466 307.812 208.506 307.748C213.705 307.122 218.985 306.882 224.12 305.758C295.779 293.595 324.721 222.49 324.241 156.376H324.209Z" fill="#1E110D"/>
<path d="M290.308 182.276C290.26 180.366 289.428 177.718 284.244 177.718C279.061 177.718 278.821 181.714 278.821 182.597C278.821 183.479 280.341 187.956 284.756 187.796C289.172 187.636 290.356 184.41 290.292 182.276H290.308Z" fill="#FFF5EA"/>
<path d="M290.356 182.26C290.5 174.99 278.101 175.889 278.549 182.918C279.589 190.364 290.708 190.187 290.356 182.26ZM290.244 182.26C290.404 186.689 284.468 188.566 281.348 186.095C280.357 185.277 279.541 184.089 279.157 182.821C278.661 179.676 281.316 177.783 284.276 178.184C286.932 178.248 290.292 178.97 290.244 182.276V182.26Z" fill="#1E110D"/>
<path d="M120.224 182.276C120.176 180.366 119.344 177.718 114.16 177.718C108.977 177.718 108.737 181.714 108.737 182.597C108.737 183.479 110.256 187.956 114.672 187.796C119.088 187.636 120.272 184.41 120.208 182.276H120.224Z" fill="#FFF5EA"/>
<path d="M120.288 182.26C120.432 174.99 108.033 175.889 108.481 182.918C109.52 190.364 120.64 190.187 120.288 182.26ZM120.176 182.26C120.336 186.689 114.4 188.566 111.28 186.095C110.288 185.277 109.472 184.089 109.089 182.821C108.593 179.676 111.248 177.783 114.208 178.184C116.864 178.248 120.224 178.97 120.176 182.276V182.26Z" fill="#1E110D"/>
<path d="M293.876 172.487C293.988 172.166 295.795 166.405 294.836 165.234C293.876 164.062 287.076 161.399 284.74 161.286C282.404 161.174 277.717 160.002 276.229 161.286C274.741 162.57 273.989 164.961 273.989 166.582C273.989 168.202 278.245 172.054 282.82 172.471C287.396 172.904 293.876 172.471 293.876 172.471V172.487Z" fill="#1E110D"/>
<path d="M102.833 172.487C102.721 172.166 100.913 166.405 101.873 165.234C102.833 164.062 109.632 161.399 111.968 161.286C114.304 161.174 118.992 160.002 120.48 161.286C121.968 162.57 122.719 164.961 122.719 166.582C122.719 168.202 118.464 172.054 113.888 172.471C109.312 172.904 102.833 172.471 102.833 172.471V172.487Z" fill="#1E110D"/>
<path d="M286.292 217.724C286.612 217.291 290.02 212.396 286.292 204.822C282.564 197.248 277.141 199.815 276.293 199.061C275.445 198.307 267.141 195.001 261.83 203.426C256.518 211.851 263.43 223.26 272.885 223.79C282.34 224.319 286.276 217.708 286.276 217.708L286.292 217.724Z" fill="#EEB19F"/>
<path d="M286.34 217.756C290.212 211.931 287.86 201.388 280.868 199.061C279.477 198.612 277.941 198.916 276.581 198.804C269.413 194.856 260.47 200.762 259.622 208.545C258.518 223.902 277.637 230.064 286.34 217.756ZM286.244 217.692C277.989 228.716 259.782 222.682 260.502 208.641C261.014 201.035 269.365 195.081 276.293 199.446C277.717 199.783 279.237 199.446 280.612 199.976C286.708 202.206 289.924 212.252 286.244 217.708V217.692Z" fill="#1E110D"/>
<path d="M142.574 212.845C142.67 213.375 143.47 219.296 136.702 224.335C129.935 229.374 126.287 224.608 125.183 224.897C124.079 225.17 115.2 224.319 114.304 214.386C113.408 204.453 124.735 197.456 133.407 201.307C142.078 205.159 142.574 212.845 142.574 212.845Z" fill="#EEB19F"/>
<path d="M142.526 212.845C143.326 219.376 135.887 226.854 129.455 226.052C127.983 225.892 126.799 224.897 125.375 224.544C117.232 225.266 112.496 216.151 115.504 209.138C121.216 196.317 140.206 199.269 142.526 212.845ZM142.638 212.845C140.526 197.921 120.624 194.648 114.672 208.817C111.888 216.135 117.168 225.474 125.343 225.234C126.607 225.763 127.823 226.726 129.279 226.967C136.559 228.106 143.438 219.794 142.638 212.829V212.845Z" fill="#1E110D"/>
<path d="M201.946 168.266C201.946 169.55 208.233 207.293 206.937 209.379C205.641 211.465 198.794 213.856 196.41 213.214C194.026 212.573 187.403 210.663 187.083 207.935C186.763 205.223 191.754 176.097 191.53 174.509C191.306 172.92 191.642 169.55 194.25 168.266C196.858 166.983 201.962 168.266 201.962 168.266H201.946Z" fill="#F2CCA1"/>
<path d="M201.898 168.298C202.874 177.638 204.33 186.977 205.594 196.285C206.042 200.585 207.242 205.014 206.762 209.299C205.082 211.289 202.362 212.091 199.898 212.765C198.778 213.006 197.578 213.23 196.506 213.006C193.45 212.011 189.435 211.16 187.563 208.368C187.131 206.828 187.995 203.297 188.107 201.58L190.203 187.619C190.795 183.639 191.451 179.355 191.819 175.343C191.163 167.865 195.642 167.127 201.882 168.298H201.898ZM201.978 168.234C196.986 166.806 191.275 166.982 191.131 173.546C191.275 175.536 190.635 178.488 190.347 180.494C189.307 187.282 188.107 194.696 187.259 201.468C187.115 203.875 186.299 206.298 186.923 208.673C189.067 211.77 193.067 212.38 196.41 213.423C198.842 213.744 201.13 212.829 203.338 211.947C204.666 211.321 206.122 210.695 207.034 209.475C207.705 205.11 206.65 200.569 206.346 196.172C205.21 186.801 203.594 177.541 201.962 168.218L201.978 168.234Z" fill="#1E110D"/>
<path d="M214.697 205.704C214.697 205.704 217.401 210.005 214.697 210.807C211.993 211.61 206.922 209.379 206.922 209.379" fill="#F2CCA1"/>
<path d="M214.649 205.737C214.905 207.582 216.873 211.08 213.625 210.663C211.401 210.39 209.082 209.299 206.89 209.427C208.778 210.952 211.241 211.738 213.657 211.273C214.889 211.064 216.329 210.374 216.345 208.914C216.313 207.582 215.641 206.475 214.729 205.672L214.633 205.737H214.649Z" fill="#1E110D"/>
<path d="M179.915 205.704C179.915 205.704 177.212 210.005 179.915 210.807C182.619 211.61 187.691 209.379 187.691 209.379" fill="#F2CCA1"/>
<path d="M179.868 205.672C178.524 206.748 177.404 209.428 179.212 210.647C181.819 212.107 185.755 211.385 187.675 209.331C185.339 209.54 183.259 210.294 180.988 210.663C180.444 210.727 179.836 210.695 179.436 210.358C179.036 210.005 179.084 209.444 179.196 208.978C179.212 208.24 180.092 206.17 179.868 205.672Z" fill="#1E110D"/>
<path d="M203.002 206.282C203.002 206.282 202.25 208.834 198.538 209.154C194.81 209.475 191.195 206.282 191.195 206.282" fill="#F2CCA1"/>
<path d="M202.954 206.266C201.786 207.534 200.538 208.352 198.986 208.914C197.338 209.219 195.786 208.208 194.331 207.598C193.515 207.325 191.771 206.234 191.179 206.314C192.843 208.946 196.106 209.877 199.05 209.267C200.858 209.411 203.002 208.32 203.066 206.282L202.954 206.25V206.266Z" fill="#1E110D"/>
<path d="M72.4191 196.156C72.1151 196.301 66.1795 199.639 67.9874 207.758C69.7953 215.878 77.2667 218.43 77.1867 218.029C77.1067 217.627 72.4191 196.14 72.4191 196.14V196.156Z" fill="#F2CCA1"/>
<path d="M72.467 196.06C68.0034 197.44 65.8275 202.864 66.9314 207.181C68.3713 212.155 71.9871 216.584 76.6268 218.863C77.1867 219.072 77.9227 218.943 78.0507 218.173C77.2027 210.936 74.8349 202.607 72.467 196.06ZM72.3711 196.269C73.283 204.356 74.0829 210.807 76.3388 218.205C76.2268 217.82 76.6108 217.226 77.0747 217.226C72.675 216.488 68.7713 211.722 68.7873 206.876C68.1633 202.928 69.5392 199.029 72.3711 196.285V196.269Z" fill="#1E110D"/>
<path d="M316.13 215.092C316.466 215.092 323.25 214.675 325.153 206.571C327.041 198.467 321.426 192.915 321.314 193.3C321.202 193.685 316.13 215.092 316.13 215.092Z" fill="#F2CCA1"/>
<path d="M316.034 215.156C320.658 215.862 324.961 211.915 325.825 207.55C326.689 202.447 325.345 196.879 322.162 192.803C321.746 192.369 321.042 192.161 320.578 192.803C318.21 199.687 316.722 208.224 316.034 215.14V215.156ZM316.21 215.012C318.898 207.325 320.978 201.179 322.146 193.525C322.082 193.91 321.474 194.295 321.058 194.086C324.721 196.734 326.161 202.607 324.033 207.02C322.881 210.856 319.954 213.776 316.21 215.012Z" fill="#1E110D"/>
<path d="M325.793 134.118C325.793 134.118 295.091 47.5438 207.114 44.6874C119.136 41.831 85.3302 82.9277 77.2027 93.1979C69.0753 103.468 67.6514 139.991 67.6514 139.991L325.793 134.118Z" fill="#592D81"/>
<path d="M325.873 134.182C310.146 92.5079 275.093 56.1611 230.728 46.6291C222.648 44.9762 214.441 43.9171 206.202 43.7888C200.89 43.9011 195.066 43.7246 189.787 43.9813C148.462 45.8428 104.417 58.8891 77.3787 92.0425C73.8429 96.3431 72.275 101.992 70.9791 107.303C68.4353 118.344 67.3314 129.641 66.6914 140.938C140.542 139.975 251.079 136.445 325.889 134.198L325.873 134.182ZM325.681 134.054C251.079 135.049 141.182 136.862 67.6194 139.077L68.5473 140.023C69.0432 129.176 70.0192 118.231 72.323 107.592C73.075 104.046 74.0989 100.564 75.5388 97.306C77.7466 92.4918 81.8744 88.5282 85.4581 84.5966C92.9936 76.7817 101.969 70.3147 111.376 64.9228C135.215 51.5235 162.733 46.2761 189.835 45.4737C204.234 45.2811 218.905 45.5379 232.92 49.2127C275.669 59.3545 308.85 94.4014 325.681 134.054Z" fill="#1E110D"/>
<path d="M324.113 155.958C324.113 155.958 239.191 136.012 165.788 143.425C92.3855 150.839 67.7153 160.692 67.7153 160.692L62.2277 133.717C62.2277 133.717 152.589 112.599 203.002 114.316C253.414 116.033 325.777 134.118 325.777 134.118L324.097 155.942L324.113 155.958Z" fill="#592D81"/>
<path d="M324.049 155.862C282.052 145.993 238.743 140.505 195.562 140.858C173.916 141.131 152.413 144.003 131.023 147.068C109.664 150.422 88.1939 153.551 67.5713 160.307L68.1313 160.612L62.8356 133.605L62.3717 134.327C105.777 125.212 149.694 116.867 194.09 115.455C216.249 115.311 238.375 118.376 260.262 121.698C281.604 124.666 305.891 130.668 325.377 134.118L324.033 155.894L324.049 155.862ZM324.177 156.039L326.193 134.15L326.225 133.813C304.531 128.293 282.628 123.688 260.566 119.82C238.599 116.065 216.425 112.968 194.058 113.08C149.406 114.38 105.521 123.367 62.0837 133.123L61.5077 133.252L61.6357 133.829L67.3153 160.756L67.4113 161.222C72.5789 159.312 77.9866 157.884 83.3622 156.552C120.112 148.288 157.965 143.666 195.578 142.768C238.775 142.543 281.78 147.646 324.177 156.006V156.039Z" fill="#1E110D"/>
<path d="M228.76 248.31C210.633 252.578 191.627 252.979 173.276 250.027C170.652 249.593 168.044 249.048 165.469 248.31C184.731 255.37 209.433 254.969 228.76 248.31Z" fill="#1E110D"/>
<path d="M227.336 243.977C227.416 247.218 229.16 250.107 231.048 252.626C229.752 249.738 228.104 247.09 227.336 243.977Z" fill="#1E110D"/>
<path d="M421.867 214.29C422.203 216.456 403.66 317.393 399.388 317.521C395.116 317.649 344.288 308.037 340.64 307.171C336.992 306.288 357.119 199.639 359.535 196.654C361.951 193.669 422.73 205.287 422.73 205.287L421.867 214.29Z" fill="#653C2D"/>
<path d="M421.867 214.29C422.203 216.456 403.66 317.393 399.388 317.521C395.116 317.649 344.288 308.037 340.64 307.171C336.992 306.288 357.119 199.639 359.535 196.654C361.951 193.669 422.73 205.287 422.73 205.287L421.867 214.29Z" stroke="#1E110D" stroke-width="0.88" stroke-miterlimit="10"/>
<path style="mix-blend-mode:multiply" opacity="0.22" d="M417.771 217.451C418.059 219.457 401.196 312.691 397.372 312.819C393.532 312.947 348.048 304.218 344.768 303.415C341.504 302.613 359.807 204.084 361.983 201.323C364.159 198.563 418.571 209.138 418.571 209.138L417.771 217.451Z" fill="url(#paint0_linear_0_105)"/>
<path d="M340.928 307.042C342.352 305.887 346.32 302.485 348.352 299.131C348.64 298.649 348.976 298.136 349.296 297.59C351.231 294.477 353.887 290.193 353.343 288.427C353.247 288.139 353.071 287.946 352.783 287.834C352.703 287.802 352.607 287.77 352.495 287.77C350.383 287.77 345.856 293.771 343.504 297.558C343.392 297.735 343.2 297.831 343.008 297.831C342.944 297.831 342.896 297.831 342.832 297.799C342.576 297.719 342.416 297.478 342.432 297.221L343.52 275.108C341.84 282.923 339.36 295.199 339.36 299.163C339.36 303.383 340.4 305.983 340.928 307.026V307.042Z" fill="#F3CCA1"/>
<path d="M342.576 282.506C341.232 289.198 339.936 296.355 339.936 299.179C339.936 302.565 340.624 304.86 341.136 306.111C342.832 304.683 346.096 301.73 347.856 298.826C348.144 298.345 348.48 297.815 348.816 297.285C350.48 294.606 353.279 290.112 352.799 288.604C352.767 288.492 352.719 288.427 352.495 288.347C350.911 288.347 346.848 293.29 344 297.863C343.776 298.216 343.408 298.409 343.024 298.409C342.912 298.409 342.784 298.393 342.672 298.361C342.176 298.2 341.84 297.719 341.856 297.189L342.576 282.474M344.432 268.208L343.008 297.253C343.008 297.253 349.28 287.192 352.495 287.192C352.671 287.192 352.847 287.224 353.023 287.288C356.015 288.572 351.423 295.183 348.848 299.42C346.272 303.656 340.768 307.909 340.768 307.909C340.768 307.909 338.768 305.1 338.784 299.163C338.784 293.097 344.448 268.208 344.448 268.208H344.432Z" fill="#1E110D"/>
</g>
<defs>
<linearGradient id="paint0_linear_0_105" x1="364.108" y1="203.427" x2="400.212" y2="311.788" gradientUnits="userSpaceOnUse">
<stop stop-color="white"/>
<stop offset="0.24" stop-color="#FCFCFC"/>
<stop offset="0.38" stop-color="#F4F4F4"/>
<stop offset="0.49" stop-color="#E6E6E6" stop-opacity="0.99"/>
<stop offset="0.59" stop-color="#D2D2D2" stop-opacity="0.98"/>
<stop offset="0.67" stop-color="#B9B9B9" stop-opacity="0.97"/>
<stop offset="0.75" stop-color="#999999" stop-opacity="0.96"/>
<stop offset="0.83" stop-color="#737373" stop-opacity="0.95"/>
<stop offset="0.9" stop-color="#484848" stop-opacity="0.93"/>
<stop offset="0.97" stop-color="#181818" stop-opacity="0.91"/>
<stop offset="1" stop-opacity="0.9"/>
</linearGradient>
<clipPath id="clip0_0_105">
<rect width="303" height="285" fill="white" transform="translate(385 39)"/>
</clipPath>
<clipPath id="clip1_0_105">
<rect width="411" height="284" fill="white" transform="translate(27 40)"/>
</clipPath>
</defs>
</svg>
