<svg width="252" height="143" viewBox="0 0 252 143" fill="none" xmlns="http://www.w3.org/2000/svg">
<g opacity="0.3" clip-path="url(#clip0_0_372)">
<path d="M244.679 21.3004C239.219 22.2535 234.447 23.2351 229.631 23.8168C228.635 23.936 226.695 22.6551 226.582 21.804C226.39 20.5694 227.34 19.0821 228.032 17.8454C228.304 17.3573 229.208 17.0922 229.881 16.9592C233.971 16.136 238.071 15.2875 242.184 14.6006C244.287 14.2452 246.375 14.8661 246.488 17.2119C246.567 18.606 245.259 20.0957 244.687 21.3175L244.679 21.3004Z" fill="#CABAA8"/>
<path d="M139.91 54.6441C137.735 55.6862 135.617 56.8906 133.362 57.7191C131.627 58.3609 129.791 57.9565 129.016 56.0327C128.291 54.2117 128.948 52.5072 130.712 51.662C134.598 49.7994 138.51 47.9881 142.511 46.4076C144.332 45.6823 146.453 45.7603 147.367 47.9751C148.241 50.1044 147.119 51.6312 145.226 52.6016C143.539 53.4735 141.802 54.2427 140.09 55.0633L139.884 54.6352L139.91 54.6441Z" fill="#CABAA8"/>
<path d="M185.307 30.004C188.036 29.3278 191.746 28.3709 195.471 27.5331C197.33 27.1057 199.106 27.56 199.795 29.4824C200.574 31.678 199.28 33.3718 197.333 34.01C193.712 35.1978 189.962 36.0266 186.253 36.8987C184.301 37.35 182.34 37.3002 181.366 35.0928C180.572 33.3046 181.739 31.6087 185.29 30.0122L185.307 30.004Z" fill="#CABAA8"/>
<path d="M37.5846 119.536C36.5441 119.297 34.657 119.402 33.9578 118.558C33.2339 117.662 33.0376 115.188 33.7029 114.511C36.951 111.228 40.4503 108.161 44.1398 105.404C44.9309 104.814 47.4455 105.272 48.1365 106.099C48.8357 106.943 48.7809 109.201 48.1018 110.2C46.9957 111.846 45.1169 112.978 43.557 114.336C41.747 115.92 39.9289 117.486 37.5675 119.544L37.5846 119.536Z" fill="#CABAA8"/>
<path d="M81.0999 86.5753C80.5242 86.4722 78.7377 86.6546 78.122 85.897C77.3318 84.9071 76.7909 82.724 77.3495 81.8247C79.8271 77.9002 83.814 75.6316 88.0286 73.9698C88.8409 73.6437 90.7069 74.2864 91.1193 75.0152C91.6802 76.0097 91.5854 77.6132 91.2087 78.8043C90.948 79.6661 89.8418 80.3015 89.0246 80.9248C86.66 82.6685 84.2283 84.3603 81.1081 86.5924L81.0999 86.5753Z" fill="#CABAA8"/>
<path d="M24.5116 129.864C24.2516 130.684 24.1397 132.295 23.3318 133.377C21.5522 135.683 19.4284 137.753 17.4058 139.86C15.9883 141.339 14.3313 141.396 12.7642 140.147C11.2976 138.976 11.2426 137.192 12.2485 135.952C14.52 133.179 16.9434 130.459 19.6405 128.135C21.1914 126.802 23.1916 127.549 24.5116 129.864Z" fill="#CABAA8"/>
<path d="M112.874 68.6112C110.608 69.5074 109.021 70.4575 107.387 70.6509C106.265 70.768 104.467 70.0924 103.989 69.2267C103.494 68.3267 103.788 66.0386 104.5 65.592C107.992 63.434 111.685 61.5171 115.465 59.916C116.218 59.5974 118.271 60.7188 118.672 61.6427C119.097 62.618 118.691 64.5814 117.888 65.3238C116.292 66.8256 114.187 67.7925 112.857 68.6194L112.874 68.6112Z" fill="#CABAA8"/>
<path d="M63.3009 94.1156C64.6809 97.9178 62.4383 99.4768 60.5559 100.821C58.3468 102.406 56.6337 105.817 53.056 103.931C51.4988 103.098 50.8017 101.116 51.9506 99.955C54.4472 97.4321 57.312 95.2381 60.2662 93.2749C60.919 92.8358 62.5657 93.8994 63.3091 94.1327L63.3009 94.1156Z" fill="#CABAA8"/>
<path d="M163.535 38.4373C165.547 37.9785 167.718 37.1911 169.901 37.1342C170.98 37.1014 172.897 38.246 173.028 39.0889C173.219 40.3235 172.53 42.4436 171.553 42.9537C169.171 44.2216 166.441 44.9827 163.765 45.5493C162.06 45.9029 160.806 44.7354 160.428 42.9796C159.924 40.5679 161.858 39.7255 163.518 38.4455L163.535 38.4373Z" fill="#CABAA8"/>
<path d="M208.318 23.103C210.346 22.7209 212.359 22.1771 214.425 22.0079C216.169 21.8673 217.663 22.8775 217.643 24.635C217.632 25.7559 216.799 27.3554 215.864 27.9088C214.269 28.8417 212.286 29.0972 210.459 29.6356C208.394 30.2464 206.471 29.9679 205.743 27.7477C205.025 25.5446 206.406 24.1665 208.335 23.0948L208.318 23.103Z" fill="#CABAA8"/>
</g>
<defs>
<clipPath id="clip0_0_372">
<rect width="264.488" height="30.8348" fill="white" transform="translate(0 114.303) rotate(-25.6052)"/>
</clipPath>
</defs>
</svg>
